%TF.GenerationSoftware,KiCad,Pcbnew,8.0.7*%
%TF.CreationDate,2025-04-27T20:59:36+03:00*%
%TF.ProjectId,data_logger_atmega_eeprom,64617461-5f6c-46f6-9767-65725f61746d,rev?*%
%TF.SameCoordinates,Original*%
%TF.FileFunction,Copper,L1,Top*%
%TF.FilePolarity,Positive*%
%FSLAX46Y46*%
G04 Gerber Fmt 4.6, Leading zero omitted, Abs format (unit mm)*
G04 Created by KiCad (PCBNEW 8.0.7) date 2025-04-27 20:59:36*
%MOMM*%
%LPD*%
G01*
G04 APERTURE LIST*
G04 Aperture macros list*
%AMRoundRect*
0 Rectangle with rounded corners*
0 $1 Rounding radius*
0 $2 $3 $4 $5 $6 $7 $8 $9 X,Y pos of 4 corners*
0 Add a 4 corners polygon primitive as box body*
4,1,4,$2,$3,$4,$5,$6,$7,$8,$9,$2,$3,0*
0 Add four circle primitives for the rounded corners*
1,1,$1+$1,$2,$3*
1,1,$1+$1,$4,$5*
1,1,$1+$1,$6,$7*
1,1,$1+$1,$8,$9*
0 Add four rect primitives between the rounded corners*
20,1,$1+$1,$2,$3,$4,$5,0*
20,1,$1+$1,$4,$5,$6,$7,0*
20,1,$1+$1,$6,$7,$8,$9,0*
20,1,$1+$1,$8,$9,$2,$3,0*%
G04 Aperture macros list end*
%TA.AperFunction,ComponentPad*%
%ADD10C,3.800000*%
%TD*%
%TA.AperFunction,ComponentPad*%
%ADD11R,2.600000X2.600000*%
%TD*%
%TA.AperFunction,ComponentPad*%
%ADD12C,2.600000*%
%TD*%
%TA.AperFunction,SMDPad,CuDef*%
%ADD13RoundRect,0.140000X-0.140000X-0.170000X0.140000X-0.170000X0.140000X0.170000X-0.140000X0.170000X0*%
%TD*%
%TA.AperFunction,ComponentPad*%
%ADD14R,1.700000X1.700000*%
%TD*%
%TA.AperFunction,ComponentPad*%
%ADD15O,1.700000X1.700000*%
%TD*%
%TA.AperFunction,SMDPad,CuDef*%
%ADD16RoundRect,0.250000X0.625000X-0.312500X0.625000X0.312500X-0.625000X0.312500X-0.625000X-0.312500X0*%
%TD*%
%TA.AperFunction,SMDPad,CuDef*%
%ADD17R,2.500000X1.900000*%
%TD*%
%TA.AperFunction,SMDPad,CuDef*%
%ADD18RoundRect,0.140000X0.140000X0.170000X-0.140000X0.170000X-0.140000X-0.170000X0.140000X-0.170000X0*%
%TD*%
%TA.AperFunction,SMDPad,CuDef*%
%ADD19RoundRect,0.250000X0.375000X0.625000X-0.375000X0.625000X-0.375000X-0.625000X0.375000X-0.625000X0*%
%TD*%
%TA.AperFunction,ComponentPad*%
%ADD20O,1.600000X1.600000*%
%TD*%
%TA.AperFunction,ComponentPad*%
%ADD21R,1.600000X1.600000*%
%TD*%
%TA.AperFunction,SMDPad,CuDef*%
%ADD22RoundRect,0.250000X0.625000X-0.375000X0.625000X0.375000X-0.625000X0.375000X-0.625000X-0.375000X0*%
%TD*%
%TA.AperFunction,SMDPad,CuDef*%
%ADD23RoundRect,0.073750X-0.911250X-0.221250X0.911250X-0.221250X0.911250X0.221250X-0.911250X0.221250X0*%
%TD*%
%TA.AperFunction,SMDPad,CuDef*%
%ADD24RoundRect,0.200000X0.200000X0.275000X-0.200000X0.275000X-0.200000X-0.275000X0.200000X-0.275000X0*%
%TD*%
%TA.AperFunction,ComponentPad*%
%ADD25R,1.800000X1.800000*%
%TD*%
%TA.AperFunction,ComponentPad*%
%ADD26O,1.800000X1.800000*%
%TD*%
%TA.AperFunction,SMDPad,CuDef*%
%ADD27RoundRect,0.200000X-0.200000X-0.275000X0.200000X-0.275000X0.200000X0.275000X-0.200000X0.275000X0*%
%TD*%
%TA.AperFunction,ComponentPad*%
%ADD28C,2.000000*%
%TD*%
%TA.AperFunction,ViaPad*%
%ADD29C,0.600000*%
%TD*%
%TA.AperFunction,Conductor*%
%ADD30C,0.200000*%
%TD*%
G04 APERTURE END LIST*
D10*
%TO.P,H2,1*%
%TO.N,N/C*%
X127180000Y-95810000D03*
%TD*%
%TO.P,H1,1*%
%TO.N,N/C*%
X182960000Y-49250000D03*
%TD*%
D11*
%TO.P,J7,1,Pin_1*%
%TO.N,GND*%
X135895000Y-54025000D03*
D12*
%TO.P,J7,2,Pin_2*%
%TO.N,Net-(D1-A)*%
X130815000Y-54025000D03*
%TD*%
D13*
%TO.P,C5,1*%
%TO.N,+5V*%
X134970000Y-60560000D03*
%TO.P,C5,2*%
%TO.N,GND*%
X135930000Y-60560000D03*
%TD*%
%TO.P,C4,1*%
%TO.N,+5V*%
X131530000Y-60520000D03*
%TO.P,C4,2*%
%TO.N,GND*%
X132490000Y-60520000D03*
%TD*%
%TO.P,C3,1*%
%TO.N,Net-(D1-A)*%
X128640000Y-60600000D03*
%TO.P,C3,2*%
%TO.N,GND*%
X129600000Y-60600000D03*
%TD*%
D14*
%TO.P,J1,1,Pin_1*%
%TO.N,SCL{slash}PC5*%
X152290000Y-50990000D03*
D15*
%TO.P,J1,2,Pin_2*%
%TO.N,SDA{slash}PC4*%
X154830000Y-50990000D03*
%TO.P,J1,3,Pin_3*%
%TO.N,+5V*%
X157370000Y-50990000D03*
%TO.P,J1,4,Pin_4*%
%TO.N,GND*%
X159910000Y-50990000D03*
%TD*%
D16*
%TO.P,R5,1*%
%TO.N,+5V*%
X140550000Y-61152500D03*
%TO.P,R5,2*%
%TO.N,Net-(D2-A)*%
X140550000Y-58227500D03*
%TD*%
D17*
%TO.P,Y2,2,2*%
%TO.N,Net-(U4-X1)*%
X141110000Y-78610000D03*
%TO.P,Y2,1,1*%
%TO.N,Net-(U4-X2)*%
X141110000Y-83010000D03*
%TD*%
D14*
%TO.P,J6,1,Pin_1*%
%TO.N,TX{slash}PD0*%
X179150000Y-55405000D03*
D15*
%TO.P,J6,2,Pin_2*%
%TO.N,RX{slash}PD1*%
X179150000Y-57945000D03*
%TO.P,J6,3,Pin_3*%
%TO.N,PD2*%
X179150000Y-60485000D03*
%TO.P,J6,4,Pin_4*%
%TO.N,PD3*%
X179150000Y-63025000D03*
%TO.P,J6,5,Pin_5*%
%TO.N,PD4*%
X179150000Y-65565000D03*
%TO.P,J6,6,Pin_6*%
%TO.N,PD5*%
X179150000Y-68105000D03*
%TO.P,J6,7,Pin_7*%
%TO.N,PD6*%
X179150000Y-70645000D03*
%TO.P,J6,8,Pin_8*%
%TO.N,PD7*%
X179150000Y-73185000D03*
%TD*%
D14*
%TO.P,J5,1,Pin_1*%
%TO.N,PB0*%
X130310000Y-86900000D03*
D15*
%TO.P,J5,2,Pin_2*%
%TO.N,PB1*%
X130310000Y-84360000D03*
%TO.P,J5,3,Pin_3*%
%TO.N,PB2*%
X130310000Y-81820000D03*
%TO.P,J5,4,Pin_4*%
%TO.N,MISO{slash}PB3*%
X130310000Y-79280000D03*
%TO.P,J5,5,Pin_5*%
%TO.N,MOSI{slash}PB4*%
X130310000Y-76740000D03*
%TO.P,J5,6,Pin_6*%
%TO.N,SCK{slash}PB5*%
X130310000Y-74200000D03*
%TO.P,J5,7,Pin_7*%
%TO.N,XTAL1{slash}PB6*%
X130310000Y-71660000D03*
%TO.P,J5,8,Pin_8*%
%TO.N,XTAL2{slash}PB7*%
X130310000Y-69120000D03*
%TD*%
D18*
%TO.P,C2,1*%
%TO.N,XTAL2{slash}PB7*%
X137770000Y-91990000D03*
%TO.P,C2,2*%
%TO.N,GND*%
X136810000Y-91990000D03*
%TD*%
D19*
%TO.P,D3,1,K*%
%TO.N,GND*%
X168710000Y-85550000D03*
%TO.P,D3,2,A*%
%TO.N,Net-(D3-A)*%
X165910000Y-85550000D03*
%TD*%
D20*
%TO.P,U2,8,VCC*%
%TO.N,+5V*%
X161820000Y-73410000D03*
%TO.P,U2,7,WP*%
%TO.N,GND*%
X164360000Y-73410000D03*
%TO.P,U2,6,SCL*%
%TO.N,SCL{slash}PC5*%
X166900000Y-73410000D03*
%TO.P,U2,5,SDA*%
%TO.N,SDA{slash}PC4*%
X169440000Y-73410000D03*
%TO.P,U2,4,GND*%
%TO.N,GND*%
X169440000Y-81030000D03*
%TO.P,U2,3,A2*%
%TO.N,+5V*%
X166900000Y-81030000D03*
%TO.P,U2,2,A1*%
%TO.N,EEPROM2{slash}PC3*%
X164360000Y-81030000D03*
D21*
%TO.P,U2,1,A0*%
%TO.N,EEPROM1{slash}PC2*%
X161820000Y-81030000D03*
%TD*%
D22*
%TO.P,D2,1,K*%
%TO.N,GND*%
X143510000Y-61070000D03*
%TO.P,D2,2,A*%
%TO.N,Net-(D2-A)*%
X143510000Y-58270000D03*
%TD*%
D14*
%TO.P,J3,1,Pin_1*%
%TO.N,unconnected-(J3-Pin_1-Pad1)*%
X159930000Y-95150000D03*
D15*
%TO.P,J3,2,Pin_2*%
%TO.N,SCK{slash}PB5*%
X162470000Y-95150000D03*
%TO.P,J3,3,Pin_3*%
%TO.N,MOSI{slash}PB4*%
X165010000Y-95150000D03*
%TO.P,J3,4,Pin_4*%
%TO.N,MISO{slash}PB3*%
X167550000Y-95150000D03*
%TO.P,J3,5,Pin_5*%
%TO.N,+5V*%
X170090000Y-95150000D03*
%TO.P,J3,6,Pin_6*%
%TO.N,GND*%
X172630000Y-95150000D03*
%TD*%
D21*
%TO.P,U3,1,A0*%
%TO.N,EEPROM1{slash}PC2*%
X161950000Y-68350000D03*
D20*
%TO.P,U3,2,A1*%
%TO.N,EEPROM2{slash}PC3*%
X164490000Y-68350000D03*
%TO.P,U3,3,A2*%
%TO.N,+5V*%
X167030000Y-68350000D03*
%TO.P,U3,4,GND*%
%TO.N,GND*%
X169570000Y-68350000D03*
%TO.P,U3,5,SDA*%
%TO.N,SDA{slash}PC4*%
X169570000Y-60730000D03*
%TO.P,U3,6,SCL*%
%TO.N,SCL{slash}PC5*%
X167030000Y-60730000D03*
%TO.P,U3,7,WP*%
%TO.N,GND*%
X164490000Y-60730000D03*
%TO.P,U3,8,VCC*%
%TO.N,+5V*%
X161950000Y-60730000D03*
%TD*%
D23*
%TO.P,U4,1,X1*%
%TO.N,Net-(U4-X1)*%
X136655000Y-67435000D03*
%TO.P,U4,2,X2*%
%TO.N,Net-(U4-X2)*%
X136655000Y-68705000D03*
%TO.P,U4,3,~{INTA}*%
%TO.N,Net-(U4-~{INTA})*%
X136655000Y-69975000D03*
%TO.P,U4,4,GND*%
%TO.N,GND*%
X136655000Y-71245000D03*
%TO.P,U4,5,SDA*%
%TO.N,SDA{slash}PC4*%
X141605000Y-71245000D03*
%TO.P,U4,6,SCL*%
%TO.N,SCL{slash}PC5*%
X141605000Y-69975000D03*
%TO.P,U4,7,SQW/~INT*%
%TO.N,Net-(U4-SQW{slash}~INT)*%
X141605000Y-68705000D03*
%TO.P,U4,8,VCC*%
%TO.N,+5V*%
X141605000Y-67435000D03*
%TD*%
D24*
%TO.P,R4,1*%
%TO.N,+5V*%
X139235000Y-73440000D03*
%TO.P,R4,2*%
%TO.N,Net-(U4-~{INTA})*%
X137585000Y-73440000D03*
%TD*%
D25*
%TO.P,D1,1,K*%
%TO.N,+5V*%
X136630000Y-63030000D03*
D26*
%TO.P,D1,2,A*%
%TO.N,Net-(D1-A)*%
X129010000Y-63030000D03*
%TD*%
D14*
%TO.P,J2,1,Pin_1*%
%TO.N,unconnected-(J2-Pin_1-Pad1)*%
X167110000Y-50940000D03*
D15*
%TO.P,J2,2,Pin_2*%
%TO.N,+5V*%
X169650000Y-50940000D03*
%TO.P,J2,3,Pin_3*%
%TO.N,TX{slash}PD0*%
X172190000Y-50940000D03*
%TO.P,J2,4,Pin_4*%
%TO.N,RX{slash}PD1*%
X174730000Y-50940000D03*
%TO.P,J2,5,Pin_5*%
%TO.N,GND*%
X177270000Y-50940000D03*
%TD*%
D27*
%TO.P,R3,1*%
%TO.N,+5V*%
X137575000Y-75180000D03*
%TO.P,R3,2*%
%TO.N,Net-(U4-SQW{slash}~INT)*%
X139225000Y-75180000D03*
%TD*%
D17*
%TO.P,Y1,1,1*%
%TO.N,XTAL2{slash}PB7*%
X141240000Y-92300000D03*
%TO.P,Y1,2,2*%
%TO.N,XTAL1{slash}PB6*%
X141240000Y-87900000D03*
%TD*%
D21*
%TO.P,U1,1,~{RESET}/PC6*%
%TO.N,Net-(U1-~{RESET}{slash}PC6)*%
X147890000Y-58740000D03*
D20*
%TO.P,U1,2,PD0*%
%TO.N,TX{slash}PD0*%
X147890000Y-61280000D03*
%TO.P,U1,3,PD1*%
%TO.N,RX{slash}PD1*%
X147890000Y-63820000D03*
%TO.P,U1,4,PD2*%
%TO.N,PD2*%
X147890000Y-66360000D03*
%TO.P,U1,5,PD3*%
%TO.N,PD3*%
X147890000Y-68900000D03*
%TO.P,U1,6,PD4*%
%TO.N,PD4*%
X147890000Y-71440000D03*
%TO.P,U1,7,VCC*%
%TO.N,+5V*%
X147890000Y-73980000D03*
%TO.P,U1,8,GND*%
%TO.N,GND*%
X147890000Y-76520000D03*
%TO.P,U1,9,XTAL1/PB6*%
%TO.N,XTAL1{slash}PB6*%
X147890000Y-79060000D03*
%TO.P,U1,10,XTAL2/PB7*%
%TO.N,XTAL2{slash}PB7*%
X147890000Y-81600000D03*
%TO.P,U1,11,PD5*%
%TO.N,PD5*%
X147890000Y-84140000D03*
%TO.P,U1,12,PD6*%
%TO.N,PD6*%
X147890000Y-86680000D03*
%TO.P,U1,13,PD7*%
%TO.N,PD7*%
X147890000Y-89220000D03*
%TO.P,U1,14,PB0*%
%TO.N,PB0*%
X147890000Y-91760000D03*
%TO.P,U1,15,PB1*%
%TO.N,PB1*%
X155510000Y-91760000D03*
%TO.P,U1,16,PB2*%
%TO.N,PB2*%
X155510000Y-89220000D03*
%TO.P,U1,17,PB3*%
%TO.N,MISO{slash}PB3*%
X155510000Y-86680000D03*
%TO.P,U1,18,PB4*%
%TO.N,MOSI{slash}PB4*%
X155510000Y-84140000D03*
%TO.P,U1,19,PB5*%
%TO.N,SCK{slash}PB5*%
X155510000Y-81600000D03*
%TO.P,U1,20,AVCC*%
%TO.N,unconnected-(U1-AVCC-Pad20)*%
X155510000Y-79060000D03*
%TO.P,U1,21,AREF*%
%TO.N,unconnected-(U1-AREF-Pad21)*%
X155510000Y-76520000D03*
%TO.P,U1,22,GND*%
%TO.N,GND*%
X155510000Y-73980000D03*
%TO.P,U1,23,PC0*%
%TO.N,PC0*%
X155510000Y-71440000D03*
%TO.P,U1,24,PC1*%
%TO.N,PC1*%
X155510000Y-68900000D03*
%TO.P,U1,25,PC2*%
%TO.N,EEPROM1{slash}PC2*%
X155510000Y-66360000D03*
%TO.P,U1,26,PC3*%
%TO.N,EEPROM2{slash}PC3*%
X155510000Y-63820000D03*
%TO.P,U1,27,PC4*%
%TO.N,SDA{slash}PC4*%
X155510000Y-61280000D03*
%TO.P,U1,28,PC5*%
%TO.N,SCL{slash}PC5*%
X155510000Y-58740000D03*
%TD*%
D18*
%TO.P,C1,1*%
%TO.N,XTAL1{slash}PB6*%
X137680000Y-87700000D03*
%TO.P,C1,2*%
%TO.N,GND*%
X136720000Y-87700000D03*
%TD*%
D14*
%TO.P,J4,1,Pin_1*%
%TO.N,PC0*%
X179430000Y-79610000D03*
D15*
%TO.P,J4,2,Pin_2*%
%TO.N,PC1*%
X179430000Y-82150000D03*
%TO.P,J4,3,Pin_3*%
%TO.N,EEPROM1{slash}PC2*%
X179430000Y-84690000D03*
%TO.P,J4,4,Pin_4*%
%TO.N,EEPROM2{slash}PC3*%
X179430000Y-87230000D03*
%TO.P,J4,5,Pin_5*%
%TO.N,SDA{slash}PC4*%
X179430000Y-89770000D03*
%TO.P,J4,6,Pin_6*%
%TO.N,SCL{slash}PC5*%
X179430000Y-92310000D03*
%TD*%
D24*
%TO.P,R2,1*%
%TO.N,SCL{slash}PC5*%
X160685000Y-56710000D03*
%TO.P,R2,2*%
%TO.N,+5V*%
X159035000Y-56710000D03*
%TD*%
D27*
%TO.P,R6,1*%
%TO.N,SCK{slash}PB5*%
X160875000Y-85560000D03*
%TO.P,R6,2*%
%TO.N,Net-(D3-A)*%
X162525000Y-85560000D03*
%TD*%
D24*
%TO.P,R1,1*%
%TO.N,SDA{slash}PC4*%
X160745000Y-54760000D03*
%TO.P,R1,2*%
%TO.N,+5V*%
X159095000Y-54760000D03*
%TD*%
D28*
%TO.P,SW1,1,1*%
%TO.N,Net-(U1-~{RESET}{slash}PC6)*%
X141230000Y-50200000D03*
X147730000Y-50200000D03*
%TO.P,SW1,2,2*%
%TO.N,GND*%
X141230000Y-54700000D03*
X147730000Y-54700000D03*
%TD*%
D29*
%TO.N,SDA{slash}PC4*%
X172880000Y-90580000D03*
%TO.N,+5V*%
X161535735Y-66244265D03*
X158185735Y-67634265D03*
X161320000Y-70594643D03*
X158060000Y-75130000D03*
X162430000Y-78150000D03*
%TO.N,GND*%
X167630000Y-70190000D03*
X167490000Y-77170000D03*
X143780000Y-72290000D03*
X143780000Y-64760000D03*
%TO.N,SCL{slash}PC5*%
X175290000Y-89720000D03*
%TO.N,SCK{slash}PB5*%
X168570000Y-89010000D03*
%TO.N,MOSI{slash}PB4*%
X159059265Y-89839265D03*
%TO.N,MISO{slash}PB3*%
X160210000Y-89370000D03*
%TO.N,SDA{slash}PC4*%
X150390000Y-73470000D03*
X150460000Y-75970000D03*
%TO.N,SCL{slash}PC5*%
X151600000Y-73530000D03*
X151600000Y-69000000D03*
X151600000Y-76070000D03*
%TO.N,EEPROM2{slash}PC3*%
X152660000Y-73530000D03*
X152680000Y-75960000D03*
%TO.N,EEPROM1{slash}PC2*%
X153500000Y-73380000D03*
X153500000Y-76180000D03*
%TO.N,PC1*%
X159240000Y-72040000D03*
%TO.N,PC0*%
X164020000Y-71440000D03*
X165930000Y-70790000D03*
%TO.N,PD2*%
X151690000Y-65820000D03*
X159000000Y-64420000D03*
X164490000Y-59038530D03*
%TO.N,RX{slash}PD1*%
X153540000Y-62760000D03*
X165760000Y-56071470D03*
%TO.N,TX{slash}PD0*%
X153490000Y-54930000D03*
X165420000Y-54840000D03*
%TO.N,Net-(U4-X1)*%
X135060000Y-74320000D03*
X133480000Y-68590000D03*
%TO.N,XTAL2{slash}PB7*%
X145540000Y-81100000D03*
X144270000Y-77380000D03*
%TO.N,SCL{slash}PC5*%
X145280000Y-68500000D03*
%TO.N,+5V*%
X157410000Y-56740000D03*
X155890000Y-55160000D03*
%TD*%
D30*
%TO.N,SDA{slash}PC4*%
X154780000Y-90580000D02*
X150460000Y-86260000D01*
X150460000Y-86260000D02*
X150460000Y-75970000D01*
X172880000Y-90580000D02*
X154780000Y-90580000D01*
%TO.N,+5V*%
X160714643Y-70594643D02*
X161320000Y-70594643D01*
X158185735Y-68065735D02*
X160714643Y-70594643D01*
X158185735Y-67634265D02*
X158185735Y-68065735D01*
X164924265Y-66244265D02*
X167030000Y-68350000D01*
X161535735Y-66244265D02*
X164924265Y-66244265D01*
X167030000Y-65810000D02*
X161950000Y-60730000D01*
X167030000Y-68350000D02*
X167030000Y-65810000D01*
X160100000Y-75130000D02*
X158060000Y-75130000D01*
X160150000Y-75080000D02*
X160100000Y-75130000D01*
X164020000Y-78150000D02*
X162430000Y-78150000D01*
X166900000Y-81030000D02*
X164020000Y-78150000D01*
%TO.N,GND*%
X167730000Y-70190000D02*
X169570000Y-68350000D01*
X167630000Y-70190000D02*
X167730000Y-70190000D01*
X169440000Y-79120000D02*
X167490000Y-77170000D01*
X169440000Y-81030000D02*
X169440000Y-79120000D01*
X143510000Y-64490000D02*
X143510000Y-61070000D01*
X143780000Y-64760000D02*
X143510000Y-64490000D01*
X143780000Y-72410000D02*
X143780000Y-72290000D01*
X147890000Y-76520000D02*
X143780000Y-72410000D01*
X147070000Y-72700000D02*
X146400000Y-73370000D01*
X150630000Y-74680000D02*
X148650000Y-72700000D01*
X146400000Y-73370000D02*
X146400000Y-75030000D01*
X154810000Y-74680000D02*
X150630000Y-74680000D01*
X148650000Y-72700000D02*
X147070000Y-72700000D01*
X155510000Y-73980000D02*
X154810000Y-74680000D01*
X146400000Y-75030000D02*
X147890000Y-76520000D01*
X169570000Y-65810000D02*
X169570000Y-68350000D01*
X164490000Y-60730000D02*
X169570000Y-65810000D01*
%TO.N,PB0*%
X144900000Y-94750000D02*
X147890000Y-91760000D01*
X135580000Y-94750000D02*
X144900000Y-94750000D01*
X130310000Y-89480000D02*
X135580000Y-94750000D01*
X130310000Y-86900000D02*
X130310000Y-89480000D01*
%TO.N,SCL{slash}PC5*%
X175240000Y-89770000D02*
X175290000Y-89720000D01*
X162890000Y-89770000D02*
X175240000Y-89770000D01*
%TO.N,SCK{slash}PB5*%
X168570000Y-89010000D02*
X168140000Y-88580000D01*
X168140000Y-88580000D02*
X163895000Y-88580000D01*
X163895000Y-88580000D02*
X160875000Y-85560000D01*
%TO.N,MOSI{slash}PB4*%
X153980000Y-84830000D02*
X154670000Y-84140000D01*
X153980000Y-86920000D02*
X153980000Y-84830000D01*
X155000000Y-87940000D02*
X153980000Y-86920000D01*
X154670000Y-84140000D02*
X155510000Y-84140000D01*
X159059265Y-89839265D02*
X157160000Y-87940000D01*
X157160000Y-87940000D02*
X155000000Y-87940000D01*
%TO.N,MISO{slash}PB3*%
X159860000Y-89370000D02*
X157170000Y-86680000D01*
X160210000Y-89370000D02*
X159860000Y-89370000D01*
X157170000Y-86680000D02*
X155510000Y-86680000D01*
%TO.N,+5V*%
X149650000Y-88350000D02*
X149650000Y-75080000D01*
X167070000Y-92860000D02*
X154160000Y-92860000D01*
X167090000Y-92840000D02*
X167070000Y-92860000D01*
X167780000Y-92840000D02*
X167090000Y-92840000D01*
X170090000Y-95150000D02*
X167780000Y-92840000D01*
X154160000Y-92860000D02*
X149650000Y-88350000D01*
X148990000Y-75080000D02*
X149650000Y-75080000D01*
%TO.N,RX{slash}PD1*%
X181570000Y-53770000D02*
X181570000Y-56500000D01*
X180125000Y-57945000D02*
X179150000Y-57945000D01*
X181130000Y-53330000D02*
X181570000Y-53770000D01*
X177120000Y-53330000D02*
X181130000Y-53330000D01*
X181570000Y-56500000D02*
X180125000Y-57945000D01*
X174730000Y-50940000D02*
X177120000Y-53330000D01*
%TO.N,TX{slash}PD0*%
X176655000Y-55405000D02*
X179150000Y-55405000D01*
X172190000Y-50940000D02*
X176655000Y-55405000D01*
%TO.N,SCL{slash}PC5*%
X154930000Y-82940000D02*
X151600000Y-79610000D01*
X151600000Y-79610000D02*
X151600000Y-76070000D01*
X156060000Y-82940000D02*
X154930000Y-82940000D01*
X162890000Y-89770000D02*
X156060000Y-82940000D01*
%TO.N,SDA{slash}PC4*%
X150390000Y-69590000D02*
X149995000Y-69195000D01*
X150390000Y-73470000D02*
X150390000Y-69590000D01*
X149995000Y-69195000D02*
X154269999Y-64920000D01*
X148969999Y-70220000D02*
X149995000Y-69195000D01*
%TO.N,SCL{slash}PC5*%
X151560000Y-73490000D02*
X151560000Y-69040000D01*
X151600000Y-73530000D02*
X151560000Y-73490000D01*
X151560000Y-69040000D02*
X151600000Y-69000000D01*
%TO.N,EEPROM2{slash}PC3*%
X152650000Y-67490000D02*
X155510000Y-64630000D01*
X152650000Y-73520000D02*
X152650000Y-67490000D01*
X152660000Y-73530000D02*
X152650000Y-73520000D01*
X155510000Y-64630000D02*
X155510000Y-63820000D01*
X175840000Y-83640000D02*
X179430000Y-87230000D01*
X159590000Y-83640000D02*
X175840000Y-83640000D01*
X156250000Y-80300000D02*
X159590000Y-83640000D01*
X152680000Y-78680000D02*
X154300000Y-80300000D01*
X152680000Y-75960000D02*
X152680000Y-78680000D01*
X154300000Y-80300000D02*
X156250000Y-80300000D01*
%TO.N,EEPROM1{slash}PC2*%
X177420000Y-82680000D02*
X179430000Y-84690000D01*
X156150000Y-77800000D02*
X161030000Y-82680000D01*
X154220000Y-77800000D02*
X156150000Y-77800000D01*
X153500000Y-77080000D02*
X154220000Y-77800000D01*
X153500000Y-76180000D02*
X153500000Y-77080000D01*
X161030000Y-82680000D02*
X177420000Y-82680000D01*
X153470000Y-73350000D02*
X153470000Y-68400000D01*
X153500000Y-73380000D02*
X153470000Y-73350000D01*
X153470000Y-68400000D02*
X155510000Y-66360000D01*
%TO.N,+5V*%
X160150000Y-75080000D02*
X161820000Y-73410000D01*
X147890000Y-73980000D02*
X148990000Y-75080000D01*
%TO.N,PC1*%
X163130000Y-72810000D02*
X162360000Y-72040000D01*
X162360000Y-72040000D02*
X159240000Y-72040000D01*
X172940000Y-75660000D02*
X164714365Y-75660000D01*
X164714365Y-75660000D02*
X163130000Y-74075635D01*
X179430000Y-82150000D02*
X172940000Y-75660000D01*
X163130000Y-74075635D02*
X163130000Y-72810000D01*
%TO.N,PC0*%
X170610000Y-70790000D02*
X165930000Y-70790000D01*
X164020000Y-71440000D02*
X155510000Y-71440000D01*
X179430000Y-79610000D02*
X170610000Y-70790000D01*
%TO.N,PD2*%
X162085835Y-59038530D02*
X164490000Y-59038530D01*
X159670000Y-61454365D02*
X162085835Y-59038530D01*
X159000000Y-64420000D02*
X159670000Y-63750000D01*
X159670000Y-63750000D02*
X159670000Y-61454365D01*
X151150000Y-66360000D02*
X147890000Y-66360000D01*
X151690000Y-65820000D02*
X151150000Y-66360000D01*
%TO.N,RX{slash}PD1*%
X152480000Y-63820000D02*
X147890000Y-63820000D01*
X153540000Y-62760000D02*
X152480000Y-63820000D01*
X177276470Y-56071470D02*
X165760000Y-56071470D01*
X179150000Y-57945000D02*
X177276470Y-56071470D01*
%TO.N,TX{slash}PD0*%
X153490000Y-55680000D02*
X147890000Y-61280000D01*
X153490000Y-54930000D02*
X153490000Y-55680000D01*
X165985000Y-55405000D02*
X165420000Y-54840000D01*
X179150000Y-55405000D02*
X165985000Y-55405000D01*
%TO.N,Net-(U4-X1)*%
X134825000Y-67435000D02*
X136655000Y-67435000D01*
X133670000Y-68590000D02*
X134825000Y-67435000D01*
X133480000Y-68590000D02*
X133670000Y-68590000D01*
X139350000Y-78610000D02*
X135060000Y-74320000D01*
X141110000Y-78610000D02*
X139350000Y-78610000D01*
%TO.N,XTAL2{slash}PB7*%
X145540000Y-78650000D02*
X145540000Y-81100000D01*
X144270000Y-77380000D02*
X145540000Y-78650000D01*
%TO.N,Net-(U1-~{RESET}{slash}PC6)*%
X141230000Y-50200000D02*
X147730000Y-50200000D01*
X146430000Y-55400000D02*
X141230000Y-50200000D01*
X146430000Y-57280000D02*
X146430000Y-55400000D01*
X147890000Y-58740000D02*
X146430000Y-57280000D01*
%TO.N,SCL{slash}PC5*%
X143805000Y-69975000D02*
X145280000Y-68500000D01*
X141605000Y-69975000D02*
X143805000Y-69975000D01*
%TO.N,SDA{slash}PC4*%
X154830000Y-56360000D02*
X155185000Y-56715000D01*
X154830000Y-50990000D02*
X154830000Y-56360000D01*
X156310000Y-55590000D02*
X155185000Y-56715000D01*
X155185000Y-56715000D02*
X153470000Y-58430000D01*
%TO.N,Net-(U4-~{INTA})*%
X134640000Y-71100000D02*
X135765000Y-69975000D01*
X135765000Y-69975000D02*
X136655000Y-69975000D01*
X135760000Y-73440000D02*
X134640000Y-72320000D01*
X137585000Y-73440000D02*
X135760000Y-73440000D01*
X134640000Y-72320000D02*
X134640000Y-71100000D01*
%TO.N,Net-(U4-X2)*%
X135555000Y-68705000D02*
X136655000Y-68705000D01*
X134200000Y-70060000D02*
X135555000Y-68705000D01*
X134200000Y-76100000D02*
X134200000Y-70060000D01*
X141110000Y-83010000D02*
X134200000Y-76100000D01*
%TO.N,SDA{slash}PC4*%
X154269999Y-62520001D02*
X155510000Y-61280000D01*
X147020000Y-70220000D02*
X148969999Y-70220000D01*
X145995000Y-71245000D02*
X147020000Y-70220000D01*
X141605000Y-71245000D02*
X145995000Y-71245000D01*
X154269999Y-64920000D02*
X154269999Y-62520001D01*
%TO.N,+5V*%
X140620000Y-67435000D02*
X141605000Y-67435000D01*
X139235000Y-68820000D02*
X140620000Y-67435000D01*
X139235000Y-73440000D02*
X139235000Y-68820000D01*
X137575000Y-75100000D02*
X139235000Y-73440000D01*
X137575000Y-75180000D02*
X137575000Y-75100000D01*
%TO.N,Net-(U4-~{INTA})*%
X137105000Y-69975000D02*
X136655000Y-69975000D01*
%TO.N,Net-(U4-SQW{slash}~INT)*%
X140620000Y-68705000D02*
X141605000Y-68705000D01*
X140320000Y-69005000D02*
X140620000Y-68705000D01*
X140320000Y-74085000D02*
X140320000Y-69005000D01*
X139225000Y-75180000D02*
X140320000Y-74085000D01*
%TO.N,XTAL1{slash}PB6*%
X147434365Y-80500000D02*
X147440000Y-80500000D01*
X141240000Y-86694365D02*
X147434365Y-80500000D01*
X147440000Y-80500000D02*
X147890000Y-80050000D01*
X147890000Y-80050000D02*
X147890000Y-79060000D01*
X141240000Y-87900000D02*
X141240000Y-86694365D01*
%TO.N,XTAL2{slash}PB7*%
X145720000Y-83770000D02*
X147890000Y-81600000D01*
X145720000Y-87820000D02*
X145720000Y-83770000D01*
X141240000Y-92300000D02*
X145720000Y-87820000D01*
X140930000Y-91990000D02*
X141240000Y-92300000D01*
X137770000Y-91990000D02*
X140930000Y-91990000D01*
%TO.N,XTAL1{slash}PB6*%
X141040000Y-87700000D02*
X141240000Y-87900000D01*
X137680000Y-87700000D02*
X141040000Y-87700000D01*
%TO.N,Net-(D3-A)*%
X165900000Y-85560000D02*
X165910000Y-85550000D01*
X162525000Y-85560000D02*
X165900000Y-85560000D01*
%TO.N,SCK{slash}PB5*%
X159470000Y-85560000D02*
X155510000Y-81600000D01*
X160875000Y-85560000D02*
X159470000Y-85560000D01*
%TO.N,+5V*%
X161290000Y-72880000D02*
X161820000Y-73410000D01*
X166605000Y-53985000D02*
X169650000Y-50940000D01*
X159095000Y-54760000D02*
X159870000Y-53985000D01*
X159870000Y-53985000D02*
X166605000Y-53985000D01*
X159095000Y-52715000D02*
X157370000Y-50990000D01*
X159095000Y-54760000D02*
X159095000Y-52715000D01*
X156290000Y-54760000D02*
X159095000Y-54760000D01*
X155890000Y-55160000D02*
X156290000Y-54760000D01*
X157440000Y-56710000D02*
X157410000Y-56740000D01*
X159035000Y-56710000D02*
X157440000Y-56710000D01*
%TO.N,SCL{slash}PC5*%
X161400000Y-70000000D02*
X158300000Y-66900000D01*
X158300000Y-66900000D02*
X158300000Y-58740000D01*
X158300000Y-58740000D02*
X155510000Y-58740000D01*
X163490000Y-70000000D02*
X161400000Y-70000000D01*
X158655000Y-58740000D02*
X158300000Y-58740000D01*
X166900000Y-73410000D02*
X163490000Y-70000000D01*
%TO.N,SDA{slash}PC4*%
X163600000Y-54760000D02*
X160745000Y-54760000D01*
X169570000Y-60730000D02*
X163600000Y-54760000D01*
%TO.N,SCL{slash}PC5*%
X163010000Y-56710000D02*
X160685000Y-56710000D01*
X167030000Y-60730000D02*
X163010000Y-56710000D01*
%TO.N,SDA{slash}PC4*%
X153470000Y-59240000D02*
X155510000Y-61280000D01*
X153470000Y-58430000D02*
X153470000Y-59240000D01*
X159915000Y-55590000D02*
X156310000Y-55590000D01*
X160745000Y-54760000D02*
X159915000Y-55590000D01*
%TO.N,SCL{slash}PC5*%
X160685000Y-56710000D02*
X158655000Y-58740000D01*
%TO.N,+5V*%
X137200000Y-63030000D02*
X141605000Y-67435000D01*
X136630000Y-63030000D02*
X137200000Y-63030000D01*
%TO.N,Net-(D2-A)*%
X143467500Y-58227500D02*
X143510000Y-58270000D01*
X140550000Y-58227500D02*
X143467500Y-58227500D01*
%TO.N,+5V*%
X138672500Y-63030000D02*
X140550000Y-61152500D01*
X136630000Y-63030000D02*
X138672500Y-63030000D01*
X132720000Y-61686134D02*
X132720000Y-61130000D01*
X134063866Y-63030000D02*
X132720000Y-61686134D01*
X136630000Y-63030000D02*
X134063866Y-63030000D01*
X132720000Y-61130000D02*
X134400000Y-61130000D01*
X132140000Y-61130000D02*
X132720000Y-61130000D01*
X134400000Y-61130000D02*
X134970000Y-60560000D01*
X131530000Y-60520000D02*
X132140000Y-61130000D01*
%TO.N,Net-(D1-A)*%
X128640000Y-62660000D02*
X129010000Y-63030000D01*
X128640000Y-60600000D02*
X128640000Y-62660000D01*
X128640000Y-56200000D02*
X128640000Y-60600000D01*
X130815000Y-54025000D02*
X128640000Y-56200000D01*
%TD*%
%TA.AperFunction,Conductor*%
%TO.N,GND*%
G36*
X146545087Y-71646662D02*
G01*
X146601020Y-71688533D01*
X146621529Y-71730751D01*
X146663258Y-71886488D01*
X146663261Y-71886497D01*
X146759431Y-72092732D01*
X146759432Y-72092734D01*
X146889954Y-72279141D01*
X147050858Y-72440045D01*
X147085784Y-72464500D01*
X147237266Y-72570568D01*
X147275850Y-72588560D01*
X147295275Y-72597618D01*
X147347714Y-72643791D01*
X147366866Y-72710984D01*
X147346650Y-72777865D01*
X147295275Y-72822382D01*
X147237267Y-72849431D01*
X147237265Y-72849432D01*
X147050858Y-72979954D01*
X146889954Y-73140858D01*
X146759432Y-73327265D01*
X146759431Y-73327267D01*
X146663261Y-73533502D01*
X146663258Y-73533511D01*
X146604366Y-73753302D01*
X146604364Y-73753313D01*
X146584532Y-73979998D01*
X146584532Y-73980001D01*
X146604364Y-74206686D01*
X146604366Y-74206697D01*
X146663258Y-74426488D01*
X146663261Y-74426497D01*
X146759431Y-74632732D01*
X146759432Y-74632734D01*
X146889954Y-74819141D01*
X147050858Y-74980045D01*
X147050861Y-74980047D01*
X147237266Y-75110568D01*
X147295865Y-75137893D01*
X147348305Y-75184065D01*
X147367457Y-75251258D01*
X147347242Y-75318139D01*
X147295867Y-75362657D01*
X147237515Y-75389867D01*
X147051179Y-75520342D01*
X146890342Y-75681179D01*
X146759865Y-75867517D01*
X146663734Y-76073673D01*
X146663730Y-76073682D01*
X146611127Y-76269999D01*
X146611128Y-76270000D01*
X147574314Y-76270000D01*
X147569920Y-76274394D01*
X147517259Y-76365606D01*
X147490000Y-76467339D01*
X147490000Y-76572661D01*
X147517259Y-76674394D01*
X147569920Y-76765606D01*
X147574314Y-76770000D01*
X146611128Y-76770000D01*
X146663730Y-76966317D01*
X146663734Y-76966326D01*
X146759865Y-77172482D01*
X146890342Y-77358820D01*
X147051179Y-77519657D01*
X147237518Y-77650134D01*
X147237520Y-77650135D01*
X147295865Y-77677342D01*
X147348305Y-77723514D01*
X147367457Y-77790707D01*
X147347242Y-77857589D01*
X147295867Y-77902105D01*
X147237268Y-77929431D01*
X147237264Y-77929433D01*
X147050858Y-78059954D01*
X146889954Y-78220858D01*
X146759432Y-78407265D01*
X146759431Y-78407267D01*
X146663261Y-78613502D01*
X146663258Y-78613511D01*
X146604366Y-78833302D01*
X146604364Y-78833313D01*
X146584532Y-79059998D01*
X146584532Y-79060001D01*
X146604364Y-79286686D01*
X146604366Y-79286697D01*
X146663258Y-79506488D01*
X146663261Y-79506497D01*
X146759431Y-79712732D01*
X146759432Y-79712734D01*
X146889951Y-79899137D01*
X146889952Y-79899138D01*
X146889953Y-79899139D01*
X146950291Y-79959477D01*
X146983775Y-80020798D01*
X146978791Y-80090490D01*
X146950290Y-80134838D01*
X146402310Y-80682818D01*
X146340987Y-80716303D01*
X146271295Y-80711319D01*
X146215362Y-80669447D01*
X146209636Y-80661110D01*
X146171208Y-80599954D01*
X146169816Y-80597738D01*
X146169815Y-80597737D01*
X146167550Y-80594896D01*
X146166659Y-80592713D01*
X146166112Y-80591843D01*
X146166264Y-80591747D01*
X146141144Y-80530209D01*
X146140500Y-80517587D01*
X146140500Y-78570943D01*
X146140499Y-78570939D01*
X146126226Y-78517670D01*
X146126226Y-78517669D01*
X146099577Y-78418215D01*
X146099575Y-78418212D01*
X146099575Y-78418210D01*
X146099574Y-78418209D01*
X146065723Y-78359578D01*
X146065721Y-78359576D01*
X146065719Y-78359573D01*
X146020520Y-78281284D01*
X145908716Y-78169480D01*
X145908715Y-78169479D01*
X145904385Y-78165149D01*
X145904374Y-78165139D01*
X145100700Y-77361465D01*
X145067215Y-77300142D01*
X145065163Y-77287686D01*
X145055368Y-77200745D01*
X144995789Y-77030478D01*
X144899816Y-76877738D01*
X144772262Y-76750184D01*
X144619523Y-76654211D01*
X144449254Y-76594631D01*
X144449249Y-76594630D01*
X144270004Y-76574435D01*
X144269996Y-76574435D01*
X144090750Y-76594630D01*
X144090745Y-76594631D01*
X143920476Y-76654211D01*
X143767737Y-76750184D01*
X143640184Y-76877737D01*
X143544211Y-77030476D01*
X143484631Y-77200745D01*
X143484630Y-77200750D01*
X143464435Y-77379996D01*
X143464435Y-77380003D01*
X143484630Y-77559249D01*
X143484631Y-77559254D01*
X143544211Y-77729523D01*
X143623641Y-77855934D01*
X143640184Y-77882262D01*
X143767738Y-78009816D01*
X143920478Y-78105789D01*
X144090745Y-78165368D01*
X144177669Y-78175161D01*
X144242080Y-78202226D01*
X144251465Y-78210700D01*
X144903181Y-78862416D01*
X144936666Y-78923739D01*
X144939500Y-78950097D01*
X144939500Y-80517587D01*
X144919815Y-80584626D01*
X144912450Y-80594896D01*
X144910186Y-80597734D01*
X144814211Y-80750476D01*
X144754631Y-80920745D01*
X144754630Y-80920750D01*
X144734435Y-81099996D01*
X144734435Y-81100003D01*
X144754630Y-81279249D01*
X144754631Y-81279254D01*
X144814211Y-81449523D01*
X144910184Y-81602262D01*
X145037739Y-81729817D01*
X145101110Y-81769636D01*
X145147400Y-81821971D01*
X145158048Y-81891024D01*
X145129673Y-81954872D01*
X145122818Y-81962310D01*
X143072180Y-84012948D01*
X143010857Y-84046433D01*
X142941165Y-84041449D01*
X142885232Y-83999577D01*
X142860815Y-83934113D01*
X142860499Y-83925293D01*
X142860499Y-82012128D01*
X142854091Y-81952517D01*
X142839947Y-81914596D01*
X142803797Y-81817671D01*
X142803793Y-81817664D01*
X142717547Y-81702455D01*
X142717544Y-81702452D01*
X142602335Y-81616206D01*
X142602328Y-81616202D01*
X142467482Y-81565908D01*
X142467483Y-81565908D01*
X142407883Y-81559501D01*
X142407881Y-81559500D01*
X142407873Y-81559500D01*
X142407865Y-81559500D01*
X140560098Y-81559500D01*
X140493059Y-81539815D01*
X140472417Y-81523181D01*
X134836819Y-75887583D01*
X134803334Y-75826260D01*
X134800500Y-75799902D01*
X134800500Y-75235082D01*
X134820185Y-75168043D01*
X134872989Y-75122288D01*
X134938378Y-75111861D01*
X134967668Y-75115161D01*
X135032080Y-75142226D01*
X135041465Y-75150700D01*
X138865139Y-78974374D01*
X138865149Y-78974385D01*
X138869479Y-78978715D01*
X138869480Y-78978716D01*
X138981284Y-79090520D01*
X139056144Y-79133739D01*
X139068095Y-79140639D01*
X139068097Y-79140641D01*
X139083698Y-79149648D01*
X139118215Y-79169577D01*
X139267595Y-79209603D01*
X139327255Y-79245967D01*
X139357784Y-79308814D01*
X139359501Y-79329377D01*
X139359501Y-79607876D01*
X139365908Y-79667483D01*
X139416202Y-79802328D01*
X139416206Y-79802335D01*
X139502452Y-79917544D01*
X139502455Y-79917547D01*
X139617664Y-80003793D01*
X139617671Y-80003797D01*
X139752517Y-80054091D01*
X139752516Y-80054091D01*
X139759444Y-80054835D01*
X139812127Y-80060500D01*
X142407872Y-80060499D01*
X142467483Y-80054091D01*
X142602331Y-80003796D01*
X142717546Y-79917546D01*
X142803796Y-79802331D01*
X142854091Y-79667483D01*
X142860500Y-79607873D01*
X142860499Y-77612128D01*
X142854091Y-77552517D01*
X142852965Y-77549499D01*
X142803797Y-77417671D01*
X142803793Y-77417664D01*
X142717547Y-77302455D01*
X142717544Y-77302452D01*
X142602335Y-77216206D01*
X142602328Y-77216202D01*
X142467482Y-77165908D01*
X142467483Y-77165908D01*
X142407883Y-77159501D01*
X142407881Y-77159500D01*
X142407873Y-77159500D01*
X142407864Y-77159500D01*
X139812129Y-77159500D01*
X139812123Y-77159501D01*
X139752516Y-77165908D01*
X139617671Y-77216202D01*
X139617664Y-77216206D01*
X139502455Y-77302452D01*
X139502452Y-77302455D01*
X139416206Y-77417664D01*
X139416202Y-77417671D01*
X139372443Y-77534997D01*
X139330572Y-77590931D01*
X139265108Y-77615348D01*
X139196835Y-77600496D01*
X139168580Y-77579345D01*
X137922296Y-76333061D01*
X137888811Y-76271738D01*
X137893795Y-76202046D01*
X137935667Y-76146113D01*
X137973082Y-76126997D01*
X138064606Y-76098478D01*
X138210185Y-76010472D01*
X138219912Y-76000745D01*
X138312319Y-75908339D01*
X138373642Y-75874854D01*
X138443334Y-75879838D01*
X138487681Y-75908339D01*
X138589811Y-76010469D01*
X138589813Y-76010470D01*
X138589815Y-76010472D01*
X138735394Y-76098478D01*
X138897804Y-76149086D01*
X138968384Y-76155500D01*
X138968387Y-76155500D01*
X139481613Y-76155500D01*
X139481616Y-76155500D01*
X139552196Y-76149086D01*
X139714606Y-76098478D01*
X139860185Y-76010472D01*
X139980472Y-75890185D01*
X140068478Y-75744606D01*
X140119086Y-75582196D01*
X140125500Y-75511616D01*
X140125500Y-75180096D01*
X140145185Y-75113057D01*
X140161815Y-75092419D01*
X140678506Y-74575727D01*
X140678511Y-74575724D01*
X140688714Y-74565520D01*
X140688716Y-74565520D01*
X140800520Y-74453716D01*
X140855505Y-74358478D01*
X140879577Y-74316785D01*
X140920501Y-74164057D01*
X140920501Y-74005943D01*
X140920501Y-73998348D01*
X140920500Y-73998330D01*
X140920500Y-72164499D01*
X140940185Y-72097460D01*
X140992989Y-72051705D01*
X141044500Y-72040499D01*
X142553888Y-72040499D01*
X142666151Y-72025720D01*
X142666150Y-72025720D01*
X142666159Y-72025719D01*
X142805853Y-71967856D01*
X142925810Y-71875810D01*
X142925809Y-71875810D01*
X142931917Y-71871124D01*
X142997086Y-71845930D01*
X143007403Y-71845500D01*
X145908331Y-71845500D01*
X145908347Y-71845501D01*
X145915943Y-71845501D01*
X146074054Y-71845501D01*
X146074057Y-71845501D01*
X146226785Y-71804577D01*
X146276904Y-71775639D01*
X146363716Y-71725520D01*
X146414072Y-71675164D01*
X146475395Y-71641678D01*
X146545087Y-71646662D01*
G37*
%TD.AperFunction*%
%TA.AperFunction,Conductor*%
G36*
X158390717Y-72060185D02*
G01*
X158436472Y-72112989D01*
X158446898Y-72150617D01*
X158454630Y-72219249D01*
X158514210Y-72389521D01*
X158588135Y-72507171D01*
X158610184Y-72542262D01*
X158737738Y-72669816D01*
X158819730Y-72721335D01*
X158876913Y-72757266D01*
X158890478Y-72765789D01*
X159052212Y-72822382D01*
X159060745Y-72825368D01*
X159060750Y-72825369D01*
X159239996Y-72845565D01*
X159240000Y-72845565D01*
X159240004Y-72845565D01*
X159419249Y-72825369D01*
X159419252Y-72825368D01*
X159419255Y-72825368D01*
X159589522Y-72765789D01*
X159742262Y-72669816D01*
X159742267Y-72669810D01*
X159745097Y-72667555D01*
X159747275Y-72666665D01*
X159748158Y-72666111D01*
X159748255Y-72666265D01*
X159809783Y-72641145D01*
X159822412Y-72640500D01*
X160549240Y-72640500D01*
X160616279Y-72660185D01*
X160662034Y-72712989D01*
X160671978Y-72782147D01*
X160661622Y-72816903D01*
X160646454Y-72849432D01*
X160593261Y-72963502D01*
X160593258Y-72963511D01*
X160534366Y-73183302D01*
X160534364Y-73183313D01*
X160514532Y-73409998D01*
X160514532Y-73410001D01*
X160534364Y-73636686D01*
X160534366Y-73636697D01*
X160560152Y-73732931D01*
X160558489Y-73802781D01*
X160528058Y-73852705D01*
X159887584Y-74493181D01*
X159826261Y-74526666D01*
X159799903Y-74529500D01*
X158642412Y-74529500D01*
X158575373Y-74509815D01*
X158565097Y-74502445D01*
X158562263Y-74500185D01*
X158562262Y-74500184D01*
X158488302Y-74453712D01*
X158409523Y-74404211D01*
X158239254Y-74344631D01*
X158239249Y-74344630D01*
X158060004Y-74324435D01*
X158059996Y-74324435D01*
X157880750Y-74344630D01*
X157880745Y-74344631D01*
X157710476Y-74404211D01*
X157557737Y-74500184D01*
X157430184Y-74627737D01*
X157334211Y-74780476D01*
X157274631Y-74950745D01*
X157274630Y-74950750D01*
X157254435Y-75129996D01*
X157254435Y-75130003D01*
X157274630Y-75309249D01*
X157274631Y-75309254D01*
X157334211Y-75479523D01*
X157430184Y-75632262D01*
X157557738Y-75759816D01*
X157633331Y-75807314D01*
X157703276Y-75851264D01*
X157710478Y-75855789D01*
X157801340Y-75887583D01*
X157880745Y-75915368D01*
X157880750Y-75915369D01*
X158059996Y-75935565D01*
X158060000Y-75935565D01*
X158060004Y-75935565D01*
X158239249Y-75915369D01*
X158239252Y-75915368D01*
X158239255Y-75915368D01*
X158409522Y-75855789D01*
X158562262Y-75759816D01*
X158562267Y-75759810D01*
X158565097Y-75757555D01*
X158567275Y-75756665D01*
X158568158Y-75756111D01*
X158568255Y-75756265D01*
X158629783Y-75731145D01*
X158642412Y-75730500D01*
X160013331Y-75730500D01*
X160013347Y-75730501D01*
X160020943Y-75730501D01*
X160179054Y-75730501D01*
X160179057Y-75730501D01*
X160331785Y-75689577D01*
X160393222Y-75654106D01*
X160468716Y-75610520D01*
X160580520Y-75498716D01*
X160580520Y-75498715D01*
X160597961Y-75481275D01*
X160597963Y-75481272D01*
X160609236Y-75470000D01*
X160630520Y-75448716D01*
X160630520Y-75448715D01*
X160640722Y-75438514D01*
X160640729Y-75438504D01*
X161377294Y-74701939D01*
X161438615Y-74668456D01*
X161497066Y-74669847D01*
X161516604Y-74675082D01*
X161593308Y-74695635D01*
X161755230Y-74709801D01*
X161819998Y-74715468D01*
X161820000Y-74715468D01*
X161820002Y-74715468D01*
X161876673Y-74710509D01*
X162046692Y-74695635D01*
X162266496Y-74636739D01*
X162472734Y-74540568D01*
X162548051Y-74487830D01*
X162614255Y-74465504D01*
X162682023Y-74482514D01*
X162706854Y-74501725D01*
X162768349Y-74563220D01*
X162768355Y-74563225D01*
X164229504Y-76024374D01*
X164229514Y-76024385D01*
X164233844Y-76028715D01*
X164233845Y-76028716D01*
X164345649Y-76140520D01*
X164345651Y-76140521D01*
X164345655Y-76140524D01*
X164452216Y-76202046D01*
X164482581Y-76219577D01*
X164593341Y-76249255D01*
X164593340Y-76249255D01*
X164604585Y-76252267D01*
X164635307Y-76260500D01*
X164635308Y-76260500D01*
X172639903Y-76260500D01*
X172706942Y-76280185D01*
X172727584Y-76296819D01*
X178097233Y-81666468D01*
X178130718Y-81727791D01*
X178129327Y-81786241D01*
X178094939Y-81914583D01*
X178094936Y-81914596D01*
X178074341Y-82149999D01*
X178074341Y-82150006D01*
X178076776Y-82177846D01*
X178063008Y-82246345D01*
X178014392Y-82296527D01*
X177946363Y-82312459D01*
X177880520Y-82289082D01*
X177865567Y-82276331D01*
X177788717Y-82199481D01*
X177788716Y-82199480D01*
X177701904Y-82149360D01*
X177701904Y-82149359D01*
X177701900Y-82149358D01*
X177651785Y-82120423D01*
X177499057Y-82079499D01*
X177340943Y-82079499D01*
X177333347Y-82079499D01*
X177333331Y-82079500D01*
X170528340Y-82079500D01*
X170461301Y-82059815D01*
X170415546Y-82007011D01*
X170405602Y-81937853D01*
X170434627Y-81874297D01*
X170439037Y-81869560D01*
X170439653Y-81868825D01*
X170570134Y-81682482D01*
X170666265Y-81476326D01*
X170666269Y-81476317D01*
X170718872Y-81280000D01*
X169755686Y-81280000D01*
X169760080Y-81275606D01*
X169812741Y-81184394D01*
X169840000Y-81082661D01*
X169840000Y-80977339D01*
X169812741Y-80875606D01*
X169760080Y-80784394D01*
X169755686Y-80780000D01*
X170718872Y-80780000D01*
X170718872Y-80779999D01*
X170666269Y-80583682D01*
X170666265Y-80583673D01*
X170570134Y-80377517D01*
X170439657Y-80191179D01*
X170278820Y-80030342D01*
X170092482Y-79899865D01*
X169886328Y-79803734D01*
X169690000Y-79751127D01*
X169690000Y-80714314D01*
X169685606Y-80709920D01*
X169594394Y-80657259D01*
X169492661Y-80630000D01*
X169387339Y-80630000D01*
X169285606Y-80657259D01*
X169194394Y-80709920D01*
X169190000Y-80714314D01*
X169190000Y-79751127D01*
X168993671Y-79803734D01*
X168787517Y-79899865D01*
X168601179Y-80030342D01*
X168440342Y-80191179D01*
X168309867Y-80377515D01*
X168282657Y-80435867D01*
X168236484Y-80488306D01*
X168169290Y-80507457D01*
X168102409Y-80487241D01*
X168057893Y-80435865D01*
X168030570Y-80377271D01*
X168030567Y-80377265D01*
X167989418Y-80318498D01*
X167900047Y-80190861D01*
X167900045Y-80190858D01*
X167739141Y-80029954D01*
X167552734Y-79899432D01*
X167552732Y-79899431D01*
X167346497Y-79803261D01*
X167346488Y-79803258D01*
X167126697Y-79744366D01*
X167126693Y-79744365D01*
X167126692Y-79744365D01*
X167126691Y-79744364D01*
X167126686Y-79744364D01*
X166900002Y-79724532D01*
X166899998Y-79724532D01*
X166673313Y-79744364D01*
X166673302Y-79744366D01*
X166577067Y-79770152D01*
X166507217Y-79768489D01*
X166457293Y-79738058D01*
X164507590Y-77788355D01*
X164507588Y-77788352D01*
X164388717Y-77669481D01*
X164388709Y-77669475D01*
X164289378Y-77612127D01*
X164289377Y-77612126D01*
X164289377Y-77612127D01*
X164251785Y-77590423D01*
X164099057Y-77549499D01*
X163940943Y-77549499D01*
X163933347Y-77549499D01*
X163933331Y-77549500D01*
X163012412Y-77549500D01*
X162945373Y-77529815D01*
X162935097Y-77522445D01*
X162932263Y-77520185D01*
X162932262Y-77520184D01*
X162875496Y-77484515D01*
X162779523Y-77424211D01*
X162609254Y-77364631D01*
X162609249Y-77364630D01*
X162430004Y-77344435D01*
X162429996Y-77344435D01*
X162250750Y-77364630D01*
X162250745Y-77364631D01*
X162080476Y-77424211D01*
X161927737Y-77520184D01*
X161800184Y-77647737D01*
X161704211Y-77800476D01*
X161644631Y-77970745D01*
X161644630Y-77970750D01*
X161624435Y-78149995D01*
X161624435Y-78150003D01*
X161644630Y-78329249D01*
X161644631Y-78329254D01*
X161704211Y-78499523D01*
X161752834Y-78576905D01*
X161800184Y-78652262D01*
X161927738Y-78779816D01*
X162080478Y-78875789D01*
X162146054Y-78898735D01*
X162250745Y-78935368D01*
X162250750Y-78935369D01*
X162429996Y-78955565D01*
X162430000Y-78955565D01*
X162430004Y-78955565D01*
X162609249Y-78935369D01*
X162609252Y-78935368D01*
X162609255Y-78935368D01*
X162779522Y-78875789D01*
X162932262Y-78779816D01*
X162932267Y-78779810D01*
X162935097Y-78777555D01*
X162937275Y-78776665D01*
X162938158Y-78776111D01*
X162938255Y-78776265D01*
X162999783Y-78751145D01*
X163012412Y-78750500D01*
X163719903Y-78750500D01*
X163786942Y-78770185D01*
X163807584Y-78786819D01*
X164541336Y-79520571D01*
X164574821Y-79581894D01*
X164569837Y-79651586D01*
X164527965Y-79707519D01*
X164462501Y-79731936D01*
X164442848Y-79731780D01*
X164360002Y-79724532D01*
X164359998Y-79724532D01*
X164133313Y-79744364D01*
X164133302Y-79744366D01*
X163913511Y-79803258D01*
X163913502Y-79803261D01*
X163707267Y-79899431D01*
X163707265Y-79899432D01*
X163520858Y-80029954D01*
X163359954Y-80190858D01*
X163342725Y-80215464D01*
X163288147Y-80259088D01*
X163218648Y-80266280D01*
X163156294Y-80234757D01*
X163120882Y-80174526D01*
X163117861Y-80157591D01*
X163117266Y-80152058D01*
X163114091Y-80122517D01*
X163102157Y-80090521D01*
X163063797Y-79987671D01*
X163063793Y-79987664D01*
X162977547Y-79872455D01*
X162977544Y-79872452D01*
X162862335Y-79786206D01*
X162862328Y-79786202D01*
X162727482Y-79735908D01*
X162727483Y-79735908D01*
X162667883Y-79729501D01*
X162667881Y-79729500D01*
X162667873Y-79729500D01*
X162667864Y-79729500D01*
X160972129Y-79729500D01*
X160972123Y-79729501D01*
X160912516Y-79735908D01*
X160777671Y-79786202D01*
X160777664Y-79786206D01*
X160662455Y-79872452D01*
X160662452Y-79872455D01*
X160576206Y-79987664D01*
X160576202Y-79987671D01*
X160525908Y-80122517D01*
X160519501Y-80182116D01*
X160519500Y-80182135D01*
X160519500Y-81020903D01*
X160499815Y-81087942D01*
X160447011Y-81133697D01*
X160377853Y-81143641D01*
X160314297Y-81114616D01*
X160307819Y-81108584D01*
X156637590Y-77438355D01*
X156637588Y-77438352D01*
X156603522Y-77404286D01*
X156570037Y-77342963D01*
X156575021Y-77273271D01*
X156589624Y-77245488D01*
X156640568Y-77172734D01*
X156736739Y-76966496D01*
X156795635Y-76746692D01*
X156815468Y-76520000D01*
X156814119Y-76504586D01*
X156801960Y-76365606D01*
X156795635Y-76293308D01*
X156743431Y-76098478D01*
X156736741Y-76073511D01*
X156736738Y-76073502D01*
X156712227Y-76020939D01*
X156640568Y-75867266D01*
X156510047Y-75680861D01*
X156510045Y-75680858D01*
X156349141Y-75519954D01*
X156162734Y-75389432D01*
X156162732Y-75389431D01*
X156129715Y-75374035D01*
X156104132Y-75362105D01*
X156051694Y-75315934D01*
X156032542Y-75248740D01*
X156052758Y-75181859D01*
X156104134Y-75137341D01*
X156162484Y-75110132D01*
X156348820Y-74979657D01*
X156509657Y-74818820D01*
X156640134Y-74632482D01*
X156736265Y-74426326D01*
X156736269Y-74426317D01*
X156788872Y-74230000D01*
X155825686Y-74230000D01*
X155830080Y-74225606D01*
X155882741Y-74134394D01*
X155910000Y-74032661D01*
X155910000Y-73927339D01*
X155882741Y-73825606D01*
X155830080Y-73734394D01*
X155825686Y-73730000D01*
X156788872Y-73730000D01*
X156788872Y-73729999D01*
X156736269Y-73533682D01*
X156736265Y-73533673D01*
X156640134Y-73327517D01*
X156509657Y-73141179D01*
X156348820Y-72980342D01*
X156162482Y-72849865D01*
X156104133Y-72822657D01*
X156051694Y-72776484D01*
X156032542Y-72709291D01*
X156052758Y-72642410D01*
X156104129Y-72597895D01*
X156162734Y-72570568D01*
X156349139Y-72440047D01*
X156510047Y-72279139D01*
X156640118Y-72093375D01*
X156694693Y-72049752D01*
X156741692Y-72040500D01*
X158323678Y-72040500D01*
X158390717Y-72060185D01*
G37*
%TD.AperFunction*%
%TA.AperFunction,Conductor*%
G36*
X149708834Y-70432915D02*
G01*
X149764767Y-70474787D01*
X149789184Y-70540251D01*
X149789500Y-70549097D01*
X149789500Y-72887587D01*
X149769815Y-72954626D01*
X149762450Y-72964896D01*
X149760186Y-72967734D01*
X149664211Y-73120476D01*
X149604631Y-73290745D01*
X149604630Y-73290750D01*
X149584435Y-73469996D01*
X149584435Y-73470003D01*
X149604630Y-73649249D01*
X149604631Y-73649254D01*
X149664211Y-73819523D01*
X149755361Y-73964586D01*
X149760184Y-73972262D01*
X149887738Y-74099816D01*
X149978080Y-74156582D01*
X150024206Y-74185565D01*
X150040478Y-74195789D01*
X150167232Y-74240142D01*
X150210745Y-74255368D01*
X150210750Y-74255369D01*
X150389996Y-74275565D01*
X150390000Y-74275565D01*
X150390004Y-74275565D01*
X150569249Y-74255369D01*
X150569252Y-74255368D01*
X150569255Y-74255368D01*
X150739522Y-74195789D01*
X150755794Y-74185565D01*
X150797223Y-74159533D01*
X150892262Y-74099816D01*
X150892263Y-74099814D01*
X150897871Y-74096291D01*
X150965108Y-74077290D01*
X151031943Y-74097657D01*
X151051525Y-74113603D01*
X151097738Y-74159816D01*
X151172331Y-74206686D01*
X151249809Y-74255369D01*
X151250478Y-74255789D01*
X151381013Y-74301465D01*
X151420745Y-74315368D01*
X151420750Y-74315369D01*
X151599996Y-74335565D01*
X151600000Y-74335565D01*
X151600004Y-74335565D01*
X151779249Y-74315369D01*
X151779252Y-74315368D01*
X151779255Y-74315368D01*
X151949522Y-74255789D01*
X151950191Y-74255369D01*
X152000913Y-74223498D01*
X152064028Y-74183839D01*
X152131264Y-74164839D01*
X152195971Y-74183839D01*
X152232349Y-74206697D01*
X152310475Y-74255788D01*
X152480745Y-74315368D01*
X152480750Y-74315369D01*
X152659996Y-74335565D01*
X152660000Y-74335565D01*
X152660004Y-74335565D01*
X152839249Y-74315369D01*
X152839252Y-74315368D01*
X152839255Y-74315368D01*
X153009522Y-74255789D01*
X153162262Y-74159816D01*
X153162262Y-74159815D01*
X153162712Y-74159533D01*
X153229948Y-74140533D01*
X153269637Y-74147484D01*
X153320745Y-74165368D01*
X153380496Y-74172100D01*
X153499996Y-74185565D01*
X153500000Y-74185565D01*
X153500004Y-74185565D01*
X153679249Y-74165369D01*
X153679252Y-74165368D01*
X153679255Y-74165368D01*
X153849522Y-74105789D01*
X154002262Y-74009816D01*
X154129816Y-73882262D01*
X154189027Y-73788027D01*
X154241362Y-73741737D01*
X154294021Y-73730000D01*
X155194314Y-73730000D01*
X155189920Y-73734394D01*
X155137259Y-73825606D01*
X155110000Y-73927339D01*
X155110000Y-74032661D01*
X155137259Y-74134394D01*
X155189920Y-74225606D01*
X155194314Y-74230000D01*
X154231128Y-74230000D01*
X154283730Y-74426317D01*
X154283734Y-74426326D01*
X154379865Y-74632482D01*
X154510342Y-74818820D01*
X154671179Y-74979657D01*
X154857518Y-75110134D01*
X154857520Y-75110135D01*
X154915865Y-75137342D01*
X154968305Y-75183514D01*
X154987457Y-75250707D01*
X154967242Y-75317589D01*
X154915867Y-75362105D01*
X154865833Y-75385437D01*
X154857264Y-75389433D01*
X154670858Y-75519954D01*
X154509953Y-75680859D01*
X154417803Y-75812465D01*
X154363226Y-75856090D01*
X154293728Y-75863284D01*
X154231373Y-75831761D01*
X154211234Y-75807314D01*
X154162969Y-75730501D01*
X154129816Y-75677738D01*
X154002262Y-75550184D01*
X153954769Y-75520342D01*
X153849523Y-75454211D01*
X153679254Y-75394631D01*
X153679249Y-75394630D01*
X153500004Y-75374435D01*
X153499996Y-75374435D01*
X153313825Y-75395411D01*
X153313482Y-75392371D01*
X153257117Y-75388711D01*
X153212007Y-75359929D01*
X153182262Y-75330184D01*
X153029523Y-75234211D01*
X152859254Y-75174631D01*
X152859249Y-75174630D01*
X152680004Y-75154435D01*
X152679996Y-75154435D01*
X152500750Y-75174630D01*
X152500745Y-75174631D01*
X152330476Y-75234211D01*
X152177736Y-75330184D01*
X152150982Y-75356939D01*
X152089658Y-75390423D01*
X152019967Y-75385437D01*
X151997332Y-75374251D01*
X151949519Y-75344209D01*
X151779262Y-75284633D01*
X151779249Y-75284630D01*
X151600004Y-75264435D01*
X151599996Y-75264435D01*
X151420750Y-75284630D01*
X151420745Y-75284631D01*
X151250474Y-75344212D01*
X151159679Y-75401262D01*
X151092442Y-75420262D01*
X151025607Y-75399894D01*
X151006027Y-75383949D01*
X150962262Y-75340184D01*
X150809523Y-75244211D01*
X150639254Y-75184631D01*
X150639249Y-75184630D01*
X150460004Y-75164435D01*
X150459995Y-75164435D01*
X150388382Y-75172503D01*
X150319560Y-75160448D01*
X150268182Y-75113098D01*
X150250500Y-75049283D01*
X150250500Y-75000945D01*
X150250500Y-75000943D01*
X150209577Y-74848216D01*
X150192790Y-74819139D01*
X150130524Y-74711290D01*
X150130518Y-74711282D01*
X150018717Y-74599481D01*
X150018709Y-74599475D01*
X149881790Y-74520426D01*
X149881786Y-74520424D01*
X149881784Y-74520423D01*
X149729057Y-74479500D01*
X149729056Y-74479500D01*
X149290097Y-74479500D01*
X149223058Y-74459815D01*
X149202416Y-74443181D01*
X149181941Y-74422706D01*
X149148456Y-74361383D01*
X149149847Y-74302931D01*
X149150611Y-74300080D01*
X149175635Y-74206692D01*
X149195468Y-73980000D01*
X149194119Y-73964586D01*
X149179902Y-73802083D01*
X149175635Y-73753308D01*
X149116739Y-73533504D01*
X149020568Y-73327266D01*
X148890047Y-73140861D01*
X148890045Y-73140858D01*
X148729141Y-72979954D01*
X148542734Y-72849432D01*
X148542728Y-72849429D01*
X148509715Y-72834035D01*
X148484724Y-72822381D01*
X148432285Y-72776210D01*
X148413133Y-72709017D01*
X148433348Y-72642135D01*
X148484725Y-72597618D01*
X148542734Y-72570568D01*
X148729139Y-72440047D01*
X148890047Y-72279139D01*
X149020568Y-72092734D01*
X149116739Y-71886496D01*
X149175635Y-71666692D01*
X149195468Y-71440000D01*
X149194119Y-71424586D01*
X149179388Y-71256206D01*
X149175635Y-71213308D01*
X149122349Y-71014440D01*
X149116741Y-70993511D01*
X149116740Y-70993510D01*
X149116739Y-70993504D01*
X149099962Y-70957526D01*
X149089470Y-70888448D01*
X149117990Y-70824664D01*
X149176466Y-70786425D01*
X149180215Y-70785356D01*
X149201783Y-70779577D01*
X149338715Y-70700520D01*
X149577819Y-70461416D01*
X149639142Y-70427931D01*
X149708834Y-70432915D01*
G37*
%TD.AperFunction*%
%TA.AperFunction,Conductor*%
G36*
X182090589Y-46755112D02*
G01*
X182157603Y-46774872D01*
X182203298Y-46827727D01*
X182213163Y-46896897D01*
X182184066Y-46960420D01*
X182136093Y-46994403D01*
X181935901Y-47073665D01*
X181671205Y-47219184D01*
X181671193Y-47219191D01*
X181426846Y-47396719D01*
X181426836Y-47396727D01*
X181206652Y-47603494D01*
X181014111Y-47836236D01*
X180852268Y-48091261D01*
X180852265Y-48091267D01*
X180723661Y-48364563D01*
X180723659Y-48364568D01*
X180630320Y-48651835D01*
X180573719Y-48948546D01*
X180573718Y-48948553D01*
X180554754Y-49249994D01*
X180554754Y-49250005D01*
X180573718Y-49551446D01*
X180573719Y-49551453D01*
X180591794Y-49646204D01*
X180630225Y-49847669D01*
X180630320Y-49848164D01*
X180723659Y-50135431D01*
X180723661Y-50135436D01*
X180852265Y-50408732D01*
X180852268Y-50408738D01*
X181014111Y-50663763D01*
X181014114Y-50663767D01*
X181014115Y-50663768D01*
X181147690Y-50825233D01*
X181206652Y-50896505D01*
X181426836Y-51103272D01*
X181426846Y-51103280D01*
X181671193Y-51280808D01*
X181671198Y-51280810D01*
X181671205Y-51280816D01*
X181935896Y-51426332D01*
X181935901Y-51426334D01*
X181935903Y-51426335D01*
X181935904Y-51426336D01*
X182216734Y-51537524D01*
X182216737Y-51537525D01*
X182314259Y-51562564D01*
X182509302Y-51612642D01*
X182607306Y-51625023D01*
X182808963Y-51650499D01*
X182808969Y-51650499D01*
X182808973Y-51650500D01*
X182808975Y-51650500D01*
X183111025Y-51650500D01*
X183111027Y-51650500D01*
X183111032Y-51650499D01*
X183111036Y-51650499D01*
X183236379Y-51634664D01*
X183410698Y-51612642D01*
X183703262Y-51537525D01*
X183823297Y-51490000D01*
X183984095Y-51426336D01*
X183984096Y-51426335D01*
X183984094Y-51426335D01*
X183984104Y-51426332D01*
X184248795Y-51280816D01*
X184493162Y-51103274D01*
X184713349Y-50896504D01*
X184905885Y-50663768D01*
X185067733Y-50408736D01*
X185196341Y-50135430D01*
X185289681Y-49848160D01*
X185346280Y-49551457D01*
X185347925Y-49525311D01*
X185365246Y-49250005D01*
X185365246Y-49249994D01*
X185346281Y-48948553D01*
X185346280Y-48948546D01*
X185346280Y-48948543D01*
X185289681Y-48651840D01*
X185196341Y-48364570D01*
X185067733Y-48091264D01*
X185009594Y-47999652D01*
X184905888Y-47836236D01*
X184867985Y-47790419D01*
X184713349Y-47603496D01*
X184689707Y-47581295D01*
X184493163Y-47396727D01*
X184493153Y-47396719D01*
X184248806Y-47219191D01*
X184248799Y-47219186D01*
X184248795Y-47219184D01*
X183984104Y-47073668D01*
X183984101Y-47073666D01*
X183984096Y-47073664D01*
X183984095Y-47073663D01*
X183788903Y-46996382D01*
X183733817Y-46953401D01*
X183710714Y-46887462D01*
X183726927Y-46819500D01*
X183777310Y-46771092D01*
X183834690Y-46757090D01*
X185284185Y-46758734D01*
X185310393Y-46761568D01*
X185319590Y-46763568D01*
X185336554Y-46768550D01*
X185520407Y-46837123D01*
X185536479Y-46844463D01*
X185708706Y-46938505D01*
X185723575Y-46948061D01*
X185880654Y-47065648D01*
X185894025Y-47077234D01*
X186032765Y-47215974D01*
X186044351Y-47229345D01*
X186161933Y-47386417D01*
X186171496Y-47401297D01*
X186241909Y-47530250D01*
X186265531Y-47573509D01*
X186272879Y-47589599D01*
X186307165Y-47681523D01*
X186341449Y-47773444D01*
X186346433Y-47790419D01*
X186388139Y-47982141D01*
X186390657Y-47999654D01*
X186402349Y-48163145D01*
X186402665Y-48171756D01*
X186405286Y-49559345D01*
X186405286Y-98199780D01*
X186404970Y-98208627D01*
X186390654Y-98408763D01*
X186388136Y-98426275D01*
X186346428Y-98617995D01*
X186341444Y-98634970D01*
X186272875Y-98818809D01*
X186265524Y-98834903D01*
X186171490Y-99007108D01*
X186161926Y-99021991D01*
X186044344Y-99179061D01*
X186032758Y-99192432D01*
X185894018Y-99331171D01*
X185880647Y-99342757D01*
X185723573Y-99460339D01*
X185708689Y-99469904D01*
X185536481Y-99563935D01*
X185520387Y-99571284D01*
X185336549Y-99639850D01*
X185319575Y-99644834D01*
X185127857Y-99686539D01*
X185110344Y-99689057D01*
X184909816Y-99703397D01*
X184900971Y-99703713D01*
X184832303Y-99703713D01*
X184832287Y-99703714D01*
X182174835Y-99703714D01*
X124443430Y-99619810D01*
X124400277Y-99611992D01*
X124291184Y-99571303D01*
X124275090Y-99563953D01*
X124102885Y-99469921D01*
X124088002Y-99460356D01*
X123930923Y-99342768D01*
X123917552Y-99331182D01*
X123778817Y-99192447D01*
X123767231Y-99179076D01*
X123649643Y-99021997D01*
X123640078Y-99007114D01*
X123608607Y-98949479D01*
X123546043Y-98834903D01*
X123538700Y-98818825D01*
X123494309Y-98699809D01*
X123486494Y-98657137D01*
X123471456Y-95809994D01*
X124774754Y-95809994D01*
X124774754Y-95810005D01*
X124793718Y-96111446D01*
X124793719Y-96111453D01*
X124850320Y-96408164D01*
X124943659Y-96695431D01*
X124943661Y-96695436D01*
X125072265Y-96968732D01*
X125072268Y-96968738D01*
X125234111Y-97223763D01*
X125426652Y-97456505D01*
X125646836Y-97663272D01*
X125646846Y-97663280D01*
X125891193Y-97840808D01*
X125891198Y-97840810D01*
X125891205Y-97840816D01*
X126155896Y-97986332D01*
X126155901Y-97986334D01*
X126155903Y-97986335D01*
X126155904Y-97986336D01*
X126436734Y-98097524D01*
X126436737Y-98097525D01*
X126534259Y-98122564D01*
X126729302Y-98172642D01*
X126876039Y-98191179D01*
X127028963Y-98210499D01*
X127028969Y-98210499D01*
X127028973Y-98210500D01*
X127028975Y-98210500D01*
X127331025Y-98210500D01*
X127331027Y-98210500D01*
X127331032Y-98210499D01*
X127331036Y-98210499D01*
X127415883Y-98199780D01*
X127630698Y-98172642D01*
X127923262Y-98097525D01*
X127923265Y-98097524D01*
X128204095Y-97986336D01*
X128204096Y-97986335D01*
X128204094Y-97986335D01*
X128204104Y-97986332D01*
X128468795Y-97840816D01*
X128713162Y-97663274D01*
X128933349Y-97456504D01*
X129125885Y-97223768D01*
X129287733Y-96968736D01*
X129416341Y-96695430D01*
X129509681Y-96408160D01*
X129566280Y-96111457D01*
X129570280Y-96047876D01*
X129585246Y-95810005D01*
X129585246Y-95809994D01*
X129566281Y-95508553D01*
X129566280Y-95508546D01*
X129566280Y-95508543D01*
X129509681Y-95211840D01*
X129416341Y-94924570D01*
X129287733Y-94651264D01*
X129196954Y-94508219D01*
X129125888Y-94396236D01*
X129028841Y-94278926D01*
X128933349Y-94163496D01*
X128897482Y-94129815D01*
X128734112Y-93976399D01*
X128713162Y-93956726D01*
X128713159Y-93956724D01*
X128713153Y-93956719D01*
X128468806Y-93779191D01*
X128468799Y-93779186D01*
X128468795Y-93779184D01*
X128204104Y-93633668D01*
X128204101Y-93633666D01*
X128204096Y-93633664D01*
X128204095Y-93633663D01*
X127923265Y-93522475D01*
X127923262Y-93522474D01*
X127630695Y-93447357D01*
X127331036Y-93409500D01*
X127331027Y-93409500D01*
X127028973Y-93409500D01*
X127028963Y-93409500D01*
X126729304Y-93447357D01*
X126436737Y-93522474D01*
X126436734Y-93522475D01*
X126155904Y-93633663D01*
X126155903Y-93633664D01*
X125891205Y-93779184D01*
X125891193Y-93779191D01*
X125646846Y-93956719D01*
X125646836Y-93956727D01*
X125426652Y-94163494D01*
X125234111Y-94396236D01*
X125072268Y-94651261D01*
X125072265Y-94651267D01*
X124943661Y-94924563D01*
X124943659Y-94924568D01*
X124850320Y-95211835D01*
X124793719Y-95508546D01*
X124793718Y-95508553D01*
X124774754Y-95809994D01*
X123471456Y-95809994D01*
X123406288Y-83471323D01*
X123406286Y-83470668D01*
X123406286Y-69119999D01*
X128954341Y-69119999D01*
X128954341Y-69120000D01*
X128974936Y-69355403D01*
X128974938Y-69355413D01*
X129036094Y-69583655D01*
X129036096Y-69583659D01*
X129036097Y-69583663D01*
X129124665Y-69773597D01*
X129135965Y-69797830D01*
X129135967Y-69797834D01*
X129173395Y-69851286D01*
X129266627Y-69984435D01*
X129271501Y-69991395D01*
X129271506Y-69991402D01*
X129438597Y-70158493D01*
X129438603Y-70158498D01*
X129624158Y-70288425D01*
X129667783Y-70343002D01*
X129674977Y-70412500D01*
X129643454Y-70474855D01*
X129624158Y-70491575D01*
X129438597Y-70621505D01*
X129271505Y-70788597D01*
X129135965Y-70982169D01*
X129135964Y-70982171D01*
X129036098Y-71196335D01*
X129036094Y-71196344D01*
X128974938Y-71424586D01*
X128974936Y-71424596D01*
X128954341Y-71659999D01*
X128954341Y-71660000D01*
X128974936Y-71895403D01*
X128974938Y-71895413D01*
X129036094Y-72123655D01*
X129036096Y-72123659D01*
X129036097Y-72123663D01*
X129124665Y-72313597D01*
X129135965Y-72337830D01*
X129135967Y-72337834D01*
X129271501Y-72531395D01*
X129271506Y-72531402D01*
X129438597Y-72698493D01*
X129438603Y-72698498D01*
X129624158Y-72828425D01*
X129667783Y-72883002D01*
X129674977Y-72952500D01*
X129643454Y-73014855D01*
X129624158Y-73031575D01*
X129438597Y-73161505D01*
X129271505Y-73328597D01*
X129135965Y-73522169D01*
X129135964Y-73522171D01*
X129071731Y-73659920D01*
X129039053Y-73729999D01*
X129036098Y-73736335D01*
X129036094Y-73736344D01*
X128974938Y-73964586D01*
X128974936Y-73964596D01*
X128954341Y-74199999D01*
X128954341Y-74200000D01*
X128974936Y-74435403D01*
X128974938Y-74435413D01*
X129036094Y-74663655D01*
X129036096Y-74663659D01*
X129036097Y-74663663D01*
X129122156Y-74848216D01*
X129135965Y-74877830D01*
X129135967Y-74877834D01*
X129271501Y-75071395D01*
X129271506Y-75071402D01*
X129438597Y-75238493D01*
X129438603Y-75238498D01*
X129624158Y-75368425D01*
X129667783Y-75423002D01*
X129674977Y-75492500D01*
X129643454Y-75554855D01*
X129624158Y-75571575D01*
X129438597Y-75701505D01*
X129271505Y-75868597D01*
X129135965Y-76062169D01*
X129135964Y-76062171D01*
X129062565Y-76219576D01*
X129039053Y-76269999D01*
X129036098Y-76276335D01*
X129036094Y-76276344D01*
X128974938Y-76504586D01*
X128974936Y-76504596D01*
X128954341Y-76739999D01*
X128954341Y-76740000D01*
X128974936Y-76975403D01*
X128974938Y-76975413D01*
X129036094Y-77203655D01*
X129036096Y-77203659D01*
X129036097Y-77203663D01*
X129111157Y-77364630D01*
X129135965Y-77417830D01*
X129135967Y-77417834D01*
X129271501Y-77611395D01*
X129271506Y-77611402D01*
X129438597Y-77778493D01*
X129438603Y-77778498D01*
X129624158Y-77908425D01*
X129667783Y-77963002D01*
X129674977Y-78032500D01*
X129643454Y-78094855D01*
X129624158Y-78111575D01*
X129438597Y-78241505D01*
X129271505Y-78408597D01*
X129135965Y-78602169D01*
X129135964Y-78602171D01*
X129036098Y-78816335D01*
X129036094Y-78816344D01*
X128974938Y-79044586D01*
X128974936Y-79044596D01*
X128954341Y-79279999D01*
X128954341Y-79280000D01*
X128974936Y-79515403D01*
X128974938Y-79515413D01*
X129036094Y-79743655D01*
X129036096Y-79743659D01*
X129036097Y-79743663D01*
X129123586Y-79931284D01*
X129135965Y-79957830D01*
X129135967Y-79957834D01*
X129207855Y-80060500D01*
X129259907Y-80134838D01*
X129271501Y-80151395D01*
X129271506Y-80151402D01*
X129438597Y-80318493D01*
X129438603Y-80318498D01*
X129624158Y-80448425D01*
X129667783Y-80503002D01*
X129674977Y-80572500D01*
X129643454Y-80634855D01*
X129624158Y-80651575D01*
X129438597Y-80781505D01*
X129271505Y-80948597D01*
X129135965Y-81142169D01*
X129135964Y-81142171D01*
X129036098Y-81356335D01*
X129036094Y-81356344D01*
X128974938Y-81584586D01*
X128974936Y-81584596D01*
X128954341Y-81819999D01*
X128954341Y-81820000D01*
X128974936Y-82055403D01*
X128974938Y-82055413D01*
X129036094Y-82283655D01*
X129036096Y-82283659D01*
X129036097Y-82283663D01*
X129132952Y-82491368D01*
X129135965Y-82497830D01*
X129135967Y-82497834D01*
X129271501Y-82691395D01*
X129271506Y-82691402D01*
X129438597Y-82858493D01*
X129438603Y-82858498D01*
X129624158Y-82988425D01*
X129667783Y-83043002D01*
X129674977Y-83112500D01*
X129643454Y-83174855D01*
X129624158Y-83191575D01*
X129438597Y-83321505D01*
X129271505Y-83488597D01*
X129135965Y-83682169D01*
X129135964Y-83682171D01*
X129036098Y-83896335D01*
X129036094Y-83896344D01*
X128974938Y-84124586D01*
X128974936Y-84124596D01*
X128954341Y-84359999D01*
X128954341Y-84360000D01*
X128974936Y-84595403D01*
X128974938Y-84595413D01*
X129036094Y-84823655D01*
X129036096Y-84823659D01*
X129036097Y-84823663D01*
X129132952Y-85031368D01*
X129135965Y-85037830D01*
X129135967Y-85037834D01*
X129217072Y-85153663D01*
X129271501Y-85231396D01*
X129271506Y-85231402D01*
X129393430Y-85353326D01*
X129426915Y-85414649D01*
X129421931Y-85484341D01*
X129380059Y-85540274D01*
X129349083Y-85557189D01*
X129217669Y-85606203D01*
X129217664Y-85606206D01*
X129102455Y-85692452D01*
X129102452Y-85692455D01*
X129016206Y-85807664D01*
X129016202Y-85807671D01*
X128965908Y-85942517D01*
X128964029Y-85960000D01*
X128959501Y-86002123D01*
X128959500Y-86002135D01*
X128959500Y-87797870D01*
X128959501Y-87797876D01*
X128965908Y-87857483D01*
X129016202Y-87992328D01*
X129016206Y-87992335D01*
X129102452Y-88107544D01*
X129102455Y-88107547D01*
X129217664Y-88193793D01*
X129217671Y-88193797D01*
X129229884Y-88198352D01*
X129352517Y-88244091D01*
X129412127Y-88250500D01*
X129585500Y-88250499D01*
X129652539Y-88270183D01*
X129698294Y-88322987D01*
X129709500Y-88374499D01*
X129709500Y-89393330D01*
X129709499Y-89393348D01*
X129709499Y-89559054D01*
X129709498Y-89559054D01*
X129709499Y-89559057D01*
X129750423Y-89711785D01*
X129750424Y-89711786D01*
X129754888Y-89719518D01*
X129754890Y-89719522D01*
X129829477Y-89848712D01*
X129829481Y-89848717D01*
X129948349Y-89967585D01*
X129948355Y-89967590D01*
X135095139Y-95114374D01*
X135095149Y-95114385D01*
X135099479Y-95118715D01*
X135099480Y-95118716D01*
X135211284Y-95230520D01*
X135211286Y-95230521D01*
X135211290Y-95230524D01*
X135348209Y-95309573D01*
X135348216Y-95309577D01*
X135460019Y-95339534D01*
X135500942Y-95350500D01*
X135500943Y-95350500D01*
X144813331Y-95350500D01*
X144813347Y-95350501D01*
X144820943Y-95350501D01*
X144979054Y-95350501D01*
X144979057Y-95350501D01*
X145131785Y-95309577D01*
X145181904Y-95280639D01*
X145268716Y-95230520D01*
X145380520Y-95118716D01*
X145380520Y-95118714D01*
X145390728Y-95108507D01*
X145390730Y-95108504D01*
X147447294Y-93051939D01*
X147508615Y-93018456D01*
X147567066Y-93019847D01*
X147586604Y-93025082D01*
X147663308Y-93045635D01*
X147825230Y-93059801D01*
X147889998Y-93065468D01*
X147890000Y-93065468D01*
X147890002Y-93065468D01*
X147946673Y-93060509D01*
X148116692Y-93045635D01*
X148336496Y-92986739D01*
X148542734Y-92890568D01*
X148729139Y-92760047D01*
X148890047Y-92599139D01*
X149020568Y-92412734D01*
X149116739Y-92206496D01*
X149175635Y-91986692D01*
X149195468Y-91760000D01*
X149175635Y-91533308D01*
X149116739Y-91313504D01*
X149020568Y-91107266D01*
X148914053Y-90955145D01*
X148890045Y-90920858D01*
X148729141Y-90759954D01*
X148542734Y-90629432D01*
X148542728Y-90629429D01*
X148484725Y-90602382D01*
X148432285Y-90556210D01*
X148413133Y-90489017D01*
X148433348Y-90422135D01*
X148484725Y-90377618D01*
X148542734Y-90350568D01*
X148729139Y-90220047D01*
X148890047Y-90059139D01*
X149020568Y-89872734D01*
X149116739Y-89666496D01*
X149175635Y-89446692D01*
X149195468Y-89220000D01*
X149179590Y-89038520D01*
X149193356Y-88970023D01*
X149241971Y-88919840D01*
X149310000Y-88903906D01*
X149375844Y-88927281D01*
X149390799Y-88940034D01*
X153675139Y-93224374D01*
X153675149Y-93224385D01*
X153679479Y-93228715D01*
X153679480Y-93228716D01*
X153791284Y-93340520D01*
X153820666Y-93357483D01*
X153878095Y-93390639D01*
X153878097Y-93390641D01*
X153910762Y-93409500D01*
X153928215Y-93419577D01*
X154080943Y-93460500D01*
X154239057Y-93460500D01*
X166983331Y-93460500D01*
X166983347Y-93460501D01*
X166990943Y-93460501D01*
X167149055Y-93460501D01*
X167149057Y-93460501D01*
X167199817Y-93446899D01*
X167207934Y-93444725D01*
X167240027Y-93440500D01*
X167479903Y-93440500D01*
X167546942Y-93460185D01*
X167567584Y-93476819D01*
X167676333Y-93585568D01*
X167709818Y-93646891D01*
X167704834Y-93716583D01*
X167662962Y-93772516D01*
X167597498Y-93796933D01*
X167577844Y-93796777D01*
X167550001Y-93794341D01*
X167549999Y-93794341D01*
X167314596Y-93814936D01*
X167314586Y-93814938D01*
X167086344Y-93876094D01*
X167086335Y-93876098D01*
X166872171Y-93975964D01*
X166872169Y-93975965D01*
X166678597Y-94111505D01*
X166511505Y-94278597D01*
X166381575Y-94464158D01*
X166326998Y-94507783D01*
X166257500Y-94514977D01*
X166195145Y-94483454D01*
X166178425Y-94464158D01*
X166048494Y-94278597D01*
X165881402Y-94111506D01*
X165881395Y-94111501D01*
X165687834Y-93975967D01*
X165687830Y-93975965D01*
X165646557Y-93956719D01*
X165473663Y-93876097D01*
X165473659Y-93876096D01*
X165473655Y-93876094D01*
X165245413Y-93814938D01*
X165245403Y-93814936D01*
X165010001Y-93794341D01*
X165009999Y-93794341D01*
X164774596Y-93814936D01*
X164774586Y-93814938D01*
X164546344Y-93876094D01*
X164546335Y-93876098D01*
X164332171Y-93975964D01*
X164332169Y-93975965D01*
X164138597Y-94111505D01*
X163971505Y-94278597D01*
X163841575Y-94464158D01*
X163786998Y-94507783D01*
X163717500Y-94514977D01*
X163655145Y-94483454D01*
X163638425Y-94464158D01*
X163508494Y-94278597D01*
X163341402Y-94111506D01*
X163341395Y-94111501D01*
X163147834Y-93975967D01*
X163147830Y-93975965D01*
X163106557Y-93956719D01*
X162933663Y-93876097D01*
X162933659Y-93876096D01*
X162933655Y-93876094D01*
X162705413Y-93814938D01*
X162705403Y-93814936D01*
X162470001Y-93794341D01*
X162469999Y-93794341D01*
X162234596Y-93814936D01*
X162234586Y-93814938D01*
X162006344Y-93876094D01*
X162006335Y-93876098D01*
X161792171Y-93975964D01*
X161792169Y-93975965D01*
X161598600Y-94111503D01*
X161476673Y-94233430D01*
X161415350Y-94266914D01*
X161345658Y-94261930D01*
X161289725Y-94220058D01*
X161272810Y-94189081D01*
X161223797Y-94057671D01*
X161223793Y-94057664D01*
X161137547Y-93942455D01*
X161137544Y-93942452D01*
X161022335Y-93856206D01*
X161022328Y-93856202D01*
X160887482Y-93805908D01*
X160887483Y-93805908D01*
X160827883Y-93799501D01*
X160827881Y-93799500D01*
X160827873Y-93799500D01*
X160827864Y-93799500D01*
X159032129Y-93799500D01*
X159032123Y-93799501D01*
X158972516Y-93805908D01*
X158837671Y-93856202D01*
X158837664Y-93856206D01*
X158722455Y-93942452D01*
X158722452Y-93942455D01*
X158636206Y-94057664D01*
X158636202Y-94057671D01*
X158585908Y-94192517D01*
X158579501Y-94252116D01*
X158579500Y-94252135D01*
X158579500Y-96047870D01*
X158579501Y-96047876D01*
X158585908Y-96107483D01*
X158636202Y-96242328D01*
X158636206Y-96242335D01*
X158722452Y-96357544D01*
X158722455Y-96357547D01*
X158837664Y-96443793D01*
X158837671Y-96443797D01*
X158972517Y-96494091D01*
X158972516Y-96494091D01*
X158979444Y-96494835D01*
X159032127Y-96500500D01*
X160827872Y-96500499D01*
X160887483Y-96494091D01*
X161022331Y-96443796D01*
X161137546Y-96357546D01*
X161223796Y-96242331D01*
X161272810Y-96110916D01*
X161314681Y-96054984D01*
X161380145Y-96030566D01*
X161448418Y-96045417D01*
X161476673Y-96066569D01*
X161598599Y-96188495D01*
X161695384Y-96256265D01*
X161792165Y-96324032D01*
X161792167Y-96324033D01*
X161792170Y-96324035D01*
X162006337Y-96423903D01*
X162234592Y-96485063D01*
X162411034Y-96500500D01*
X162469999Y-96505659D01*
X162470000Y-96505659D01*
X162470001Y-96505659D01*
X162528966Y-96500500D01*
X162705408Y-96485063D01*
X162933663Y-96423903D01*
X163147830Y-96324035D01*
X163341401Y-96188495D01*
X163508495Y-96021401D01*
X163638425Y-95835842D01*
X163693002Y-95792217D01*
X163762500Y-95785023D01*
X163824855Y-95816546D01*
X163841575Y-95835842D01*
X163971281Y-96021082D01*
X163971505Y-96021401D01*
X164138599Y-96188495D01*
X164235384Y-96256265D01*
X164332165Y-96324032D01*
X164332167Y-96324033D01*
X164332170Y-96324035D01*
X164546337Y-96423903D01*
X164774592Y-96485063D01*
X164951034Y-96500500D01*
X165009999Y-96505659D01*
X165010000Y-96505659D01*
X165010001Y-96505659D01*
X165068966Y-96500500D01*
X165245408Y-96485063D01*
X165473663Y-96423903D01*
X165687830Y-96324035D01*
X165881401Y-96188495D01*
X166048495Y-96021401D01*
X166178425Y-95835842D01*
X166233002Y-95792217D01*
X166302500Y-95785023D01*
X166364855Y-95816546D01*
X166381575Y-95835842D01*
X166511281Y-96021082D01*
X166511505Y-96021401D01*
X166678599Y-96188495D01*
X166775384Y-96256265D01*
X166872165Y-96324032D01*
X166872167Y-96324033D01*
X166872170Y-96324035D01*
X167086337Y-96423903D01*
X167314592Y-96485063D01*
X167491034Y-96500500D01*
X167549999Y-96505659D01*
X167550000Y-96505659D01*
X167550001Y-96505659D01*
X167608966Y-96500500D01*
X167785408Y-96485063D01*
X168013663Y-96423903D01*
X168227830Y-96324035D01*
X168421401Y-96188495D01*
X168588495Y-96021401D01*
X168718425Y-95835842D01*
X168773002Y-95792217D01*
X168842500Y-95785023D01*
X168904855Y-95816546D01*
X168921575Y-95835842D01*
X169051281Y-96021082D01*
X169051505Y-96021401D01*
X169218599Y-96188495D01*
X169315384Y-96256265D01*
X169412165Y-96324032D01*
X169412167Y-96324033D01*
X169412170Y-96324035D01*
X169626337Y-96423903D01*
X169854592Y-96485063D01*
X170031034Y-96500500D01*
X170089999Y-96505659D01*
X170090000Y-96505659D01*
X170090001Y-96505659D01*
X170148966Y-96500500D01*
X170325408Y-96485063D01*
X170553663Y-96423903D01*
X170767830Y-96324035D01*
X170961401Y-96188495D01*
X171128495Y-96021401D01*
X171258730Y-95835405D01*
X171313307Y-95791781D01*
X171382805Y-95784587D01*
X171445160Y-95816110D01*
X171461879Y-95835405D01*
X171591890Y-96021078D01*
X171758917Y-96188105D01*
X171952421Y-96323600D01*
X172166507Y-96423429D01*
X172166516Y-96423433D01*
X172380000Y-96480634D01*
X172380000Y-95583012D01*
X172437007Y-95615925D01*
X172564174Y-95650000D01*
X172695826Y-95650000D01*
X172822993Y-95615925D01*
X172880000Y-95583012D01*
X172880000Y-96480633D01*
X173093483Y-96423433D01*
X173093492Y-96423429D01*
X173307578Y-96323600D01*
X173501082Y-96188105D01*
X173668105Y-96021082D01*
X173803600Y-95827578D01*
X173903429Y-95613492D01*
X173903432Y-95613486D01*
X173960636Y-95400000D01*
X173063012Y-95400000D01*
X173095925Y-95342993D01*
X173130000Y-95215826D01*
X173130000Y-95084174D01*
X173095925Y-94957007D01*
X173063012Y-94900000D01*
X173960636Y-94900000D01*
X173960635Y-94899999D01*
X173903432Y-94686513D01*
X173903429Y-94686507D01*
X173803600Y-94472422D01*
X173803599Y-94472420D01*
X173668113Y-94278926D01*
X173668108Y-94278920D01*
X173501082Y-94111894D01*
X173307578Y-93976399D01*
X173093492Y-93876570D01*
X173093486Y-93876567D01*
X172880000Y-93819364D01*
X172880000Y-94716988D01*
X172822993Y-94684075D01*
X172695826Y-94650000D01*
X172564174Y-94650000D01*
X172437007Y-94684075D01*
X172380000Y-94716988D01*
X172380000Y-93819364D01*
X172379999Y-93819364D01*
X172166513Y-93876567D01*
X172166507Y-93876570D01*
X171952422Y-93976399D01*
X171952420Y-93976400D01*
X171758926Y-94111886D01*
X171758920Y-94111891D01*
X171591891Y-94278920D01*
X171591890Y-94278922D01*
X171461880Y-94464595D01*
X171407303Y-94508219D01*
X171337804Y-94515412D01*
X171275450Y-94483890D01*
X171258730Y-94464594D01*
X171128494Y-94278597D01*
X170961402Y-94111506D01*
X170961395Y-94111501D01*
X170767834Y-93975967D01*
X170767830Y-93975965D01*
X170726557Y-93956719D01*
X170553663Y-93876097D01*
X170553659Y-93876096D01*
X170553655Y-93876094D01*
X170325413Y-93814938D01*
X170325403Y-93814936D01*
X170090001Y-93794341D01*
X170089999Y-93794341D01*
X169854596Y-93814936D01*
X169854583Y-93814939D01*
X169726241Y-93849327D01*
X169656392Y-93847664D01*
X169606468Y-93817233D01*
X168267590Y-92478355D01*
X168267588Y-92478352D01*
X168148717Y-92359481D01*
X168148716Y-92359480D01*
X168061904Y-92309360D01*
X168061904Y-92309359D01*
X168061900Y-92309358D01*
X168011785Y-92280423D01*
X167859057Y-92239499D01*
X167700943Y-92239499D01*
X167693347Y-92239499D01*
X167693331Y-92239500D01*
X167010940Y-92239500D01*
X166952067Y-92255275D01*
X166919975Y-92259500D01*
X156884137Y-92259500D01*
X156817098Y-92239815D01*
X156771343Y-92187011D01*
X156761399Y-92117853D01*
X156764362Y-92103407D01*
X156778263Y-92051524D01*
X156795635Y-91986692D01*
X156815468Y-91760000D01*
X156795635Y-91533308D01*
X156755376Y-91383058D01*
X156742926Y-91336593D01*
X156744589Y-91266743D01*
X156783752Y-91208881D01*
X156847980Y-91181377D01*
X156862701Y-91180500D01*
X172297588Y-91180500D01*
X172364627Y-91200185D01*
X172374903Y-91207555D01*
X172377736Y-91209814D01*
X172377738Y-91209816D01*
X172530478Y-91305789D01*
X172665914Y-91353180D01*
X172700745Y-91365368D01*
X172700750Y-91365369D01*
X172879996Y-91385565D01*
X172880000Y-91385565D01*
X172880004Y-91385565D01*
X173059249Y-91365369D01*
X173059252Y-91365368D01*
X173059255Y-91365368D01*
X173229522Y-91305789D01*
X173382262Y-91209816D01*
X173509816Y-91082262D01*
X173605789Y-90929522D01*
X173665368Y-90759255D01*
X173678648Y-90641395D01*
X173685565Y-90580003D01*
X173685565Y-90579997D01*
X173677496Y-90508384D01*
X173689550Y-90439562D01*
X173736899Y-90388182D01*
X173800716Y-90370500D01*
X174784932Y-90370500D01*
X174850904Y-90389506D01*
X174940477Y-90445789D01*
X174940481Y-90445790D01*
X175110737Y-90505366D01*
X175110743Y-90505367D01*
X175110745Y-90505368D01*
X175110746Y-90505368D01*
X175110750Y-90505369D01*
X175289996Y-90525565D01*
X175290000Y-90525565D01*
X175290004Y-90525565D01*
X175469249Y-90505369D01*
X175469252Y-90505368D01*
X175469255Y-90505368D01*
X175639522Y-90445789D01*
X175792262Y-90349816D01*
X175919816Y-90222262D01*
X176015789Y-90069522D01*
X176075368Y-89899255D01*
X176075369Y-89899249D01*
X176095565Y-89720003D01*
X176095565Y-89719996D01*
X176075369Y-89540750D01*
X176075368Y-89540745D01*
X176026448Y-89400939D01*
X176015789Y-89370478D01*
X176003235Y-89350499D01*
X175951136Y-89267584D01*
X175919816Y-89217738D01*
X175792262Y-89090184D01*
X175639523Y-88994211D01*
X175469254Y-88934631D01*
X175469249Y-88934630D01*
X175290004Y-88914435D01*
X175289996Y-88914435D01*
X175110750Y-88934630D01*
X175110745Y-88934631D01*
X174940476Y-88994211D01*
X174787737Y-89090184D01*
X174744741Y-89133181D01*
X174683418Y-89166666D01*
X174657060Y-89169500D01*
X169496350Y-89169500D01*
X169429311Y-89149815D01*
X169383556Y-89097011D01*
X169373130Y-89031617D01*
X169375565Y-89010004D01*
X169375565Y-89009996D01*
X169355369Y-88830750D01*
X169355368Y-88830745D01*
X169335341Y-88773511D01*
X169295789Y-88660478D01*
X169287840Y-88647828D01*
X169246343Y-88581785D01*
X169199816Y-88507738D01*
X169072262Y-88380184D01*
X169030185Y-88353745D01*
X168919521Y-88284210D01*
X168749249Y-88224630D01*
X168662331Y-88214837D01*
X168597917Y-88187770D01*
X168588534Y-88179298D01*
X168508717Y-88099481D01*
X168508716Y-88099480D01*
X168421904Y-88049360D01*
X168421904Y-88049359D01*
X168421900Y-88049358D01*
X168371785Y-88020423D01*
X168219057Y-87979499D01*
X168060943Y-87979499D01*
X168053347Y-87979499D01*
X168053331Y-87979500D01*
X164195097Y-87979500D01*
X164128058Y-87959815D01*
X164107416Y-87943181D01*
X162876108Y-86711873D01*
X162842623Y-86650550D01*
X162847607Y-86580858D01*
X162889479Y-86524925D01*
X162926893Y-86505809D01*
X163014606Y-86478478D01*
X163160185Y-86390472D01*
X163280472Y-86270185D01*
X163310598Y-86220349D01*
X163362126Y-86173162D01*
X163416715Y-86160500D01*
X164665933Y-86160500D01*
X164732972Y-86180185D01*
X164778727Y-86232989D01*
X164789291Y-86271899D01*
X164795000Y-86327796D01*
X164795001Y-86327799D01*
X164850185Y-86494331D01*
X164850187Y-86494336D01*
X164871621Y-86529086D01*
X164942288Y-86643656D01*
X165066344Y-86767712D01*
X165215666Y-86859814D01*
X165382203Y-86914999D01*
X165484991Y-86925500D01*
X166335008Y-86925499D01*
X166335016Y-86925498D01*
X166335019Y-86925498D01*
X166391302Y-86919748D01*
X166437797Y-86914999D01*
X166604334Y-86859814D01*
X166753656Y-86767712D01*
X166877712Y-86643656D01*
X166969814Y-86494334D01*
X167024999Y-86327797D01*
X167035500Y-86225009D01*
X167035500Y-86224986D01*
X167585001Y-86224986D01*
X167595494Y-86327697D01*
X167650641Y-86494119D01*
X167650643Y-86494124D01*
X167742684Y-86643345D01*
X167866654Y-86767315D01*
X168015875Y-86859356D01*
X168015880Y-86859358D01*
X168182302Y-86914505D01*
X168182309Y-86914506D01*
X168285019Y-86924999D01*
X168459999Y-86924999D01*
X168960000Y-86924999D01*
X169134972Y-86924999D01*
X169134986Y-86924998D01*
X169237697Y-86914505D01*
X169404119Y-86859358D01*
X169404124Y-86859356D01*
X169553345Y-86767315D01*
X169677315Y-86643345D01*
X169769356Y-86494124D01*
X169769358Y-86494119D01*
X169824505Y-86327697D01*
X169824506Y-86327690D01*
X169834999Y-86224986D01*
X169835000Y-86224973D01*
X169835000Y-85800000D01*
X168960000Y-85800000D01*
X168960000Y-86924999D01*
X168459999Y-86924999D01*
X168460000Y-86924998D01*
X168460000Y-85800000D01*
X167585001Y-85800000D01*
X167585001Y-86224986D01*
X167035500Y-86224986D01*
X167035499Y-84874992D01*
X167033197Y-84852461D01*
X167024999Y-84772203D01*
X167024998Y-84772200D01*
X167017954Y-84750943D01*
X166969814Y-84605666D01*
X166877712Y-84456344D01*
X166873549Y-84452181D01*
X166840064Y-84390858D01*
X166845048Y-84321166D01*
X166886920Y-84265233D01*
X166952384Y-84240816D01*
X166961230Y-84240500D01*
X167659477Y-84240500D01*
X167726516Y-84260185D01*
X167772271Y-84312989D01*
X167782215Y-84382147D01*
X167753190Y-84445703D01*
X167747158Y-84452181D01*
X167742684Y-84456654D01*
X167650643Y-84605875D01*
X167650641Y-84605880D01*
X167595494Y-84772302D01*
X167595493Y-84772309D01*
X167585000Y-84875013D01*
X167585000Y-85300000D01*
X169834999Y-85300000D01*
X169834999Y-84875028D01*
X169834998Y-84875013D01*
X169824505Y-84772302D01*
X169769358Y-84605880D01*
X169769356Y-84605875D01*
X169677315Y-84456654D01*
X169672842Y-84452181D01*
X169639357Y-84390858D01*
X169644341Y-84321166D01*
X169686213Y-84265233D01*
X169751677Y-84240816D01*
X169760523Y-84240500D01*
X175539903Y-84240500D01*
X175606942Y-84260185D01*
X175627584Y-84276819D01*
X178097233Y-86746469D01*
X178130718Y-86807792D01*
X178129327Y-86866243D01*
X178094938Y-86994586D01*
X178094936Y-86994596D01*
X178074341Y-87229999D01*
X178074341Y-87230000D01*
X178094936Y-87465403D01*
X178094938Y-87465413D01*
X178156094Y-87693655D01*
X178156096Y-87693659D01*
X178156097Y-87693663D01*
X178210611Y-87810568D01*
X178255965Y-87907830D01*
X178255967Y-87907834D01*
X178391501Y-88101395D01*
X178391506Y-88101402D01*
X178558597Y-88268493D01*
X178558603Y-88268498D01*
X178744158Y-88398425D01*
X178787783Y-88453002D01*
X178794977Y-88522500D01*
X178763454Y-88584855D01*
X178744158Y-88601575D01*
X178558597Y-88731505D01*
X178391505Y-88898597D01*
X178255965Y-89092169D01*
X178255964Y-89092171D01*
X178156098Y-89306335D01*
X178156094Y-89306344D01*
X178094938Y-89534586D01*
X178094936Y-89534596D01*
X178074341Y-89769999D01*
X178074341Y-89770000D01*
X178094936Y-90005403D01*
X178094938Y-90005413D01*
X178156094Y-90233655D01*
X178156096Y-90233659D01*
X178156097Y-90233663D01*
X178223225Y-90377618D01*
X178255965Y-90447830D01*
X178255967Y-90447834D01*
X178391501Y-90641395D01*
X178391506Y-90641402D01*
X178558597Y-90808493D01*
X178558603Y-90808498D01*
X178744158Y-90938425D01*
X178787783Y-90993002D01*
X178794977Y-91062500D01*
X178763454Y-91124855D01*
X178744158Y-91141575D01*
X178558597Y-91271505D01*
X178391505Y-91438597D01*
X178255965Y-91632169D01*
X178255964Y-91632171D01*
X178156098Y-91846335D01*
X178156094Y-91846344D01*
X178094938Y-92074586D01*
X178094936Y-92074596D01*
X178074341Y-92309999D01*
X178074341Y-92310000D01*
X178094936Y-92545403D01*
X178094938Y-92545413D01*
X178156094Y-92773655D01*
X178156096Y-92773659D01*
X178156097Y-92773663D01*
X178210611Y-92890568D01*
X178255965Y-92987830D01*
X178255967Y-92987834D01*
X178364281Y-93142521D01*
X178391505Y-93181401D01*
X178558599Y-93348495D01*
X178618787Y-93390639D01*
X178752165Y-93484032D01*
X178752167Y-93484033D01*
X178752170Y-93484035D01*
X178966337Y-93583903D01*
X179194592Y-93645063D01*
X179382918Y-93661539D01*
X179429999Y-93665659D01*
X179430000Y-93665659D01*
X179430001Y-93665659D01*
X179469234Y-93662226D01*
X179665408Y-93645063D01*
X179893663Y-93583903D01*
X180107830Y-93484035D01*
X180301401Y-93348495D01*
X180468495Y-93181401D01*
X180604035Y-92987830D01*
X180703903Y-92773663D01*
X180765063Y-92545408D01*
X180785659Y-92310000D01*
X180765063Y-92074592D01*
X180703903Y-91846337D01*
X180604035Y-91632171D01*
X180556165Y-91563804D01*
X180468494Y-91438597D01*
X180301402Y-91271506D01*
X180301396Y-91271501D01*
X180115842Y-91141575D01*
X180072217Y-91086998D01*
X180065023Y-91017500D01*
X180096546Y-90955145D01*
X180115842Y-90938425D01*
X180161861Y-90906202D01*
X180301401Y-90808495D01*
X180468495Y-90641401D01*
X180604035Y-90447830D01*
X180703903Y-90233663D01*
X180765063Y-90005408D01*
X180785659Y-89770000D01*
X180765063Y-89534592D01*
X180703903Y-89306337D01*
X180604035Y-89092171D01*
X180601699Y-89088834D01*
X180468494Y-88898597D01*
X180301402Y-88731506D01*
X180301396Y-88731501D01*
X180115842Y-88601575D01*
X180072217Y-88546998D01*
X180065023Y-88477500D01*
X180096546Y-88415145D01*
X180115842Y-88398425D01*
X180179651Y-88353745D01*
X180301401Y-88268495D01*
X180468495Y-88101401D01*
X180604035Y-87907830D01*
X180703903Y-87693663D01*
X180765063Y-87465408D01*
X180785659Y-87230000D01*
X180765063Y-86994592D01*
X180712144Y-86797092D01*
X180703905Y-86766344D01*
X180703904Y-86766343D01*
X180703903Y-86766337D01*
X180604035Y-86552171D01*
X180592584Y-86535816D01*
X180468494Y-86358597D01*
X180301402Y-86191506D01*
X180301396Y-86191501D01*
X180115842Y-86061575D01*
X180072217Y-86006998D01*
X180065023Y-85937500D01*
X180096546Y-85875145D01*
X180115842Y-85858425D01*
X180206902Y-85794664D01*
X180301401Y-85728495D01*
X180468495Y-85561401D01*
X180604035Y-85367830D01*
X180703903Y-85153663D01*
X180765063Y-84925408D01*
X180785659Y-84690000D01*
X180765063Y-84454592D01*
X180703903Y-84226337D01*
X180604035Y-84012171D01*
X180601024Y-84007870D01*
X180468494Y-83818597D01*
X180301402Y-83651506D01*
X180301396Y-83651501D01*
X180115842Y-83521575D01*
X180072217Y-83466998D01*
X180065023Y-83397500D01*
X180096546Y-83335145D01*
X180115842Y-83318425D01*
X180206902Y-83254664D01*
X180301401Y-83188495D01*
X180468495Y-83021401D01*
X180604035Y-82827830D01*
X180703903Y-82613663D01*
X180765063Y-82385408D01*
X180785659Y-82150000D01*
X180765063Y-81914592D01*
X180708222Y-81702455D01*
X180703905Y-81686344D01*
X180703904Y-81686343D01*
X180703903Y-81686337D01*
X180604035Y-81472171D01*
X180573715Y-81428870D01*
X180468496Y-81278600D01*
X180420659Y-81230763D01*
X180346567Y-81156671D01*
X180313084Y-81095351D01*
X180318068Y-81025659D01*
X180359939Y-80969725D01*
X180390915Y-80952810D01*
X180522331Y-80903796D01*
X180637546Y-80817546D01*
X180723796Y-80702331D01*
X180774091Y-80567483D01*
X180780500Y-80507873D01*
X180780499Y-78712128D01*
X180774091Y-78652517D01*
X180759539Y-78613502D01*
X180723796Y-78517669D01*
X180723793Y-78517664D01*
X180637547Y-78402455D01*
X180637544Y-78402452D01*
X180522335Y-78316206D01*
X180522328Y-78316202D01*
X180387482Y-78265908D01*
X180387483Y-78265908D01*
X180327883Y-78259501D01*
X180327881Y-78259500D01*
X180327873Y-78259500D01*
X180327865Y-78259500D01*
X178980098Y-78259500D01*
X178913059Y-78239815D01*
X178892417Y-78223181D01*
X171097590Y-70428355D01*
X171097588Y-70428352D01*
X170978717Y-70309481D01*
X170978716Y-70309480D01*
X170867243Y-70245121D01*
X170867243Y-70245120D01*
X170867238Y-70245119D01*
X170854675Y-70237865D01*
X170841786Y-70230423D01*
X170803603Y-70220192D01*
X170689057Y-70189499D01*
X170530943Y-70189499D01*
X170523347Y-70189499D01*
X170523331Y-70189500D01*
X166512412Y-70189500D01*
X166445373Y-70169815D01*
X166435097Y-70162445D01*
X166432263Y-70160185D01*
X166432262Y-70160184D01*
X166339878Y-70102135D01*
X166279523Y-70064211D01*
X166109254Y-70004631D01*
X166109249Y-70004630D01*
X165930004Y-69984435D01*
X165929996Y-69984435D01*
X165750750Y-70004630D01*
X165750745Y-70004631D01*
X165580476Y-70064211D01*
X165427737Y-70160184D01*
X165300184Y-70287737D01*
X165204209Y-70440480D01*
X165159353Y-70568670D01*
X165118631Y-70625446D01*
X165053679Y-70651193D01*
X164985117Y-70637737D01*
X164954631Y-70615396D01*
X164188117Y-69848882D01*
X164154632Y-69787559D01*
X164159616Y-69717867D01*
X164201488Y-69661934D01*
X164266952Y-69637517D01*
X164286602Y-69637672D01*
X164445558Y-69651579D01*
X164489999Y-69655468D01*
X164490000Y-69655468D01*
X164490002Y-69655468D01*
X164553597Y-69649904D01*
X164716692Y-69635635D01*
X164936496Y-69576739D01*
X165142734Y-69480568D01*
X165329139Y-69350047D01*
X165490047Y-69189139D01*
X165620568Y-69002734D01*
X165647618Y-68944724D01*
X165693790Y-68892285D01*
X165760983Y-68873133D01*
X165827865Y-68893348D01*
X165872381Y-68944724D01*
X165882317Y-68966030D01*
X165899429Y-69002728D01*
X165899432Y-69002734D01*
X166029954Y-69189141D01*
X166190858Y-69350045D01*
X166199137Y-69355842D01*
X166377266Y-69480568D01*
X166583504Y-69576739D01*
X166583509Y-69576740D01*
X166583511Y-69576741D01*
X166636415Y-69590916D01*
X166803308Y-69635635D01*
X166965230Y-69649801D01*
X167029998Y-69655468D01*
X167030000Y-69655468D01*
X167030002Y-69655468D01*
X167093597Y-69649904D01*
X167256692Y-69635635D01*
X167476496Y-69576739D01*
X167682734Y-69480568D01*
X167869139Y-69350047D01*
X168030047Y-69189139D01*
X168160568Y-69002734D01*
X168187895Y-68944129D01*
X168234064Y-68891695D01*
X168301257Y-68872542D01*
X168368139Y-68892757D01*
X168412657Y-68944133D01*
X168439865Y-69002482D01*
X168570342Y-69188820D01*
X168731179Y-69349657D01*
X168917517Y-69480134D01*
X169123673Y-69576265D01*
X169123682Y-69576269D01*
X169319999Y-69628872D01*
X169320000Y-69628871D01*
X169320000Y-68665686D01*
X169324394Y-68670080D01*
X169415606Y-68722741D01*
X169517339Y-68750000D01*
X169622661Y-68750000D01*
X169724394Y-68722741D01*
X169815606Y-68670080D01*
X169820000Y-68665686D01*
X169820000Y-69628872D01*
X170016317Y-69576269D01*
X170016326Y-69576265D01*
X170222482Y-69480134D01*
X170408820Y-69349657D01*
X170569657Y-69188820D01*
X170700134Y-69002482D01*
X170796265Y-68796326D01*
X170796269Y-68796317D01*
X170848872Y-68600000D01*
X169885686Y-68600000D01*
X169890080Y-68595606D01*
X169942741Y-68504394D01*
X169970000Y-68402661D01*
X169970000Y-68297339D01*
X169942741Y-68195606D01*
X169890080Y-68104394D01*
X169885686Y-68100000D01*
X170848872Y-68100000D01*
X170848872Y-68099999D01*
X170796269Y-67903682D01*
X170796265Y-67903673D01*
X170700134Y-67697517D01*
X170569657Y-67511179D01*
X170408820Y-67350342D01*
X170222482Y-67219865D01*
X170016328Y-67123734D01*
X169820000Y-67071127D01*
X169820000Y-68034314D01*
X169815606Y-68029920D01*
X169724394Y-67977259D01*
X169622661Y-67950000D01*
X169517339Y-67950000D01*
X169415606Y-67977259D01*
X169324394Y-68029920D01*
X169320000Y-68034314D01*
X169320000Y-67071127D01*
X169123671Y-67123734D01*
X168917517Y-67219865D01*
X168731179Y-67350342D01*
X168570342Y-67511179D01*
X168439867Y-67697515D01*
X168412657Y-67755867D01*
X168366484Y-67808306D01*
X168299290Y-67827457D01*
X168232409Y-67807241D01*
X168187893Y-67755865D01*
X168160570Y-67697271D01*
X168160567Y-67697265D01*
X168159828Y-67696210D01*
X168030047Y-67510861D01*
X168030045Y-67510858D01*
X167869140Y-67349953D01*
X167683377Y-67219881D01*
X167639752Y-67165304D01*
X167630500Y-67118306D01*
X167630500Y-65899059D01*
X167630501Y-65899046D01*
X167630501Y-65730945D01*
X167630501Y-65730943D01*
X167589577Y-65578215D01*
X167553355Y-65515477D01*
X167510520Y-65441284D01*
X167398716Y-65329480D01*
X167398715Y-65329479D01*
X167394385Y-65325149D01*
X167394374Y-65325139D01*
X164248378Y-62179143D01*
X164214893Y-62117820D01*
X164219877Y-62048128D01*
X164240000Y-62020910D01*
X164240000Y-61045686D01*
X164244394Y-61050080D01*
X164335606Y-61102741D01*
X164437339Y-61130000D01*
X164542661Y-61130000D01*
X164644394Y-61102741D01*
X164735606Y-61050080D01*
X164740000Y-61045686D01*
X164740000Y-62008872D01*
X164936317Y-61956269D01*
X164936326Y-61956265D01*
X165142482Y-61860134D01*
X165328820Y-61729657D01*
X165489657Y-61568820D01*
X165620134Y-61382481D01*
X165620135Y-61382480D01*
X165647341Y-61324134D01*
X165693513Y-61271695D01*
X165760707Y-61252542D01*
X165827588Y-61272757D01*
X165872105Y-61324132D01*
X165875074Y-61330499D01*
X165899431Y-61382732D01*
X165899432Y-61382734D01*
X166029954Y-61569141D01*
X166190858Y-61730045D01*
X166190861Y-61730047D01*
X166377266Y-61860568D01*
X166583504Y-61956739D01*
X166803308Y-62015635D01*
X166965230Y-62029801D01*
X167029998Y-62035468D01*
X167030000Y-62035468D01*
X167030002Y-62035468D01*
X167086673Y-62030509D01*
X167256692Y-62015635D01*
X167476496Y-61956739D01*
X167682734Y-61860568D01*
X167869139Y-61730047D01*
X168030047Y-61569139D01*
X168160568Y-61382734D01*
X168187618Y-61324724D01*
X168233790Y-61272285D01*
X168300983Y-61253133D01*
X168367865Y-61273348D01*
X168412381Y-61324724D01*
X168415074Y-61330499D01*
X168439429Y-61382728D01*
X168439432Y-61382734D01*
X168569954Y-61569141D01*
X168730858Y-61730045D01*
X168730861Y-61730047D01*
X168917266Y-61860568D01*
X169123504Y-61956739D01*
X169343308Y-62015635D01*
X169505230Y-62029801D01*
X169569998Y-62035468D01*
X169570000Y-62035468D01*
X169570002Y-62035468D01*
X169626673Y-62030509D01*
X169796692Y-62015635D01*
X170016496Y-61956739D01*
X170222734Y-61860568D01*
X170409139Y-61730047D01*
X170570047Y-61569139D01*
X170700568Y-61382734D01*
X170796739Y-61176496D01*
X170855635Y-60956692D01*
X170875468Y-60730000D01*
X170874628Y-60720403D01*
X170859047Y-60542309D01*
X170855635Y-60503308D01*
X170803839Y-60310000D01*
X170796741Y-60283511D01*
X170796738Y-60283502D01*
X170790442Y-60270000D01*
X170700568Y-60077266D01*
X170574728Y-59897546D01*
X170570045Y-59890858D01*
X170409141Y-59729954D01*
X170222734Y-59599432D01*
X170222732Y-59599431D01*
X170016497Y-59503261D01*
X170016488Y-59503258D01*
X169796697Y-59444366D01*
X169796693Y-59444365D01*
X169796692Y-59444365D01*
X169796691Y-59444364D01*
X169796686Y-59444364D01*
X169570002Y-59424532D01*
X169569998Y-59424532D01*
X169343313Y-59444364D01*
X169343302Y-59444366D01*
X169247067Y-59470152D01*
X169177217Y-59468489D01*
X169127293Y-59438058D01*
X166572886Y-56883651D01*
X166539401Y-56822328D01*
X166544385Y-56752636D01*
X166586257Y-56696703D01*
X166651721Y-56672286D01*
X166660567Y-56671970D01*
X176976373Y-56671970D01*
X177043412Y-56691655D01*
X177064054Y-56708289D01*
X177817233Y-57461468D01*
X177850718Y-57522791D01*
X177849327Y-57581241D01*
X177814939Y-57709583D01*
X177814936Y-57709596D01*
X177794341Y-57944999D01*
X177794341Y-57945000D01*
X177814936Y-58180403D01*
X177814938Y-58180413D01*
X177876094Y-58408655D01*
X177876096Y-58408659D01*
X177876097Y-58408663D01*
X177930802Y-58525978D01*
X177975965Y-58622830D01*
X177975967Y-58622834D01*
X178111501Y-58816395D01*
X178111506Y-58816402D01*
X178278597Y-58983493D01*
X178278603Y-58983498D01*
X178464158Y-59113425D01*
X178507783Y-59168002D01*
X178514977Y-59237500D01*
X178483454Y-59299855D01*
X178464158Y-59316575D01*
X178278597Y-59446505D01*
X178111505Y-59613597D01*
X177975965Y-59807169D01*
X177975964Y-59807171D01*
X177876098Y-60021335D01*
X177876094Y-60021344D01*
X177814938Y-60249586D01*
X177814936Y-60249596D01*
X177794341Y-60484999D01*
X177794341Y-60485000D01*
X177814936Y-60720403D01*
X177814938Y-60720413D01*
X177876094Y-60948655D01*
X177876096Y-60948659D01*
X177876097Y-60948663D01*
X177927246Y-61058352D01*
X177975965Y-61162830D01*
X177975967Y-61162834D01*
X178111501Y-61356395D01*
X178111506Y-61356402D01*
X178278597Y-61523493D01*
X178278603Y-61523498D01*
X178464158Y-61653425D01*
X178507783Y-61708002D01*
X178514977Y-61777500D01*
X178483454Y-61839855D01*
X178464158Y-61856575D01*
X178278597Y-61986505D01*
X178111505Y-62153597D01*
X177975965Y-62347169D01*
X177975964Y-62347171D01*
X177876098Y-62561335D01*
X177876094Y-62561344D01*
X177814938Y-62789586D01*
X177814936Y-62789596D01*
X177794341Y-63024999D01*
X177794341Y-63025000D01*
X177814936Y-63260403D01*
X177814938Y-63260413D01*
X177876094Y-63488655D01*
X177876096Y-63488659D01*
X177876097Y-63488663D01*
X177951416Y-63650185D01*
X177975965Y-63702830D01*
X177975967Y-63702834D01*
X178111501Y-63896395D01*
X178111506Y-63896402D01*
X178278597Y-64063493D01*
X178278603Y-64063498D01*
X178464158Y-64193425D01*
X178507783Y-64248002D01*
X178514977Y-64317500D01*
X178483454Y-64379855D01*
X178464158Y-64396575D01*
X178278597Y-64526505D01*
X178111505Y-64693597D01*
X177975965Y-64887169D01*
X177975964Y-64887171D01*
X177876098Y-65101335D01*
X177876094Y-65101344D01*
X177814938Y-65329586D01*
X177814936Y-65329596D01*
X177794341Y-65564999D01*
X177794341Y-65565000D01*
X177814936Y-65800403D01*
X177814938Y-65800413D01*
X177876094Y-66028655D01*
X177876096Y-66028659D01*
X177876097Y-66028663D01*
X177975965Y-66242830D01*
X177975967Y-66242834D01*
X178058007Y-66359998D01*
X178102481Y-66423514D01*
X178111501Y-66436395D01*
X178111506Y-66436402D01*
X178278597Y-66603493D01*
X178278603Y-66603498D01*
X178464158Y-66733425D01*
X178507783Y-66788002D01*
X178514977Y-66857500D01*
X178483454Y-66919855D01*
X178464158Y-66936575D01*
X178278597Y-67066505D01*
X178111505Y-67233597D01*
X177975965Y-67427169D01*
X177975964Y-67427171D01*
X177876098Y-67641335D01*
X177876094Y-67641344D01*
X177814938Y-67869586D01*
X177814936Y-67869596D01*
X177794341Y-68104999D01*
X177794341Y-68105000D01*
X177814936Y-68340403D01*
X177814938Y-68340413D01*
X177876094Y-68568655D01*
X177876096Y-68568659D01*
X177876097Y-68568663D01*
X177927667Y-68679254D01*
X177975965Y-68782830D01*
X177975967Y-68782834D01*
X178074924Y-68924158D01*
X178102747Y-68963894D01*
X178111501Y-68976395D01*
X178111506Y-68976402D01*
X178278597Y-69143493D01*
X178278603Y-69143498D01*
X178464158Y-69273425D01*
X178507783Y-69328002D01*
X178514977Y-69397500D01*
X178483454Y-69459855D01*
X178464158Y-69476575D01*
X178278597Y-69606505D01*
X178111505Y-69773597D01*
X177975965Y-69967169D01*
X177975964Y-69967171D01*
X177876098Y-70181335D01*
X177876094Y-70181344D01*
X177814938Y-70409586D01*
X177814936Y-70409596D01*
X177794341Y-70644999D01*
X177794341Y-70645000D01*
X177814936Y-70880403D01*
X177814938Y-70880413D01*
X177876094Y-71108655D01*
X177876096Y-71108659D01*
X177876097Y-71108663D01*
X177939672Y-71245000D01*
X177975965Y-71322830D01*
X177975967Y-71322834D01*
X178047222Y-71424596D01*
X178111076Y-71515789D01*
X178111501Y-71516395D01*
X178111506Y-71516402D01*
X178278597Y-71683493D01*
X178278603Y-71683498D01*
X178464158Y-71813425D01*
X178507783Y-71868002D01*
X178514977Y-71937500D01*
X178483454Y-71999855D01*
X178464158Y-72016575D01*
X178278597Y-72146505D01*
X178111505Y-72313597D01*
X177975965Y-72507169D01*
X177975964Y-72507171D01*
X177876098Y-72721335D01*
X177876094Y-72721344D01*
X177814938Y-72949586D01*
X177814936Y-72949596D01*
X177794341Y-73184999D01*
X177794341Y-73185000D01*
X177814936Y-73420403D01*
X177814938Y-73420413D01*
X177876094Y-73648655D01*
X177876096Y-73648659D01*
X177876097Y-73648663D01*
X177938619Y-73782741D01*
X177975965Y-73862830D01*
X177975967Y-73862834D01*
X178074907Y-74004134D01*
X178111505Y-74056401D01*
X178278599Y-74223495D01*
X178324720Y-74255789D01*
X178472165Y-74359032D01*
X178472167Y-74359033D01*
X178472170Y-74359035D01*
X178686337Y-74458903D01*
X178686343Y-74458904D01*
X178686344Y-74458905D01*
X178727043Y-74469810D01*
X178914592Y-74520063D01*
X179102918Y-74536539D01*
X179149999Y-74540659D01*
X179150000Y-74540659D01*
X179150001Y-74540659D01*
X179189234Y-74537226D01*
X179385408Y-74520063D01*
X179613663Y-74458903D01*
X179827830Y-74359035D01*
X180021401Y-74223495D01*
X180188495Y-74056401D01*
X180324035Y-73862830D01*
X180423903Y-73648663D01*
X180485063Y-73420408D01*
X180505659Y-73185000D01*
X180505510Y-73183302D01*
X180491745Y-73025965D01*
X180485063Y-72949592D01*
X180423903Y-72721337D01*
X180324035Y-72507171D01*
X180277035Y-72440047D01*
X180188494Y-72313597D01*
X180021402Y-72146506D01*
X180021396Y-72146501D01*
X179835842Y-72016575D01*
X179792217Y-71961998D01*
X179785023Y-71892500D01*
X179816546Y-71830145D01*
X179835842Y-71813425D01*
X179858026Y-71797891D01*
X180021401Y-71683495D01*
X180188495Y-71516401D01*
X180324035Y-71322830D01*
X180423903Y-71108663D01*
X180485063Y-70880408D01*
X180505659Y-70645000D01*
X180503603Y-70621506D01*
X180487662Y-70439297D01*
X180485063Y-70409592D01*
X180423903Y-70181337D01*
X180324035Y-69967171D01*
X180277035Y-69900047D01*
X180188494Y-69773597D01*
X180021402Y-69606506D01*
X180021396Y-69606501D01*
X179835842Y-69476575D01*
X179792217Y-69421998D01*
X179785023Y-69352500D01*
X179816546Y-69290145D01*
X179835842Y-69273425D01*
X179943741Y-69197873D01*
X180021401Y-69143495D01*
X180188495Y-68976401D01*
X180324035Y-68782830D01*
X180423903Y-68568663D01*
X180485063Y-68340408D01*
X180505659Y-68105000D01*
X180505221Y-68099999D01*
X180497511Y-68011873D01*
X180485063Y-67869592D01*
X180423903Y-67641337D01*
X180324035Y-67427171D01*
X180277035Y-67360047D01*
X180188494Y-67233597D01*
X180021402Y-67066506D01*
X180021396Y-67066501D01*
X179835842Y-66936575D01*
X179792217Y-66881998D01*
X179785023Y-66812500D01*
X179816546Y-66750145D01*
X179835842Y-66733425D01*
X179899881Y-66688584D01*
X180021401Y-66603495D01*
X180188495Y-66436401D01*
X180324035Y-66242830D01*
X180423903Y-66028663D01*
X180485063Y-65800408D01*
X180505659Y-65565000D01*
X180485063Y-65329592D01*
X180423903Y-65101337D01*
X180324035Y-64887171D01*
X180277035Y-64820047D01*
X180188494Y-64693597D01*
X180021402Y-64526506D01*
X180021396Y-64526501D01*
X179835842Y-64396575D01*
X179792217Y-64341998D01*
X179785023Y-64272500D01*
X179816546Y-64210145D01*
X179835842Y-64193425D01*
X179858026Y-64177891D01*
X180021401Y-64063495D01*
X180188495Y-63896401D01*
X180324035Y-63702830D01*
X180423903Y-63488663D01*
X180485063Y-63260408D01*
X180505659Y-63025000D01*
X180485063Y-62789592D01*
X180423903Y-62561337D01*
X180324035Y-62347171D01*
X180277035Y-62280047D01*
X180188494Y-62153597D01*
X180021402Y-61986506D01*
X180021396Y-61986501D01*
X179835842Y-61856575D01*
X179792217Y-61801998D01*
X179785023Y-61732500D01*
X179816546Y-61670145D01*
X179835842Y-61653425D01*
X179897115Y-61610521D01*
X180021401Y-61523495D01*
X180188495Y-61356401D01*
X180324035Y-61162830D01*
X180423903Y-60948663D01*
X180485063Y-60720408D01*
X180505659Y-60485000D01*
X180485063Y-60249592D01*
X180428331Y-60037861D01*
X180423905Y-60021344D01*
X180423904Y-60021343D01*
X180423903Y-60021337D01*
X180324035Y-59807171D01*
X180317591Y-59797967D01*
X180188494Y-59613597D01*
X180021402Y-59446506D01*
X180021396Y-59446501D01*
X179835842Y-59316575D01*
X179792217Y-59261998D01*
X179785023Y-59192500D01*
X179816546Y-59130145D01*
X179835842Y-59113425D01*
X179858026Y-59097891D01*
X180021401Y-58983495D01*
X180188495Y-58816401D01*
X180324035Y-58622830D01*
X180370904Y-58522317D01*
X180417076Y-58469878D01*
X180421261Y-58467350D01*
X180493716Y-58425520D01*
X180605520Y-58313716D01*
X180605520Y-58313714D01*
X180615728Y-58303507D01*
X180615729Y-58303504D01*
X182050520Y-56868716D01*
X182129577Y-56731784D01*
X182170501Y-56579057D01*
X182170501Y-56420942D01*
X182170501Y-56413347D01*
X182170500Y-56413329D01*
X182170500Y-53859059D01*
X182170501Y-53859046D01*
X182170501Y-53690945D01*
X182170501Y-53690943D01*
X182129577Y-53538215D01*
X182087551Y-53465424D01*
X182050520Y-53401284D01*
X181938716Y-53289480D01*
X181938715Y-53289479D01*
X181934385Y-53285149D01*
X181934374Y-53285139D01*
X181617590Y-52968355D01*
X181617588Y-52968352D01*
X181498717Y-52849481D01*
X181498709Y-52849475D01*
X181402721Y-52794057D01*
X181402719Y-52794056D01*
X181361790Y-52770425D01*
X181361789Y-52770424D01*
X181349263Y-52767067D01*
X181209057Y-52729499D01*
X181050943Y-52729499D01*
X181043347Y-52729499D01*
X181043331Y-52729500D01*
X177420097Y-52729500D01*
X177353058Y-52709815D01*
X177332416Y-52693181D01*
X177056319Y-52417084D01*
X177022834Y-52355761D01*
X177020000Y-52329403D01*
X177020000Y-51373012D01*
X177077007Y-51405925D01*
X177204174Y-51440000D01*
X177335826Y-51440000D01*
X177462993Y-51405925D01*
X177520000Y-51373012D01*
X177520000Y-52270633D01*
X177733483Y-52213433D01*
X177733492Y-52213429D01*
X177947578Y-52113600D01*
X178141082Y-51978105D01*
X178308105Y-51811082D01*
X178443600Y-51617578D01*
X178543429Y-51403492D01*
X178543432Y-51403486D01*
X178600636Y-51190000D01*
X177703012Y-51190000D01*
X177735925Y-51132993D01*
X177770000Y-51005826D01*
X177770000Y-50874174D01*
X177735925Y-50747007D01*
X177703012Y-50690000D01*
X178600636Y-50690000D01*
X178600635Y-50689999D01*
X178543432Y-50476513D01*
X178543429Y-50476507D01*
X178443600Y-50262422D01*
X178443599Y-50262420D01*
X178308113Y-50068926D01*
X178308108Y-50068920D01*
X178141082Y-49901894D01*
X177947578Y-49766399D01*
X177733492Y-49666570D01*
X177733486Y-49666567D01*
X177520000Y-49609364D01*
X177520000Y-50506988D01*
X177462993Y-50474075D01*
X177335826Y-50440000D01*
X177204174Y-50440000D01*
X177077007Y-50474075D01*
X177020000Y-50506988D01*
X177020000Y-49609364D01*
X177019999Y-49609364D01*
X176806513Y-49666567D01*
X176806507Y-49666570D01*
X176592422Y-49766399D01*
X176592420Y-49766400D01*
X176398926Y-49901886D01*
X176398920Y-49901891D01*
X176231891Y-50068920D01*
X176231890Y-50068922D01*
X176101880Y-50254595D01*
X176047303Y-50298219D01*
X175977804Y-50305412D01*
X175915450Y-50273890D01*
X175898730Y-50254594D01*
X175768494Y-50068597D01*
X175601402Y-49901506D01*
X175601395Y-49901501D01*
X175595922Y-49897669D01*
X175562521Y-49874281D01*
X175407834Y-49765967D01*
X175407830Y-49765965D01*
X175407828Y-49765964D01*
X175193663Y-49666097D01*
X175193659Y-49666096D01*
X175193655Y-49666094D01*
X174965413Y-49604938D01*
X174965403Y-49604936D01*
X174730001Y-49584341D01*
X174729999Y-49584341D01*
X174494596Y-49604936D01*
X174494586Y-49604938D01*
X174266344Y-49666094D01*
X174266335Y-49666098D01*
X174052171Y-49765964D01*
X174052169Y-49765965D01*
X173858597Y-49901505D01*
X173691505Y-50068597D01*
X173561575Y-50254158D01*
X173506998Y-50297783D01*
X173437500Y-50304977D01*
X173375145Y-50273454D01*
X173358425Y-50254158D01*
X173228494Y-50068597D01*
X173061402Y-49901506D01*
X173061395Y-49901501D01*
X173055922Y-49897669D01*
X173022521Y-49874281D01*
X172867834Y-49765967D01*
X172867830Y-49765965D01*
X172867828Y-49765964D01*
X172653663Y-49666097D01*
X172653659Y-49666096D01*
X172653655Y-49666094D01*
X172425413Y-49604938D01*
X172425403Y-49604936D01*
X172190001Y-49584341D01*
X172189999Y-49584341D01*
X171954596Y-49604936D01*
X171954586Y-49604938D01*
X171726344Y-49666094D01*
X171726335Y-49666098D01*
X171512171Y-49765964D01*
X171512169Y-49765965D01*
X171318597Y-49901505D01*
X171151505Y-50068597D01*
X171021575Y-50254158D01*
X170966998Y-50297783D01*
X170897500Y-50304977D01*
X170835145Y-50273454D01*
X170818425Y-50254158D01*
X170688494Y-50068597D01*
X170521402Y-49901506D01*
X170521395Y-49901501D01*
X170515922Y-49897669D01*
X170482521Y-49874281D01*
X170327834Y-49765967D01*
X170327830Y-49765965D01*
X170327828Y-49765964D01*
X170113663Y-49666097D01*
X170113659Y-49666096D01*
X170113655Y-49666094D01*
X169885413Y-49604938D01*
X169885403Y-49604936D01*
X169650001Y-49584341D01*
X169649999Y-49584341D01*
X169414596Y-49604936D01*
X169414586Y-49604938D01*
X169186344Y-49666094D01*
X169186335Y-49666098D01*
X168972171Y-49765964D01*
X168972169Y-49765965D01*
X168778600Y-49901503D01*
X168656673Y-50023430D01*
X168595350Y-50056914D01*
X168525658Y-50051930D01*
X168469725Y-50010058D01*
X168452810Y-49979081D01*
X168403797Y-49847671D01*
X168403793Y-49847664D01*
X168317547Y-49732455D01*
X168317544Y-49732452D01*
X168202335Y-49646206D01*
X168202328Y-49646202D01*
X168067482Y-49595908D01*
X168067483Y-49595908D01*
X168007883Y-49589501D01*
X168007881Y-49589500D01*
X168007873Y-49589500D01*
X168007864Y-49589500D01*
X166212129Y-49589500D01*
X166212123Y-49589501D01*
X166152516Y-49595908D01*
X166017671Y-49646202D01*
X166017664Y-49646206D01*
X165902455Y-49732452D01*
X165902452Y-49732455D01*
X165816206Y-49847664D01*
X165816202Y-49847671D01*
X165765908Y-49982517D01*
X165759501Y-50042116D01*
X165759500Y-50042135D01*
X165759500Y-51837870D01*
X165759501Y-51837876D01*
X165765908Y-51897483D01*
X165816202Y-52032328D01*
X165816206Y-52032335D01*
X165902452Y-52147544D01*
X165902455Y-52147547D01*
X166017664Y-52233793D01*
X166017671Y-52233797D01*
X166152517Y-52284091D01*
X166152516Y-52284091D01*
X166159444Y-52284835D01*
X166212127Y-52290500D01*
X167150902Y-52290499D01*
X167217941Y-52310183D01*
X167263696Y-52362987D01*
X167273640Y-52432146D01*
X167244615Y-52495702D01*
X167238583Y-52502180D01*
X166392584Y-53348181D01*
X166331261Y-53381666D01*
X166304903Y-53384500D01*
X159956670Y-53384500D01*
X159956654Y-53384499D01*
X159949058Y-53384499D01*
X159819500Y-53384499D01*
X159752461Y-53364814D01*
X159706706Y-53312010D01*
X159695500Y-53260499D01*
X159695500Y-52635945D01*
X159695500Y-52635943D01*
X159654577Y-52483216D01*
X159645564Y-52467606D01*
X159629092Y-52399711D01*
X159651943Y-52333683D01*
X159660000Y-52325333D01*
X159660000Y-51423012D01*
X159717007Y-51455925D01*
X159844174Y-51490000D01*
X159975826Y-51490000D01*
X160102993Y-51455925D01*
X160160000Y-51423012D01*
X160160000Y-52320633D01*
X160373483Y-52263433D01*
X160373492Y-52263429D01*
X160587578Y-52163600D01*
X160781082Y-52028105D01*
X160948105Y-51861082D01*
X161083600Y-51667578D01*
X161183429Y-51453492D01*
X161183432Y-51453486D01*
X161240636Y-51240000D01*
X160343012Y-51240000D01*
X160375925Y-51182993D01*
X160410000Y-51055826D01*
X160410000Y-50924174D01*
X160375925Y-50797007D01*
X160343012Y-50740000D01*
X161240636Y-50740000D01*
X161240635Y-50739999D01*
X161183432Y-50526513D01*
X161183429Y-50526507D01*
X161083600Y-50312422D01*
X161083599Y-50312420D01*
X160948113Y-50118926D01*
X160948108Y-50118920D01*
X160781082Y-49951894D01*
X160587578Y-49816399D01*
X160373492Y-49716570D01*
X160373486Y-49716567D01*
X160160000Y-49659364D01*
X160160000Y-50556988D01*
X160102993Y-50524075D01*
X159975826Y-50490000D01*
X159844174Y-50490000D01*
X159717007Y-50524075D01*
X159660000Y-50556988D01*
X159660000Y-49659364D01*
X159659999Y-49659364D01*
X159446513Y-49716567D01*
X159446507Y-49716570D01*
X159232422Y-49816399D01*
X159232420Y-49816400D01*
X159038926Y-49951886D01*
X159038920Y-49951891D01*
X158871891Y-50118920D01*
X158871890Y-50118922D01*
X158741880Y-50304595D01*
X158687303Y-50348219D01*
X158617804Y-50355412D01*
X158555450Y-50323890D01*
X158538730Y-50304594D01*
X158408494Y-50118597D01*
X158241402Y-49951506D01*
X158241395Y-49951501D01*
X158047834Y-49815967D01*
X158047830Y-49815965D01*
X158047828Y-49815964D01*
X157833663Y-49716097D01*
X157833659Y-49716096D01*
X157833655Y-49716094D01*
X157605413Y-49654938D01*
X157605403Y-49654936D01*
X157370001Y-49634341D01*
X157369999Y-49634341D01*
X157134596Y-49654936D01*
X157134586Y-49654938D01*
X156906344Y-49716094D01*
X156906335Y-49716098D01*
X156692171Y-49815964D01*
X156692169Y-49815965D01*
X156498597Y-49951505D01*
X156331505Y-50118597D01*
X156201575Y-50304158D01*
X156146998Y-50347783D01*
X156077500Y-50354977D01*
X156015145Y-50323454D01*
X155998425Y-50304158D01*
X155868494Y-50118597D01*
X155701402Y-49951506D01*
X155701395Y-49951501D01*
X155507834Y-49815967D01*
X155507830Y-49815965D01*
X155507828Y-49815964D01*
X155293663Y-49716097D01*
X155293659Y-49716096D01*
X155293655Y-49716094D01*
X155065413Y-49654938D01*
X155065403Y-49654936D01*
X154830001Y-49634341D01*
X154829999Y-49634341D01*
X154594596Y-49654936D01*
X154594586Y-49654938D01*
X154366344Y-49716094D01*
X154366335Y-49716098D01*
X154152171Y-49815964D01*
X154152169Y-49815965D01*
X153958600Y-49951503D01*
X153836673Y-50073430D01*
X153775350Y-50106914D01*
X153705658Y-50101930D01*
X153649725Y-50060058D01*
X153632810Y-50029081D01*
X153583797Y-49897671D01*
X153583793Y-49897664D01*
X153497547Y-49782455D01*
X153497544Y-49782452D01*
X153382335Y-49696206D01*
X153382328Y-49696202D01*
X153247482Y-49645908D01*
X153247483Y-49645908D01*
X153187883Y-49639501D01*
X153187881Y-49639500D01*
X153187873Y-49639500D01*
X153187864Y-49639500D01*
X151392129Y-49639500D01*
X151392123Y-49639501D01*
X151332516Y-49645908D01*
X151197671Y-49696202D01*
X151197664Y-49696206D01*
X151082455Y-49782452D01*
X151082452Y-49782455D01*
X150996206Y-49897664D01*
X150996202Y-49897671D01*
X150945908Y-50032517D01*
X150939501Y-50092116D01*
X150939500Y-50092135D01*
X150939500Y-51887870D01*
X150939501Y-51887876D01*
X150945908Y-51947483D01*
X150996202Y-52082328D01*
X150996206Y-52082335D01*
X151082452Y-52197544D01*
X151082455Y-52197547D01*
X151197664Y-52283793D01*
X151197671Y-52283797D01*
X151332517Y-52334091D01*
X151332516Y-52334091D01*
X151339444Y-52334835D01*
X151392127Y-52340500D01*
X153187872Y-52340499D01*
X153247483Y-52334091D01*
X153382331Y-52283796D01*
X153497546Y-52197546D01*
X153583796Y-52082331D01*
X153632810Y-51950916D01*
X153674681Y-51894984D01*
X153740145Y-51870566D01*
X153808418Y-51885417D01*
X153836673Y-51906569D01*
X153958599Y-52028495D01*
X154055384Y-52096265D01*
X154152165Y-52164032D01*
X154152167Y-52164033D01*
X154152170Y-52164035D01*
X154157898Y-52166706D01*
X154210339Y-52212872D01*
X154229500Y-52279090D01*
X154229500Y-54238060D01*
X154209815Y-54305099D01*
X154157011Y-54350854D01*
X154087853Y-54360798D01*
X154024297Y-54331773D01*
X154017819Y-54325741D01*
X153992262Y-54300184D01*
X153839523Y-54204211D01*
X153669254Y-54144631D01*
X153669249Y-54144630D01*
X153490004Y-54124435D01*
X153489996Y-54124435D01*
X153310750Y-54144630D01*
X153310745Y-54144631D01*
X153140476Y-54204211D01*
X152987737Y-54300184D01*
X152860184Y-54427737D01*
X152764211Y-54580476D01*
X152704631Y-54750745D01*
X152704630Y-54750750D01*
X152684435Y-54929996D01*
X152684435Y-54930003D01*
X152704630Y-55109249D01*
X152704631Y-55109254D01*
X152764211Y-55279523D01*
X152818500Y-55365923D01*
X152837500Y-55433160D01*
X152817132Y-55499995D01*
X152801187Y-55519576D01*
X149402180Y-58918584D01*
X149340857Y-58952069D01*
X149271165Y-58947085D01*
X149215232Y-58905213D01*
X149190815Y-58839749D01*
X149190499Y-58830903D01*
X149190499Y-57892129D01*
X149190498Y-57892123D01*
X149184091Y-57832516D01*
X149133797Y-57697671D01*
X149133793Y-57697664D01*
X149047547Y-57582455D01*
X149047544Y-57582452D01*
X148932335Y-57496206D01*
X148932328Y-57496202D01*
X148797482Y-57445908D01*
X148797483Y-57445908D01*
X148737883Y-57439501D01*
X148737881Y-57439500D01*
X148737873Y-57439500D01*
X148737865Y-57439500D01*
X147490098Y-57439500D01*
X147423059Y-57419815D01*
X147402417Y-57403181D01*
X147066819Y-57067583D01*
X147033334Y-57006260D01*
X147030500Y-56979902D01*
X147030500Y-56219464D01*
X147050185Y-56152425D01*
X147102989Y-56106670D01*
X147172147Y-56096726D01*
X147194763Y-56102183D01*
X147360506Y-56159083D01*
X147605707Y-56200000D01*
X147854293Y-56200000D01*
X148099493Y-56159083D01*
X148334603Y-56078369D01*
X148334614Y-56078364D01*
X148553230Y-55960056D01*
X148553236Y-55960051D01*
X148600055Y-55923610D01*
X148600056Y-55923609D01*
X147900233Y-55223787D01*
X147942292Y-55212518D01*
X148067708Y-55140110D01*
X148170110Y-55037708D01*
X148242518Y-54912292D01*
X148253787Y-54870234D01*
X148953435Y-55569882D01*
X149053733Y-55416364D01*
X149153587Y-55188717D01*
X149214612Y-54947738D01*
X149214614Y-54947729D01*
X149235141Y-54700005D01*
X149235141Y-54699994D01*
X149214614Y-54452270D01*
X149214612Y-54452261D01*
X149153587Y-54211282D01*
X149053732Y-53983632D01*
X148953435Y-53830116D01*
X148253787Y-54529765D01*
X148242518Y-54487708D01*
X148170110Y-54362292D01*
X148067708Y-54259890D01*
X147942292Y-54187482D01*
X147900233Y-54176212D01*
X148600055Y-53476389D01*
X148600055Y-53476388D01*
X148553236Y-53439947D01*
X148553231Y-53439944D01*
X148334614Y-53321635D01*
X148334603Y-53321630D01*
X148099493Y-53240916D01*
X147854293Y-53200000D01*
X147605707Y-53200000D01*
X147360506Y-53240916D01*
X147125396Y-53321630D01*
X147125385Y-53321635D01*
X146906770Y-53439943D01*
X146859943Y-53476389D01*
X147559766Y-54176212D01*
X147517708Y-54187482D01*
X147392292Y-54259890D01*
X147289890Y-54362292D01*
X147217482Y-54487708D01*
X147206212Y-54529766D01*
X146506563Y-53830117D01*
X146406267Y-53983633D01*
X146406265Y-53983637D01*
X146313490Y-54195146D01*
X146268534Y-54248632D01*
X146201798Y-54269322D01*
X146134470Y-54250648D01*
X146112253Y-54233017D01*
X142891416Y-51012181D01*
X142857931Y-50950858D01*
X142862915Y-50881166D01*
X142904787Y-50825233D01*
X142970251Y-50800816D01*
X142979097Y-50800500D01*
X146273884Y-50800500D01*
X146340923Y-50820185D01*
X146386678Y-50872989D01*
X146387440Y-50874689D01*
X146405827Y-50916608D01*
X146541833Y-51124782D01*
X146541836Y-51124785D01*
X146710256Y-51307738D01*
X146906491Y-51460474D01*
X147125190Y-51578828D01*
X147360386Y-51659571D01*
X147605665Y-51700500D01*
X147854335Y-51700500D01*
X148099614Y-51659571D01*
X148334810Y-51578828D01*
X148553509Y-51460474D01*
X148749744Y-51307738D01*
X148918164Y-51124785D01*
X149054173Y-50916607D01*
X149154063Y-50688881D01*
X149215108Y-50447821D01*
X149218347Y-50408732D01*
X149235643Y-50200005D01*
X149235643Y-50199994D01*
X149215109Y-49952187D01*
X149215107Y-49952175D01*
X149154063Y-49711118D01*
X149054173Y-49483393D01*
X148918166Y-49275217D01*
X148894946Y-49249994D01*
X148749744Y-49092262D01*
X148553509Y-48939526D01*
X148553507Y-48939525D01*
X148553506Y-48939524D01*
X148334811Y-48821172D01*
X148334802Y-48821169D01*
X148099616Y-48740429D01*
X147854335Y-48699500D01*
X147605665Y-48699500D01*
X147360383Y-48740429D01*
X147125197Y-48821169D01*
X147125188Y-48821172D01*
X146906493Y-48939524D01*
X146710257Y-49092261D01*
X146541833Y-49275217D01*
X146405827Y-49483391D01*
X146387440Y-49525311D01*
X146342483Y-49578796D01*
X146275747Y-49599486D01*
X146273884Y-49599500D01*
X142686116Y-49599500D01*
X142619077Y-49579815D01*
X142573322Y-49527011D01*
X142572560Y-49525311D01*
X142554172Y-49483391D01*
X142418166Y-49275217D01*
X142394946Y-49249994D01*
X142249744Y-49092262D01*
X142053509Y-48939526D01*
X142053507Y-48939525D01*
X142053506Y-48939524D01*
X141834811Y-48821172D01*
X141834802Y-48821169D01*
X141599616Y-48740429D01*
X141354335Y-48699500D01*
X141105665Y-48699500D01*
X140860383Y-48740429D01*
X140625197Y-48821169D01*
X140625188Y-48821172D01*
X140406493Y-48939524D01*
X140210257Y-49092261D01*
X140041833Y-49275217D01*
X139905826Y-49483393D01*
X139805936Y-49711118D01*
X139744892Y-49952175D01*
X139744890Y-49952187D01*
X139724357Y-50199994D01*
X139724357Y-50200005D01*
X139744890Y-50447812D01*
X139744892Y-50447824D01*
X139805936Y-50688881D01*
X139905826Y-50916606D01*
X140041833Y-51124782D01*
X140041836Y-51124785D01*
X140210256Y-51307738D01*
X140406491Y-51460474D01*
X140625190Y-51578828D01*
X140860386Y-51659571D01*
X141105665Y-51700500D01*
X141354335Y-51700500D01*
X141599608Y-51659572D01*
X141599607Y-51659572D01*
X141599614Y-51659571D01*
X141705607Y-51623182D01*
X141775402Y-51620033D01*
X141833548Y-51652783D01*
X145793181Y-55612416D01*
X145826666Y-55673739D01*
X145829500Y-55700097D01*
X145829500Y-57193330D01*
X145829499Y-57193348D01*
X145829499Y-57359054D01*
X145829498Y-57359054D01*
X145832382Y-57369816D01*
X145870423Y-57511785D01*
X145870424Y-57511787D01*
X145870423Y-57511787D01*
X145886983Y-57540468D01*
X145886984Y-57540469D01*
X145886986Y-57540472D01*
X145910524Y-57581241D01*
X145949479Y-57648715D01*
X146068349Y-57767585D01*
X146068355Y-57767590D01*
X146553181Y-58252416D01*
X146586666Y-58313739D01*
X146589500Y-58340097D01*
X146589500Y-59587870D01*
X146589501Y-59587876D01*
X146595908Y-59647483D01*
X146646202Y-59782328D01*
X146646206Y-59782335D01*
X146732452Y-59897544D01*
X146732455Y-59897547D01*
X146847664Y-59983793D01*
X146847671Y-59983797D01*
X146875872Y-59994315D01*
X146982517Y-60034091D01*
X147017596Y-60037862D01*
X147082144Y-60064599D01*
X147121993Y-60121991D01*
X147124488Y-60191816D01*
X147088836Y-60251905D01*
X147075464Y-60262725D01*
X147050858Y-60279954D01*
X146889954Y-60440858D01*
X146759432Y-60627265D01*
X146759431Y-60627267D01*
X146663261Y-60833502D01*
X146663258Y-60833511D01*
X146604366Y-61053302D01*
X146604364Y-61053313D01*
X146584532Y-61279998D01*
X146584532Y-61280001D01*
X146604364Y-61506686D01*
X146604366Y-61506697D01*
X146663258Y-61726488D01*
X146663261Y-61726497D01*
X146759431Y-61932732D01*
X146759432Y-61932734D01*
X146889954Y-62119141D01*
X147050858Y-62280045D01*
X147050861Y-62280047D01*
X147237266Y-62410568D01*
X147277866Y-62429500D01*
X147295275Y-62437618D01*
X147347714Y-62483791D01*
X147366866Y-62550984D01*
X147346650Y-62617865D01*
X147295275Y-62662382D01*
X147237267Y-62689431D01*
X147237265Y-62689432D01*
X147050858Y-62819954D01*
X146889954Y-62980858D01*
X146759432Y-63167265D01*
X146759431Y-63167267D01*
X146663261Y-63373502D01*
X146663258Y-63373511D01*
X146604366Y-63593302D01*
X146604364Y-63593313D01*
X146584532Y-63819998D01*
X146584532Y-63820001D01*
X146604364Y-64046686D01*
X146604366Y-64046697D01*
X146663258Y-64266488D01*
X146663261Y-64266497D01*
X146759431Y-64472732D01*
X146759432Y-64472734D01*
X146889954Y-64659141D01*
X147050858Y-64820045D01*
X147050861Y-64820047D01*
X147237266Y-64950568D01*
X147295275Y-64977618D01*
X147347714Y-65023791D01*
X147366866Y-65090984D01*
X147346650Y-65157865D01*
X147295275Y-65202382D01*
X147237267Y-65229431D01*
X147237265Y-65229432D01*
X147050858Y-65359954D01*
X146889954Y-65520858D01*
X146759432Y-65707265D01*
X146759431Y-65707267D01*
X146663261Y-65913502D01*
X146663258Y-65913511D01*
X146604366Y-66133302D01*
X146604364Y-66133313D01*
X146584532Y-66359998D01*
X146584532Y-66360001D01*
X146604364Y-66586686D01*
X146604366Y-66586697D01*
X146663258Y-66806488D01*
X146663261Y-66806497D01*
X146759431Y-67012732D01*
X146759432Y-67012734D01*
X146889954Y-67199141D01*
X147050858Y-67360045D01*
X147050861Y-67360047D01*
X147237266Y-67490568D01*
X147295275Y-67517618D01*
X147347714Y-67563791D01*
X147366866Y-67630984D01*
X147346650Y-67697865D01*
X147295275Y-67742382D01*
X147237267Y-67769431D01*
X147237265Y-67769432D01*
X147050858Y-67899954D01*
X146889954Y-68060858D01*
X146759432Y-68247265D01*
X146759431Y-68247267D01*
X146663261Y-68453502D01*
X146663258Y-68453511D01*
X146604366Y-68673302D01*
X146604364Y-68673313D01*
X146584532Y-68899998D01*
X146584532Y-68900001D01*
X146604364Y-69126686D01*
X146604366Y-69126697D01*
X146663258Y-69346488D01*
X146663260Y-69346492D01*
X146663261Y-69346496D01*
X146707060Y-69440423D01*
X146757081Y-69547693D01*
X146767573Y-69616771D01*
X146739053Y-69680555D01*
X146706700Y-69707485D01*
X146651285Y-69739479D01*
X146651282Y-69739481D01*
X146592934Y-69797830D01*
X146539480Y-69851284D01*
X146539478Y-69851286D01*
X146145643Y-70245122D01*
X145782584Y-70608181D01*
X145721261Y-70641666D01*
X145694903Y-70644500D01*
X144284099Y-70644500D01*
X144217060Y-70624815D01*
X144171305Y-70572011D01*
X144161361Y-70502853D01*
X144190386Y-70439297D01*
X144196417Y-70432819D01*
X144239236Y-70390000D01*
X144285520Y-70343716D01*
X144285520Y-70343714D01*
X144295728Y-70333507D01*
X144295730Y-70333504D01*
X145298535Y-69330698D01*
X145359856Y-69297215D01*
X145372311Y-69295163D01*
X145459255Y-69285368D01*
X145629522Y-69225789D01*
X145782262Y-69129816D01*
X145909816Y-69002262D01*
X146005789Y-68849522D01*
X146065368Y-68679255D01*
X146065369Y-68679249D01*
X146085565Y-68500003D01*
X146085565Y-68499996D01*
X146065369Y-68320750D01*
X146065368Y-68320745D01*
X146039657Y-68247267D01*
X146005789Y-68150478D01*
X146005521Y-68150052D01*
X145962448Y-68081501D01*
X145909816Y-67997738D01*
X145782262Y-67870184D01*
X145772756Y-67864211D01*
X145629523Y-67774211D01*
X145459254Y-67714631D01*
X145459249Y-67714630D01*
X145280004Y-67694435D01*
X145279996Y-67694435D01*
X145100750Y-67714630D01*
X145100745Y-67714631D01*
X144930476Y-67774211D01*
X144777737Y-67870184D01*
X144650184Y-67997737D01*
X144554210Y-68150478D01*
X144494630Y-68320750D01*
X144484837Y-68407668D01*
X144457770Y-68472082D01*
X144449298Y-68481465D01*
X143592584Y-69338181D01*
X143531261Y-69371666D01*
X143504903Y-69374500D01*
X143137721Y-69374500D01*
X143070682Y-69354815D01*
X143024927Y-69302011D01*
X143014983Y-69232853D01*
X143023160Y-69203047D01*
X143075719Y-69076159D01*
X143090500Y-68963887D01*
X143090499Y-68446114D01*
X143084463Y-68400265D01*
X143075720Y-68333848D01*
X143075719Y-68333847D01*
X143075719Y-68333841D01*
X143031210Y-68226386D01*
X143017856Y-68194146D01*
X142980518Y-68145487D01*
X142955323Y-68080318D01*
X142969361Y-68011873D01*
X142980518Y-67994513D01*
X143017856Y-67945853D01*
X143049199Y-67870184D01*
X143075719Y-67806159D01*
X143090500Y-67693887D01*
X143090499Y-67176114D01*
X143089981Y-67172182D01*
X143075720Y-67063848D01*
X143075719Y-67063847D01*
X143075719Y-67063841D01*
X143023004Y-66936575D01*
X143017857Y-66924149D01*
X143017856Y-66924148D01*
X143017856Y-66924147D01*
X142925810Y-66804190D01*
X142805853Y-66712144D01*
X142805852Y-66712143D01*
X142805850Y-66712142D01*
X142666162Y-66654282D01*
X142666160Y-66654281D01*
X142666159Y-66654281D01*
X142652125Y-66652433D01*
X142553894Y-66639500D01*
X142553887Y-66639500D01*
X141710098Y-66639500D01*
X141643059Y-66619815D01*
X141622417Y-66603181D01*
X140224604Y-65205368D01*
X138823119Y-63803884D01*
X138789635Y-63742562D01*
X138794619Y-63672870D01*
X138836491Y-63616937D01*
X138878703Y-63596431D01*
X138904285Y-63589577D01*
X138916088Y-63582762D01*
X138960130Y-63557335D01*
X138960131Y-63557334D01*
X139041216Y-63510520D01*
X139153020Y-63398716D01*
X139153020Y-63398714D01*
X139163224Y-63388511D01*
X139163228Y-63388506D01*
X140299916Y-62251818D01*
X140361239Y-62218333D01*
X140387597Y-62215499D01*
X141225002Y-62215499D01*
X141225008Y-62215499D01*
X141327797Y-62204999D01*
X141494334Y-62149814D01*
X141643656Y-62057712D01*
X141767712Y-61933656D01*
X141859814Y-61784334D01*
X141914999Y-61617797D01*
X141914999Y-61617791D01*
X141915870Y-61615165D01*
X141955642Y-61557720D01*
X142020158Y-61530897D01*
X142088934Y-61543212D01*
X142140134Y-61590755D01*
X142151282Y-61615164D01*
X142200642Y-61764121D01*
X142200643Y-61764124D01*
X142292684Y-61913345D01*
X142416654Y-62037315D01*
X142565875Y-62129356D01*
X142565880Y-62129358D01*
X142732302Y-62184505D01*
X142732309Y-62184506D01*
X142835019Y-62194999D01*
X143259999Y-62194999D01*
X143760000Y-62194999D01*
X144184972Y-62194999D01*
X144184986Y-62194998D01*
X144287697Y-62184505D01*
X144454119Y-62129358D01*
X144454124Y-62129356D01*
X144603345Y-62037315D01*
X144727315Y-61913345D01*
X144819356Y-61764124D01*
X144819358Y-61764119D01*
X144874505Y-61597697D01*
X144874506Y-61597690D01*
X144884999Y-61494986D01*
X144885000Y-61494973D01*
X144885000Y-61320000D01*
X143760000Y-61320000D01*
X143760000Y-62194999D01*
X143259999Y-62194999D01*
X143260000Y-62194998D01*
X143260000Y-60820000D01*
X143760000Y-60820000D01*
X144884999Y-60820000D01*
X144884999Y-60645028D01*
X144884998Y-60645013D01*
X144874505Y-60542302D01*
X144819358Y-60375880D01*
X144819356Y-60375875D01*
X144727315Y-60226654D01*
X144603345Y-60102684D01*
X144454124Y-60010643D01*
X144454119Y-60010641D01*
X144287697Y-59955494D01*
X144287690Y-59955493D01*
X144184986Y-59945000D01*
X143760000Y-59945000D01*
X143760000Y-60820000D01*
X143260000Y-60820000D01*
X143260000Y-59945000D01*
X142835028Y-59945000D01*
X142835012Y-59945001D01*
X142732302Y-59955494D01*
X142565880Y-60010641D01*
X142565875Y-60010643D01*
X142416654Y-60102684D01*
X142292684Y-60226654D01*
X142200643Y-60375875D01*
X142200641Y-60375880D01*
X142145494Y-60542302D01*
X142145493Y-60542309D01*
X142138731Y-60608498D01*
X142112334Y-60673190D01*
X142055153Y-60713341D01*
X141985342Y-60716204D01*
X141925066Y-60680869D01*
X141897667Y-60634899D01*
X141895137Y-60627265D01*
X141859814Y-60520666D01*
X141767712Y-60371344D01*
X141643656Y-60247288D01*
X141494334Y-60155186D01*
X141327797Y-60100001D01*
X141327795Y-60100000D01*
X141225010Y-60089500D01*
X139874998Y-60089500D01*
X139874981Y-60089501D01*
X139772203Y-60100000D01*
X139772200Y-60100001D01*
X139605668Y-60155185D01*
X139605663Y-60155187D01*
X139456342Y-60247289D01*
X139332289Y-60371342D01*
X139240187Y-60520663D01*
X139240185Y-60520668D01*
X139233014Y-60542309D01*
X139185001Y-60687203D01*
X139185001Y-60687204D01*
X139185000Y-60687204D01*
X139174500Y-60789983D01*
X139174500Y-61515001D01*
X139174501Y-61515019D01*
X139183690Y-61604968D01*
X139170920Y-61673661D01*
X139148013Y-61705250D01*
X138460084Y-62393181D01*
X138398761Y-62426666D01*
X138372403Y-62429500D01*
X138154499Y-62429500D01*
X138087460Y-62409815D01*
X138041705Y-62357011D01*
X138030499Y-62305500D01*
X138030499Y-62082129D01*
X138030498Y-62082123D01*
X138030497Y-62082116D01*
X138024091Y-62022517D01*
X138023876Y-62021941D01*
X137973797Y-61887671D01*
X137973793Y-61887664D01*
X137887547Y-61772455D01*
X137887544Y-61772452D01*
X137772335Y-61686206D01*
X137772328Y-61686202D01*
X137637482Y-61635908D01*
X137637483Y-61635908D01*
X137577883Y-61629501D01*
X137577881Y-61629500D01*
X137577873Y-61629500D01*
X137577864Y-61629500D01*
X135682129Y-61629500D01*
X135682123Y-61629501D01*
X135622516Y-61635908D01*
X135487671Y-61686202D01*
X135487664Y-61686206D01*
X135372455Y-61772452D01*
X135372452Y-61772455D01*
X135286206Y-61887664D01*
X135286202Y-61887671D01*
X135235908Y-62022517D01*
X135229501Y-62082116D01*
X135229501Y-62082123D01*
X135229500Y-62082135D01*
X135229500Y-62305500D01*
X135209815Y-62372539D01*
X135157011Y-62418294D01*
X135105500Y-62429500D01*
X134363964Y-62429500D01*
X134296925Y-62409815D01*
X134276283Y-62393181D01*
X134056821Y-62173719D01*
X133825281Y-61942180D01*
X133791797Y-61880858D01*
X133796781Y-61811167D01*
X133838652Y-61755233D01*
X133904117Y-61730816D01*
X133912963Y-61730500D01*
X134313331Y-61730500D01*
X134313347Y-61730501D01*
X134320943Y-61730501D01*
X134479054Y-61730501D01*
X134479057Y-61730501D01*
X134631785Y-61689577D01*
X134702558Y-61648716D01*
X134768716Y-61610520D01*
X134880520Y-61498716D01*
X134880521Y-61498714D01*
X134972418Y-61406816D01*
X135033740Y-61373334D01*
X135060097Y-61370500D01*
X135174682Y-61370500D01*
X135174690Y-61370500D01*
X135210993Y-61367643D01*
X135210995Y-61367642D01*
X135210997Y-61367642D01*
X135271083Y-61350185D01*
X135366395Y-61322494D01*
X135387369Y-61310089D01*
X135455088Y-61292906D01*
X135513613Y-61310090D01*
X135533803Y-61322031D01*
X135680000Y-61364504D01*
X135680000Y-61364503D01*
X136180000Y-61364503D01*
X136326195Y-61322031D01*
X136465374Y-61239721D01*
X136465383Y-61239714D01*
X136579714Y-61125383D01*
X136579721Y-61125374D01*
X136662031Y-60986195D01*
X136662033Y-60986190D01*
X136707144Y-60830918D01*
X136707145Y-60830912D01*
X136708790Y-60810000D01*
X136180000Y-60810000D01*
X136180000Y-61364503D01*
X135680000Y-61364503D01*
X135680000Y-61058352D01*
X135697267Y-60995233D01*
X135702494Y-60986395D01*
X135711126Y-60956686D01*
X135747642Y-60830997D01*
X135747643Y-60830991D01*
X135750499Y-60794697D01*
X135750500Y-60794690D01*
X135750500Y-60325310D01*
X135747643Y-60289007D01*
X135746046Y-60283511D01*
X135702495Y-60133608D01*
X135702492Y-60133600D01*
X135697266Y-60124763D01*
X135680000Y-60061645D01*
X135680000Y-59755494D01*
X136180000Y-59755494D01*
X136180000Y-60310000D01*
X136708790Y-60310000D01*
X136707145Y-60289089D01*
X136662031Y-60133804D01*
X136579721Y-59994625D01*
X136579714Y-59994616D01*
X136465383Y-59880285D01*
X136465374Y-59880278D01*
X136326193Y-59797967D01*
X136326190Y-59797965D01*
X136180001Y-59755493D01*
X136180000Y-59755494D01*
X135680000Y-59755494D01*
X135679998Y-59755493D01*
X135533809Y-59797965D01*
X135533806Y-59797967D01*
X135513608Y-59809912D01*
X135445884Y-59827092D01*
X135387370Y-59809910D01*
X135366397Y-59797507D01*
X135366390Y-59797504D01*
X135210997Y-59752357D01*
X135210991Y-59752356D01*
X135174697Y-59749500D01*
X135174690Y-59749500D01*
X134765310Y-59749500D01*
X134765302Y-59749500D01*
X134729008Y-59752356D01*
X134729002Y-59752357D01*
X134573609Y-59797504D01*
X134573606Y-59797505D01*
X134434315Y-59879881D01*
X134434307Y-59879887D01*
X134319887Y-59994307D01*
X134319881Y-59994315D01*
X134237505Y-60133606D01*
X134237504Y-60133609D01*
X134192357Y-60289002D01*
X134192356Y-60289008D01*
X134189500Y-60325302D01*
X134189500Y-60405500D01*
X134169815Y-60472539D01*
X134117011Y-60518294D01*
X134065500Y-60529500D01*
X132550862Y-60529500D01*
X132518509Y-60520000D01*
X132434500Y-60520000D01*
X132367461Y-60500315D01*
X132321706Y-60447511D01*
X132310500Y-60396000D01*
X132310500Y-60285317D01*
X132310499Y-60285302D01*
X132310357Y-60283502D01*
X132307643Y-60249007D01*
X132295571Y-60207457D01*
X132262495Y-60093608D01*
X132262492Y-60093600D01*
X132257266Y-60084763D01*
X132240000Y-60021645D01*
X132240000Y-59715494D01*
X132740000Y-59715494D01*
X132740000Y-60270000D01*
X133268790Y-60270000D01*
X133267145Y-60249089D01*
X133222031Y-60093804D01*
X133139721Y-59954625D01*
X133139714Y-59954616D01*
X133025383Y-59840285D01*
X133025374Y-59840278D01*
X132886193Y-59757967D01*
X132886190Y-59757965D01*
X132740001Y-59715493D01*
X132740000Y-59715494D01*
X132240000Y-59715494D01*
X132239998Y-59715493D01*
X132093809Y-59757965D01*
X132093806Y-59757967D01*
X132073608Y-59769912D01*
X132005884Y-59787092D01*
X131947370Y-59769910D01*
X131926397Y-59757507D01*
X131926390Y-59757504D01*
X131770997Y-59712357D01*
X131770991Y-59712356D01*
X131734697Y-59709500D01*
X131734690Y-59709500D01*
X131325310Y-59709500D01*
X131325302Y-59709500D01*
X131289008Y-59712356D01*
X131289002Y-59712357D01*
X131133609Y-59757504D01*
X131133606Y-59757505D01*
X130994315Y-59839881D01*
X130994307Y-59839887D01*
X130879887Y-59954307D01*
X130879881Y-59954315D01*
X130797505Y-60093606D01*
X130797504Y-60093609D01*
X130752357Y-60249002D01*
X130752356Y-60249008D01*
X130749500Y-60285302D01*
X130749500Y-60754697D01*
X130752356Y-60790991D01*
X130752357Y-60790997D01*
X130797504Y-60946390D01*
X130797505Y-60946393D01*
X130797506Y-60946395D01*
X130813739Y-60973843D01*
X130879881Y-61085684D01*
X130879887Y-61085692D01*
X130994307Y-61200112D01*
X130994311Y-61200115D01*
X130994313Y-61200117D01*
X131133605Y-61282494D01*
X131169443Y-61292906D01*
X131289002Y-61327642D01*
X131289005Y-61327642D01*
X131289007Y-61327643D01*
X131325310Y-61330500D01*
X131439903Y-61330500D01*
X131506942Y-61350185D01*
X131527584Y-61366819D01*
X131655139Y-61494374D01*
X131655149Y-61494385D01*
X131659479Y-61498715D01*
X131659480Y-61498716D01*
X131771284Y-61610520D01*
X131837442Y-61648716D01*
X131870327Y-61667702D01*
X131908211Y-61689575D01*
X131908215Y-61689577D01*
X132044864Y-61726191D01*
X132104522Y-61762555D01*
X132132543Y-61813871D01*
X132160423Y-61917920D01*
X132164548Y-61925064D01*
X132168973Y-61932727D01*
X132168975Y-61932736D01*
X132168978Y-61932735D01*
X132217637Y-62017016D01*
X132239479Y-62054848D01*
X132239481Y-62054851D01*
X132358349Y-62173719D01*
X132358354Y-62173723D01*
X133695150Y-63510520D01*
X133695152Y-63510521D01*
X133695156Y-63510524D01*
X133832075Y-63589573D01*
X133832082Y-63589577D01*
X133984809Y-63630501D01*
X133984811Y-63630501D01*
X134150520Y-63630501D01*
X134150536Y-63630500D01*
X135105501Y-63630500D01*
X135172540Y-63650185D01*
X135218295Y-63702989D01*
X135229501Y-63754500D01*
X135229501Y-63977876D01*
X135235908Y-64037483D01*
X135286202Y-64172328D01*
X135286206Y-64172335D01*
X135372452Y-64287544D01*
X135372455Y-64287547D01*
X135487664Y-64373793D01*
X135487671Y-64373797D01*
X135622517Y-64424091D01*
X135622516Y-64424091D01*
X135629444Y-64424835D01*
X135682127Y-64430500D01*
X137577872Y-64430499D01*
X137637483Y-64424091D01*
X137637486Y-64424090D01*
X137641021Y-64422772D01*
X137643954Y-64422562D01*
X137645034Y-64422307D01*
X137645075Y-64422481D01*
X137710712Y-64417786D01*
X137772033Y-64451268D01*
X137772037Y-64451272D01*
X140149012Y-66828247D01*
X140182497Y-66889570D01*
X140177513Y-66959262D01*
X140175892Y-66963381D01*
X140138316Y-67054098D01*
X140111436Y-67094326D01*
X138866286Y-68339478D01*
X138754481Y-68451282D01*
X138754475Y-68451290D01*
X138712221Y-68524478D01*
X138712221Y-68524480D01*
X138675423Y-68588214D01*
X138672265Y-68600000D01*
X138634499Y-68740943D01*
X138634499Y-68740945D01*
X138634499Y-68909046D01*
X138634500Y-68909059D01*
X138634500Y-72523480D01*
X138614815Y-72590519D01*
X138598181Y-72611161D01*
X138497681Y-72711661D01*
X138436358Y-72745146D01*
X138366666Y-72740162D01*
X138322319Y-72711661D01*
X138220188Y-72609530D01*
X138200483Y-72597618D01*
X138074606Y-72521522D01*
X137912196Y-72470914D01*
X137912194Y-72470913D01*
X137912192Y-72470913D01*
X137862778Y-72466423D01*
X137841616Y-72464500D01*
X137328384Y-72464500D01*
X137309145Y-72466248D01*
X137257807Y-72470913D01*
X137095393Y-72521522D01*
X136949811Y-72609530D01*
X136829530Y-72729811D01*
X136829528Y-72729815D01*
X136801482Y-72776210D01*
X136799402Y-72779650D01*
X136747874Y-72826838D01*
X136693285Y-72839500D01*
X136060097Y-72839500D01*
X135993058Y-72819815D01*
X135972416Y-72803181D01*
X135352778Y-72183543D01*
X135319293Y-72122220D01*
X135324277Y-72052528D01*
X135366149Y-71996595D01*
X135431613Y-71972178D01*
X135487911Y-71981301D01*
X135593967Y-72025230D01*
X135593971Y-72025231D01*
X135706136Y-72039999D01*
X135706151Y-72040000D01*
X136405000Y-72040000D01*
X136905000Y-72040000D01*
X137603849Y-72040000D01*
X137603863Y-72039999D01*
X137716028Y-72025231D01*
X137716032Y-72025230D01*
X137855598Y-71967421D01*
X137975452Y-71875452D01*
X138067421Y-71755598D01*
X138125230Y-71616032D01*
X138125231Y-71616028D01*
X138139999Y-71503863D01*
X138140000Y-71503849D01*
X138140000Y-71495000D01*
X136905000Y-71495000D01*
X136905000Y-72040000D01*
X136405000Y-72040000D01*
X136405000Y-71369000D01*
X136424685Y-71301961D01*
X136477489Y-71256206D01*
X136529000Y-71245000D01*
X136655000Y-71245000D01*
X136655000Y-71119000D01*
X136674685Y-71051961D01*
X136727489Y-71006206D01*
X136779000Y-70995000D01*
X138140000Y-70995000D01*
X138140000Y-70986150D01*
X138139999Y-70986136D01*
X138125231Y-70873971D01*
X138125230Y-70873967D01*
X138067421Y-70734400D01*
X138067419Y-70734397D01*
X138030203Y-70685897D01*
X138005008Y-70620728D01*
X138019046Y-70552283D01*
X138030203Y-70534923D01*
X138030469Y-70534577D01*
X138067856Y-70485853D01*
X138125719Y-70346159D01*
X138140500Y-70233887D01*
X138140499Y-69716114D01*
X138137230Y-69691284D01*
X138125720Y-69603848D01*
X138125719Y-69603847D01*
X138125719Y-69603841D01*
X138090776Y-69519480D01*
X138067856Y-69464146D01*
X138030518Y-69415487D01*
X138005323Y-69350318D01*
X138019361Y-69281873D01*
X138030518Y-69264513D01*
X138067856Y-69215853D01*
X138073160Y-69203047D01*
X138125719Y-69076159D01*
X138140500Y-68963887D01*
X138140499Y-68446114D01*
X138134463Y-68400265D01*
X138125720Y-68333848D01*
X138125719Y-68333847D01*
X138125719Y-68333841D01*
X138081210Y-68226386D01*
X138067856Y-68194146D01*
X138030518Y-68145487D01*
X138005323Y-68080318D01*
X138019361Y-68011873D01*
X138030518Y-67994513D01*
X138067856Y-67945853D01*
X138099199Y-67870184D01*
X138125719Y-67806159D01*
X138140500Y-67693887D01*
X138140499Y-67176114D01*
X138139981Y-67172182D01*
X138125720Y-67063848D01*
X138125719Y-67063847D01*
X138125719Y-67063841D01*
X138073004Y-66936575D01*
X138067857Y-66924149D01*
X138067856Y-66924148D01*
X138067856Y-66924147D01*
X137975810Y-66804190D01*
X137855853Y-66712144D01*
X137855852Y-66712143D01*
X137855850Y-66712142D01*
X137716162Y-66654282D01*
X137716160Y-66654281D01*
X137716159Y-66654281D01*
X137603887Y-66639500D01*
X135706111Y-66639500D01*
X135593848Y-66654279D01*
X135593837Y-66654282D01*
X135454147Y-66712143D01*
X135328083Y-66808876D01*
X135262914Y-66834070D01*
X135252597Y-66834500D01*
X134911670Y-66834500D01*
X134911654Y-66834499D01*
X134904058Y-66834499D01*
X134745943Y-66834499D01*
X134669579Y-66854961D01*
X134593214Y-66875423D01*
X134593209Y-66875426D01*
X134456290Y-66954475D01*
X134456282Y-66954481D01*
X133653735Y-67757027D01*
X133592412Y-67790512D01*
X133552171Y-67792566D01*
X133480003Y-67784435D01*
X133479996Y-67784435D01*
X133300750Y-67804630D01*
X133300745Y-67804631D01*
X133130476Y-67864211D01*
X132977737Y-67960184D01*
X132850184Y-68087737D01*
X132754211Y-68240476D01*
X132694631Y-68410745D01*
X132694630Y-68410750D01*
X132674435Y-68589996D01*
X132674435Y-68590003D01*
X132694630Y-68769249D01*
X132694631Y-68769254D01*
X132754211Y-68939523D01*
X132793931Y-69002736D01*
X132850184Y-69092262D01*
X132977738Y-69219816D01*
X133037685Y-69257483D01*
X133100917Y-69297215D01*
X133130478Y-69315789D01*
X133243703Y-69355408D01*
X133300745Y-69375368D01*
X133300750Y-69375369D01*
X133479996Y-69395565D01*
X133480000Y-69395565D01*
X133480004Y-69395565D01*
X133659249Y-69375369D01*
X133659251Y-69375368D01*
X133659255Y-69375368D01*
X133659258Y-69375366D01*
X133659262Y-69375366D01*
X133725064Y-69352341D01*
X133794843Y-69348779D01*
X133855470Y-69383507D01*
X133887698Y-69445500D01*
X133881293Y-69515076D01*
X133853702Y-69557061D01*
X133831288Y-69579476D01*
X133831286Y-69579478D01*
X133719481Y-69691282D01*
X133719477Y-69691287D01*
X133676404Y-69765894D01*
X133640423Y-69828215D01*
X133599499Y-69980943D01*
X133599499Y-69980945D01*
X133599499Y-70149046D01*
X133599500Y-70149059D01*
X133599500Y-76013330D01*
X133599499Y-76013348D01*
X133599499Y-76179054D01*
X133599498Y-76179054D01*
X133640423Y-76331786D01*
X133643323Y-76336807D01*
X133643326Y-76336819D01*
X133643329Y-76336818D01*
X133719477Y-76468712D01*
X133719481Y-76468717D01*
X133838349Y-76587585D01*
X133838355Y-76587590D01*
X139323181Y-82072416D01*
X139356666Y-82133739D01*
X139359500Y-82160097D01*
X139359500Y-84007870D01*
X139359501Y-84007876D01*
X139365908Y-84067483D01*
X139416202Y-84202328D01*
X139416206Y-84202335D01*
X139502452Y-84317544D01*
X139502455Y-84317547D01*
X139617664Y-84403793D01*
X139617671Y-84403797D01*
X139752517Y-84454091D01*
X139752516Y-84454091D01*
X139757214Y-84454596D01*
X139812127Y-84460500D01*
X142325267Y-84460499D01*
X142392306Y-84480184D01*
X142438061Y-84532987D01*
X142448005Y-84602146D01*
X142418980Y-84665702D01*
X142412948Y-84672180D01*
X140871286Y-86213843D01*
X140759481Y-86325647D01*
X140759477Y-86325652D01*
X140723770Y-86387500D01*
X140673203Y-86435716D01*
X140616383Y-86449500D01*
X139942129Y-86449500D01*
X139942123Y-86449501D01*
X139882516Y-86455908D01*
X139747671Y-86506202D01*
X139747664Y-86506206D01*
X139632455Y-86592452D01*
X139632452Y-86592455D01*
X139546206Y-86707664D01*
X139546202Y-86707671D01*
X139495908Y-86842517D01*
X139490550Y-86892357D01*
X139489501Y-86902123D01*
X139489500Y-86902135D01*
X139489500Y-86975500D01*
X139469815Y-87042539D01*
X139417011Y-87088294D01*
X139365500Y-87099500D01*
X138346666Y-87099500D01*
X138279627Y-87079815D01*
X138258984Y-87063180D01*
X138215692Y-87019887D01*
X138215684Y-87019881D01*
X138097371Y-86949911D01*
X138076395Y-86937506D01*
X138076394Y-86937505D01*
X138076393Y-86937505D01*
X138076390Y-86937504D01*
X137920997Y-86892357D01*
X137920991Y-86892356D01*
X137884697Y-86889500D01*
X137884690Y-86889500D01*
X137475310Y-86889500D01*
X137475302Y-86889500D01*
X137439008Y-86892356D01*
X137439002Y-86892357D01*
X137283609Y-86937504D01*
X137283604Y-86937506D01*
X137262628Y-86949911D01*
X137194903Y-86967092D01*
X137136389Y-86949911D01*
X137116191Y-86937966D01*
X137116190Y-86937965D01*
X136970001Y-86895493D01*
X136970000Y-86895494D01*
X136970000Y-87201645D01*
X136952734Y-87264763D01*
X136947507Y-87273600D01*
X136947504Y-87273608D01*
X136902357Y-87429002D01*
X136902356Y-87429008D01*
X136899500Y-87465302D01*
X136899500Y-87934697D01*
X136902356Y-87970991D01*
X136902357Y-87970997D01*
X136947503Y-88126389D01*
X136947505Y-88126393D01*
X136947506Y-88126395D01*
X136952732Y-88135233D01*
X136970000Y-88198352D01*
X136970000Y-88504503D01*
X137116194Y-88462032D01*
X137136384Y-88450091D01*
X137204108Y-88432906D01*
X137262629Y-88450089D01*
X137283605Y-88462494D01*
X137324587Y-88474400D01*
X137439002Y-88507642D01*
X137439005Y-88507642D01*
X137439007Y-88507643D01*
X137475310Y-88510500D01*
X137475318Y-88510500D01*
X137884682Y-88510500D01*
X137884690Y-88510500D01*
X137920993Y-88507643D01*
X137920995Y-88507642D01*
X137920997Y-88507642D01*
X137961975Y-88495736D01*
X138076395Y-88462494D01*
X138215687Y-88380117D01*
X138258984Y-88336820D01*
X138320307Y-88303334D01*
X138346666Y-88300500D01*
X139365501Y-88300500D01*
X139432540Y-88320185D01*
X139478295Y-88372989D01*
X139489501Y-88424500D01*
X139489501Y-88897876D01*
X139495908Y-88957483D01*
X139546202Y-89092328D01*
X139546206Y-89092335D01*
X139632452Y-89207544D01*
X139632455Y-89207547D01*
X139747664Y-89293793D01*
X139747671Y-89293797D01*
X139882517Y-89344091D01*
X139882516Y-89344091D01*
X139889444Y-89344835D01*
X139942127Y-89350500D01*
X142537872Y-89350499D01*
X142597483Y-89344091D01*
X142732331Y-89293796D01*
X142847546Y-89207546D01*
X142933796Y-89092331D01*
X142984091Y-88957483D01*
X142990500Y-88897873D01*
X142990499Y-86902128D01*
X142984091Y-86842517D01*
X142983502Y-86840939D01*
X142933797Y-86707671D01*
X142933793Y-86707664D01*
X142847547Y-86592455D01*
X142847544Y-86592452D01*
X142732335Y-86506206D01*
X142732328Y-86506202D01*
X142597479Y-86455907D01*
X142595645Y-86455474D01*
X142594368Y-86454747D01*
X142590215Y-86453198D01*
X142590466Y-86452524D01*
X142534929Y-86420900D01*
X142502545Y-86358989D01*
X142508772Y-86289397D01*
X142536479Y-86247119D01*
X144907819Y-83875780D01*
X144969142Y-83842295D01*
X145038834Y-83847279D01*
X145094767Y-83889151D01*
X145119184Y-83954615D01*
X145119500Y-83963461D01*
X145119500Y-87519902D01*
X145099815Y-87586941D01*
X145083181Y-87607583D01*
X141877582Y-90813181D01*
X141816259Y-90846666D01*
X141789901Y-90849500D01*
X139942129Y-90849500D01*
X139942123Y-90849501D01*
X139882516Y-90855908D01*
X139747671Y-90906202D01*
X139747664Y-90906206D01*
X139632455Y-90992452D01*
X139632452Y-90992455D01*
X139546206Y-91107664D01*
X139546202Y-91107671D01*
X139495910Y-91242513D01*
X139495909Y-91242517D01*
X139492012Y-91278757D01*
X139465276Y-91343306D01*
X139407884Y-91383154D01*
X139368724Y-91389500D01*
X138436666Y-91389500D01*
X138369627Y-91369815D01*
X138348984Y-91353180D01*
X138305692Y-91309887D01*
X138305684Y-91309881D01*
X138187371Y-91239911D01*
X138166395Y-91227506D01*
X138166394Y-91227505D01*
X138166393Y-91227505D01*
X138166390Y-91227504D01*
X138010997Y-91182357D01*
X138010991Y-91182356D01*
X137974697Y-91179500D01*
X137974690Y-91179500D01*
X137565310Y-91179500D01*
X137565302Y-91179500D01*
X137529008Y-91182356D01*
X137529002Y-91182357D01*
X137373609Y-91227504D01*
X137373604Y-91227506D01*
X137352628Y-91239911D01*
X137284903Y-91257092D01*
X137226389Y-91239911D01*
X137206191Y-91227966D01*
X137206190Y-91227965D01*
X137060001Y-91185493D01*
X137060000Y-91185494D01*
X137060000Y-91491645D01*
X137042734Y-91554763D01*
X137037507Y-91563600D01*
X137037504Y-91563608D01*
X136992357Y-91719002D01*
X136992356Y-91719008D01*
X136989500Y-91755302D01*
X136989500Y-92224697D01*
X136992356Y-92260991D01*
X136992357Y-92260997D01*
X137037503Y-92416389D01*
X137037505Y-92416393D01*
X137037506Y-92416395D01*
X137042732Y-92425233D01*
X137060000Y-92488352D01*
X137060000Y-92794503D01*
X137206194Y-92752032D01*
X137226384Y-92740091D01*
X137294108Y-92722906D01*
X137352629Y-92740089D01*
X137373605Y-92752494D01*
X137399602Y-92760047D01*
X137529002Y-92797642D01*
X137529005Y-92797642D01*
X137529007Y-92797643D01*
X137565310Y-92800500D01*
X137565318Y-92800500D01*
X137974682Y-92800500D01*
X137974690Y-92800500D01*
X138010993Y-92797643D01*
X138010995Y-92797642D01*
X138010997Y-92797642D01*
X138093528Y-92773664D01*
X138166395Y-92752494D01*
X138305687Y-92670117D01*
X138348984Y-92626820D01*
X138410307Y-92593334D01*
X138436666Y-92590500D01*
X139365501Y-92590500D01*
X139432540Y-92610185D01*
X139478295Y-92662989D01*
X139489501Y-92714500D01*
X139489501Y-93297876D01*
X139495908Y-93357483D01*
X139546202Y-93492328D01*
X139546206Y-93492335D01*
X139632452Y-93607544D01*
X139632455Y-93607547D01*
X139747664Y-93693793D01*
X139747671Y-93693797D01*
X139882517Y-93744091D01*
X139882516Y-93744091D01*
X139889444Y-93744835D01*
X139942127Y-93750500D01*
X142537872Y-93750499D01*
X142597483Y-93744091D01*
X142732331Y-93693796D01*
X142847546Y-93607546D01*
X142933796Y-93492331D01*
X142984091Y-93357483D01*
X142990500Y-93297873D01*
X142990499Y-91450096D01*
X143010184Y-91383058D01*
X143026813Y-91362421D01*
X146200520Y-88188716D01*
X146279577Y-88051784D01*
X146320501Y-87899057D01*
X146320501Y-87740942D01*
X146320501Y-87733347D01*
X146320500Y-87733329D01*
X146320500Y-84070096D01*
X146340185Y-84003057D01*
X146356815Y-83982419D01*
X146380572Y-83958661D01*
X146441894Y-83925178D01*
X146511586Y-83930162D01*
X146567519Y-83972034D01*
X146591936Y-84037498D01*
X146591780Y-84057151D01*
X146584532Y-84139997D01*
X146584532Y-84140001D01*
X146604364Y-84366686D01*
X146604366Y-84366697D01*
X146663258Y-84586488D01*
X146663261Y-84586497D01*
X146759431Y-84792732D01*
X146759432Y-84792734D01*
X146889954Y-84979141D01*
X147050858Y-85140045D01*
X147050861Y-85140047D01*
X147237266Y-85270568D01*
X147295275Y-85297618D01*
X147347714Y-85343791D01*
X147366866Y-85410984D01*
X147346650Y-85477865D01*
X147295275Y-85522382D01*
X147237267Y-85549431D01*
X147237265Y-85549432D01*
X147050858Y-85679954D01*
X146889954Y-85840858D01*
X146759432Y-86027265D01*
X146759431Y-86027267D01*
X146663261Y-86233502D01*
X146663258Y-86233511D01*
X146604366Y-86453302D01*
X146604364Y-86453313D01*
X146584532Y-86679998D01*
X146584532Y-86680001D01*
X146604364Y-86906686D01*
X146604366Y-86906697D01*
X146663258Y-87126488D01*
X146663261Y-87126497D01*
X146759431Y-87332732D01*
X146759432Y-87332734D01*
X146889954Y-87519141D01*
X147050858Y-87680045D01*
X147050861Y-87680047D01*
X147237266Y-87810568D01*
X147295275Y-87837618D01*
X147347714Y-87883791D01*
X147366866Y-87950984D01*
X147346650Y-88017865D01*
X147295275Y-88062382D01*
X147237267Y-88089431D01*
X147237265Y-88089432D01*
X147050858Y-88219954D01*
X146889954Y-88380858D01*
X146759432Y-88567265D01*
X146759431Y-88567267D01*
X146663261Y-88773502D01*
X146663258Y-88773511D01*
X146604366Y-88993302D01*
X146604364Y-88993313D01*
X146584532Y-89219998D01*
X146584532Y-89220001D01*
X146604364Y-89446686D01*
X146604366Y-89446697D01*
X146663258Y-89666488D01*
X146663261Y-89666497D01*
X146759431Y-89872732D01*
X146759432Y-89872734D01*
X146889954Y-90059141D01*
X147050858Y-90220045D01*
X147050861Y-90220047D01*
X147237266Y-90350568D01*
X147295275Y-90377618D01*
X147347714Y-90423791D01*
X147366866Y-90490984D01*
X147346650Y-90557865D01*
X147295275Y-90602382D01*
X147237267Y-90629431D01*
X147237265Y-90629432D01*
X147050858Y-90759954D01*
X146889954Y-90920858D01*
X146759432Y-91107265D01*
X146759431Y-91107267D01*
X146663261Y-91313502D01*
X146663258Y-91313511D01*
X146604366Y-91533302D01*
X146604364Y-91533313D01*
X146584532Y-91759998D01*
X146584532Y-91760001D01*
X146604364Y-91986686D01*
X146604366Y-91986697D01*
X146630152Y-92082931D01*
X146628489Y-92152781D01*
X146598058Y-92202705D01*
X144687584Y-94113181D01*
X144626261Y-94146666D01*
X144599903Y-94149500D01*
X135880097Y-94149500D01*
X135813058Y-94129815D01*
X135792416Y-94113181D01*
X133919235Y-92240000D01*
X136031210Y-92240000D01*
X136032854Y-92260910D01*
X136077968Y-92416195D01*
X136160278Y-92555374D01*
X136160285Y-92555383D01*
X136274616Y-92669714D01*
X136274625Y-92669721D01*
X136413804Y-92752031D01*
X136560000Y-92794504D01*
X136560000Y-92240000D01*
X136031210Y-92240000D01*
X133919235Y-92240000D01*
X133419234Y-91739999D01*
X136031209Y-91739999D01*
X136031210Y-91740000D01*
X136560000Y-91740000D01*
X136560000Y-91185494D01*
X136559998Y-91185493D01*
X136413809Y-91227965D01*
X136413806Y-91227967D01*
X136274625Y-91310278D01*
X136274616Y-91310285D01*
X136160285Y-91424616D01*
X136160278Y-91424625D01*
X136077968Y-91563804D01*
X136077966Y-91563809D01*
X136032855Y-91719081D01*
X136032854Y-91719087D01*
X136031209Y-91739999D01*
X133419234Y-91739999D01*
X130946819Y-89267584D01*
X130913334Y-89206261D01*
X130910500Y-89179903D01*
X130910500Y-88374499D01*
X130930185Y-88307460D01*
X130982989Y-88261705D01*
X131034500Y-88250499D01*
X131207871Y-88250499D01*
X131207872Y-88250499D01*
X131267483Y-88244091D01*
X131402331Y-88193796D01*
X131517546Y-88107546D01*
X131603796Y-87992331D01*
X131619584Y-87950000D01*
X135941210Y-87950000D01*
X135942854Y-87970910D01*
X135987968Y-88126195D01*
X136070278Y-88265374D01*
X136070285Y-88265383D01*
X136184616Y-88379714D01*
X136184625Y-88379721D01*
X136323804Y-88462031D01*
X136470000Y-88504504D01*
X136470000Y-87950000D01*
X135941210Y-87950000D01*
X131619584Y-87950000D01*
X131654091Y-87857483D01*
X131660500Y-87797873D01*
X131660500Y-87449999D01*
X135941209Y-87449999D01*
X135941210Y-87450000D01*
X136470000Y-87450000D01*
X136470000Y-86895494D01*
X136469998Y-86895493D01*
X136323809Y-86937965D01*
X136323806Y-86937967D01*
X136184625Y-87020278D01*
X136184616Y-87020285D01*
X136070285Y-87134616D01*
X136070278Y-87134625D01*
X135987968Y-87273804D01*
X135987966Y-87273809D01*
X135942855Y-87429081D01*
X135942854Y-87429087D01*
X135941209Y-87449999D01*
X131660500Y-87449999D01*
X131660499Y-86002128D01*
X131654091Y-85942517D01*
X131603796Y-85807669D01*
X131603795Y-85807668D01*
X131603793Y-85807664D01*
X131517547Y-85692455D01*
X131517544Y-85692452D01*
X131402335Y-85606206D01*
X131402328Y-85606202D01*
X131270917Y-85557189D01*
X131214983Y-85515318D01*
X131190566Y-85449853D01*
X131205418Y-85381580D01*
X131226563Y-85353332D01*
X131348495Y-85231401D01*
X131484035Y-85037830D01*
X131583903Y-84823663D01*
X131645063Y-84595408D01*
X131665659Y-84360000D01*
X131661944Y-84317544D01*
X131658381Y-84276819D01*
X131645063Y-84124592D01*
X131583903Y-83896337D01*
X131484035Y-83682171D01*
X131462564Y-83651506D01*
X131348494Y-83488597D01*
X131181402Y-83321506D01*
X131181396Y-83321501D01*
X130995842Y-83191575D01*
X130952217Y-83136998D01*
X130945023Y-83067500D01*
X130976546Y-83005145D01*
X130995842Y-82988425D01*
X131038102Y-82958834D01*
X131181401Y-82858495D01*
X131348495Y-82691401D01*
X131484035Y-82497830D01*
X131583903Y-82283663D01*
X131645063Y-82055408D01*
X131665659Y-81820000D01*
X131645063Y-81584592D01*
X131583903Y-81356337D01*
X131484035Y-81142171D01*
X131478102Y-81133697D01*
X131348494Y-80948597D01*
X131181402Y-80781506D01*
X131181396Y-80781501D01*
X130995842Y-80651575D01*
X130952217Y-80596998D01*
X130945023Y-80527500D01*
X130976546Y-80465145D01*
X130995842Y-80448425D01*
X131097109Y-80377517D01*
X131181401Y-80318495D01*
X131348495Y-80151401D01*
X131484035Y-79957830D01*
X131583903Y-79743663D01*
X131645063Y-79515408D01*
X131665659Y-79280000D01*
X131645063Y-79044592D01*
X131583903Y-78816337D01*
X131484035Y-78602171D01*
X131462167Y-78570939D01*
X131348494Y-78408597D01*
X131181402Y-78241506D01*
X131181396Y-78241501D01*
X130995842Y-78111575D01*
X130952217Y-78056998D01*
X130945023Y-77987500D01*
X130976546Y-77925145D01*
X130995842Y-77908425D01*
X131027355Y-77886359D01*
X131181401Y-77778495D01*
X131348495Y-77611401D01*
X131484035Y-77417830D01*
X131583903Y-77203663D01*
X131645063Y-76975408D01*
X131665659Y-76740000D01*
X131645063Y-76504592D01*
X131583903Y-76276337D01*
X131484035Y-76062171D01*
X131479508Y-76055705D01*
X131348494Y-75868597D01*
X131181402Y-75701506D01*
X131181396Y-75701501D01*
X130995842Y-75571575D01*
X130952217Y-75516998D01*
X130945023Y-75447500D01*
X130976546Y-75385145D01*
X130995842Y-75368425D01*
X131050456Y-75330184D01*
X131181401Y-75238495D01*
X131348495Y-75071401D01*
X131484035Y-74877830D01*
X131583903Y-74663663D01*
X131645063Y-74435408D01*
X131665659Y-74200000D01*
X131665290Y-74195788D01*
X131657416Y-74105788D01*
X131645063Y-73964592D01*
X131583903Y-73736337D01*
X131484035Y-73522171D01*
X131405493Y-73410000D01*
X131348494Y-73328597D01*
X131181402Y-73161506D01*
X131181396Y-73161501D01*
X130995842Y-73031575D01*
X130952217Y-72976998D01*
X130945023Y-72907500D01*
X130976546Y-72845145D01*
X130995842Y-72828425D01*
X131045837Y-72793418D01*
X131181401Y-72698495D01*
X131348495Y-72531401D01*
X131484035Y-72337830D01*
X131583903Y-72123663D01*
X131645063Y-71895408D01*
X131665659Y-71660000D01*
X131645063Y-71424592D01*
X131583903Y-71196337D01*
X131484035Y-70982171D01*
X131466779Y-70957526D01*
X131348494Y-70788597D01*
X131181402Y-70621506D01*
X131181396Y-70621501D01*
X130995842Y-70491575D01*
X130952217Y-70436998D01*
X130945023Y-70367500D01*
X130976546Y-70305145D01*
X130995842Y-70288425D01*
X131068049Y-70237865D01*
X131181401Y-70158495D01*
X131348495Y-69991401D01*
X131484035Y-69797830D01*
X131583903Y-69583663D01*
X131645063Y-69355408D01*
X131665659Y-69120000D01*
X131645063Y-68884592D01*
X131583903Y-68656337D01*
X131484035Y-68442171D01*
X131478631Y-68434452D01*
X131348494Y-68248597D01*
X131181402Y-68081506D01*
X131181395Y-68081501D01*
X130987834Y-67945967D01*
X130987830Y-67945965D01*
X130897154Y-67903682D01*
X130773663Y-67846097D01*
X130773659Y-67846096D01*
X130773655Y-67846094D01*
X130545413Y-67784938D01*
X130545403Y-67784936D01*
X130310001Y-67764341D01*
X130309999Y-67764341D01*
X130074596Y-67784936D01*
X130074586Y-67784938D01*
X129846344Y-67846094D01*
X129846335Y-67846098D01*
X129632171Y-67945964D01*
X129632169Y-67945965D01*
X129438597Y-68081505D01*
X129271505Y-68248597D01*
X129135965Y-68442169D01*
X129135964Y-68442171D01*
X129036098Y-68656335D01*
X129036094Y-68656344D01*
X128974938Y-68884586D01*
X128974936Y-68884596D01*
X128954341Y-69119999D01*
X123406286Y-69119999D01*
X123406286Y-63029993D01*
X127604700Y-63029993D01*
X127604700Y-63030006D01*
X127623864Y-63261297D01*
X127623866Y-63261308D01*
X127680842Y-63486300D01*
X127774075Y-63698848D01*
X127901016Y-63893147D01*
X127901019Y-63893151D01*
X127901021Y-63893153D01*
X128058216Y-64063913D01*
X128058219Y-64063915D01*
X128058222Y-64063918D01*
X128241365Y-64206464D01*
X128241371Y-64206468D01*
X128241374Y-64206470D01*
X128445497Y-64316936D01*
X128543260Y-64350498D01*
X128665015Y-64392297D01*
X128665017Y-64392297D01*
X128665019Y-64392298D01*
X128893951Y-64430500D01*
X128893952Y-64430500D01*
X129126048Y-64430500D01*
X129126049Y-64430500D01*
X129354981Y-64392298D01*
X129574503Y-64316936D01*
X129778626Y-64206470D01*
X129801437Y-64188716D01*
X129840129Y-64158600D01*
X129961784Y-64063913D01*
X130118979Y-63893153D01*
X130245924Y-63698849D01*
X130339157Y-63486300D01*
X130396134Y-63261305D01*
X130396208Y-63260413D01*
X130415300Y-63030006D01*
X130415300Y-63029993D01*
X130396135Y-62798702D01*
X130396133Y-62798691D01*
X130339157Y-62573699D01*
X130245924Y-62361151D01*
X130118983Y-62166852D01*
X130118980Y-62166849D01*
X130118979Y-62166847D01*
X129961784Y-61996087D01*
X129961779Y-61996083D01*
X129961777Y-61996081D01*
X129778634Y-61853535D01*
X129778628Y-61853531D01*
X129574504Y-61743064D01*
X129574495Y-61743061D01*
X129354979Y-61667700D01*
X129344087Y-61665883D01*
X129281203Y-61635431D01*
X129244765Y-61575816D01*
X129240500Y-61543575D01*
X129240500Y-61537845D01*
X129260185Y-61470806D01*
X129312989Y-61425051D01*
X129324919Y-61423335D01*
X129350000Y-61404504D01*
X129350000Y-61404503D01*
X129850000Y-61404503D01*
X129996195Y-61362031D01*
X130135374Y-61279721D01*
X130135383Y-61279714D01*
X130249714Y-61165383D01*
X130249721Y-61165374D01*
X130332031Y-61026195D01*
X130332033Y-61026190D01*
X130377144Y-60870918D01*
X130377145Y-60870912D01*
X130378790Y-60850000D01*
X129850000Y-60850000D01*
X129850000Y-61404503D01*
X129350000Y-61404503D01*
X129350000Y-61098352D01*
X129367267Y-61035233D01*
X129372494Y-61026395D01*
X129375793Y-61015042D01*
X129417642Y-60870997D01*
X129417643Y-60870991D01*
X129420499Y-60834697D01*
X129420500Y-60834690D01*
X129420500Y-60365310D01*
X129417643Y-60329007D01*
X129406020Y-60289002D01*
X129372495Y-60173608D01*
X129372492Y-60173600D01*
X129367266Y-60164763D01*
X129350000Y-60101645D01*
X129350000Y-59795494D01*
X129850000Y-59795494D01*
X129850000Y-60350000D01*
X130378790Y-60350000D01*
X130377145Y-60329089D01*
X130332031Y-60173804D01*
X130249721Y-60034625D01*
X130249714Y-60034616D01*
X130135383Y-59920285D01*
X130135374Y-59920278D01*
X129996193Y-59837967D01*
X129996190Y-59837965D01*
X129850001Y-59795493D01*
X129850000Y-59795494D01*
X129350000Y-59795494D01*
X129330738Y-59781032D01*
X129329219Y-59781028D01*
X129270551Y-59743082D01*
X129241711Y-59679442D01*
X129240500Y-59662153D01*
X129240500Y-57864983D01*
X139174500Y-57864983D01*
X139174500Y-58590001D01*
X139174501Y-58590019D01*
X139185000Y-58692796D01*
X139185001Y-58692799D01*
X139240185Y-58859331D01*
X139240187Y-58859336D01*
X139265570Y-58900489D01*
X139332288Y-59008656D01*
X139456344Y-59132712D01*
X139605666Y-59224814D01*
X139772203Y-59279999D01*
X139874991Y-59290500D01*
X141225008Y-59290499D01*
X141327797Y-59279999D01*
X141494334Y-59224814D01*
X141643656Y-59132712D01*
X141767712Y-59008656D01*
X141842809Y-58886902D01*
X141894757Y-58840179D01*
X141948348Y-58828000D01*
X142065468Y-58828000D01*
X142132507Y-58847685D01*
X142178262Y-58900489D01*
X142183174Y-58912995D01*
X142200186Y-58964333D01*
X142200187Y-58964336D01*
X142212006Y-58983498D01*
X142292288Y-59113656D01*
X142416344Y-59237712D01*
X142565666Y-59329814D01*
X142732203Y-59384999D01*
X142834991Y-59395500D01*
X144185008Y-59395499D01*
X144287797Y-59384999D01*
X144454334Y-59329814D01*
X144603656Y-59237712D01*
X144727712Y-59113656D01*
X144819814Y-58964334D01*
X144874999Y-58797797D01*
X144885500Y-58695009D01*
X144885499Y-57844992D01*
X144874999Y-57742203D01*
X144819814Y-57575666D01*
X144727712Y-57426344D01*
X144603656Y-57302288D01*
X144486761Y-57230187D01*
X144454336Y-57210187D01*
X144454331Y-57210185D01*
X144452862Y-57209698D01*
X144287797Y-57155001D01*
X144287795Y-57155000D01*
X144185010Y-57144500D01*
X142834998Y-57144500D01*
X142834981Y-57144501D01*
X142732203Y-57155000D01*
X142732200Y-57155001D01*
X142565668Y-57210185D01*
X142565663Y-57210187D01*
X142416342Y-57302289D01*
X142292289Y-57426342D01*
X142284173Y-57439500D01*
X142218753Y-57545565D01*
X142204855Y-57568097D01*
X142152907Y-57614821D01*
X142099316Y-57627000D01*
X141948348Y-57627000D01*
X141881309Y-57607315D01*
X141842809Y-57568097D01*
X141767712Y-57446344D01*
X141643656Y-57322288D01*
X141550888Y-57265069D01*
X141494336Y-57230187D01*
X141494331Y-57230185D01*
X141492862Y-57229698D01*
X141327797Y-57175001D01*
X141327795Y-57175000D01*
X141225010Y-57164500D01*
X139874998Y-57164500D01*
X139874981Y-57164501D01*
X139772203Y-57175000D01*
X139772200Y-57175001D01*
X139605668Y-57230185D01*
X139605663Y-57230187D01*
X139456342Y-57322289D01*
X139332289Y-57446342D01*
X139240187Y-57595663D01*
X139240185Y-57595668D01*
X139212543Y-57679086D01*
X139185001Y-57762203D01*
X139185001Y-57762204D01*
X139185000Y-57762204D01*
X139174500Y-57864983D01*
X129240500Y-57864983D01*
X129240500Y-56500096D01*
X129260185Y-56433057D01*
X129276815Y-56412419D01*
X129977147Y-55712086D01*
X130038468Y-55678603D01*
X130108159Y-55683587D01*
X130118624Y-55688047D01*
X130155359Y-55705738D01*
X130413228Y-55785280D01*
X130413229Y-55785280D01*
X130413232Y-55785281D01*
X130680063Y-55825499D01*
X130680068Y-55825499D01*
X130680071Y-55825500D01*
X130680072Y-55825500D01*
X130949928Y-55825500D01*
X130949929Y-55825500D01*
X130949936Y-55825499D01*
X131216767Y-55785281D01*
X131216768Y-55785280D01*
X131216772Y-55785280D01*
X131474641Y-55705738D01*
X131668426Y-55612416D01*
X131717767Y-55588655D01*
X131717767Y-55588654D01*
X131717775Y-55588651D01*
X131940741Y-55436635D01*
X132138561Y-55253085D01*
X132306815Y-55042102D01*
X132441743Y-54808398D01*
X132540334Y-54557195D01*
X132600383Y-54294103D01*
X132610470Y-54159500D01*
X132620549Y-54025004D01*
X132620549Y-54024995D01*
X132603744Y-53800747D01*
X132600383Y-53755897D01*
X132540334Y-53492805D01*
X132441743Y-53241602D01*
X132306815Y-53007898D01*
X132138561Y-52796915D01*
X132138560Y-52796914D01*
X132138557Y-52796910D01*
X132009491Y-52677155D01*
X134095000Y-52677155D01*
X134095000Y-53775000D01*
X135294999Y-53775000D01*
X135269979Y-53835402D01*
X135245000Y-53960981D01*
X135245000Y-54089019D01*
X135269979Y-54214598D01*
X135294999Y-54275000D01*
X134095000Y-54275000D01*
X134095000Y-55372844D01*
X134101401Y-55432372D01*
X134101403Y-55432379D01*
X134151645Y-55567086D01*
X134151649Y-55567093D01*
X134237809Y-55682187D01*
X134237812Y-55682190D01*
X134352906Y-55768350D01*
X134352913Y-55768354D01*
X134487620Y-55818596D01*
X134487627Y-55818598D01*
X134547155Y-55824999D01*
X134547172Y-55825000D01*
X135645000Y-55825000D01*
X135645000Y-54625001D01*
X135705402Y-54650021D01*
X135830981Y-54675000D01*
X135959019Y-54675000D01*
X136084598Y-54650021D01*
X136145000Y-54625001D01*
X136145000Y-55825000D01*
X137242828Y-55825000D01*
X137242844Y-55824999D01*
X137302372Y-55818598D01*
X137302379Y-55818596D01*
X137437086Y-55768354D01*
X137437093Y-55768350D01*
X137552187Y-55682190D01*
X137552190Y-55682187D01*
X137638350Y-55567093D01*
X137638354Y-55567086D01*
X137688596Y-55432379D01*
X137688598Y-55432372D01*
X137694999Y-55372844D01*
X137695000Y-55372827D01*
X137695000Y-54699994D01*
X139724859Y-54699994D01*
X139724859Y-54700005D01*
X139745385Y-54947729D01*
X139745387Y-54947738D01*
X139806412Y-55188717D01*
X139906267Y-55416367D01*
X140006562Y-55569881D01*
X140706212Y-54870233D01*
X140717482Y-54912292D01*
X140789890Y-55037708D01*
X140892292Y-55140110D01*
X141017708Y-55212518D01*
X141059766Y-55223787D01*
X140359943Y-55923609D01*
X140406768Y-55960055D01*
X140406771Y-55960057D01*
X140625385Y-56078364D01*
X140625396Y-56078369D01*
X140860506Y-56159083D01*
X141105707Y-56200000D01*
X141354293Y-56200000D01*
X141599493Y-56159083D01*
X141834603Y-56078369D01*
X141834614Y-56078364D01*
X142053230Y-55960056D01*
X142053236Y-55960051D01*
X142100055Y-55923610D01*
X142100056Y-55923609D01*
X141400233Y-55223787D01*
X141442292Y-55212518D01*
X141567708Y-55140110D01*
X141670110Y-55037708D01*
X141742518Y-54912292D01*
X141753787Y-54870234D01*
X142453435Y-55569882D01*
X142553733Y-55416364D01*
X142653587Y-55188717D01*
X142714612Y-54947738D01*
X142714614Y-54947729D01*
X142735141Y-54700005D01*
X142735141Y-54699994D01*
X142714614Y-54452270D01*
X142714612Y-54452261D01*
X142653587Y-54211282D01*
X142553732Y-53983632D01*
X142453435Y-53830116D01*
X141753787Y-54529765D01*
X141742518Y-54487708D01*
X141670110Y-54362292D01*
X141567708Y-54259890D01*
X141442292Y-54187482D01*
X141400233Y-54176212D01*
X142100055Y-53476389D01*
X142100055Y-53476388D01*
X142053236Y-53439947D01*
X142053231Y-53439944D01*
X141834614Y-53321635D01*
X141834603Y-53321630D01*
X141599493Y-53240916D01*
X141354293Y-53200000D01*
X141105707Y-53200000D01*
X140860506Y-53240916D01*
X140625396Y-53321630D01*
X140625385Y-53321635D01*
X140406770Y-53439943D01*
X140359943Y-53476389D01*
X141059766Y-54176212D01*
X141017708Y-54187482D01*
X140892292Y-54259890D01*
X140789890Y-54362292D01*
X140717482Y-54487708D01*
X140706212Y-54529766D01*
X140006563Y-53830117D01*
X139906267Y-53983633D01*
X139906265Y-53983637D01*
X139806412Y-54211282D01*
X139745387Y-54452261D01*
X139745385Y-54452270D01*
X139724859Y-54699994D01*
X137695000Y-54699994D01*
X137695000Y-54275000D01*
X136495001Y-54275000D01*
X136520021Y-54214598D01*
X136545000Y-54089019D01*
X136545000Y-53960981D01*
X136520021Y-53835402D01*
X136495001Y-53775000D01*
X137695000Y-53775000D01*
X137695000Y-52677172D01*
X137694999Y-52677155D01*
X137688598Y-52617627D01*
X137688596Y-52617620D01*
X137638354Y-52482913D01*
X137638350Y-52482906D01*
X137552190Y-52367812D01*
X137552187Y-52367809D01*
X137437093Y-52281649D01*
X137437086Y-52281645D01*
X137302379Y-52231403D01*
X137302372Y-52231401D01*
X137242844Y-52225000D01*
X136145000Y-52225000D01*
X136145000Y-53424998D01*
X136084598Y-53399979D01*
X135959019Y-53375000D01*
X135830981Y-53375000D01*
X135705402Y-53399979D01*
X135645000Y-53424998D01*
X135645000Y-52225000D01*
X134547155Y-52225000D01*
X134487627Y-52231401D01*
X134487620Y-52231403D01*
X134352913Y-52281645D01*
X134352906Y-52281649D01*
X134237812Y-52367809D01*
X134237809Y-52367812D01*
X134151649Y-52482906D01*
X134151645Y-52482913D01*
X134101403Y-52617620D01*
X134101401Y-52617627D01*
X134095000Y-52677155D01*
X132009491Y-52677155D01*
X131940741Y-52613365D01*
X131717775Y-52461349D01*
X131717769Y-52461346D01*
X131717768Y-52461345D01*
X131717767Y-52461344D01*
X131474643Y-52344263D01*
X131474645Y-52344263D01*
X131216773Y-52264720D01*
X131216767Y-52264718D01*
X130949936Y-52224500D01*
X130949929Y-52224500D01*
X130680071Y-52224500D01*
X130680063Y-52224500D01*
X130413232Y-52264718D01*
X130413226Y-52264720D01*
X130155358Y-52344262D01*
X129912230Y-52461346D01*
X129689258Y-52613365D01*
X129491442Y-52796910D01*
X129323185Y-53007898D01*
X129188258Y-53241599D01*
X129188256Y-53241603D01*
X129089666Y-53492804D01*
X129089664Y-53492811D01*
X129029616Y-53755898D01*
X129009451Y-54024995D01*
X129009451Y-54025004D01*
X129029616Y-54294101D01*
X129083433Y-54529888D01*
X129089666Y-54557195D01*
X129145715Y-54700005D01*
X129156935Y-54728593D01*
X129163103Y-54798190D01*
X129130665Y-54860073D01*
X129129187Y-54861576D01*
X128271286Y-55719478D01*
X128159481Y-55831282D01*
X128159477Y-55831287D01*
X128113004Y-55911783D01*
X128113003Y-55911782D01*
X128080424Y-55968211D01*
X128080423Y-55968215D01*
X128039499Y-56120943D01*
X128039499Y-56120945D01*
X128039499Y-56289046D01*
X128039500Y-56289059D01*
X128039500Y-59933333D01*
X128019815Y-60000372D01*
X128003181Y-60021014D01*
X127989887Y-60034307D01*
X127989881Y-60034315D01*
X127907505Y-60173606D01*
X127907504Y-60173609D01*
X127862357Y-60329002D01*
X127862356Y-60329008D01*
X127859500Y-60365302D01*
X127859500Y-60834697D01*
X127862356Y-60870991D01*
X127862357Y-60870997D01*
X127907504Y-61026390D01*
X127907505Y-61026393D01*
X127907506Y-61026395D01*
X127989883Y-61165687D01*
X128003180Y-61178984D01*
X128036666Y-61240305D01*
X128039500Y-61266666D01*
X128039500Y-61968033D01*
X128019815Y-62035072D01*
X128006730Y-62052015D01*
X127901019Y-62166849D01*
X127774075Y-62361151D01*
X127680842Y-62573699D01*
X127623866Y-62798691D01*
X127623864Y-62798702D01*
X127604700Y-63029993D01*
X123406286Y-63029993D01*
X123406286Y-48270106D01*
X123406287Y-48270103D01*
X123406286Y-48208635D01*
X123406602Y-48199790D01*
X123420914Y-47999652D01*
X123423432Y-47982140D01*
X123455172Y-47836232D01*
X123465139Y-47790410D01*
X123470121Y-47773444D01*
X123538693Y-47589591D01*
X123546038Y-47573509D01*
X123569660Y-47530247D01*
X123604470Y-47490193D01*
X124596509Y-46752117D01*
X124644157Y-46730442D01*
X124683728Y-46721833D01*
X124701225Y-46719317D01*
X124873307Y-46707009D01*
X124900982Y-46705030D01*
X124909828Y-46704714D01*
X124971682Y-46704714D01*
X137653631Y-46704714D01*
X182090589Y-46755112D01*
G37*
%TD.AperFunction*%
%TD*%
M02*
