%TF.GenerationSoftware,KiCad,Pcbnew,8.0.7*%
%TF.CreationDate,2025-04-27T20:59:36+03:00*%
%TF.ProjectId,data_logger_atmega_eeprom,64617461-5f6c-46f6-9767-65725f61746d,rev?*%
%TF.SameCoordinates,Original*%
%TF.FileFunction,Legend,Top*%
%TF.FilePolarity,Positive*%
%FSLAX46Y46*%
G04 Gerber Fmt 4.6, Leading zero omitted, Abs format (unit mm)*
G04 Created by KiCad (PCBNEW 8.0.7) date 2025-04-27 20:59:36*
%MOMM*%
%LPD*%
G01*
G04 APERTURE LIST*
%ADD10C,0.100000*%
%ADD11C,0.150000*%
%ADD12C,0.120000*%
%ADD13C,0.127000*%
%ADD14C,0.200000*%
G04 APERTURE END LIST*
D10*
X181546265Y-92816895D02*
X181546265Y-92016895D01*
X181546265Y-92016895D02*
X181851027Y-92016895D01*
X181851027Y-92016895D02*
X181927217Y-92054990D01*
X181927217Y-92054990D02*
X181965312Y-92093085D01*
X181965312Y-92093085D02*
X182003408Y-92169276D01*
X182003408Y-92169276D02*
X182003408Y-92283561D01*
X182003408Y-92283561D02*
X181965312Y-92359752D01*
X181965312Y-92359752D02*
X181927217Y-92397847D01*
X181927217Y-92397847D02*
X181851027Y-92435942D01*
X181851027Y-92435942D02*
X181546265Y-92435942D01*
X182803408Y-92740704D02*
X182765312Y-92778800D01*
X182765312Y-92778800D02*
X182651027Y-92816895D01*
X182651027Y-92816895D02*
X182574836Y-92816895D01*
X182574836Y-92816895D02*
X182460550Y-92778800D01*
X182460550Y-92778800D02*
X182384360Y-92702609D01*
X182384360Y-92702609D02*
X182346265Y-92626419D01*
X182346265Y-92626419D02*
X182308169Y-92474038D01*
X182308169Y-92474038D02*
X182308169Y-92359752D01*
X182308169Y-92359752D02*
X182346265Y-92207371D01*
X182346265Y-92207371D02*
X182384360Y-92131180D01*
X182384360Y-92131180D02*
X182460550Y-92054990D01*
X182460550Y-92054990D02*
X182574836Y-92016895D01*
X182574836Y-92016895D02*
X182651027Y-92016895D01*
X182651027Y-92016895D02*
X182765312Y-92054990D01*
X182765312Y-92054990D02*
X182803408Y-92093085D01*
X183527217Y-92016895D02*
X183146265Y-92016895D01*
X183146265Y-92016895D02*
X183108169Y-92397847D01*
X183108169Y-92397847D02*
X183146265Y-92359752D01*
X183146265Y-92359752D02*
X183222455Y-92321657D01*
X183222455Y-92321657D02*
X183412931Y-92321657D01*
X183412931Y-92321657D02*
X183489122Y-92359752D01*
X183489122Y-92359752D02*
X183527217Y-92397847D01*
X183527217Y-92397847D02*
X183565312Y-92474038D01*
X183565312Y-92474038D02*
X183565312Y-92664514D01*
X183565312Y-92664514D02*
X183527217Y-92740704D01*
X183527217Y-92740704D02*
X183489122Y-92778800D01*
X183489122Y-92778800D02*
X183412931Y-92816895D01*
X183412931Y-92816895D02*
X183222455Y-92816895D01*
X183222455Y-92816895D02*
X183146265Y-92778800D01*
X183146265Y-92778800D02*
X183108169Y-92740704D01*
X181606265Y-90416895D02*
X181606265Y-89616895D01*
X181606265Y-89616895D02*
X181911027Y-89616895D01*
X181911027Y-89616895D02*
X181987217Y-89654990D01*
X181987217Y-89654990D02*
X182025312Y-89693085D01*
X182025312Y-89693085D02*
X182063408Y-89769276D01*
X182063408Y-89769276D02*
X182063408Y-89883561D01*
X182063408Y-89883561D02*
X182025312Y-89959752D01*
X182025312Y-89959752D02*
X181987217Y-89997847D01*
X181987217Y-89997847D02*
X181911027Y-90035942D01*
X181911027Y-90035942D02*
X181606265Y-90035942D01*
X182863408Y-90340704D02*
X182825312Y-90378800D01*
X182825312Y-90378800D02*
X182711027Y-90416895D01*
X182711027Y-90416895D02*
X182634836Y-90416895D01*
X182634836Y-90416895D02*
X182520550Y-90378800D01*
X182520550Y-90378800D02*
X182444360Y-90302609D01*
X182444360Y-90302609D02*
X182406265Y-90226419D01*
X182406265Y-90226419D02*
X182368169Y-90074038D01*
X182368169Y-90074038D02*
X182368169Y-89959752D01*
X182368169Y-89959752D02*
X182406265Y-89807371D01*
X182406265Y-89807371D02*
X182444360Y-89731180D01*
X182444360Y-89731180D02*
X182520550Y-89654990D01*
X182520550Y-89654990D02*
X182634836Y-89616895D01*
X182634836Y-89616895D02*
X182711027Y-89616895D01*
X182711027Y-89616895D02*
X182825312Y-89654990D01*
X182825312Y-89654990D02*
X182863408Y-89693085D01*
X183549122Y-89883561D02*
X183549122Y-90416895D01*
X183358646Y-89578800D02*
X183168169Y-90150228D01*
X183168169Y-90150228D02*
X183663408Y-90150228D01*
X181636265Y-87696895D02*
X181636265Y-86896895D01*
X181636265Y-86896895D02*
X181941027Y-86896895D01*
X181941027Y-86896895D02*
X182017217Y-86934990D01*
X182017217Y-86934990D02*
X182055312Y-86973085D01*
X182055312Y-86973085D02*
X182093408Y-87049276D01*
X182093408Y-87049276D02*
X182093408Y-87163561D01*
X182093408Y-87163561D02*
X182055312Y-87239752D01*
X182055312Y-87239752D02*
X182017217Y-87277847D01*
X182017217Y-87277847D02*
X181941027Y-87315942D01*
X181941027Y-87315942D02*
X181636265Y-87315942D01*
X182893408Y-87620704D02*
X182855312Y-87658800D01*
X182855312Y-87658800D02*
X182741027Y-87696895D01*
X182741027Y-87696895D02*
X182664836Y-87696895D01*
X182664836Y-87696895D02*
X182550550Y-87658800D01*
X182550550Y-87658800D02*
X182474360Y-87582609D01*
X182474360Y-87582609D02*
X182436265Y-87506419D01*
X182436265Y-87506419D02*
X182398169Y-87354038D01*
X182398169Y-87354038D02*
X182398169Y-87239752D01*
X182398169Y-87239752D02*
X182436265Y-87087371D01*
X182436265Y-87087371D02*
X182474360Y-87011180D01*
X182474360Y-87011180D02*
X182550550Y-86934990D01*
X182550550Y-86934990D02*
X182664836Y-86896895D01*
X182664836Y-86896895D02*
X182741027Y-86896895D01*
X182741027Y-86896895D02*
X182855312Y-86934990D01*
X182855312Y-86934990D02*
X182893408Y-86973085D01*
X183160074Y-86896895D02*
X183655312Y-86896895D01*
X183655312Y-86896895D02*
X183388646Y-87201657D01*
X183388646Y-87201657D02*
X183502931Y-87201657D01*
X183502931Y-87201657D02*
X183579122Y-87239752D01*
X183579122Y-87239752D02*
X183617217Y-87277847D01*
X183617217Y-87277847D02*
X183655312Y-87354038D01*
X183655312Y-87354038D02*
X183655312Y-87544514D01*
X183655312Y-87544514D02*
X183617217Y-87620704D01*
X183617217Y-87620704D02*
X183579122Y-87658800D01*
X183579122Y-87658800D02*
X183502931Y-87696895D01*
X183502931Y-87696895D02*
X183274360Y-87696895D01*
X183274360Y-87696895D02*
X183198169Y-87658800D01*
X183198169Y-87658800D02*
X183160074Y-87620704D01*
X181636265Y-85146895D02*
X181636265Y-84346895D01*
X181636265Y-84346895D02*
X181941027Y-84346895D01*
X181941027Y-84346895D02*
X182017217Y-84384990D01*
X182017217Y-84384990D02*
X182055312Y-84423085D01*
X182055312Y-84423085D02*
X182093408Y-84499276D01*
X182093408Y-84499276D02*
X182093408Y-84613561D01*
X182093408Y-84613561D02*
X182055312Y-84689752D01*
X182055312Y-84689752D02*
X182017217Y-84727847D01*
X182017217Y-84727847D02*
X181941027Y-84765942D01*
X181941027Y-84765942D02*
X181636265Y-84765942D01*
X182893408Y-85070704D02*
X182855312Y-85108800D01*
X182855312Y-85108800D02*
X182741027Y-85146895D01*
X182741027Y-85146895D02*
X182664836Y-85146895D01*
X182664836Y-85146895D02*
X182550550Y-85108800D01*
X182550550Y-85108800D02*
X182474360Y-85032609D01*
X182474360Y-85032609D02*
X182436265Y-84956419D01*
X182436265Y-84956419D02*
X182398169Y-84804038D01*
X182398169Y-84804038D02*
X182398169Y-84689752D01*
X182398169Y-84689752D02*
X182436265Y-84537371D01*
X182436265Y-84537371D02*
X182474360Y-84461180D01*
X182474360Y-84461180D02*
X182550550Y-84384990D01*
X182550550Y-84384990D02*
X182664836Y-84346895D01*
X182664836Y-84346895D02*
X182741027Y-84346895D01*
X182741027Y-84346895D02*
X182855312Y-84384990D01*
X182855312Y-84384990D02*
X182893408Y-84423085D01*
X183198169Y-84423085D02*
X183236265Y-84384990D01*
X183236265Y-84384990D02*
X183312455Y-84346895D01*
X183312455Y-84346895D02*
X183502931Y-84346895D01*
X183502931Y-84346895D02*
X183579122Y-84384990D01*
X183579122Y-84384990D02*
X183617217Y-84423085D01*
X183617217Y-84423085D02*
X183655312Y-84499276D01*
X183655312Y-84499276D02*
X183655312Y-84575466D01*
X183655312Y-84575466D02*
X183617217Y-84689752D01*
X183617217Y-84689752D02*
X183160074Y-85146895D01*
X183160074Y-85146895D02*
X183655312Y-85146895D01*
X181606265Y-82426895D02*
X181606265Y-81626895D01*
X181606265Y-81626895D02*
X181911027Y-81626895D01*
X181911027Y-81626895D02*
X181987217Y-81664990D01*
X181987217Y-81664990D02*
X182025312Y-81703085D01*
X182025312Y-81703085D02*
X182063408Y-81779276D01*
X182063408Y-81779276D02*
X182063408Y-81893561D01*
X182063408Y-81893561D02*
X182025312Y-81969752D01*
X182025312Y-81969752D02*
X181987217Y-82007847D01*
X181987217Y-82007847D02*
X181911027Y-82045942D01*
X181911027Y-82045942D02*
X181606265Y-82045942D01*
X182863408Y-82350704D02*
X182825312Y-82388800D01*
X182825312Y-82388800D02*
X182711027Y-82426895D01*
X182711027Y-82426895D02*
X182634836Y-82426895D01*
X182634836Y-82426895D02*
X182520550Y-82388800D01*
X182520550Y-82388800D02*
X182444360Y-82312609D01*
X182444360Y-82312609D02*
X182406265Y-82236419D01*
X182406265Y-82236419D02*
X182368169Y-82084038D01*
X182368169Y-82084038D02*
X182368169Y-81969752D01*
X182368169Y-81969752D02*
X182406265Y-81817371D01*
X182406265Y-81817371D02*
X182444360Y-81741180D01*
X182444360Y-81741180D02*
X182520550Y-81664990D01*
X182520550Y-81664990D02*
X182634836Y-81626895D01*
X182634836Y-81626895D02*
X182711027Y-81626895D01*
X182711027Y-81626895D02*
X182825312Y-81664990D01*
X182825312Y-81664990D02*
X182863408Y-81703085D01*
X183625312Y-82426895D02*
X183168169Y-82426895D01*
X183396741Y-82426895D02*
X183396741Y-81626895D01*
X183396741Y-81626895D02*
X183320550Y-81741180D01*
X183320550Y-81741180D02*
X183244360Y-81817371D01*
X183244360Y-81817371D02*
X183168169Y-81855466D01*
X181586265Y-79936895D02*
X181586265Y-79136895D01*
X181586265Y-79136895D02*
X181891027Y-79136895D01*
X181891027Y-79136895D02*
X181967217Y-79174990D01*
X181967217Y-79174990D02*
X182005312Y-79213085D01*
X182005312Y-79213085D02*
X182043408Y-79289276D01*
X182043408Y-79289276D02*
X182043408Y-79403561D01*
X182043408Y-79403561D02*
X182005312Y-79479752D01*
X182005312Y-79479752D02*
X181967217Y-79517847D01*
X181967217Y-79517847D02*
X181891027Y-79555942D01*
X181891027Y-79555942D02*
X181586265Y-79555942D01*
X182843408Y-79860704D02*
X182805312Y-79898800D01*
X182805312Y-79898800D02*
X182691027Y-79936895D01*
X182691027Y-79936895D02*
X182614836Y-79936895D01*
X182614836Y-79936895D02*
X182500550Y-79898800D01*
X182500550Y-79898800D02*
X182424360Y-79822609D01*
X182424360Y-79822609D02*
X182386265Y-79746419D01*
X182386265Y-79746419D02*
X182348169Y-79594038D01*
X182348169Y-79594038D02*
X182348169Y-79479752D01*
X182348169Y-79479752D02*
X182386265Y-79327371D01*
X182386265Y-79327371D02*
X182424360Y-79251180D01*
X182424360Y-79251180D02*
X182500550Y-79174990D01*
X182500550Y-79174990D02*
X182614836Y-79136895D01*
X182614836Y-79136895D02*
X182691027Y-79136895D01*
X182691027Y-79136895D02*
X182805312Y-79174990D01*
X182805312Y-79174990D02*
X182843408Y-79213085D01*
X183338646Y-79136895D02*
X183414836Y-79136895D01*
X183414836Y-79136895D02*
X183491027Y-79174990D01*
X183491027Y-79174990D02*
X183529122Y-79213085D01*
X183529122Y-79213085D02*
X183567217Y-79289276D01*
X183567217Y-79289276D02*
X183605312Y-79441657D01*
X183605312Y-79441657D02*
X183605312Y-79632133D01*
X183605312Y-79632133D02*
X183567217Y-79784514D01*
X183567217Y-79784514D02*
X183529122Y-79860704D01*
X183529122Y-79860704D02*
X183491027Y-79898800D01*
X183491027Y-79898800D02*
X183414836Y-79936895D01*
X183414836Y-79936895D02*
X183338646Y-79936895D01*
X183338646Y-79936895D02*
X183262455Y-79898800D01*
X183262455Y-79898800D02*
X183224360Y-79860704D01*
X183224360Y-79860704D02*
X183186265Y-79784514D01*
X183186265Y-79784514D02*
X183148169Y-79632133D01*
X183148169Y-79632133D02*
X183148169Y-79441657D01*
X183148169Y-79441657D02*
X183186265Y-79289276D01*
X183186265Y-79289276D02*
X183224360Y-79213085D01*
X183224360Y-79213085D02*
X183262455Y-79174990D01*
X183262455Y-79174990D02*
X183338646Y-79136895D01*
X181306265Y-55475525D02*
X181306265Y-54675525D01*
X181306265Y-54675525D02*
X181611027Y-54675525D01*
X181611027Y-54675525D02*
X181687217Y-54713620D01*
X181687217Y-54713620D02*
X181725312Y-54751715D01*
X181725312Y-54751715D02*
X181763408Y-54827906D01*
X181763408Y-54827906D02*
X181763408Y-54942191D01*
X181763408Y-54942191D02*
X181725312Y-55018382D01*
X181725312Y-55018382D02*
X181687217Y-55056477D01*
X181687217Y-55056477D02*
X181611027Y-55094572D01*
X181611027Y-55094572D02*
X181306265Y-55094572D01*
X182106265Y-55475525D02*
X182106265Y-54675525D01*
X182106265Y-54675525D02*
X182296741Y-54675525D01*
X182296741Y-54675525D02*
X182411027Y-54713620D01*
X182411027Y-54713620D02*
X182487217Y-54789810D01*
X182487217Y-54789810D02*
X182525312Y-54866001D01*
X182525312Y-54866001D02*
X182563408Y-55018382D01*
X182563408Y-55018382D02*
X182563408Y-55132668D01*
X182563408Y-55132668D02*
X182525312Y-55285049D01*
X182525312Y-55285049D02*
X182487217Y-55361239D01*
X182487217Y-55361239D02*
X182411027Y-55437430D01*
X182411027Y-55437430D02*
X182296741Y-55475525D01*
X182296741Y-55475525D02*
X182106265Y-55475525D01*
X183058646Y-54675525D02*
X183134836Y-54675525D01*
X183134836Y-54675525D02*
X183211027Y-54713620D01*
X183211027Y-54713620D02*
X183249122Y-54751715D01*
X183249122Y-54751715D02*
X183287217Y-54827906D01*
X183287217Y-54827906D02*
X183325312Y-54980287D01*
X183325312Y-54980287D02*
X183325312Y-55170763D01*
X183325312Y-55170763D02*
X183287217Y-55323144D01*
X183287217Y-55323144D02*
X183249122Y-55399334D01*
X183249122Y-55399334D02*
X183211027Y-55437430D01*
X183211027Y-55437430D02*
X183134836Y-55475525D01*
X183134836Y-55475525D02*
X183058646Y-55475525D01*
X183058646Y-55475525D02*
X182982455Y-55437430D01*
X182982455Y-55437430D02*
X182944360Y-55399334D01*
X182944360Y-55399334D02*
X182906265Y-55323144D01*
X182906265Y-55323144D02*
X182868169Y-55170763D01*
X182868169Y-55170763D02*
X182868169Y-54980287D01*
X182868169Y-54980287D02*
X182906265Y-54827906D01*
X182906265Y-54827906D02*
X182944360Y-54751715D01*
X182944360Y-54751715D02*
X182982455Y-54713620D01*
X182982455Y-54713620D02*
X183058646Y-54675525D01*
X181306265Y-58051435D02*
X181306265Y-57251435D01*
X181306265Y-57251435D02*
X181611027Y-57251435D01*
X181611027Y-57251435D02*
X181687217Y-57289530D01*
X181687217Y-57289530D02*
X181725312Y-57327625D01*
X181725312Y-57327625D02*
X181763408Y-57403816D01*
X181763408Y-57403816D02*
X181763408Y-57518101D01*
X181763408Y-57518101D02*
X181725312Y-57594292D01*
X181725312Y-57594292D02*
X181687217Y-57632387D01*
X181687217Y-57632387D02*
X181611027Y-57670482D01*
X181611027Y-57670482D02*
X181306265Y-57670482D01*
X182106265Y-58051435D02*
X182106265Y-57251435D01*
X182106265Y-57251435D02*
X182296741Y-57251435D01*
X182296741Y-57251435D02*
X182411027Y-57289530D01*
X182411027Y-57289530D02*
X182487217Y-57365720D01*
X182487217Y-57365720D02*
X182525312Y-57441911D01*
X182525312Y-57441911D02*
X182563408Y-57594292D01*
X182563408Y-57594292D02*
X182563408Y-57708578D01*
X182563408Y-57708578D02*
X182525312Y-57860959D01*
X182525312Y-57860959D02*
X182487217Y-57937149D01*
X182487217Y-57937149D02*
X182411027Y-58013340D01*
X182411027Y-58013340D02*
X182296741Y-58051435D01*
X182296741Y-58051435D02*
X182106265Y-58051435D01*
X183325312Y-58051435D02*
X182868169Y-58051435D01*
X183096741Y-58051435D02*
X183096741Y-57251435D01*
X183096741Y-57251435D02*
X183020550Y-57365720D01*
X183020550Y-57365720D02*
X182944360Y-57441911D01*
X182944360Y-57441911D02*
X182868169Y-57480006D01*
X181306265Y-60627345D02*
X181306265Y-59827345D01*
X181306265Y-59827345D02*
X181611027Y-59827345D01*
X181611027Y-59827345D02*
X181687217Y-59865440D01*
X181687217Y-59865440D02*
X181725312Y-59903535D01*
X181725312Y-59903535D02*
X181763408Y-59979726D01*
X181763408Y-59979726D02*
X181763408Y-60094011D01*
X181763408Y-60094011D02*
X181725312Y-60170202D01*
X181725312Y-60170202D02*
X181687217Y-60208297D01*
X181687217Y-60208297D02*
X181611027Y-60246392D01*
X181611027Y-60246392D02*
X181306265Y-60246392D01*
X182106265Y-60627345D02*
X182106265Y-59827345D01*
X182106265Y-59827345D02*
X182296741Y-59827345D01*
X182296741Y-59827345D02*
X182411027Y-59865440D01*
X182411027Y-59865440D02*
X182487217Y-59941630D01*
X182487217Y-59941630D02*
X182525312Y-60017821D01*
X182525312Y-60017821D02*
X182563408Y-60170202D01*
X182563408Y-60170202D02*
X182563408Y-60284488D01*
X182563408Y-60284488D02*
X182525312Y-60436869D01*
X182525312Y-60436869D02*
X182487217Y-60513059D01*
X182487217Y-60513059D02*
X182411027Y-60589250D01*
X182411027Y-60589250D02*
X182296741Y-60627345D01*
X182296741Y-60627345D02*
X182106265Y-60627345D01*
X182868169Y-59903535D02*
X182906265Y-59865440D01*
X182906265Y-59865440D02*
X182982455Y-59827345D01*
X182982455Y-59827345D02*
X183172931Y-59827345D01*
X183172931Y-59827345D02*
X183249122Y-59865440D01*
X183249122Y-59865440D02*
X183287217Y-59903535D01*
X183287217Y-59903535D02*
X183325312Y-59979726D01*
X183325312Y-59979726D02*
X183325312Y-60055916D01*
X183325312Y-60055916D02*
X183287217Y-60170202D01*
X183287217Y-60170202D02*
X182830074Y-60627345D01*
X182830074Y-60627345D02*
X183325312Y-60627345D01*
X181306265Y-63203255D02*
X181306265Y-62403255D01*
X181306265Y-62403255D02*
X181611027Y-62403255D01*
X181611027Y-62403255D02*
X181687217Y-62441350D01*
X181687217Y-62441350D02*
X181725312Y-62479445D01*
X181725312Y-62479445D02*
X181763408Y-62555636D01*
X181763408Y-62555636D02*
X181763408Y-62669921D01*
X181763408Y-62669921D02*
X181725312Y-62746112D01*
X181725312Y-62746112D02*
X181687217Y-62784207D01*
X181687217Y-62784207D02*
X181611027Y-62822302D01*
X181611027Y-62822302D02*
X181306265Y-62822302D01*
X182106265Y-63203255D02*
X182106265Y-62403255D01*
X182106265Y-62403255D02*
X182296741Y-62403255D01*
X182296741Y-62403255D02*
X182411027Y-62441350D01*
X182411027Y-62441350D02*
X182487217Y-62517540D01*
X182487217Y-62517540D02*
X182525312Y-62593731D01*
X182525312Y-62593731D02*
X182563408Y-62746112D01*
X182563408Y-62746112D02*
X182563408Y-62860398D01*
X182563408Y-62860398D02*
X182525312Y-63012779D01*
X182525312Y-63012779D02*
X182487217Y-63088969D01*
X182487217Y-63088969D02*
X182411027Y-63165160D01*
X182411027Y-63165160D02*
X182296741Y-63203255D01*
X182296741Y-63203255D02*
X182106265Y-63203255D01*
X182830074Y-62403255D02*
X183325312Y-62403255D01*
X183325312Y-62403255D02*
X183058646Y-62708017D01*
X183058646Y-62708017D02*
X183172931Y-62708017D01*
X183172931Y-62708017D02*
X183249122Y-62746112D01*
X183249122Y-62746112D02*
X183287217Y-62784207D01*
X183287217Y-62784207D02*
X183325312Y-62860398D01*
X183325312Y-62860398D02*
X183325312Y-63050874D01*
X183325312Y-63050874D02*
X183287217Y-63127064D01*
X183287217Y-63127064D02*
X183249122Y-63165160D01*
X183249122Y-63165160D02*
X183172931Y-63203255D01*
X183172931Y-63203255D02*
X182944360Y-63203255D01*
X182944360Y-63203255D02*
X182868169Y-63165160D01*
X182868169Y-63165160D02*
X182830074Y-63127064D01*
X181306265Y-65779165D02*
X181306265Y-64979165D01*
X181306265Y-64979165D02*
X181611027Y-64979165D01*
X181611027Y-64979165D02*
X181687217Y-65017260D01*
X181687217Y-65017260D02*
X181725312Y-65055355D01*
X181725312Y-65055355D02*
X181763408Y-65131546D01*
X181763408Y-65131546D02*
X181763408Y-65245831D01*
X181763408Y-65245831D02*
X181725312Y-65322022D01*
X181725312Y-65322022D02*
X181687217Y-65360117D01*
X181687217Y-65360117D02*
X181611027Y-65398212D01*
X181611027Y-65398212D02*
X181306265Y-65398212D01*
X182106265Y-65779165D02*
X182106265Y-64979165D01*
X182106265Y-64979165D02*
X182296741Y-64979165D01*
X182296741Y-64979165D02*
X182411027Y-65017260D01*
X182411027Y-65017260D02*
X182487217Y-65093450D01*
X182487217Y-65093450D02*
X182525312Y-65169641D01*
X182525312Y-65169641D02*
X182563408Y-65322022D01*
X182563408Y-65322022D02*
X182563408Y-65436308D01*
X182563408Y-65436308D02*
X182525312Y-65588689D01*
X182525312Y-65588689D02*
X182487217Y-65664879D01*
X182487217Y-65664879D02*
X182411027Y-65741070D01*
X182411027Y-65741070D02*
X182296741Y-65779165D01*
X182296741Y-65779165D02*
X182106265Y-65779165D01*
X183249122Y-65245831D02*
X183249122Y-65779165D01*
X183058646Y-64941070D02*
X182868169Y-65512498D01*
X182868169Y-65512498D02*
X183363408Y-65512498D01*
X181306265Y-68355075D02*
X181306265Y-67555075D01*
X181306265Y-67555075D02*
X181611027Y-67555075D01*
X181611027Y-67555075D02*
X181687217Y-67593170D01*
X181687217Y-67593170D02*
X181725312Y-67631265D01*
X181725312Y-67631265D02*
X181763408Y-67707456D01*
X181763408Y-67707456D02*
X181763408Y-67821741D01*
X181763408Y-67821741D02*
X181725312Y-67897932D01*
X181725312Y-67897932D02*
X181687217Y-67936027D01*
X181687217Y-67936027D02*
X181611027Y-67974122D01*
X181611027Y-67974122D02*
X181306265Y-67974122D01*
X182106265Y-68355075D02*
X182106265Y-67555075D01*
X182106265Y-67555075D02*
X182296741Y-67555075D01*
X182296741Y-67555075D02*
X182411027Y-67593170D01*
X182411027Y-67593170D02*
X182487217Y-67669360D01*
X182487217Y-67669360D02*
X182525312Y-67745551D01*
X182525312Y-67745551D02*
X182563408Y-67897932D01*
X182563408Y-67897932D02*
X182563408Y-68012218D01*
X182563408Y-68012218D02*
X182525312Y-68164599D01*
X182525312Y-68164599D02*
X182487217Y-68240789D01*
X182487217Y-68240789D02*
X182411027Y-68316980D01*
X182411027Y-68316980D02*
X182296741Y-68355075D01*
X182296741Y-68355075D02*
X182106265Y-68355075D01*
X183287217Y-67555075D02*
X182906265Y-67555075D01*
X182906265Y-67555075D02*
X182868169Y-67936027D01*
X182868169Y-67936027D02*
X182906265Y-67897932D01*
X182906265Y-67897932D02*
X182982455Y-67859837D01*
X182982455Y-67859837D02*
X183172931Y-67859837D01*
X183172931Y-67859837D02*
X183249122Y-67897932D01*
X183249122Y-67897932D02*
X183287217Y-67936027D01*
X183287217Y-67936027D02*
X183325312Y-68012218D01*
X183325312Y-68012218D02*
X183325312Y-68202694D01*
X183325312Y-68202694D02*
X183287217Y-68278884D01*
X183287217Y-68278884D02*
X183249122Y-68316980D01*
X183249122Y-68316980D02*
X183172931Y-68355075D01*
X183172931Y-68355075D02*
X182982455Y-68355075D01*
X182982455Y-68355075D02*
X182906265Y-68316980D01*
X182906265Y-68316980D02*
X182868169Y-68278884D01*
X181306265Y-70930985D02*
X181306265Y-70130985D01*
X181306265Y-70130985D02*
X181611027Y-70130985D01*
X181611027Y-70130985D02*
X181687217Y-70169080D01*
X181687217Y-70169080D02*
X181725312Y-70207175D01*
X181725312Y-70207175D02*
X181763408Y-70283366D01*
X181763408Y-70283366D02*
X181763408Y-70397651D01*
X181763408Y-70397651D02*
X181725312Y-70473842D01*
X181725312Y-70473842D02*
X181687217Y-70511937D01*
X181687217Y-70511937D02*
X181611027Y-70550032D01*
X181611027Y-70550032D02*
X181306265Y-70550032D01*
X182106265Y-70930985D02*
X182106265Y-70130985D01*
X182106265Y-70130985D02*
X182296741Y-70130985D01*
X182296741Y-70130985D02*
X182411027Y-70169080D01*
X182411027Y-70169080D02*
X182487217Y-70245270D01*
X182487217Y-70245270D02*
X182525312Y-70321461D01*
X182525312Y-70321461D02*
X182563408Y-70473842D01*
X182563408Y-70473842D02*
X182563408Y-70588128D01*
X182563408Y-70588128D02*
X182525312Y-70740509D01*
X182525312Y-70740509D02*
X182487217Y-70816699D01*
X182487217Y-70816699D02*
X182411027Y-70892890D01*
X182411027Y-70892890D02*
X182296741Y-70930985D01*
X182296741Y-70930985D02*
X182106265Y-70930985D01*
X183249122Y-70130985D02*
X183096741Y-70130985D01*
X183096741Y-70130985D02*
X183020550Y-70169080D01*
X183020550Y-70169080D02*
X182982455Y-70207175D01*
X182982455Y-70207175D02*
X182906265Y-70321461D01*
X182906265Y-70321461D02*
X182868169Y-70473842D01*
X182868169Y-70473842D02*
X182868169Y-70778604D01*
X182868169Y-70778604D02*
X182906265Y-70854794D01*
X182906265Y-70854794D02*
X182944360Y-70892890D01*
X182944360Y-70892890D02*
X183020550Y-70930985D01*
X183020550Y-70930985D02*
X183172931Y-70930985D01*
X183172931Y-70930985D02*
X183249122Y-70892890D01*
X183249122Y-70892890D02*
X183287217Y-70854794D01*
X183287217Y-70854794D02*
X183325312Y-70778604D01*
X183325312Y-70778604D02*
X183325312Y-70588128D01*
X183325312Y-70588128D02*
X183287217Y-70511937D01*
X183287217Y-70511937D02*
X183249122Y-70473842D01*
X183249122Y-70473842D02*
X183172931Y-70435747D01*
X183172931Y-70435747D02*
X183020550Y-70435747D01*
X183020550Y-70435747D02*
X182944360Y-70473842D01*
X182944360Y-70473842D02*
X182906265Y-70511937D01*
X182906265Y-70511937D02*
X182868169Y-70588128D01*
X181306265Y-73506895D02*
X181306265Y-72706895D01*
X181306265Y-72706895D02*
X181611027Y-72706895D01*
X181611027Y-72706895D02*
X181687217Y-72744990D01*
X181687217Y-72744990D02*
X181725312Y-72783085D01*
X181725312Y-72783085D02*
X181763408Y-72859276D01*
X181763408Y-72859276D02*
X181763408Y-72973561D01*
X181763408Y-72973561D02*
X181725312Y-73049752D01*
X181725312Y-73049752D02*
X181687217Y-73087847D01*
X181687217Y-73087847D02*
X181611027Y-73125942D01*
X181611027Y-73125942D02*
X181306265Y-73125942D01*
X182106265Y-73506895D02*
X182106265Y-72706895D01*
X182106265Y-72706895D02*
X182296741Y-72706895D01*
X182296741Y-72706895D02*
X182411027Y-72744990D01*
X182411027Y-72744990D02*
X182487217Y-72821180D01*
X182487217Y-72821180D02*
X182525312Y-72897371D01*
X182525312Y-72897371D02*
X182563408Y-73049752D01*
X182563408Y-73049752D02*
X182563408Y-73164038D01*
X182563408Y-73164038D02*
X182525312Y-73316419D01*
X182525312Y-73316419D02*
X182487217Y-73392609D01*
X182487217Y-73392609D02*
X182411027Y-73468800D01*
X182411027Y-73468800D02*
X182296741Y-73506895D01*
X182296741Y-73506895D02*
X182106265Y-73506895D01*
X182830074Y-72706895D02*
X183363408Y-72706895D01*
X183363408Y-72706895D02*
X183020550Y-73506895D01*
X161820074Y-97988800D02*
X161905789Y-98026895D01*
X161905789Y-98026895D02*
X162048646Y-98026895D01*
X162048646Y-98026895D02*
X162105789Y-97988800D01*
X162105789Y-97988800D02*
X162134360Y-97950704D01*
X162134360Y-97950704D02*
X162162931Y-97874514D01*
X162162931Y-97874514D02*
X162162931Y-97798323D01*
X162162931Y-97798323D02*
X162134360Y-97722133D01*
X162134360Y-97722133D02*
X162105789Y-97684038D01*
X162105789Y-97684038D02*
X162048646Y-97645942D01*
X162048646Y-97645942D02*
X161934360Y-97607847D01*
X161934360Y-97607847D02*
X161877217Y-97569752D01*
X161877217Y-97569752D02*
X161848646Y-97531657D01*
X161848646Y-97531657D02*
X161820074Y-97455466D01*
X161820074Y-97455466D02*
X161820074Y-97379276D01*
X161820074Y-97379276D02*
X161848646Y-97303085D01*
X161848646Y-97303085D02*
X161877217Y-97264990D01*
X161877217Y-97264990D02*
X161934360Y-97226895D01*
X161934360Y-97226895D02*
X162077217Y-97226895D01*
X162077217Y-97226895D02*
X162162931Y-97264990D01*
X162762932Y-97950704D02*
X162734360Y-97988800D01*
X162734360Y-97988800D02*
X162648646Y-98026895D01*
X162648646Y-98026895D02*
X162591503Y-98026895D01*
X162591503Y-98026895D02*
X162505789Y-97988800D01*
X162505789Y-97988800D02*
X162448646Y-97912609D01*
X162448646Y-97912609D02*
X162420075Y-97836419D01*
X162420075Y-97836419D02*
X162391503Y-97684038D01*
X162391503Y-97684038D02*
X162391503Y-97569752D01*
X162391503Y-97569752D02*
X162420075Y-97417371D01*
X162420075Y-97417371D02*
X162448646Y-97341180D01*
X162448646Y-97341180D02*
X162505789Y-97264990D01*
X162505789Y-97264990D02*
X162591503Y-97226895D01*
X162591503Y-97226895D02*
X162648646Y-97226895D01*
X162648646Y-97226895D02*
X162734360Y-97264990D01*
X162734360Y-97264990D02*
X162762932Y-97303085D01*
X163020075Y-98026895D02*
X163020075Y-97226895D01*
X163362932Y-98026895D02*
X163105789Y-97569752D01*
X163362932Y-97226895D02*
X163020075Y-97684038D01*
X164077218Y-98026895D02*
X164077218Y-97226895D01*
X164077218Y-97226895D02*
X164277218Y-97798323D01*
X164277218Y-97798323D02*
X164477218Y-97226895D01*
X164477218Y-97226895D02*
X164477218Y-98026895D01*
X164877217Y-97226895D02*
X164991503Y-97226895D01*
X164991503Y-97226895D02*
X165048646Y-97264990D01*
X165048646Y-97264990D02*
X165105789Y-97341180D01*
X165105789Y-97341180D02*
X165134360Y-97493561D01*
X165134360Y-97493561D02*
X165134360Y-97760228D01*
X165134360Y-97760228D02*
X165105789Y-97912609D01*
X165105789Y-97912609D02*
X165048646Y-97988800D01*
X165048646Y-97988800D02*
X164991503Y-98026895D01*
X164991503Y-98026895D02*
X164877217Y-98026895D01*
X164877217Y-98026895D02*
X164820075Y-97988800D01*
X164820075Y-97988800D02*
X164762932Y-97912609D01*
X164762932Y-97912609D02*
X164734360Y-97760228D01*
X164734360Y-97760228D02*
X164734360Y-97493561D01*
X164734360Y-97493561D02*
X164762932Y-97341180D01*
X164762932Y-97341180D02*
X164820075Y-97264990D01*
X164820075Y-97264990D02*
X164877217Y-97226895D01*
X165362931Y-97988800D02*
X165448646Y-98026895D01*
X165448646Y-98026895D02*
X165591503Y-98026895D01*
X165591503Y-98026895D02*
X165648646Y-97988800D01*
X165648646Y-97988800D02*
X165677217Y-97950704D01*
X165677217Y-97950704D02*
X165705788Y-97874514D01*
X165705788Y-97874514D02*
X165705788Y-97798323D01*
X165705788Y-97798323D02*
X165677217Y-97722133D01*
X165677217Y-97722133D02*
X165648646Y-97684038D01*
X165648646Y-97684038D02*
X165591503Y-97645942D01*
X165591503Y-97645942D02*
X165477217Y-97607847D01*
X165477217Y-97607847D02*
X165420074Y-97569752D01*
X165420074Y-97569752D02*
X165391503Y-97531657D01*
X165391503Y-97531657D02*
X165362931Y-97455466D01*
X165362931Y-97455466D02*
X165362931Y-97379276D01*
X165362931Y-97379276D02*
X165391503Y-97303085D01*
X165391503Y-97303085D02*
X165420074Y-97264990D01*
X165420074Y-97264990D02*
X165477217Y-97226895D01*
X165477217Y-97226895D02*
X165620074Y-97226895D01*
X165620074Y-97226895D02*
X165705788Y-97264990D01*
X165962932Y-98026895D02*
X165962932Y-97226895D01*
X166705789Y-98026895D02*
X166705789Y-97226895D01*
X166705789Y-97226895D02*
X166905789Y-97798323D01*
X166905789Y-97798323D02*
X167105789Y-97226895D01*
X167105789Y-97226895D02*
X167105789Y-98026895D01*
X167391503Y-98026895D02*
X167391503Y-97226895D01*
X167648645Y-97988800D02*
X167734360Y-98026895D01*
X167734360Y-98026895D02*
X167877217Y-98026895D01*
X167877217Y-98026895D02*
X167934360Y-97988800D01*
X167934360Y-97988800D02*
X167962931Y-97950704D01*
X167962931Y-97950704D02*
X167991502Y-97874514D01*
X167991502Y-97874514D02*
X167991502Y-97798323D01*
X167991502Y-97798323D02*
X167962931Y-97722133D01*
X167962931Y-97722133D02*
X167934360Y-97684038D01*
X167934360Y-97684038D02*
X167877217Y-97645942D01*
X167877217Y-97645942D02*
X167762931Y-97607847D01*
X167762931Y-97607847D02*
X167705788Y-97569752D01*
X167705788Y-97569752D02*
X167677217Y-97531657D01*
X167677217Y-97531657D02*
X167648645Y-97455466D01*
X167648645Y-97455466D02*
X167648645Y-97379276D01*
X167648645Y-97379276D02*
X167677217Y-97303085D01*
X167677217Y-97303085D02*
X167705788Y-97264990D01*
X167705788Y-97264990D02*
X167762931Y-97226895D01*
X167762931Y-97226895D02*
X167905788Y-97226895D01*
X167905788Y-97226895D02*
X167991502Y-97264990D01*
X168362931Y-97226895D02*
X168477217Y-97226895D01*
X168477217Y-97226895D02*
X168534360Y-97264990D01*
X168534360Y-97264990D02*
X168591503Y-97341180D01*
X168591503Y-97341180D02*
X168620074Y-97493561D01*
X168620074Y-97493561D02*
X168620074Y-97760228D01*
X168620074Y-97760228D02*
X168591503Y-97912609D01*
X168591503Y-97912609D02*
X168534360Y-97988800D01*
X168534360Y-97988800D02*
X168477217Y-98026895D01*
X168477217Y-98026895D02*
X168362931Y-98026895D01*
X168362931Y-98026895D02*
X168305789Y-97988800D01*
X168305789Y-97988800D02*
X168248646Y-97912609D01*
X168248646Y-97912609D02*
X168220074Y-97760228D01*
X168220074Y-97760228D02*
X168220074Y-97493561D01*
X168220074Y-97493561D02*
X168248646Y-97341180D01*
X168248646Y-97341180D02*
X168305789Y-97264990D01*
X168305789Y-97264990D02*
X168362931Y-97226895D01*
X169334360Y-97722133D02*
X169791503Y-97722133D01*
X169562931Y-98026895D02*
X169562931Y-97417371D01*
X170362931Y-97226895D02*
X170077217Y-97226895D01*
X170077217Y-97226895D02*
X170048645Y-97607847D01*
X170048645Y-97607847D02*
X170077217Y-97569752D01*
X170077217Y-97569752D02*
X170134360Y-97531657D01*
X170134360Y-97531657D02*
X170277217Y-97531657D01*
X170277217Y-97531657D02*
X170334360Y-97569752D01*
X170334360Y-97569752D02*
X170362931Y-97607847D01*
X170362931Y-97607847D02*
X170391502Y-97684038D01*
X170391502Y-97684038D02*
X170391502Y-97874514D01*
X170391502Y-97874514D02*
X170362931Y-97950704D01*
X170362931Y-97950704D02*
X170334360Y-97988800D01*
X170334360Y-97988800D02*
X170277217Y-98026895D01*
X170277217Y-98026895D02*
X170134360Y-98026895D01*
X170134360Y-98026895D02*
X170077217Y-97988800D01*
X170077217Y-97988800D02*
X170048645Y-97950704D01*
X170562931Y-97226895D02*
X170762931Y-98026895D01*
X170762931Y-98026895D02*
X170962931Y-97226895D01*
X172391503Y-97264990D02*
X172334361Y-97226895D01*
X172334361Y-97226895D02*
X172248646Y-97226895D01*
X172248646Y-97226895D02*
X172162932Y-97264990D01*
X172162932Y-97264990D02*
X172105789Y-97341180D01*
X172105789Y-97341180D02*
X172077218Y-97417371D01*
X172077218Y-97417371D02*
X172048646Y-97569752D01*
X172048646Y-97569752D02*
X172048646Y-97684038D01*
X172048646Y-97684038D02*
X172077218Y-97836419D01*
X172077218Y-97836419D02*
X172105789Y-97912609D01*
X172105789Y-97912609D02*
X172162932Y-97988800D01*
X172162932Y-97988800D02*
X172248646Y-98026895D01*
X172248646Y-98026895D02*
X172305789Y-98026895D01*
X172305789Y-98026895D02*
X172391503Y-97988800D01*
X172391503Y-97988800D02*
X172420075Y-97950704D01*
X172420075Y-97950704D02*
X172420075Y-97684038D01*
X172420075Y-97684038D02*
X172305789Y-97684038D01*
X172677218Y-98026895D02*
X172677218Y-97226895D01*
X172677218Y-97226895D02*
X173020075Y-98026895D01*
X173020075Y-98026895D02*
X173020075Y-97226895D01*
X173305789Y-98026895D02*
X173305789Y-97226895D01*
X173305789Y-97226895D02*
X173448646Y-97226895D01*
X173448646Y-97226895D02*
X173534360Y-97264990D01*
X173534360Y-97264990D02*
X173591503Y-97341180D01*
X173591503Y-97341180D02*
X173620074Y-97417371D01*
X173620074Y-97417371D02*
X173648646Y-97569752D01*
X173648646Y-97569752D02*
X173648646Y-97684038D01*
X173648646Y-97684038D02*
X173620074Y-97836419D01*
X173620074Y-97836419D02*
X173591503Y-97912609D01*
X173591503Y-97912609D02*
X173534360Y-97988800D01*
X173534360Y-97988800D02*
X173448646Y-98026895D01*
X173448646Y-98026895D02*
X173305789Y-98026895D01*
X168892455Y-48382133D02*
X169425789Y-48382133D01*
X169159122Y-48686895D02*
X169159122Y-48077371D01*
X170092456Y-47886895D02*
X169759122Y-47886895D01*
X169759122Y-47886895D02*
X169725789Y-48267847D01*
X169725789Y-48267847D02*
X169759122Y-48229752D01*
X169759122Y-48229752D02*
X169825789Y-48191657D01*
X169825789Y-48191657D02*
X169992456Y-48191657D01*
X169992456Y-48191657D02*
X170059122Y-48229752D01*
X170059122Y-48229752D02*
X170092456Y-48267847D01*
X170092456Y-48267847D02*
X170125789Y-48344038D01*
X170125789Y-48344038D02*
X170125789Y-48534514D01*
X170125789Y-48534514D02*
X170092456Y-48610704D01*
X170092456Y-48610704D02*
X170059122Y-48648800D01*
X170059122Y-48648800D02*
X169992456Y-48686895D01*
X169992456Y-48686895D02*
X169825789Y-48686895D01*
X169825789Y-48686895D02*
X169759122Y-48648800D01*
X169759122Y-48648800D02*
X169725789Y-48610704D01*
X170325789Y-47886895D02*
X170559123Y-48686895D01*
X170559123Y-48686895D02*
X170792456Y-47886895D01*
X171459122Y-47886895D02*
X171859122Y-47886895D01*
X171659122Y-48686895D02*
X171659122Y-47886895D01*
X172025789Y-47886895D02*
X172492455Y-48686895D01*
X172492455Y-47886895D02*
X172025789Y-48686895D01*
X174225788Y-48686895D02*
X173992455Y-48305942D01*
X173825788Y-48686895D02*
X173825788Y-47886895D01*
X173825788Y-47886895D02*
X174092455Y-47886895D01*
X174092455Y-47886895D02*
X174159122Y-47924990D01*
X174159122Y-47924990D02*
X174192455Y-47963085D01*
X174192455Y-47963085D02*
X174225788Y-48039276D01*
X174225788Y-48039276D02*
X174225788Y-48153561D01*
X174225788Y-48153561D02*
X174192455Y-48229752D01*
X174192455Y-48229752D02*
X174159122Y-48267847D01*
X174159122Y-48267847D02*
X174092455Y-48305942D01*
X174092455Y-48305942D02*
X173825788Y-48305942D01*
X174459122Y-47886895D02*
X174925788Y-48686895D01*
X174925788Y-47886895D02*
X174459122Y-48686895D01*
X176625788Y-47924990D02*
X176559121Y-47886895D01*
X176559121Y-47886895D02*
X176459121Y-47886895D01*
X176459121Y-47886895D02*
X176359121Y-47924990D01*
X176359121Y-47924990D02*
X176292455Y-48001180D01*
X176292455Y-48001180D02*
X176259121Y-48077371D01*
X176259121Y-48077371D02*
X176225788Y-48229752D01*
X176225788Y-48229752D02*
X176225788Y-48344038D01*
X176225788Y-48344038D02*
X176259121Y-48496419D01*
X176259121Y-48496419D02*
X176292455Y-48572609D01*
X176292455Y-48572609D02*
X176359121Y-48648800D01*
X176359121Y-48648800D02*
X176459121Y-48686895D01*
X176459121Y-48686895D02*
X176525788Y-48686895D01*
X176525788Y-48686895D02*
X176625788Y-48648800D01*
X176625788Y-48648800D02*
X176659121Y-48610704D01*
X176659121Y-48610704D02*
X176659121Y-48344038D01*
X176659121Y-48344038D02*
X176525788Y-48344038D01*
X176959121Y-48686895D02*
X176959121Y-47886895D01*
X176959121Y-47886895D02*
X177359121Y-48686895D01*
X177359121Y-48686895D02*
X177359121Y-47886895D01*
X177692454Y-48686895D02*
X177692454Y-47886895D01*
X177692454Y-47886895D02*
X177859121Y-47886895D01*
X177859121Y-47886895D02*
X177959121Y-47924990D01*
X177959121Y-47924990D02*
X178025788Y-48001180D01*
X178025788Y-48001180D02*
X178059121Y-48077371D01*
X178059121Y-48077371D02*
X178092454Y-48229752D01*
X178092454Y-48229752D02*
X178092454Y-48344038D01*
X178092454Y-48344038D02*
X178059121Y-48496419D01*
X178059121Y-48496419D02*
X178025788Y-48572609D01*
X178025788Y-48572609D02*
X177959121Y-48648800D01*
X177959121Y-48648800D02*
X177859121Y-48686895D01*
X177859121Y-48686895D02*
X177692454Y-48686895D01*
X150899122Y-49418800D02*
X150999122Y-49456895D01*
X150999122Y-49456895D02*
X151165789Y-49456895D01*
X151165789Y-49456895D02*
X151232455Y-49418800D01*
X151232455Y-49418800D02*
X151265789Y-49380704D01*
X151265789Y-49380704D02*
X151299122Y-49304514D01*
X151299122Y-49304514D02*
X151299122Y-49228323D01*
X151299122Y-49228323D02*
X151265789Y-49152133D01*
X151265789Y-49152133D02*
X151232455Y-49114038D01*
X151232455Y-49114038D02*
X151165789Y-49075942D01*
X151165789Y-49075942D02*
X151032455Y-49037847D01*
X151032455Y-49037847D02*
X150965789Y-48999752D01*
X150965789Y-48999752D02*
X150932455Y-48961657D01*
X150932455Y-48961657D02*
X150899122Y-48885466D01*
X150899122Y-48885466D02*
X150899122Y-48809276D01*
X150899122Y-48809276D02*
X150932455Y-48733085D01*
X150932455Y-48733085D02*
X150965789Y-48694990D01*
X150965789Y-48694990D02*
X151032455Y-48656895D01*
X151032455Y-48656895D02*
X151199122Y-48656895D01*
X151199122Y-48656895D02*
X151299122Y-48694990D01*
X151999122Y-49380704D02*
X151965789Y-49418800D01*
X151965789Y-49418800D02*
X151865789Y-49456895D01*
X151865789Y-49456895D02*
X151799122Y-49456895D01*
X151799122Y-49456895D02*
X151699122Y-49418800D01*
X151699122Y-49418800D02*
X151632456Y-49342609D01*
X151632456Y-49342609D02*
X151599122Y-49266419D01*
X151599122Y-49266419D02*
X151565789Y-49114038D01*
X151565789Y-49114038D02*
X151565789Y-48999752D01*
X151565789Y-48999752D02*
X151599122Y-48847371D01*
X151599122Y-48847371D02*
X151632456Y-48771180D01*
X151632456Y-48771180D02*
X151699122Y-48694990D01*
X151699122Y-48694990D02*
X151799122Y-48656895D01*
X151799122Y-48656895D02*
X151865789Y-48656895D01*
X151865789Y-48656895D02*
X151965789Y-48694990D01*
X151965789Y-48694990D02*
X151999122Y-48733085D01*
X152632456Y-49456895D02*
X152299122Y-49456895D01*
X152299122Y-49456895D02*
X152299122Y-48656895D01*
X153532455Y-49418800D02*
X153632455Y-49456895D01*
X153632455Y-49456895D02*
X153799122Y-49456895D01*
X153799122Y-49456895D02*
X153865788Y-49418800D01*
X153865788Y-49418800D02*
X153899122Y-49380704D01*
X153899122Y-49380704D02*
X153932455Y-49304514D01*
X153932455Y-49304514D02*
X153932455Y-49228323D01*
X153932455Y-49228323D02*
X153899122Y-49152133D01*
X153899122Y-49152133D02*
X153865788Y-49114038D01*
X153865788Y-49114038D02*
X153799122Y-49075942D01*
X153799122Y-49075942D02*
X153665788Y-49037847D01*
X153665788Y-49037847D02*
X153599122Y-48999752D01*
X153599122Y-48999752D02*
X153565788Y-48961657D01*
X153565788Y-48961657D02*
X153532455Y-48885466D01*
X153532455Y-48885466D02*
X153532455Y-48809276D01*
X153532455Y-48809276D02*
X153565788Y-48733085D01*
X153565788Y-48733085D02*
X153599122Y-48694990D01*
X153599122Y-48694990D02*
X153665788Y-48656895D01*
X153665788Y-48656895D02*
X153832455Y-48656895D01*
X153832455Y-48656895D02*
X153932455Y-48694990D01*
X154232455Y-49456895D02*
X154232455Y-48656895D01*
X154232455Y-48656895D02*
X154399122Y-48656895D01*
X154399122Y-48656895D02*
X154499122Y-48694990D01*
X154499122Y-48694990D02*
X154565789Y-48771180D01*
X154565789Y-48771180D02*
X154599122Y-48847371D01*
X154599122Y-48847371D02*
X154632455Y-48999752D01*
X154632455Y-48999752D02*
X154632455Y-49114038D01*
X154632455Y-49114038D02*
X154599122Y-49266419D01*
X154599122Y-49266419D02*
X154565789Y-49342609D01*
X154565789Y-49342609D02*
X154499122Y-49418800D01*
X154499122Y-49418800D02*
X154399122Y-49456895D01*
X154399122Y-49456895D02*
X154232455Y-49456895D01*
X154899122Y-49228323D02*
X155232455Y-49228323D01*
X154832455Y-49456895D02*
X155065789Y-48656895D01*
X155065789Y-48656895D02*
X155299122Y-49456895D01*
X156365788Y-49152133D02*
X156899122Y-49152133D01*
X156632455Y-49456895D02*
X156632455Y-48847371D01*
X157565789Y-48656895D02*
X157232455Y-48656895D01*
X157232455Y-48656895D02*
X157199122Y-49037847D01*
X157199122Y-49037847D02*
X157232455Y-48999752D01*
X157232455Y-48999752D02*
X157299122Y-48961657D01*
X157299122Y-48961657D02*
X157465789Y-48961657D01*
X157465789Y-48961657D02*
X157532455Y-48999752D01*
X157532455Y-48999752D02*
X157565789Y-49037847D01*
X157565789Y-49037847D02*
X157599122Y-49114038D01*
X157599122Y-49114038D02*
X157599122Y-49304514D01*
X157599122Y-49304514D02*
X157565789Y-49380704D01*
X157565789Y-49380704D02*
X157532455Y-49418800D01*
X157532455Y-49418800D02*
X157465789Y-49456895D01*
X157465789Y-49456895D02*
X157299122Y-49456895D01*
X157299122Y-49456895D02*
X157232455Y-49418800D01*
X157232455Y-49418800D02*
X157199122Y-49380704D01*
X157799122Y-48656895D02*
X158032456Y-49456895D01*
X158032456Y-49456895D02*
X158265789Y-48656895D01*
X159399122Y-48694990D02*
X159332455Y-48656895D01*
X159332455Y-48656895D02*
X159232455Y-48656895D01*
X159232455Y-48656895D02*
X159132455Y-48694990D01*
X159132455Y-48694990D02*
X159065789Y-48771180D01*
X159065789Y-48771180D02*
X159032455Y-48847371D01*
X159032455Y-48847371D02*
X158999122Y-48999752D01*
X158999122Y-48999752D02*
X158999122Y-49114038D01*
X158999122Y-49114038D02*
X159032455Y-49266419D01*
X159032455Y-49266419D02*
X159065789Y-49342609D01*
X159065789Y-49342609D02*
X159132455Y-49418800D01*
X159132455Y-49418800D02*
X159232455Y-49456895D01*
X159232455Y-49456895D02*
X159299122Y-49456895D01*
X159299122Y-49456895D02*
X159399122Y-49418800D01*
X159399122Y-49418800D02*
X159432455Y-49380704D01*
X159432455Y-49380704D02*
X159432455Y-49114038D01*
X159432455Y-49114038D02*
X159299122Y-49114038D01*
X159732455Y-49456895D02*
X159732455Y-48656895D01*
X159732455Y-48656895D02*
X160132455Y-49456895D01*
X160132455Y-49456895D02*
X160132455Y-48656895D01*
X160465788Y-49456895D02*
X160465788Y-48656895D01*
X160465788Y-48656895D02*
X160632455Y-48656895D01*
X160632455Y-48656895D02*
X160732455Y-48694990D01*
X160732455Y-48694990D02*
X160799122Y-48771180D01*
X160799122Y-48771180D02*
X160832455Y-48847371D01*
X160832455Y-48847371D02*
X160865788Y-48999752D01*
X160865788Y-48999752D02*
X160865788Y-49114038D01*
X160865788Y-49114038D02*
X160832455Y-49266419D01*
X160832455Y-49266419D02*
X160799122Y-49342609D01*
X160799122Y-49342609D02*
X160732455Y-49418800D01*
X160732455Y-49418800D02*
X160632455Y-49456895D01*
X160632455Y-49456895D02*
X160465788Y-49456895D01*
X126186265Y-69225525D02*
X126186265Y-68425525D01*
X126186265Y-68425525D02*
X126491027Y-68425525D01*
X126491027Y-68425525D02*
X126567217Y-68463620D01*
X126567217Y-68463620D02*
X126605312Y-68501715D01*
X126605312Y-68501715D02*
X126643408Y-68577906D01*
X126643408Y-68577906D02*
X126643408Y-68692191D01*
X126643408Y-68692191D02*
X126605312Y-68768382D01*
X126605312Y-68768382D02*
X126567217Y-68806477D01*
X126567217Y-68806477D02*
X126491027Y-68844572D01*
X126491027Y-68844572D02*
X126186265Y-68844572D01*
X127252931Y-68806477D02*
X127367217Y-68844572D01*
X127367217Y-68844572D02*
X127405312Y-68882668D01*
X127405312Y-68882668D02*
X127443408Y-68958858D01*
X127443408Y-68958858D02*
X127443408Y-69073144D01*
X127443408Y-69073144D02*
X127405312Y-69149334D01*
X127405312Y-69149334D02*
X127367217Y-69187430D01*
X127367217Y-69187430D02*
X127291027Y-69225525D01*
X127291027Y-69225525D02*
X126986265Y-69225525D01*
X126986265Y-69225525D02*
X126986265Y-68425525D01*
X126986265Y-68425525D02*
X127252931Y-68425525D01*
X127252931Y-68425525D02*
X127329122Y-68463620D01*
X127329122Y-68463620D02*
X127367217Y-68501715D01*
X127367217Y-68501715D02*
X127405312Y-68577906D01*
X127405312Y-68577906D02*
X127405312Y-68654096D01*
X127405312Y-68654096D02*
X127367217Y-68730287D01*
X127367217Y-68730287D02*
X127329122Y-68768382D01*
X127329122Y-68768382D02*
X127252931Y-68806477D01*
X127252931Y-68806477D02*
X126986265Y-68806477D01*
X127710074Y-68425525D02*
X128243408Y-68425525D01*
X128243408Y-68425525D02*
X127900550Y-69225525D01*
X126186265Y-71801435D02*
X126186265Y-71001435D01*
X126186265Y-71001435D02*
X126491027Y-71001435D01*
X126491027Y-71001435D02*
X126567217Y-71039530D01*
X126567217Y-71039530D02*
X126605312Y-71077625D01*
X126605312Y-71077625D02*
X126643408Y-71153816D01*
X126643408Y-71153816D02*
X126643408Y-71268101D01*
X126643408Y-71268101D02*
X126605312Y-71344292D01*
X126605312Y-71344292D02*
X126567217Y-71382387D01*
X126567217Y-71382387D02*
X126491027Y-71420482D01*
X126491027Y-71420482D02*
X126186265Y-71420482D01*
X127252931Y-71382387D02*
X127367217Y-71420482D01*
X127367217Y-71420482D02*
X127405312Y-71458578D01*
X127405312Y-71458578D02*
X127443408Y-71534768D01*
X127443408Y-71534768D02*
X127443408Y-71649054D01*
X127443408Y-71649054D02*
X127405312Y-71725244D01*
X127405312Y-71725244D02*
X127367217Y-71763340D01*
X127367217Y-71763340D02*
X127291027Y-71801435D01*
X127291027Y-71801435D02*
X126986265Y-71801435D01*
X126986265Y-71801435D02*
X126986265Y-71001435D01*
X126986265Y-71001435D02*
X127252931Y-71001435D01*
X127252931Y-71001435D02*
X127329122Y-71039530D01*
X127329122Y-71039530D02*
X127367217Y-71077625D01*
X127367217Y-71077625D02*
X127405312Y-71153816D01*
X127405312Y-71153816D02*
X127405312Y-71230006D01*
X127405312Y-71230006D02*
X127367217Y-71306197D01*
X127367217Y-71306197D02*
X127329122Y-71344292D01*
X127329122Y-71344292D02*
X127252931Y-71382387D01*
X127252931Y-71382387D02*
X126986265Y-71382387D01*
X128129122Y-71001435D02*
X127976741Y-71001435D01*
X127976741Y-71001435D02*
X127900550Y-71039530D01*
X127900550Y-71039530D02*
X127862455Y-71077625D01*
X127862455Y-71077625D02*
X127786265Y-71191911D01*
X127786265Y-71191911D02*
X127748169Y-71344292D01*
X127748169Y-71344292D02*
X127748169Y-71649054D01*
X127748169Y-71649054D02*
X127786265Y-71725244D01*
X127786265Y-71725244D02*
X127824360Y-71763340D01*
X127824360Y-71763340D02*
X127900550Y-71801435D01*
X127900550Y-71801435D02*
X128052931Y-71801435D01*
X128052931Y-71801435D02*
X128129122Y-71763340D01*
X128129122Y-71763340D02*
X128167217Y-71725244D01*
X128167217Y-71725244D02*
X128205312Y-71649054D01*
X128205312Y-71649054D02*
X128205312Y-71458578D01*
X128205312Y-71458578D02*
X128167217Y-71382387D01*
X128167217Y-71382387D02*
X128129122Y-71344292D01*
X128129122Y-71344292D02*
X128052931Y-71306197D01*
X128052931Y-71306197D02*
X127900550Y-71306197D01*
X127900550Y-71306197D02*
X127824360Y-71344292D01*
X127824360Y-71344292D02*
X127786265Y-71382387D01*
X127786265Y-71382387D02*
X127748169Y-71458578D01*
X126186265Y-74377345D02*
X126186265Y-73577345D01*
X126186265Y-73577345D02*
X126491027Y-73577345D01*
X126491027Y-73577345D02*
X126567217Y-73615440D01*
X126567217Y-73615440D02*
X126605312Y-73653535D01*
X126605312Y-73653535D02*
X126643408Y-73729726D01*
X126643408Y-73729726D02*
X126643408Y-73844011D01*
X126643408Y-73844011D02*
X126605312Y-73920202D01*
X126605312Y-73920202D02*
X126567217Y-73958297D01*
X126567217Y-73958297D02*
X126491027Y-73996392D01*
X126491027Y-73996392D02*
X126186265Y-73996392D01*
X127252931Y-73958297D02*
X127367217Y-73996392D01*
X127367217Y-73996392D02*
X127405312Y-74034488D01*
X127405312Y-74034488D02*
X127443408Y-74110678D01*
X127443408Y-74110678D02*
X127443408Y-74224964D01*
X127443408Y-74224964D02*
X127405312Y-74301154D01*
X127405312Y-74301154D02*
X127367217Y-74339250D01*
X127367217Y-74339250D02*
X127291027Y-74377345D01*
X127291027Y-74377345D02*
X126986265Y-74377345D01*
X126986265Y-74377345D02*
X126986265Y-73577345D01*
X126986265Y-73577345D02*
X127252931Y-73577345D01*
X127252931Y-73577345D02*
X127329122Y-73615440D01*
X127329122Y-73615440D02*
X127367217Y-73653535D01*
X127367217Y-73653535D02*
X127405312Y-73729726D01*
X127405312Y-73729726D02*
X127405312Y-73805916D01*
X127405312Y-73805916D02*
X127367217Y-73882107D01*
X127367217Y-73882107D02*
X127329122Y-73920202D01*
X127329122Y-73920202D02*
X127252931Y-73958297D01*
X127252931Y-73958297D02*
X126986265Y-73958297D01*
X128167217Y-73577345D02*
X127786265Y-73577345D01*
X127786265Y-73577345D02*
X127748169Y-73958297D01*
X127748169Y-73958297D02*
X127786265Y-73920202D01*
X127786265Y-73920202D02*
X127862455Y-73882107D01*
X127862455Y-73882107D02*
X128052931Y-73882107D01*
X128052931Y-73882107D02*
X128129122Y-73920202D01*
X128129122Y-73920202D02*
X128167217Y-73958297D01*
X128167217Y-73958297D02*
X128205312Y-74034488D01*
X128205312Y-74034488D02*
X128205312Y-74224964D01*
X128205312Y-74224964D02*
X128167217Y-74301154D01*
X128167217Y-74301154D02*
X128129122Y-74339250D01*
X128129122Y-74339250D02*
X128052931Y-74377345D01*
X128052931Y-74377345D02*
X127862455Y-74377345D01*
X127862455Y-74377345D02*
X127786265Y-74339250D01*
X127786265Y-74339250D02*
X127748169Y-74301154D01*
X126186265Y-76953255D02*
X126186265Y-76153255D01*
X126186265Y-76153255D02*
X126491027Y-76153255D01*
X126491027Y-76153255D02*
X126567217Y-76191350D01*
X126567217Y-76191350D02*
X126605312Y-76229445D01*
X126605312Y-76229445D02*
X126643408Y-76305636D01*
X126643408Y-76305636D02*
X126643408Y-76419921D01*
X126643408Y-76419921D02*
X126605312Y-76496112D01*
X126605312Y-76496112D02*
X126567217Y-76534207D01*
X126567217Y-76534207D02*
X126491027Y-76572302D01*
X126491027Y-76572302D02*
X126186265Y-76572302D01*
X127252931Y-76534207D02*
X127367217Y-76572302D01*
X127367217Y-76572302D02*
X127405312Y-76610398D01*
X127405312Y-76610398D02*
X127443408Y-76686588D01*
X127443408Y-76686588D02*
X127443408Y-76800874D01*
X127443408Y-76800874D02*
X127405312Y-76877064D01*
X127405312Y-76877064D02*
X127367217Y-76915160D01*
X127367217Y-76915160D02*
X127291027Y-76953255D01*
X127291027Y-76953255D02*
X126986265Y-76953255D01*
X126986265Y-76953255D02*
X126986265Y-76153255D01*
X126986265Y-76153255D02*
X127252931Y-76153255D01*
X127252931Y-76153255D02*
X127329122Y-76191350D01*
X127329122Y-76191350D02*
X127367217Y-76229445D01*
X127367217Y-76229445D02*
X127405312Y-76305636D01*
X127405312Y-76305636D02*
X127405312Y-76381826D01*
X127405312Y-76381826D02*
X127367217Y-76458017D01*
X127367217Y-76458017D02*
X127329122Y-76496112D01*
X127329122Y-76496112D02*
X127252931Y-76534207D01*
X127252931Y-76534207D02*
X126986265Y-76534207D01*
X128129122Y-76419921D02*
X128129122Y-76953255D01*
X127938646Y-76115160D02*
X127748169Y-76686588D01*
X127748169Y-76686588D02*
X128243408Y-76686588D01*
X126186265Y-79529165D02*
X126186265Y-78729165D01*
X126186265Y-78729165D02*
X126491027Y-78729165D01*
X126491027Y-78729165D02*
X126567217Y-78767260D01*
X126567217Y-78767260D02*
X126605312Y-78805355D01*
X126605312Y-78805355D02*
X126643408Y-78881546D01*
X126643408Y-78881546D02*
X126643408Y-78995831D01*
X126643408Y-78995831D02*
X126605312Y-79072022D01*
X126605312Y-79072022D02*
X126567217Y-79110117D01*
X126567217Y-79110117D02*
X126491027Y-79148212D01*
X126491027Y-79148212D02*
X126186265Y-79148212D01*
X127252931Y-79110117D02*
X127367217Y-79148212D01*
X127367217Y-79148212D02*
X127405312Y-79186308D01*
X127405312Y-79186308D02*
X127443408Y-79262498D01*
X127443408Y-79262498D02*
X127443408Y-79376784D01*
X127443408Y-79376784D02*
X127405312Y-79452974D01*
X127405312Y-79452974D02*
X127367217Y-79491070D01*
X127367217Y-79491070D02*
X127291027Y-79529165D01*
X127291027Y-79529165D02*
X126986265Y-79529165D01*
X126986265Y-79529165D02*
X126986265Y-78729165D01*
X126986265Y-78729165D02*
X127252931Y-78729165D01*
X127252931Y-78729165D02*
X127329122Y-78767260D01*
X127329122Y-78767260D02*
X127367217Y-78805355D01*
X127367217Y-78805355D02*
X127405312Y-78881546D01*
X127405312Y-78881546D02*
X127405312Y-78957736D01*
X127405312Y-78957736D02*
X127367217Y-79033927D01*
X127367217Y-79033927D02*
X127329122Y-79072022D01*
X127329122Y-79072022D02*
X127252931Y-79110117D01*
X127252931Y-79110117D02*
X126986265Y-79110117D01*
X127710074Y-78729165D02*
X128205312Y-78729165D01*
X128205312Y-78729165D02*
X127938646Y-79033927D01*
X127938646Y-79033927D02*
X128052931Y-79033927D01*
X128052931Y-79033927D02*
X128129122Y-79072022D01*
X128129122Y-79072022D02*
X128167217Y-79110117D01*
X128167217Y-79110117D02*
X128205312Y-79186308D01*
X128205312Y-79186308D02*
X128205312Y-79376784D01*
X128205312Y-79376784D02*
X128167217Y-79452974D01*
X128167217Y-79452974D02*
X128129122Y-79491070D01*
X128129122Y-79491070D02*
X128052931Y-79529165D01*
X128052931Y-79529165D02*
X127824360Y-79529165D01*
X127824360Y-79529165D02*
X127748169Y-79491070D01*
X127748169Y-79491070D02*
X127710074Y-79452974D01*
X126186265Y-82105075D02*
X126186265Y-81305075D01*
X126186265Y-81305075D02*
X126491027Y-81305075D01*
X126491027Y-81305075D02*
X126567217Y-81343170D01*
X126567217Y-81343170D02*
X126605312Y-81381265D01*
X126605312Y-81381265D02*
X126643408Y-81457456D01*
X126643408Y-81457456D02*
X126643408Y-81571741D01*
X126643408Y-81571741D02*
X126605312Y-81647932D01*
X126605312Y-81647932D02*
X126567217Y-81686027D01*
X126567217Y-81686027D02*
X126491027Y-81724122D01*
X126491027Y-81724122D02*
X126186265Y-81724122D01*
X127252931Y-81686027D02*
X127367217Y-81724122D01*
X127367217Y-81724122D02*
X127405312Y-81762218D01*
X127405312Y-81762218D02*
X127443408Y-81838408D01*
X127443408Y-81838408D02*
X127443408Y-81952694D01*
X127443408Y-81952694D02*
X127405312Y-82028884D01*
X127405312Y-82028884D02*
X127367217Y-82066980D01*
X127367217Y-82066980D02*
X127291027Y-82105075D01*
X127291027Y-82105075D02*
X126986265Y-82105075D01*
X126986265Y-82105075D02*
X126986265Y-81305075D01*
X126986265Y-81305075D02*
X127252931Y-81305075D01*
X127252931Y-81305075D02*
X127329122Y-81343170D01*
X127329122Y-81343170D02*
X127367217Y-81381265D01*
X127367217Y-81381265D02*
X127405312Y-81457456D01*
X127405312Y-81457456D02*
X127405312Y-81533646D01*
X127405312Y-81533646D02*
X127367217Y-81609837D01*
X127367217Y-81609837D02*
X127329122Y-81647932D01*
X127329122Y-81647932D02*
X127252931Y-81686027D01*
X127252931Y-81686027D02*
X126986265Y-81686027D01*
X127748169Y-81381265D02*
X127786265Y-81343170D01*
X127786265Y-81343170D02*
X127862455Y-81305075D01*
X127862455Y-81305075D02*
X128052931Y-81305075D01*
X128052931Y-81305075D02*
X128129122Y-81343170D01*
X128129122Y-81343170D02*
X128167217Y-81381265D01*
X128167217Y-81381265D02*
X128205312Y-81457456D01*
X128205312Y-81457456D02*
X128205312Y-81533646D01*
X128205312Y-81533646D02*
X128167217Y-81647932D01*
X128167217Y-81647932D02*
X127710074Y-82105075D01*
X127710074Y-82105075D02*
X128205312Y-82105075D01*
X126186265Y-84680985D02*
X126186265Y-83880985D01*
X126186265Y-83880985D02*
X126491027Y-83880985D01*
X126491027Y-83880985D02*
X126567217Y-83919080D01*
X126567217Y-83919080D02*
X126605312Y-83957175D01*
X126605312Y-83957175D02*
X126643408Y-84033366D01*
X126643408Y-84033366D02*
X126643408Y-84147651D01*
X126643408Y-84147651D02*
X126605312Y-84223842D01*
X126605312Y-84223842D02*
X126567217Y-84261937D01*
X126567217Y-84261937D02*
X126491027Y-84300032D01*
X126491027Y-84300032D02*
X126186265Y-84300032D01*
X127252931Y-84261937D02*
X127367217Y-84300032D01*
X127367217Y-84300032D02*
X127405312Y-84338128D01*
X127405312Y-84338128D02*
X127443408Y-84414318D01*
X127443408Y-84414318D02*
X127443408Y-84528604D01*
X127443408Y-84528604D02*
X127405312Y-84604794D01*
X127405312Y-84604794D02*
X127367217Y-84642890D01*
X127367217Y-84642890D02*
X127291027Y-84680985D01*
X127291027Y-84680985D02*
X126986265Y-84680985D01*
X126986265Y-84680985D02*
X126986265Y-83880985D01*
X126986265Y-83880985D02*
X127252931Y-83880985D01*
X127252931Y-83880985D02*
X127329122Y-83919080D01*
X127329122Y-83919080D02*
X127367217Y-83957175D01*
X127367217Y-83957175D02*
X127405312Y-84033366D01*
X127405312Y-84033366D02*
X127405312Y-84109556D01*
X127405312Y-84109556D02*
X127367217Y-84185747D01*
X127367217Y-84185747D02*
X127329122Y-84223842D01*
X127329122Y-84223842D02*
X127252931Y-84261937D01*
X127252931Y-84261937D02*
X126986265Y-84261937D01*
X128205312Y-84680985D02*
X127748169Y-84680985D01*
X127976741Y-84680985D02*
X127976741Y-83880985D01*
X127976741Y-83880985D02*
X127900550Y-83995270D01*
X127900550Y-83995270D02*
X127824360Y-84071461D01*
X127824360Y-84071461D02*
X127748169Y-84109556D01*
X126186265Y-87256895D02*
X126186265Y-86456895D01*
X126186265Y-86456895D02*
X126491027Y-86456895D01*
X126491027Y-86456895D02*
X126567217Y-86494990D01*
X126567217Y-86494990D02*
X126605312Y-86533085D01*
X126605312Y-86533085D02*
X126643408Y-86609276D01*
X126643408Y-86609276D02*
X126643408Y-86723561D01*
X126643408Y-86723561D02*
X126605312Y-86799752D01*
X126605312Y-86799752D02*
X126567217Y-86837847D01*
X126567217Y-86837847D02*
X126491027Y-86875942D01*
X126491027Y-86875942D02*
X126186265Y-86875942D01*
X127252931Y-86837847D02*
X127367217Y-86875942D01*
X127367217Y-86875942D02*
X127405312Y-86914038D01*
X127405312Y-86914038D02*
X127443408Y-86990228D01*
X127443408Y-86990228D02*
X127443408Y-87104514D01*
X127443408Y-87104514D02*
X127405312Y-87180704D01*
X127405312Y-87180704D02*
X127367217Y-87218800D01*
X127367217Y-87218800D02*
X127291027Y-87256895D01*
X127291027Y-87256895D02*
X126986265Y-87256895D01*
X126986265Y-87256895D02*
X126986265Y-86456895D01*
X126986265Y-86456895D02*
X127252931Y-86456895D01*
X127252931Y-86456895D02*
X127329122Y-86494990D01*
X127329122Y-86494990D02*
X127367217Y-86533085D01*
X127367217Y-86533085D02*
X127405312Y-86609276D01*
X127405312Y-86609276D02*
X127405312Y-86685466D01*
X127405312Y-86685466D02*
X127367217Y-86761657D01*
X127367217Y-86761657D02*
X127329122Y-86799752D01*
X127329122Y-86799752D02*
X127252931Y-86837847D01*
X127252931Y-86837847D02*
X126986265Y-86837847D01*
X127938646Y-86456895D02*
X128014836Y-86456895D01*
X128014836Y-86456895D02*
X128091027Y-86494990D01*
X128091027Y-86494990D02*
X128129122Y-86533085D01*
X128129122Y-86533085D02*
X128167217Y-86609276D01*
X128167217Y-86609276D02*
X128205312Y-86761657D01*
X128205312Y-86761657D02*
X128205312Y-86952133D01*
X128205312Y-86952133D02*
X128167217Y-87104514D01*
X128167217Y-87104514D02*
X128129122Y-87180704D01*
X128129122Y-87180704D02*
X128091027Y-87218800D01*
X128091027Y-87218800D02*
X128014836Y-87256895D01*
X128014836Y-87256895D02*
X127938646Y-87256895D01*
X127938646Y-87256895D02*
X127862455Y-87218800D01*
X127862455Y-87218800D02*
X127824360Y-87180704D01*
X127824360Y-87180704D02*
X127786265Y-87104514D01*
X127786265Y-87104514D02*
X127748169Y-86952133D01*
X127748169Y-86952133D02*
X127748169Y-86761657D01*
X127748169Y-86761657D02*
X127786265Y-86609276D01*
X127786265Y-86609276D02*
X127824360Y-86533085D01*
X127824360Y-86533085D02*
X127862455Y-86494990D01*
X127862455Y-86494990D02*
X127938646Y-86456895D01*
D11*
X131045476Y-48819819D02*
X131045476Y-47819819D01*
X131045476Y-47819819D02*
X131426428Y-47819819D01*
X131426428Y-47819819D02*
X131521666Y-47867438D01*
X131521666Y-47867438D02*
X131569285Y-47915057D01*
X131569285Y-47915057D02*
X131616904Y-48010295D01*
X131616904Y-48010295D02*
X131616904Y-48153152D01*
X131616904Y-48153152D02*
X131569285Y-48248390D01*
X131569285Y-48248390D02*
X131521666Y-48296009D01*
X131521666Y-48296009D02*
X131426428Y-48343628D01*
X131426428Y-48343628D02*
X131045476Y-48343628D01*
X132235952Y-47819819D02*
X132426428Y-47819819D01*
X132426428Y-47819819D02*
X132521666Y-47867438D01*
X132521666Y-47867438D02*
X132616904Y-47962676D01*
X132616904Y-47962676D02*
X132664523Y-48153152D01*
X132664523Y-48153152D02*
X132664523Y-48486485D01*
X132664523Y-48486485D02*
X132616904Y-48676961D01*
X132616904Y-48676961D02*
X132521666Y-48772200D01*
X132521666Y-48772200D02*
X132426428Y-48819819D01*
X132426428Y-48819819D02*
X132235952Y-48819819D01*
X132235952Y-48819819D02*
X132140714Y-48772200D01*
X132140714Y-48772200D02*
X132045476Y-48676961D01*
X132045476Y-48676961D02*
X131997857Y-48486485D01*
X131997857Y-48486485D02*
X131997857Y-48153152D01*
X131997857Y-48153152D02*
X132045476Y-47962676D01*
X132045476Y-47962676D02*
X132140714Y-47867438D01*
X132140714Y-47867438D02*
X132235952Y-47819819D01*
X132997857Y-47819819D02*
X133235952Y-48819819D01*
X133235952Y-48819819D02*
X133426428Y-48105533D01*
X133426428Y-48105533D02*
X133616904Y-48819819D01*
X133616904Y-48819819D02*
X133855000Y-47819819D01*
X134235952Y-48296009D02*
X134569285Y-48296009D01*
X134712142Y-48819819D02*
X134235952Y-48819819D01*
X134235952Y-48819819D02*
X134235952Y-47819819D01*
X134235952Y-47819819D02*
X134712142Y-47819819D01*
X135712142Y-48819819D02*
X135378809Y-48343628D01*
X135140714Y-48819819D02*
X135140714Y-47819819D01*
X135140714Y-47819819D02*
X135521666Y-47819819D01*
X135521666Y-47819819D02*
X135616904Y-47867438D01*
X135616904Y-47867438D02*
X135664523Y-47915057D01*
X135664523Y-47915057D02*
X135712142Y-48010295D01*
X135712142Y-48010295D02*
X135712142Y-48153152D01*
X135712142Y-48153152D02*
X135664523Y-48248390D01*
X135664523Y-48248390D02*
X135616904Y-48296009D01*
X135616904Y-48296009D02*
X135521666Y-48343628D01*
X135521666Y-48343628D02*
X135140714Y-48343628D01*
X162694819Y-51966189D02*
X161694819Y-51966189D01*
X161790057Y-51537618D02*
X161742438Y-51489999D01*
X161742438Y-51489999D02*
X161694819Y-51394761D01*
X161694819Y-51394761D02*
X161694819Y-51156666D01*
X161694819Y-51156666D02*
X161742438Y-51061428D01*
X161742438Y-51061428D02*
X161790057Y-51013809D01*
X161790057Y-51013809D02*
X161885295Y-50966190D01*
X161885295Y-50966190D02*
X161980533Y-50966190D01*
X161980533Y-50966190D02*
X162123390Y-51013809D01*
X162123390Y-51013809D02*
X162694819Y-51585237D01*
X162694819Y-51585237D02*
X162694819Y-50966190D01*
X162599580Y-49966190D02*
X162647200Y-50013809D01*
X162647200Y-50013809D02*
X162694819Y-50156666D01*
X162694819Y-50156666D02*
X162694819Y-50251904D01*
X162694819Y-50251904D02*
X162647200Y-50394761D01*
X162647200Y-50394761D02*
X162551961Y-50489999D01*
X162551961Y-50489999D02*
X162456723Y-50537618D01*
X162456723Y-50537618D02*
X162266247Y-50585237D01*
X162266247Y-50585237D02*
X162123390Y-50585237D01*
X162123390Y-50585237D02*
X161932914Y-50537618D01*
X161932914Y-50537618D02*
X161837676Y-50489999D01*
X161837676Y-50489999D02*
X161742438Y-50394761D01*
X161742438Y-50394761D02*
X161694819Y-50251904D01*
X161694819Y-50251904D02*
X161694819Y-50156666D01*
X161694819Y-50156666D02*
X161742438Y-50013809D01*
X161742438Y-50013809D02*
X161790057Y-49966190D01*
X140433333Y-63454819D02*
X140100000Y-62978628D01*
X139861905Y-63454819D02*
X139861905Y-62454819D01*
X139861905Y-62454819D02*
X140242857Y-62454819D01*
X140242857Y-62454819D02*
X140338095Y-62502438D01*
X140338095Y-62502438D02*
X140385714Y-62550057D01*
X140385714Y-62550057D02*
X140433333Y-62645295D01*
X140433333Y-62645295D02*
X140433333Y-62788152D01*
X140433333Y-62788152D02*
X140385714Y-62883390D01*
X140385714Y-62883390D02*
X140338095Y-62931009D01*
X140338095Y-62931009D02*
X140242857Y-62978628D01*
X140242857Y-62978628D02*
X139861905Y-62978628D01*
X141338095Y-62454819D02*
X140861905Y-62454819D01*
X140861905Y-62454819D02*
X140814286Y-62931009D01*
X140814286Y-62931009D02*
X140861905Y-62883390D01*
X140861905Y-62883390D02*
X140957143Y-62835771D01*
X140957143Y-62835771D02*
X141195238Y-62835771D01*
X141195238Y-62835771D02*
X141290476Y-62883390D01*
X141290476Y-62883390D02*
X141338095Y-62931009D01*
X141338095Y-62931009D02*
X141385714Y-63026247D01*
X141385714Y-63026247D02*
X141385714Y-63264342D01*
X141385714Y-63264342D02*
X141338095Y-63359580D01*
X141338095Y-63359580D02*
X141290476Y-63407200D01*
X141290476Y-63407200D02*
X141195238Y-63454819D01*
X141195238Y-63454819D02*
X140957143Y-63454819D01*
X140957143Y-63454819D02*
X140861905Y-63407200D01*
X140861905Y-63407200D02*
X140814286Y-63359580D01*
X138138628Y-81286190D02*
X138614819Y-81286190D01*
X137614819Y-81619523D02*
X138138628Y-81286190D01*
X138138628Y-81286190D02*
X137614819Y-80952857D01*
X137710057Y-80667142D02*
X137662438Y-80619523D01*
X137662438Y-80619523D02*
X137614819Y-80524285D01*
X137614819Y-80524285D02*
X137614819Y-80286190D01*
X137614819Y-80286190D02*
X137662438Y-80190952D01*
X137662438Y-80190952D02*
X137710057Y-80143333D01*
X137710057Y-80143333D02*
X137805295Y-80095714D01*
X137805295Y-80095714D02*
X137900533Y-80095714D01*
X137900533Y-80095714D02*
X138043390Y-80143333D01*
X138043390Y-80143333D02*
X138614819Y-80714761D01*
X138614819Y-80714761D02*
X138614819Y-80095714D01*
X144419580Y-82595715D02*
X144467200Y-82643334D01*
X144467200Y-82643334D02*
X144514819Y-82786191D01*
X144514819Y-82786191D02*
X144514819Y-82881429D01*
X144514819Y-82881429D02*
X144467200Y-83024286D01*
X144467200Y-83024286D02*
X144371961Y-83119524D01*
X144371961Y-83119524D02*
X144276723Y-83167143D01*
X144276723Y-83167143D02*
X144086247Y-83214762D01*
X144086247Y-83214762D02*
X143943390Y-83214762D01*
X143943390Y-83214762D02*
X143752914Y-83167143D01*
X143752914Y-83167143D02*
X143657676Y-83119524D01*
X143657676Y-83119524D02*
X143562438Y-83024286D01*
X143562438Y-83024286D02*
X143514819Y-82881429D01*
X143514819Y-82881429D02*
X143514819Y-82786191D01*
X143514819Y-82786191D02*
X143562438Y-82643334D01*
X143562438Y-82643334D02*
X143610057Y-82595715D01*
X144514819Y-82167143D02*
X143848152Y-82167143D01*
X144038628Y-82167143D02*
X143943390Y-82119524D01*
X143943390Y-82119524D02*
X143895771Y-82071905D01*
X143895771Y-82071905D02*
X143848152Y-81976667D01*
X143848152Y-81976667D02*
X143848152Y-81881429D01*
X143848152Y-81643333D02*
X144514819Y-81405238D01*
X143848152Y-81167143D02*
X144514819Y-81405238D01*
X144514819Y-81405238D02*
X144752914Y-81500476D01*
X144752914Y-81500476D02*
X144800533Y-81548095D01*
X144800533Y-81548095D02*
X144848152Y-81643333D01*
X144467200Y-80833809D02*
X144514819Y-80738571D01*
X144514819Y-80738571D02*
X144514819Y-80548095D01*
X144514819Y-80548095D02*
X144467200Y-80452857D01*
X144467200Y-80452857D02*
X144371961Y-80405238D01*
X144371961Y-80405238D02*
X144324342Y-80405238D01*
X144324342Y-80405238D02*
X144229104Y-80452857D01*
X144229104Y-80452857D02*
X144181485Y-80548095D01*
X144181485Y-80548095D02*
X144181485Y-80690952D01*
X144181485Y-80690952D02*
X144133866Y-80786190D01*
X144133866Y-80786190D02*
X144038628Y-80833809D01*
X144038628Y-80833809D02*
X143991009Y-80833809D01*
X143991009Y-80833809D02*
X143895771Y-80786190D01*
X143895771Y-80786190D02*
X143848152Y-80690952D01*
X143848152Y-80690952D02*
X143848152Y-80548095D01*
X143848152Y-80548095D02*
X143895771Y-80452857D01*
X143848152Y-80119523D02*
X143848152Y-79738571D01*
X143514819Y-79976666D02*
X144371961Y-79976666D01*
X144371961Y-79976666D02*
X144467200Y-79929047D01*
X144467200Y-79929047D02*
X144514819Y-79833809D01*
X144514819Y-79833809D02*
X144514819Y-79738571D01*
X144514819Y-78976666D02*
X143991009Y-78976666D01*
X143991009Y-78976666D02*
X143895771Y-79024285D01*
X143895771Y-79024285D02*
X143848152Y-79119523D01*
X143848152Y-79119523D02*
X143848152Y-79309999D01*
X143848152Y-79309999D02*
X143895771Y-79405237D01*
X144467200Y-78976666D02*
X144514819Y-79071904D01*
X144514819Y-79071904D02*
X144514819Y-79309999D01*
X144514819Y-79309999D02*
X144467200Y-79405237D01*
X144467200Y-79405237D02*
X144371961Y-79452856D01*
X144371961Y-79452856D02*
X144276723Y-79452856D01*
X144276723Y-79452856D02*
X144181485Y-79405237D01*
X144181485Y-79405237D02*
X144133866Y-79309999D01*
X144133866Y-79309999D02*
X144133866Y-79071904D01*
X144133866Y-79071904D02*
X144086247Y-78976666D01*
X144514819Y-78357618D02*
X144467200Y-78452856D01*
X144467200Y-78452856D02*
X144371961Y-78500475D01*
X144371961Y-78500475D02*
X143514819Y-78500475D01*
X176983333Y-75969819D02*
X176983333Y-74969819D01*
X176983333Y-74969819D02*
X177364285Y-74969819D01*
X177364285Y-74969819D02*
X177459523Y-75017438D01*
X177459523Y-75017438D02*
X177507142Y-75065057D01*
X177507142Y-75065057D02*
X177554761Y-75160295D01*
X177554761Y-75160295D02*
X177554761Y-75303152D01*
X177554761Y-75303152D02*
X177507142Y-75398390D01*
X177507142Y-75398390D02*
X177459523Y-75446009D01*
X177459523Y-75446009D02*
X177364285Y-75493628D01*
X177364285Y-75493628D02*
X176983333Y-75493628D01*
X178173809Y-74969819D02*
X178364285Y-74969819D01*
X178364285Y-74969819D02*
X178459523Y-75017438D01*
X178459523Y-75017438D02*
X178554761Y-75112676D01*
X178554761Y-75112676D02*
X178602380Y-75303152D01*
X178602380Y-75303152D02*
X178602380Y-75636485D01*
X178602380Y-75636485D02*
X178554761Y-75826961D01*
X178554761Y-75826961D02*
X178459523Y-75922200D01*
X178459523Y-75922200D02*
X178364285Y-75969819D01*
X178364285Y-75969819D02*
X178173809Y-75969819D01*
X178173809Y-75969819D02*
X178078571Y-75922200D01*
X178078571Y-75922200D02*
X177983333Y-75826961D01*
X177983333Y-75826961D02*
X177935714Y-75636485D01*
X177935714Y-75636485D02*
X177935714Y-75303152D01*
X177935714Y-75303152D02*
X177983333Y-75112676D01*
X177983333Y-75112676D02*
X178078571Y-75017438D01*
X178078571Y-75017438D02*
X178173809Y-74969819D01*
X179602380Y-75969819D02*
X179269047Y-75493628D01*
X179030952Y-75969819D02*
X179030952Y-74969819D01*
X179030952Y-74969819D02*
X179411904Y-74969819D01*
X179411904Y-74969819D02*
X179507142Y-75017438D01*
X179507142Y-75017438D02*
X179554761Y-75065057D01*
X179554761Y-75065057D02*
X179602380Y-75160295D01*
X179602380Y-75160295D02*
X179602380Y-75303152D01*
X179602380Y-75303152D02*
X179554761Y-75398390D01*
X179554761Y-75398390D02*
X179507142Y-75446009D01*
X179507142Y-75446009D02*
X179411904Y-75493628D01*
X179411904Y-75493628D02*
X179030952Y-75493628D01*
X179888095Y-74969819D02*
X180459523Y-74969819D01*
X180173809Y-75969819D02*
X180173809Y-74969819D01*
X180792857Y-75969819D02*
X180792857Y-74969819D01*
X180792857Y-74969819D02*
X181030952Y-74969819D01*
X181030952Y-74969819D02*
X181173809Y-75017438D01*
X181173809Y-75017438D02*
X181269047Y-75112676D01*
X181269047Y-75112676D02*
X181316666Y-75207914D01*
X181316666Y-75207914D02*
X181364285Y-75398390D01*
X181364285Y-75398390D02*
X181364285Y-75541247D01*
X181364285Y-75541247D02*
X181316666Y-75731723D01*
X181316666Y-75731723D02*
X181269047Y-75826961D01*
X181269047Y-75826961D02*
X181173809Y-75922200D01*
X181173809Y-75922200D02*
X181030952Y-75969819D01*
X181030952Y-75969819D02*
X180792857Y-75969819D01*
X128143333Y-67244819D02*
X128143333Y-66244819D01*
X128143333Y-66244819D02*
X128524285Y-66244819D01*
X128524285Y-66244819D02*
X128619523Y-66292438D01*
X128619523Y-66292438D02*
X128667142Y-66340057D01*
X128667142Y-66340057D02*
X128714761Y-66435295D01*
X128714761Y-66435295D02*
X128714761Y-66578152D01*
X128714761Y-66578152D02*
X128667142Y-66673390D01*
X128667142Y-66673390D02*
X128619523Y-66721009D01*
X128619523Y-66721009D02*
X128524285Y-66768628D01*
X128524285Y-66768628D02*
X128143333Y-66768628D01*
X129333809Y-66244819D02*
X129524285Y-66244819D01*
X129524285Y-66244819D02*
X129619523Y-66292438D01*
X129619523Y-66292438D02*
X129714761Y-66387676D01*
X129714761Y-66387676D02*
X129762380Y-66578152D01*
X129762380Y-66578152D02*
X129762380Y-66911485D01*
X129762380Y-66911485D02*
X129714761Y-67101961D01*
X129714761Y-67101961D02*
X129619523Y-67197200D01*
X129619523Y-67197200D02*
X129524285Y-67244819D01*
X129524285Y-67244819D02*
X129333809Y-67244819D01*
X129333809Y-67244819D02*
X129238571Y-67197200D01*
X129238571Y-67197200D02*
X129143333Y-67101961D01*
X129143333Y-67101961D02*
X129095714Y-66911485D01*
X129095714Y-66911485D02*
X129095714Y-66578152D01*
X129095714Y-66578152D02*
X129143333Y-66387676D01*
X129143333Y-66387676D02*
X129238571Y-66292438D01*
X129238571Y-66292438D02*
X129333809Y-66244819D01*
X130762380Y-67244819D02*
X130429047Y-66768628D01*
X130190952Y-67244819D02*
X130190952Y-66244819D01*
X130190952Y-66244819D02*
X130571904Y-66244819D01*
X130571904Y-66244819D02*
X130667142Y-66292438D01*
X130667142Y-66292438D02*
X130714761Y-66340057D01*
X130714761Y-66340057D02*
X130762380Y-66435295D01*
X130762380Y-66435295D02*
X130762380Y-66578152D01*
X130762380Y-66578152D02*
X130714761Y-66673390D01*
X130714761Y-66673390D02*
X130667142Y-66721009D01*
X130667142Y-66721009D02*
X130571904Y-66768628D01*
X130571904Y-66768628D02*
X130190952Y-66768628D01*
X131048095Y-66244819D02*
X131619523Y-66244819D01*
X131333809Y-67244819D02*
X131333809Y-66244819D01*
X132286190Y-66721009D02*
X132429047Y-66768628D01*
X132429047Y-66768628D02*
X132476666Y-66816247D01*
X132476666Y-66816247D02*
X132524285Y-66911485D01*
X132524285Y-66911485D02*
X132524285Y-67054342D01*
X132524285Y-67054342D02*
X132476666Y-67149580D01*
X132476666Y-67149580D02*
X132429047Y-67197200D01*
X132429047Y-67197200D02*
X132333809Y-67244819D01*
X132333809Y-67244819D02*
X131952857Y-67244819D01*
X131952857Y-67244819D02*
X131952857Y-66244819D01*
X131952857Y-66244819D02*
X132286190Y-66244819D01*
X132286190Y-66244819D02*
X132381428Y-66292438D01*
X132381428Y-66292438D02*
X132429047Y-66340057D01*
X132429047Y-66340057D02*
X132476666Y-66435295D01*
X132476666Y-66435295D02*
X132476666Y-66530533D01*
X132476666Y-66530533D02*
X132429047Y-66625771D01*
X132429047Y-66625771D02*
X132381428Y-66673390D01*
X132381428Y-66673390D02*
X132286190Y-66721009D01*
X132286190Y-66721009D02*
X131952857Y-66721009D01*
X135083333Y-92409580D02*
X135035714Y-92457200D01*
X135035714Y-92457200D02*
X134892857Y-92504819D01*
X134892857Y-92504819D02*
X134797619Y-92504819D01*
X134797619Y-92504819D02*
X134654762Y-92457200D01*
X134654762Y-92457200D02*
X134559524Y-92361961D01*
X134559524Y-92361961D02*
X134511905Y-92266723D01*
X134511905Y-92266723D02*
X134464286Y-92076247D01*
X134464286Y-92076247D02*
X134464286Y-91933390D01*
X134464286Y-91933390D02*
X134511905Y-91742914D01*
X134511905Y-91742914D02*
X134559524Y-91647676D01*
X134559524Y-91647676D02*
X134654762Y-91552438D01*
X134654762Y-91552438D02*
X134797619Y-91504819D01*
X134797619Y-91504819D02*
X134892857Y-91504819D01*
X134892857Y-91504819D02*
X135035714Y-91552438D01*
X135035714Y-91552438D02*
X135083333Y-91600057D01*
X135464286Y-91600057D02*
X135511905Y-91552438D01*
X135511905Y-91552438D02*
X135607143Y-91504819D01*
X135607143Y-91504819D02*
X135845238Y-91504819D01*
X135845238Y-91504819D02*
X135940476Y-91552438D01*
X135940476Y-91552438D02*
X135988095Y-91600057D01*
X135988095Y-91600057D02*
X136035714Y-91695295D01*
X136035714Y-91695295D02*
X136035714Y-91790533D01*
X136035714Y-91790533D02*
X135988095Y-91933390D01*
X135988095Y-91933390D02*
X135416667Y-92504819D01*
X135416667Y-92504819D02*
X136035714Y-92504819D01*
X135009047Y-92860057D02*
X135056666Y-92812438D01*
X135056666Y-92812438D02*
X135151904Y-92764819D01*
X135151904Y-92764819D02*
X135389999Y-92764819D01*
X135389999Y-92764819D02*
X135485237Y-92812438D01*
X135485237Y-92812438D02*
X135532856Y-92860057D01*
X135532856Y-92860057D02*
X135580475Y-92955295D01*
X135580475Y-92955295D02*
X135580475Y-93050533D01*
X135580475Y-93050533D02*
X135532856Y-93193390D01*
X135532856Y-93193390D02*
X134961428Y-93764819D01*
X134961428Y-93764819D02*
X135580475Y-93764819D01*
X136199523Y-92764819D02*
X136294761Y-92764819D01*
X136294761Y-92764819D02*
X136389999Y-92812438D01*
X136389999Y-92812438D02*
X136437618Y-92860057D01*
X136437618Y-92860057D02*
X136485237Y-92955295D01*
X136485237Y-92955295D02*
X136532856Y-93145771D01*
X136532856Y-93145771D02*
X136532856Y-93383866D01*
X136532856Y-93383866D02*
X136485237Y-93574342D01*
X136485237Y-93574342D02*
X136437618Y-93669580D01*
X136437618Y-93669580D02*
X136389999Y-93717200D01*
X136389999Y-93717200D02*
X136294761Y-93764819D01*
X136294761Y-93764819D02*
X136199523Y-93764819D01*
X136199523Y-93764819D02*
X136104285Y-93717200D01*
X136104285Y-93717200D02*
X136056666Y-93669580D01*
X136056666Y-93669580D02*
X136009047Y-93574342D01*
X136009047Y-93574342D02*
X135961428Y-93383866D01*
X135961428Y-93383866D02*
X135961428Y-93145771D01*
X135961428Y-93145771D02*
X136009047Y-92955295D01*
X136009047Y-92955295D02*
X136056666Y-92860057D01*
X136056666Y-92860057D02*
X136104285Y-92812438D01*
X136104285Y-92812438D02*
X136199523Y-92764819D01*
X137723333Y-93098152D02*
X137723333Y-94098152D01*
X137723333Y-93145771D02*
X137818571Y-93098152D01*
X137818571Y-93098152D02*
X138009047Y-93098152D01*
X138009047Y-93098152D02*
X138104285Y-93145771D01*
X138104285Y-93145771D02*
X138151904Y-93193390D01*
X138151904Y-93193390D02*
X138199523Y-93288628D01*
X138199523Y-93288628D02*
X138199523Y-93574342D01*
X138199523Y-93574342D02*
X138151904Y-93669580D01*
X138151904Y-93669580D02*
X138104285Y-93717200D01*
X138104285Y-93717200D02*
X138009047Y-93764819D01*
X138009047Y-93764819D02*
X137818571Y-93764819D01*
X137818571Y-93764819D02*
X137723333Y-93717200D01*
X138485238Y-93098152D02*
X138866190Y-93098152D01*
X138628095Y-93764819D02*
X138628095Y-92907676D01*
X138628095Y-92907676D02*
X138675714Y-92812438D01*
X138675714Y-92812438D02*
X138770952Y-92764819D01*
X138770952Y-92764819D02*
X138866190Y-92764819D01*
X166667142Y-84184819D02*
X166190952Y-84184819D01*
X166190952Y-84184819D02*
X166190952Y-83184819D01*
X167000476Y-83661009D02*
X167333809Y-83661009D01*
X167476666Y-84184819D02*
X167000476Y-84184819D01*
X167000476Y-84184819D02*
X167000476Y-83184819D01*
X167000476Y-83184819D02*
X167476666Y-83184819D01*
X167905238Y-84184819D02*
X167905238Y-83184819D01*
X167905238Y-83184819D02*
X168143333Y-83184819D01*
X168143333Y-83184819D02*
X168286190Y-83232438D01*
X168286190Y-83232438D02*
X168381428Y-83327676D01*
X168381428Y-83327676D02*
X168429047Y-83422914D01*
X168429047Y-83422914D02*
X168476666Y-83613390D01*
X168476666Y-83613390D02*
X168476666Y-83756247D01*
X168476666Y-83756247D02*
X168429047Y-83946723D01*
X168429047Y-83946723D02*
X168381428Y-84041961D01*
X168381428Y-84041961D02*
X168286190Y-84137200D01*
X168286190Y-84137200D02*
X168143333Y-84184819D01*
X168143333Y-84184819D02*
X167905238Y-84184819D01*
X171320057Y-80791428D02*
X171272438Y-80743809D01*
X171272438Y-80743809D02*
X171224819Y-80648571D01*
X171224819Y-80648571D02*
X171224819Y-80410476D01*
X171224819Y-80410476D02*
X171272438Y-80315238D01*
X171272438Y-80315238D02*
X171320057Y-80267619D01*
X171320057Y-80267619D02*
X171415295Y-80220000D01*
X171415295Y-80220000D02*
X171510533Y-80220000D01*
X171510533Y-80220000D02*
X171653390Y-80267619D01*
X171653390Y-80267619D02*
X172224819Y-80839047D01*
X172224819Y-80839047D02*
X172224819Y-80220000D01*
X171558152Y-79362857D02*
X172224819Y-79362857D01*
X171177200Y-79600952D02*
X171891485Y-79839047D01*
X171891485Y-79839047D02*
X171891485Y-79220000D01*
X172224819Y-78362857D02*
X172224819Y-78839047D01*
X172224819Y-78839047D02*
X171224819Y-78839047D01*
X172129580Y-77458095D02*
X172177200Y-77505714D01*
X172177200Y-77505714D02*
X172224819Y-77648571D01*
X172224819Y-77648571D02*
X172224819Y-77743809D01*
X172224819Y-77743809D02*
X172177200Y-77886666D01*
X172177200Y-77886666D02*
X172081961Y-77981904D01*
X172081961Y-77981904D02*
X171986723Y-78029523D01*
X171986723Y-78029523D02*
X171796247Y-78077142D01*
X171796247Y-78077142D02*
X171653390Y-78077142D01*
X171653390Y-78077142D02*
X171462914Y-78029523D01*
X171462914Y-78029523D02*
X171367676Y-77981904D01*
X171367676Y-77981904D02*
X171272438Y-77886666D01*
X171272438Y-77886666D02*
X171224819Y-77743809D01*
X171224819Y-77743809D02*
X171224819Y-77648571D01*
X171224819Y-77648571D02*
X171272438Y-77505714D01*
X171272438Y-77505714D02*
X171320057Y-77458095D01*
X172224819Y-76505714D02*
X172224819Y-77077142D01*
X172224819Y-76791428D02*
X171224819Y-76791428D01*
X171224819Y-76791428D02*
X171367676Y-76886666D01*
X171367676Y-76886666D02*
X171462914Y-76981904D01*
X171462914Y-76981904D02*
X171510533Y-77077142D01*
X171224819Y-75886666D02*
X171224819Y-75791428D01*
X171224819Y-75791428D02*
X171272438Y-75696190D01*
X171272438Y-75696190D02*
X171320057Y-75648571D01*
X171320057Y-75648571D02*
X171415295Y-75600952D01*
X171415295Y-75600952D02*
X171605771Y-75553333D01*
X171605771Y-75553333D02*
X171843866Y-75553333D01*
X171843866Y-75553333D02*
X172034342Y-75600952D01*
X172034342Y-75600952D02*
X172129580Y-75648571D01*
X172129580Y-75648571D02*
X172177200Y-75696190D01*
X172177200Y-75696190D02*
X172224819Y-75791428D01*
X172224819Y-75791428D02*
X172224819Y-75886666D01*
X172224819Y-75886666D02*
X172177200Y-75981904D01*
X172177200Y-75981904D02*
X172129580Y-76029523D01*
X172129580Y-76029523D02*
X172034342Y-76077142D01*
X172034342Y-76077142D02*
X171843866Y-76124761D01*
X171843866Y-76124761D02*
X171605771Y-76124761D01*
X171605771Y-76124761D02*
X171415295Y-76077142D01*
X171415295Y-76077142D02*
X171320057Y-76029523D01*
X171320057Y-76029523D02*
X171272438Y-75981904D01*
X171272438Y-75981904D02*
X171224819Y-75886666D01*
X171320057Y-75172380D02*
X171272438Y-75124761D01*
X171272438Y-75124761D02*
X171224819Y-75029523D01*
X171224819Y-75029523D02*
X171224819Y-74791428D01*
X171224819Y-74791428D02*
X171272438Y-74696190D01*
X171272438Y-74696190D02*
X171320057Y-74648571D01*
X171320057Y-74648571D02*
X171415295Y-74600952D01*
X171415295Y-74600952D02*
X171510533Y-74600952D01*
X171510533Y-74600952D02*
X171653390Y-74648571D01*
X171653390Y-74648571D02*
X172224819Y-75219999D01*
X172224819Y-75219999D02*
X172224819Y-74600952D01*
X171224819Y-73696190D02*
X171224819Y-74172380D01*
X171224819Y-74172380D02*
X171701009Y-74219999D01*
X171701009Y-74219999D02*
X171653390Y-74172380D01*
X171653390Y-74172380D02*
X171605771Y-74077142D01*
X171605771Y-74077142D02*
X171605771Y-73839047D01*
X171605771Y-73839047D02*
X171653390Y-73743809D01*
X171653390Y-73743809D02*
X171701009Y-73696190D01*
X171701009Y-73696190D02*
X171796247Y-73648571D01*
X171796247Y-73648571D02*
X172034342Y-73648571D01*
X172034342Y-73648571D02*
X172129580Y-73696190D01*
X172129580Y-73696190D02*
X172177200Y-73743809D01*
X172177200Y-73743809D02*
X172224819Y-73839047D01*
X172224819Y-73839047D02*
X172224819Y-74077142D01*
X172224819Y-74077142D02*
X172177200Y-74172380D01*
X172177200Y-74172380D02*
X172129580Y-74219999D01*
X142997142Y-63454819D02*
X142520952Y-63454819D01*
X142520952Y-63454819D02*
X142520952Y-62454819D01*
X143330476Y-62931009D02*
X143663809Y-62931009D01*
X143806666Y-63454819D02*
X143330476Y-63454819D01*
X143330476Y-63454819D02*
X143330476Y-62454819D01*
X143330476Y-62454819D02*
X143806666Y-62454819D01*
X144235238Y-63454819D02*
X144235238Y-62454819D01*
X144235238Y-62454819D02*
X144473333Y-62454819D01*
X144473333Y-62454819D02*
X144616190Y-62502438D01*
X144616190Y-62502438D02*
X144711428Y-62597676D01*
X144711428Y-62597676D02*
X144759047Y-62692914D01*
X144759047Y-62692914D02*
X144806666Y-62883390D01*
X144806666Y-62883390D02*
X144806666Y-63026247D01*
X144806666Y-63026247D02*
X144759047Y-63216723D01*
X144759047Y-63216723D02*
X144711428Y-63311961D01*
X144711428Y-63311961D02*
X144616190Y-63407200D01*
X144616190Y-63407200D02*
X144473333Y-63454819D01*
X144473333Y-63454819D02*
X144235238Y-63454819D01*
X175367200Y-96173808D02*
X175414819Y-96030951D01*
X175414819Y-96030951D02*
X175414819Y-95792856D01*
X175414819Y-95792856D02*
X175367200Y-95697618D01*
X175367200Y-95697618D02*
X175319580Y-95649999D01*
X175319580Y-95649999D02*
X175224342Y-95602380D01*
X175224342Y-95602380D02*
X175129104Y-95602380D01*
X175129104Y-95602380D02*
X175033866Y-95649999D01*
X175033866Y-95649999D02*
X174986247Y-95697618D01*
X174986247Y-95697618D02*
X174938628Y-95792856D01*
X174938628Y-95792856D02*
X174891009Y-95983332D01*
X174891009Y-95983332D02*
X174843390Y-96078570D01*
X174843390Y-96078570D02*
X174795771Y-96126189D01*
X174795771Y-96126189D02*
X174700533Y-96173808D01*
X174700533Y-96173808D02*
X174605295Y-96173808D01*
X174605295Y-96173808D02*
X174510057Y-96126189D01*
X174510057Y-96126189D02*
X174462438Y-96078570D01*
X174462438Y-96078570D02*
X174414819Y-95983332D01*
X174414819Y-95983332D02*
X174414819Y-95745237D01*
X174414819Y-95745237D02*
X174462438Y-95602380D01*
X175414819Y-95173808D02*
X174414819Y-95173808D01*
X174414819Y-95173808D02*
X174414819Y-94792856D01*
X174414819Y-94792856D02*
X174462438Y-94697618D01*
X174462438Y-94697618D02*
X174510057Y-94649999D01*
X174510057Y-94649999D02*
X174605295Y-94602380D01*
X174605295Y-94602380D02*
X174748152Y-94602380D01*
X174748152Y-94602380D02*
X174843390Y-94649999D01*
X174843390Y-94649999D02*
X174891009Y-94697618D01*
X174891009Y-94697618D02*
X174938628Y-94792856D01*
X174938628Y-94792856D02*
X174938628Y-95173808D01*
X175414819Y-94173808D02*
X174414819Y-94173808D01*
X171450057Y-68111428D02*
X171402438Y-68063809D01*
X171402438Y-68063809D02*
X171354819Y-67968571D01*
X171354819Y-67968571D02*
X171354819Y-67730476D01*
X171354819Y-67730476D02*
X171402438Y-67635238D01*
X171402438Y-67635238D02*
X171450057Y-67587619D01*
X171450057Y-67587619D02*
X171545295Y-67540000D01*
X171545295Y-67540000D02*
X171640533Y-67540000D01*
X171640533Y-67540000D02*
X171783390Y-67587619D01*
X171783390Y-67587619D02*
X172354819Y-68159047D01*
X172354819Y-68159047D02*
X172354819Y-67540000D01*
X171688152Y-66682857D02*
X172354819Y-66682857D01*
X171307200Y-66920952D02*
X172021485Y-67159047D01*
X172021485Y-67159047D02*
X172021485Y-66540000D01*
X172354819Y-65682857D02*
X172354819Y-66159047D01*
X172354819Y-66159047D02*
X171354819Y-66159047D01*
X172259580Y-64778095D02*
X172307200Y-64825714D01*
X172307200Y-64825714D02*
X172354819Y-64968571D01*
X172354819Y-64968571D02*
X172354819Y-65063809D01*
X172354819Y-65063809D02*
X172307200Y-65206666D01*
X172307200Y-65206666D02*
X172211961Y-65301904D01*
X172211961Y-65301904D02*
X172116723Y-65349523D01*
X172116723Y-65349523D02*
X171926247Y-65397142D01*
X171926247Y-65397142D02*
X171783390Y-65397142D01*
X171783390Y-65397142D02*
X171592914Y-65349523D01*
X171592914Y-65349523D02*
X171497676Y-65301904D01*
X171497676Y-65301904D02*
X171402438Y-65206666D01*
X171402438Y-65206666D02*
X171354819Y-65063809D01*
X171354819Y-65063809D02*
X171354819Y-64968571D01*
X171354819Y-64968571D02*
X171402438Y-64825714D01*
X171402438Y-64825714D02*
X171450057Y-64778095D01*
X172354819Y-63825714D02*
X172354819Y-64397142D01*
X172354819Y-64111428D02*
X171354819Y-64111428D01*
X171354819Y-64111428D02*
X171497676Y-64206666D01*
X171497676Y-64206666D02*
X171592914Y-64301904D01*
X171592914Y-64301904D02*
X171640533Y-64397142D01*
X171354819Y-63206666D02*
X171354819Y-63111428D01*
X171354819Y-63111428D02*
X171402438Y-63016190D01*
X171402438Y-63016190D02*
X171450057Y-62968571D01*
X171450057Y-62968571D02*
X171545295Y-62920952D01*
X171545295Y-62920952D02*
X171735771Y-62873333D01*
X171735771Y-62873333D02*
X171973866Y-62873333D01*
X171973866Y-62873333D02*
X172164342Y-62920952D01*
X172164342Y-62920952D02*
X172259580Y-62968571D01*
X172259580Y-62968571D02*
X172307200Y-63016190D01*
X172307200Y-63016190D02*
X172354819Y-63111428D01*
X172354819Y-63111428D02*
X172354819Y-63206666D01*
X172354819Y-63206666D02*
X172307200Y-63301904D01*
X172307200Y-63301904D02*
X172259580Y-63349523D01*
X172259580Y-63349523D02*
X172164342Y-63397142D01*
X172164342Y-63397142D02*
X171973866Y-63444761D01*
X171973866Y-63444761D02*
X171735771Y-63444761D01*
X171735771Y-63444761D02*
X171545295Y-63397142D01*
X171545295Y-63397142D02*
X171450057Y-63349523D01*
X171450057Y-63349523D02*
X171402438Y-63301904D01*
X171402438Y-63301904D02*
X171354819Y-63206666D01*
X171450057Y-62492380D02*
X171402438Y-62444761D01*
X171402438Y-62444761D02*
X171354819Y-62349523D01*
X171354819Y-62349523D02*
X171354819Y-62111428D01*
X171354819Y-62111428D02*
X171402438Y-62016190D01*
X171402438Y-62016190D02*
X171450057Y-61968571D01*
X171450057Y-61968571D02*
X171545295Y-61920952D01*
X171545295Y-61920952D02*
X171640533Y-61920952D01*
X171640533Y-61920952D02*
X171783390Y-61968571D01*
X171783390Y-61968571D02*
X172354819Y-62539999D01*
X172354819Y-62539999D02*
X172354819Y-61920952D01*
X171354819Y-61016190D02*
X171354819Y-61492380D01*
X171354819Y-61492380D02*
X171831009Y-61539999D01*
X171831009Y-61539999D02*
X171783390Y-61492380D01*
X171783390Y-61492380D02*
X171735771Y-61397142D01*
X171735771Y-61397142D02*
X171735771Y-61159047D01*
X171735771Y-61159047D02*
X171783390Y-61063809D01*
X171783390Y-61063809D02*
X171831009Y-61016190D01*
X171831009Y-61016190D02*
X171926247Y-60968571D01*
X171926247Y-60968571D02*
X172164342Y-60968571D01*
X172164342Y-60968571D02*
X172259580Y-61016190D01*
X172259580Y-61016190D02*
X172307200Y-61063809D01*
X172307200Y-61063809D02*
X172354819Y-61159047D01*
X172354819Y-61159047D02*
X172354819Y-61397142D01*
X172354819Y-61397142D02*
X172307200Y-61492380D01*
X172307200Y-61492380D02*
X172259580Y-61539999D01*
X135740000Y-66504819D02*
X135740000Y-65504819D01*
X135740000Y-65504819D02*
X135978095Y-65504819D01*
X135978095Y-65504819D02*
X136120952Y-65552438D01*
X136120952Y-65552438D02*
X136216190Y-65647676D01*
X136216190Y-65647676D02*
X136263809Y-65742914D01*
X136263809Y-65742914D02*
X136311428Y-65933390D01*
X136311428Y-65933390D02*
X136311428Y-66076247D01*
X136311428Y-66076247D02*
X136263809Y-66266723D01*
X136263809Y-66266723D02*
X136216190Y-66361961D01*
X136216190Y-66361961D02*
X136120952Y-66457200D01*
X136120952Y-66457200D02*
X135978095Y-66504819D01*
X135978095Y-66504819D02*
X135740000Y-66504819D01*
X136692381Y-66457200D02*
X136835238Y-66504819D01*
X136835238Y-66504819D02*
X137073333Y-66504819D01*
X137073333Y-66504819D02*
X137168571Y-66457200D01*
X137168571Y-66457200D02*
X137216190Y-66409580D01*
X137216190Y-66409580D02*
X137263809Y-66314342D01*
X137263809Y-66314342D02*
X137263809Y-66219104D01*
X137263809Y-66219104D02*
X137216190Y-66123866D01*
X137216190Y-66123866D02*
X137168571Y-66076247D01*
X137168571Y-66076247D02*
X137073333Y-66028628D01*
X137073333Y-66028628D02*
X136882857Y-65981009D01*
X136882857Y-65981009D02*
X136787619Y-65933390D01*
X136787619Y-65933390D02*
X136740000Y-65885771D01*
X136740000Y-65885771D02*
X136692381Y-65790533D01*
X136692381Y-65790533D02*
X136692381Y-65695295D01*
X136692381Y-65695295D02*
X136740000Y-65600057D01*
X136740000Y-65600057D02*
X136787619Y-65552438D01*
X136787619Y-65552438D02*
X136882857Y-65504819D01*
X136882857Y-65504819D02*
X137120952Y-65504819D01*
X137120952Y-65504819D02*
X137263809Y-65552438D01*
X138216190Y-66504819D02*
X137644762Y-66504819D01*
X137930476Y-66504819D02*
X137930476Y-65504819D01*
X137930476Y-65504819D02*
X137835238Y-65647676D01*
X137835238Y-65647676D02*
X137740000Y-65742914D01*
X137740000Y-65742914D02*
X137644762Y-65790533D01*
X138549524Y-65504819D02*
X139168571Y-65504819D01*
X139168571Y-65504819D02*
X138835238Y-65885771D01*
X138835238Y-65885771D02*
X138978095Y-65885771D01*
X138978095Y-65885771D02*
X139073333Y-65933390D01*
X139073333Y-65933390D02*
X139120952Y-65981009D01*
X139120952Y-65981009D02*
X139168571Y-66076247D01*
X139168571Y-66076247D02*
X139168571Y-66314342D01*
X139168571Y-66314342D02*
X139120952Y-66409580D01*
X139120952Y-66409580D02*
X139073333Y-66457200D01*
X139073333Y-66457200D02*
X138978095Y-66504819D01*
X138978095Y-66504819D02*
X138692381Y-66504819D01*
X138692381Y-66504819D02*
X138597143Y-66457200D01*
X138597143Y-66457200D02*
X138549524Y-66409580D01*
X139501905Y-65504819D02*
X140120952Y-65504819D01*
X140120952Y-65504819D02*
X139787619Y-65885771D01*
X139787619Y-65885771D02*
X139930476Y-65885771D01*
X139930476Y-65885771D02*
X140025714Y-65933390D01*
X140025714Y-65933390D02*
X140073333Y-65981009D01*
X140073333Y-65981009D02*
X140120952Y-66076247D01*
X140120952Y-66076247D02*
X140120952Y-66314342D01*
X140120952Y-66314342D02*
X140073333Y-66409580D01*
X140073333Y-66409580D02*
X140025714Y-66457200D01*
X140025714Y-66457200D02*
X139930476Y-66504819D01*
X139930476Y-66504819D02*
X139644762Y-66504819D01*
X139644762Y-66504819D02*
X139549524Y-66457200D01*
X139549524Y-66457200D02*
X139501905Y-66409580D01*
X140454286Y-65504819D02*
X141120952Y-65504819D01*
X141120952Y-65504819D02*
X140692381Y-66504819D01*
X141454286Y-66457200D02*
X141597143Y-66504819D01*
X141597143Y-66504819D02*
X141835238Y-66504819D01*
X141835238Y-66504819D02*
X141930476Y-66457200D01*
X141930476Y-66457200D02*
X141978095Y-66409580D01*
X141978095Y-66409580D02*
X142025714Y-66314342D01*
X142025714Y-66314342D02*
X142025714Y-66219104D01*
X142025714Y-66219104D02*
X141978095Y-66123866D01*
X141978095Y-66123866D02*
X141930476Y-66076247D01*
X141930476Y-66076247D02*
X141835238Y-66028628D01*
X141835238Y-66028628D02*
X141644762Y-65981009D01*
X141644762Y-65981009D02*
X141549524Y-65933390D01*
X141549524Y-65933390D02*
X141501905Y-65885771D01*
X141501905Y-65885771D02*
X141454286Y-65790533D01*
X141454286Y-65790533D02*
X141454286Y-65695295D01*
X141454286Y-65695295D02*
X141501905Y-65600057D01*
X141501905Y-65600057D02*
X141549524Y-65552438D01*
X141549524Y-65552438D02*
X141644762Y-65504819D01*
X141644762Y-65504819D02*
X141882857Y-65504819D01*
X141882857Y-65504819D02*
X142025714Y-65552438D01*
X142216191Y-66600057D02*
X142978095Y-66600057D01*
X136368095Y-65384819D02*
X136368095Y-64384819D01*
X136939523Y-65384819D02*
X136510952Y-64813390D01*
X136939523Y-64384819D02*
X136368095Y-64956247D01*
X179054819Y-52535237D02*
X179864342Y-52535237D01*
X179864342Y-52535237D02*
X179959580Y-52487618D01*
X179959580Y-52487618D02*
X180007200Y-52439999D01*
X180007200Y-52439999D02*
X180054819Y-52344761D01*
X180054819Y-52344761D02*
X180054819Y-52154285D01*
X180054819Y-52154285D02*
X180007200Y-52059047D01*
X180007200Y-52059047D02*
X179959580Y-52011428D01*
X179959580Y-52011428D02*
X179864342Y-51963809D01*
X179864342Y-51963809D02*
X179054819Y-51963809D01*
X179769104Y-51535237D02*
X179769104Y-51059047D01*
X180054819Y-51630475D02*
X179054819Y-51297142D01*
X179054819Y-51297142D02*
X180054819Y-50963809D01*
X180054819Y-50059047D02*
X179578628Y-50392380D01*
X180054819Y-50630475D02*
X179054819Y-50630475D01*
X179054819Y-50630475D02*
X179054819Y-50249523D01*
X179054819Y-50249523D02*
X179102438Y-50154285D01*
X179102438Y-50154285D02*
X179150057Y-50106666D01*
X179150057Y-50106666D02*
X179245295Y-50059047D01*
X179245295Y-50059047D02*
X179388152Y-50059047D01*
X179388152Y-50059047D02*
X179483390Y-50106666D01*
X179483390Y-50106666D02*
X179531009Y-50154285D01*
X179531009Y-50154285D02*
X179578628Y-50249523D01*
X179578628Y-50249523D02*
X179578628Y-50630475D01*
X179054819Y-49773332D02*
X179054819Y-49201904D01*
X180054819Y-49487618D02*
X179054819Y-49487618D01*
X138268628Y-90576190D02*
X138744819Y-90576190D01*
X137744819Y-90909523D02*
X138268628Y-90576190D01*
X138268628Y-90576190D02*
X137744819Y-90242857D01*
X138744819Y-89385714D02*
X138744819Y-89957142D01*
X138744819Y-89671428D02*
X137744819Y-89671428D01*
X137744819Y-89671428D02*
X137887676Y-89766666D01*
X137887676Y-89766666D02*
X137982914Y-89861904D01*
X137982914Y-89861904D02*
X138030533Y-89957142D01*
X144549580Y-91885715D02*
X144597200Y-91933334D01*
X144597200Y-91933334D02*
X144644819Y-92076191D01*
X144644819Y-92076191D02*
X144644819Y-92171429D01*
X144644819Y-92171429D02*
X144597200Y-92314286D01*
X144597200Y-92314286D02*
X144501961Y-92409524D01*
X144501961Y-92409524D02*
X144406723Y-92457143D01*
X144406723Y-92457143D02*
X144216247Y-92504762D01*
X144216247Y-92504762D02*
X144073390Y-92504762D01*
X144073390Y-92504762D02*
X143882914Y-92457143D01*
X143882914Y-92457143D02*
X143787676Y-92409524D01*
X143787676Y-92409524D02*
X143692438Y-92314286D01*
X143692438Y-92314286D02*
X143644819Y-92171429D01*
X143644819Y-92171429D02*
X143644819Y-92076191D01*
X143644819Y-92076191D02*
X143692438Y-91933334D01*
X143692438Y-91933334D02*
X143740057Y-91885715D01*
X144644819Y-91457143D02*
X143978152Y-91457143D01*
X144168628Y-91457143D02*
X144073390Y-91409524D01*
X144073390Y-91409524D02*
X144025771Y-91361905D01*
X144025771Y-91361905D02*
X143978152Y-91266667D01*
X143978152Y-91266667D02*
X143978152Y-91171429D01*
X143978152Y-90933333D02*
X144644819Y-90695238D01*
X143978152Y-90457143D02*
X144644819Y-90695238D01*
X144644819Y-90695238D02*
X144882914Y-90790476D01*
X144882914Y-90790476D02*
X144930533Y-90838095D01*
X144930533Y-90838095D02*
X144978152Y-90933333D01*
X144597200Y-90123809D02*
X144644819Y-90028571D01*
X144644819Y-90028571D02*
X144644819Y-89838095D01*
X144644819Y-89838095D02*
X144597200Y-89742857D01*
X144597200Y-89742857D02*
X144501961Y-89695238D01*
X144501961Y-89695238D02*
X144454342Y-89695238D01*
X144454342Y-89695238D02*
X144359104Y-89742857D01*
X144359104Y-89742857D02*
X144311485Y-89838095D01*
X144311485Y-89838095D02*
X144311485Y-89980952D01*
X144311485Y-89980952D02*
X144263866Y-90076190D01*
X144263866Y-90076190D02*
X144168628Y-90123809D01*
X144168628Y-90123809D02*
X144121009Y-90123809D01*
X144121009Y-90123809D02*
X144025771Y-90076190D01*
X144025771Y-90076190D02*
X143978152Y-89980952D01*
X143978152Y-89980952D02*
X143978152Y-89838095D01*
X143978152Y-89838095D02*
X144025771Y-89742857D01*
X143978152Y-89409523D02*
X143978152Y-89028571D01*
X143644819Y-89266666D02*
X144501961Y-89266666D01*
X144501961Y-89266666D02*
X144597200Y-89219047D01*
X144597200Y-89219047D02*
X144644819Y-89123809D01*
X144644819Y-89123809D02*
X144644819Y-89028571D01*
X144644819Y-88266666D02*
X144121009Y-88266666D01*
X144121009Y-88266666D02*
X144025771Y-88314285D01*
X144025771Y-88314285D02*
X143978152Y-88409523D01*
X143978152Y-88409523D02*
X143978152Y-88599999D01*
X143978152Y-88599999D02*
X144025771Y-88695237D01*
X144597200Y-88266666D02*
X144644819Y-88361904D01*
X144644819Y-88361904D02*
X144644819Y-88599999D01*
X144644819Y-88599999D02*
X144597200Y-88695237D01*
X144597200Y-88695237D02*
X144501961Y-88742856D01*
X144501961Y-88742856D02*
X144406723Y-88742856D01*
X144406723Y-88742856D02*
X144311485Y-88695237D01*
X144311485Y-88695237D02*
X144263866Y-88599999D01*
X144263866Y-88599999D02*
X144263866Y-88361904D01*
X144263866Y-88361904D02*
X144216247Y-88266666D01*
X144644819Y-87647618D02*
X144597200Y-87742856D01*
X144597200Y-87742856D02*
X144501961Y-87790475D01*
X144501961Y-87790475D02*
X143644819Y-87790475D01*
X150938095Y-55864819D02*
X150938095Y-56674342D01*
X150938095Y-56674342D02*
X150985714Y-56769580D01*
X150985714Y-56769580D02*
X151033333Y-56817200D01*
X151033333Y-56817200D02*
X151128571Y-56864819D01*
X151128571Y-56864819D02*
X151319047Y-56864819D01*
X151319047Y-56864819D02*
X151414285Y-56817200D01*
X151414285Y-56817200D02*
X151461904Y-56769580D01*
X151461904Y-56769580D02*
X151509523Y-56674342D01*
X151509523Y-56674342D02*
X151509523Y-55864819D01*
X152509523Y-56864819D02*
X151938095Y-56864819D01*
X152223809Y-56864819D02*
X152223809Y-55864819D01*
X152223809Y-55864819D02*
X152128571Y-56007676D01*
X152128571Y-56007676D02*
X152033333Y-56102914D01*
X152033333Y-56102914D02*
X151938095Y-56150533D01*
X135303333Y-88269580D02*
X135255714Y-88317200D01*
X135255714Y-88317200D02*
X135112857Y-88364819D01*
X135112857Y-88364819D02*
X135017619Y-88364819D01*
X135017619Y-88364819D02*
X134874762Y-88317200D01*
X134874762Y-88317200D02*
X134779524Y-88221961D01*
X134779524Y-88221961D02*
X134731905Y-88126723D01*
X134731905Y-88126723D02*
X134684286Y-87936247D01*
X134684286Y-87936247D02*
X134684286Y-87793390D01*
X134684286Y-87793390D02*
X134731905Y-87602914D01*
X134731905Y-87602914D02*
X134779524Y-87507676D01*
X134779524Y-87507676D02*
X134874762Y-87412438D01*
X134874762Y-87412438D02*
X135017619Y-87364819D01*
X135017619Y-87364819D02*
X135112857Y-87364819D01*
X135112857Y-87364819D02*
X135255714Y-87412438D01*
X135255714Y-87412438D02*
X135303333Y-87460057D01*
X136255714Y-88364819D02*
X135684286Y-88364819D01*
X135970000Y-88364819D02*
X135970000Y-87364819D01*
X135970000Y-87364819D02*
X135874762Y-87507676D01*
X135874762Y-87507676D02*
X135779524Y-87602914D01*
X135779524Y-87602914D02*
X135684286Y-87650533D01*
X135319047Y-86090057D02*
X135366666Y-86042438D01*
X135366666Y-86042438D02*
X135461904Y-85994819D01*
X135461904Y-85994819D02*
X135699999Y-85994819D01*
X135699999Y-85994819D02*
X135795237Y-86042438D01*
X135795237Y-86042438D02*
X135842856Y-86090057D01*
X135842856Y-86090057D02*
X135890475Y-86185295D01*
X135890475Y-86185295D02*
X135890475Y-86280533D01*
X135890475Y-86280533D02*
X135842856Y-86423390D01*
X135842856Y-86423390D02*
X135271428Y-86994819D01*
X135271428Y-86994819D02*
X135890475Y-86994819D01*
X136509523Y-85994819D02*
X136604761Y-85994819D01*
X136604761Y-85994819D02*
X136699999Y-86042438D01*
X136699999Y-86042438D02*
X136747618Y-86090057D01*
X136747618Y-86090057D02*
X136795237Y-86185295D01*
X136795237Y-86185295D02*
X136842856Y-86375771D01*
X136842856Y-86375771D02*
X136842856Y-86613866D01*
X136842856Y-86613866D02*
X136795237Y-86804342D01*
X136795237Y-86804342D02*
X136747618Y-86899580D01*
X136747618Y-86899580D02*
X136699999Y-86947200D01*
X136699999Y-86947200D02*
X136604761Y-86994819D01*
X136604761Y-86994819D02*
X136509523Y-86994819D01*
X136509523Y-86994819D02*
X136414285Y-86947200D01*
X136414285Y-86947200D02*
X136366666Y-86899580D01*
X136366666Y-86899580D02*
X136319047Y-86804342D01*
X136319047Y-86804342D02*
X136271428Y-86613866D01*
X136271428Y-86613866D02*
X136271428Y-86375771D01*
X136271428Y-86375771D02*
X136319047Y-86185295D01*
X136319047Y-86185295D02*
X136366666Y-86090057D01*
X136366666Y-86090057D02*
X136414285Y-86042438D01*
X136414285Y-86042438D02*
X136509523Y-85994819D01*
X138033333Y-86328152D02*
X138033333Y-87328152D01*
X138033333Y-86375771D02*
X138128571Y-86328152D01*
X138128571Y-86328152D02*
X138319047Y-86328152D01*
X138319047Y-86328152D02*
X138414285Y-86375771D01*
X138414285Y-86375771D02*
X138461904Y-86423390D01*
X138461904Y-86423390D02*
X138509523Y-86518628D01*
X138509523Y-86518628D02*
X138509523Y-86804342D01*
X138509523Y-86804342D02*
X138461904Y-86899580D01*
X138461904Y-86899580D02*
X138414285Y-86947200D01*
X138414285Y-86947200D02*
X138319047Y-86994819D01*
X138319047Y-86994819D02*
X138128571Y-86994819D01*
X138128571Y-86994819D02*
X138033333Y-86947200D01*
X138795238Y-86328152D02*
X139176190Y-86328152D01*
X138938095Y-86994819D02*
X138938095Y-86137676D01*
X138938095Y-86137676D02*
X138985714Y-86042438D01*
X138985714Y-86042438D02*
X139080952Y-85994819D01*
X139080952Y-85994819D02*
X139176190Y-85994819D01*
X177263333Y-95094819D02*
X177263333Y-94094819D01*
X177263333Y-94094819D02*
X177644285Y-94094819D01*
X177644285Y-94094819D02*
X177739523Y-94142438D01*
X177739523Y-94142438D02*
X177787142Y-94190057D01*
X177787142Y-94190057D02*
X177834761Y-94285295D01*
X177834761Y-94285295D02*
X177834761Y-94428152D01*
X177834761Y-94428152D02*
X177787142Y-94523390D01*
X177787142Y-94523390D02*
X177739523Y-94571009D01*
X177739523Y-94571009D02*
X177644285Y-94618628D01*
X177644285Y-94618628D02*
X177263333Y-94618628D01*
X178453809Y-94094819D02*
X178644285Y-94094819D01*
X178644285Y-94094819D02*
X178739523Y-94142438D01*
X178739523Y-94142438D02*
X178834761Y-94237676D01*
X178834761Y-94237676D02*
X178882380Y-94428152D01*
X178882380Y-94428152D02*
X178882380Y-94761485D01*
X178882380Y-94761485D02*
X178834761Y-94951961D01*
X178834761Y-94951961D02*
X178739523Y-95047200D01*
X178739523Y-95047200D02*
X178644285Y-95094819D01*
X178644285Y-95094819D02*
X178453809Y-95094819D01*
X178453809Y-95094819D02*
X178358571Y-95047200D01*
X178358571Y-95047200D02*
X178263333Y-94951961D01*
X178263333Y-94951961D02*
X178215714Y-94761485D01*
X178215714Y-94761485D02*
X178215714Y-94428152D01*
X178215714Y-94428152D02*
X178263333Y-94237676D01*
X178263333Y-94237676D02*
X178358571Y-94142438D01*
X178358571Y-94142438D02*
X178453809Y-94094819D01*
X179882380Y-95094819D02*
X179549047Y-94618628D01*
X179310952Y-95094819D02*
X179310952Y-94094819D01*
X179310952Y-94094819D02*
X179691904Y-94094819D01*
X179691904Y-94094819D02*
X179787142Y-94142438D01*
X179787142Y-94142438D02*
X179834761Y-94190057D01*
X179834761Y-94190057D02*
X179882380Y-94285295D01*
X179882380Y-94285295D02*
X179882380Y-94428152D01*
X179882380Y-94428152D02*
X179834761Y-94523390D01*
X179834761Y-94523390D02*
X179787142Y-94571009D01*
X179787142Y-94571009D02*
X179691904Y-94618628D01*
X179691904Y-94618628D02*
X179310952Y-94618628D01*
X180168095Y-94094819D02*
X180739523Y-94094819D01*
X180453809Y-95094819D02*
X180453809Y-94094819D01*
X181644285Y-94999580D02*
X181596666Y-95047200D01*
X181596666Y-95047200D02*
X181453809Y-95094819D01*
X181453809Y-95094819D02*
X181358571Y-95094819D01*
X181358571Y-95094819D02*
X181215714Y-95047200D01*
X181215714Y-95047200D02*
X181120476Y-94951961D01*
X181120476Y-94951961D02*
X181072857Y-94856723D01*
X181072857Y-94856723D02*
X181025238Y-94666247D01*
X181025238Y-94666247D02*
X181025238Y-94523390D01*
X181025238Y-94523390D02*
X181072857Y-94332914D01*
X181072857Y-94332914D02*
X181120476Y-94237676D01*
X181120476Y-94237676D02*
X181215714Y-94142438D01*
X181215714Y-94142438D02*
X181358571Y-94094819D01*
X181358571Y-94094819D02*
X181453809Y-94094819D01*
X181453809Y-94094819D02*
X181596666Y-94142438D01*
X181596666Y-94142438D02*
X181644285Y-94190057D01*
X162023333Y-57164819D02*
X161690000Y-56688628D01*
X161451905Y-57164819D02*
X161451905Y-56164819D01*
X161451905Y-56164819D02*
X161832857Y-56164819D01*
X161832857Y-56164819D02*
X161928095Y-56212438D01*
X161928095Y-56212438D02*
X161975714Y-56260057D01*
X161975714Y-56260057D02*
X162023333Y-56355295D01*
X162023333Y-56355295D02*
X162023333Y-56498152D01*
X162023333Y-56498152D02*
X161975714Y-56593390D01*
X161975714Y-56593390D02*
X161928095Y-56641009D01*
X161928095Y-56641009D02*
X161832857Y-56688628D01*
X161832857Y-56688628D02*
X161451905Y-56688628D01*
X162404286Y-56260057D02*
X162451905Y-56212438D01*
X162451905Y-56212438D02*
X162547143Y-56164819D01*
X162547143Y-56164819D02*
X162785238Y-56164819D01*
X162785238Y-56164819D02*
X162880476Y-56212438D01*
X162880476Y-56212438D02*
X162928095Y-56260057D01*
X162928095Y-56260057D02*
X162975714Y-56355295D01*
X162975714Y-56355295D02*
X162975714Y-56450533D01*
X162975714Y-56450533D02*
X162928095Y-56593390D01*
X162928095Y-56593390D02*
X162356667Y-57164819D01*
X162356667Y-57164819D02*
X162975714Y-57164819D01*
X161533333Y-84584819D02*
X161200000Y-84108628D01*
X160961905Y-84584819D02*
X160961905Y-83584819D01*
X160961905Y-83584819D02*
X161342857Y-83584819D01*
X161342857Y-83584819D02*
X161438095Y-83632438D01*
X161438095Y-83632438D02*
X161485714Y-83680057D01*
X161485714Y-83680057D02*
X161533333Y-83775295D01*
X161533333Y-83775295D02*
X161533333Y-83918152D01*
X161533333Y-83918152D02*
X161485714Y-84013390D01*
X161485714Y-84013390D02*
X161438095Y-84061009D01*
X161438095Y-84061009D02*
X161342857Y-84108628D01*
X161342857Y-84108628D02*
X160961905Y-84108628D01*
X162390476Y-83584819D02*
X162200000Y-83584819D01*
X162200000Y-83584819D02*
X162104762Y-83632438D01*
X162104762Y-83632438D02*
X162057143Y-83680057D01*
X162057143Y-83680057D02*
X161961905Y-83822914D01*
X161961905Y-83822914D02*
X161914286Y-84013390D01*
X161914286Y-84013390D02*
X161914286Y-84394342D01*
X161914286Y-84394342D02*
X161961905Y-84489580D01*
X161961905Y-84489580D02*
X162009524Y-84537200D01*
X162009524Y-84537200D02*
X162104762Y-84584819D01*
X162104762Y-84584819D02*
X162295238Y-84584819D01*
X162295238Y-84584819D02*
X162390476Y-84537200D01*
X162390476Y-84537200D02*
X162438095Y-84489580D01*
X162438095Y-84489580D02*
X162485714Y-84394342D01*
X162485714Y-84394342D02*
X162485714Y-84156247D01*
X162485714Y-84156247D02*
X162438095Y-84061009D01*
X162438095Y-84061009D02*
X162390476Y-84013390D01*
X162390476Y-84013390D02*
X162295238Y-83965771D01*
X162295238Y-83965771D02*
X162104762Y-83965771D01*
X162104762Y-83965771D02*
X162009524Y-84013390D01*
X162009524Y-84013390D02*
X161961905Y-84061009D01*
X161961905Y-84061009D02*
X161914286Y-84156247D01*
X162043333Y-55354819D02*
X161710000Y-54878628D01*
X161471905Y-55354819D02*
X161471905Y-54354819D01*
X161471905Y-54354819D02*
X161852857Y-54354819D01*
X161852857Y-54354819D02*
X161948095Y-54402438D01*
X161948095Y-54402438D02*
X161995714Y-54450057D01*
X161995714Y-54450057D02*
X162043333Y-54545295D01*
X162043333Y-54545295D02*
X162043333Y-54688152D01*
X162043333Y-54688152D02*
X161995714Y-54783390D01*
X161995714Y-54783390D02*
X161948095Y-54831009D01*
X161948095Y-54831009D02*
X161852857Y-54878628D01*
X161852857Y-54878628D02*
X161471905Y-54878628D01*
X162995714Y-55354819D02*
X162424286Y-55354819D01*
X162710000Y-55354819D02*
X162710000Y-54354819D01*
X162710000Y-54354819D02*
X162614762Y-54497676D01*
X162614762Y-54497676D02*
X162519524Y-54592914D01*
X162519524Y-54592914D02*
X162424286Y-54640533D01*
X143146667Y-48607200D02*
X143289524Y-48654819D01*
X143289524Y-48654819D02*
X143527619Y-48654819D01*
X143527619Y-48654819D02*
X143622857Y-48607200D01*
X143622857Y-48607200D02*
X143670476Y-48559580D01*
X143670476Y-48559580D02*
X143718095Y-48464342D01*
X143718095Y-48464342D02*
X143718095Y-48369104D01*
X143718095Y-48369104D02*
X143670476Y-48273866D01*
X143670476Y-48273866D02*
X143622857Y-48226247D01*
X143622857Y-48226247D02*
X143527619Y-48178628D01*
X143527619Y-48178628D02*
X143337143Y-48131009D01*
X143337143Y-48131009D02*
X143241905Y-48083390D01*
X143241905Y-48083390D02*
X143194286Y-48035771D01*
X143194286Y-48035771D02*
X143146667Y-47940533D01*
X143146667Y-47940533D02*
X143146667Y-47845295D01*
X143146667Y-47845295D02*
X143194286Y-47750057D01*
X143194286Y-47750057D02*
X143241905Y-47702438D01*
X143241905Y-47702438D02*
X143337143Y-47654819D01*
X143337143Y-47654819D02*
X143575238Y-47654819D01*
X143575238Y-47654819D02*
X143718095Y-47702438D01*
X144051429Y-47654819D02*
X144289524Y-48654819D01*
X144289524Y-48654819D02*
X144480000Y-47940533D01*
X144480000Y-47940533D02*
X144670476Y-48654819D01*
X144670476Y-48654819D02*
X144908572Y-47654819D01*
X145813333Y-48654819D02*
X145241905Y-48654819D01*
X145527619Y-48654819D02*
X145527619Y-47654819D01*
X145527619Y-47654819D02*
X145432381Y-47797676D01*
X145432381Y-47797676D02*
X145337143Y-47892914D01*
X145337143Y-47892914D02*
X145241905Y-47940533D01*
D12*
%TO.C,J7*%
X138735000Y-49865000D02*
X138735000Y-49125000D01*
X138735000Y-49125000D02*
X138235000Y-49125000D01*
X138495000Y-59286000D02*
X138495000Y-49365000D01*
X138495000Y-59286000D02*
X128215000Y-59286000D01*
X138495000Y-56326000D02*
X128215000Y-56326000D01*
X138495000Y-51425000D02*
X128215000Y-51425000D01*
X138495000Y-49925000D02*
X128215000Y-49925000D01*
X138495000Y-49365000D02*
X128215000Y-49365000D01*
X132042000Y-53002000D02*
X132089000Y-52956000D01*
X131849000Y-52786000D02*
X131884000Y-52751000D01*
X129745000Y-55300000D02*
X129780000Y-55264000D01*
X129540000Y-55094000D02*
X129587000Y-55048000D01*
X128215000Y-59286000D02*
X128215000Y-49365000D01*
X137430427Y-53341958D02*
G75*
G02*
X137430000Y-54709000I-1535420J-683041D01*
G01*
X136578042Y-55560427D02*
G75*
G02*
X135211000Y-55560000I-683041J1535420D01*
G01*
X135866195Y-52344747D02*
G75*
G02*
X136579000Y-52490000I28806J-1680254D01*
G01*
X135211682Y-52490244D02*
G75*
G02*
X135895000Y-52345000I683318J-1534756D01*
G01*
X134359573Y-54708042D02*
G75*
G02*
X134360000Y-53341000I1535427J683042D01*
G01*
X132495000Y-54025000D02*
G75*
G02*
X129135000Y-54025000I-1680000J0D01*
G01*
X129135000Y-54025000D02*
G75*
G02*
X132495000Y-54025000I1680000J0D01*
G01*
%TO.C,C5*%
X135342164Y-60200000D02*
X135557836Y-60200000D01*
X135342164Y-60920000D02*
X135557836Y-60920000D01*
%TO.C,C4*%
X131902164Y-60160000D02*
X132117836Y-60160000D01*
X131902164Y-60880000D02*
X132117836Y-60880000D01*
%TO.C,C3*%
X129012164Y-60240000D02*
X129227836Y-60240000D01*
X129012164Y-60960000D02*
X129227836Y-60960000D01*
%TO.C,J1*%
X150960000Y-52320000D02*
X150960000Y-50990000D01*
X152290000Y-52320000D02*
X150960000Y-52320000D01*
X153560000Y-52320000D02*
X161240000Y-52320000D01*
X153560000Y-52320000D02*
X153560000Y-49660000D01*
X161240000Y-52320000D02*
X161240000Y-49660000D01*
X153560000Y-49660000D02*
X161240000Y-49660000D01*
%TO.C,R5*%
X139640000Y-60417064D02*
X139640000Y-58962936D01*
X141460000Y-60417064D02*
X141460000Y-58962936D01*
%TO.C,Y2*%
X139160000Y-77610000D02*
X139160000Y-84160000D01*
X143060000Y-84160000D02*
X143060000Y-77610000D01*
X139160000Y-84160000D02*
X143060000Y-84160000D01*
%TO.C,J6*%
X177820000Y-54075000D02*
X179150000Y-54075000D01*
X177820000Y-55405000D02*
X177820000Y-54075000D01*
X177820000Y-56675000D02*
X177820000Y-74515000D01*
X177820000Y-56675000D02*
X180480000Y-56675000D01*
X177820000Y-74515000D02*
X180480000Y-74515000D01*
X180480000Y-56675000D02*
X180480000Y-74515000D01*
%TO.C,J5*%
X131640000Y-88230000D02*
X130310000Y-88230000D01*
X131640000Y-86900000D02*
X131640000Y-88230000D01*
X131640000Y-85630000D02*
X131640000Y-67790000D01*
X131640000Y-85630000D02*
X128980000Y-85630000D01*
X131640000Y-67790000D02*
X128980000Y-67790000D01*
X128980000Y-85630000D02*
X128980000Y-67790000D01*
%TO.C,C2*%
X137397836Y-92350000D02*
X137182164Y-92350000D01*
X137397836Y-91630000D02*
X137182164Y-91630000D01*
%TO.C,D3*%
X169595000Y-86685000D02*
X169595000Y-84415000D01*
X169595000Y-84415000D02*
X165710000Y-84415000D01*
X165710000Y-86685000D02*
X169595000Y-86685000D01*
%TO.C,U2*%
X160490000Y-76220000D02*
G75*
G02*
X160490000Y-78220000I0J-1000000D01*
G01*
X170770000Y-74570000D02*
X160490000Y-74570000D01*
X160490000Y-74570000D02*
X160490000Y-76220000D01*
X160490000Y-78220000D02*
X160490000Y-79870000D01*
X170770000Y-79870000D02*
X170770000Y-74570000D01*
X160490000Y-79870000D02*
X170770000Y-79870000D01*
%TO.C,D2*%
X142375000Y-61955000D02*
X144645000Y-61955000D01*
X144645000Y-61955000D02*
X144645000Y-58070000D01*
X142375000Y-58070000D02*
X142375000Y-61955000D01*
%TO.C,J3*%
X158600000Y-96480000D02*
X158600000Y-95150000D01*
X159930000Y-96480000D02*
X158600000Y-96480000D01*
X161200000Y-96480000D02*
X173960000Y-96480000D01*
X161200000Y-96480000D02*
X161200000Y-93820000D01*
X173960000Y-96480000D02*
X173960000Y-93820000D01*
X161200000Y-93820000D02*
X173960000Y-93820000D01*
%TO.C,U3*%
X160620000Y-67190000D02*
X170900000Y-67190000D01*
X170900000Y-67190000D02*
X170900000Y-61890000D01*
X160620000Y-65540000D02*
X160620000Y-67190000D01*
X160620000Y-61890000D02*
X160620000Y-63540000D01*
X170900000Y-61890000D02*
X160620000Y-61890000D01*
X160620000Y-63540000D02*
G75*
G02*
X160620000Y-65540000I0J-1000000D01*
G01*
D13*
%TO.C,U4*%
X137130000Y-66820000D02*
X141130000Y-66820000D01*
X137130000Y-71860000D02*
X141130000Y-71860000D01*
D14*
X134785000Y-66845000D02*
G75*
G02*
X134585000Y-66845000I-100000J0D01*
G01*
X134585000Y-66845000D02*
G75*
G02*
X134785000Y-66845000I100000J0D01*
G01*
D12*
%TO.C,R4*%
X138647258Y-73962500D02*
X138172742Y-73962500D01*
X138647258Y-72917500D02*
X138172742Y-72917500D01*
%TO.C,D1*%
X135540000Y-64500000D02*
X130100000Y-64500000D01*
X135540000Y-64170000D02*
X135540000Y-64500000D01*
X135540000Y-61890000D02*
X135540000Y-61560000D01*
X135540000Y-61560000D02*
X130100000Y-61560000D01*
X134760000Y-64500000D02*
X134760000Y-61560000D01*
X134640000Y-64500000D02*
X134640000Y-61560000D01*
X134520000Y-64500000D02*
X134520000Y-61560000D01*
X130100000Y-64500000D02*
X130100000Y-64170000D01*
X130100000Y-61560000D02*
X130100000Y-61890000D01*
%TO.C,J2*%
X165780000Y-52270000D02*
X165780000Y-50940000D01*
X167110000Y-52270000D02*
X165780000Y-52270000D01*
X168380000Y-52270000D02*
X178600000Y-52270000D01*
X168380000Y-52270000D02*
X168380000Y-49610000D01*
X178600000Y-52270000D02*
X178600000Y-49610000D01*
X168380000Y-49610000D02*
X178600000Y-49610000D01*
%TO.C,R3*%
X138162742Y-74657500D02*
X138637258Y-74657500D01*
X138162742Y-75702500D02*
X138637258Y-75702500D01*
%TO.C,Y1*%
X139290000Y-93450000D02*
X143190000Y-93450000D01*
X143190000Y-93450000D02*
X143190000Y-86900000D01*
X139290000Y-86900000D02*
X139290000Y-93450000D01*
%TO.C,U1*%
X149050000Y-57410000D02*
X149050000Y-93090000D01*
X149050000Y-93090000D02*
X154350000Y-93090000D01*
X150700000Y-57410000D02*
X149050000Y-57410000D01*
X154350000Y-57410000D02*
X152700000Y-57410000D01*
X154350000Y-93090000D02*
X154350000Y-57410000D01*
X152700000Y-57410000D02*
G75*
G02*
X150700000Y-57410000I-1000000J0D01*
G01*
%TO.C,C1*%
X137307836Y-88060000D02*
X137092164Y-88060000D01*
X137307836Y-87340000D02*
X137092164Y-87340000D01*
%TO.C,J4*%
X178100000Y-78280000D02*
X179430000Y-78280000D01*
X178100000Y-79610000D02*
X178100000Y-78280000D01*
X178100000Y-80880000D02*
X178100000Y-93640000D01*
X178100000Y-80880000D02*
X180760000Y-80880000D01*
X178100000Y-93640000D02*
X180760000Y-93640000D01*
X180760000Y-80880000D02*
X180760000Y-93640000D01*
%TO.C,R2*%
X160097258Y-57232500D02*
X159622742Y-57232500D01*
X160097258Y-56187500D02*
X159622742Y-56187500D01*
%TO.C,R6*%
X161462742Y-85037500D02*
X161937258Y-85037500D01*
X161462742Y-86082500D02*
X161937258Y-86082500D01*
%TO.C,R1*%
X160157258Y-55282500D02*
X159682742Y-55282500D01*
X160157258Y-54237500D02*
X159682742Y-54237500D01*
%TO.C,SW1*%
X140980000Y-51700000D02*
X140980000Y-53200000D01*
X142230000Y-55700000D02*
X146730000Y-55700000D01*
X146730000Y-49200000D02*
X142230000Y-49200000D01*
X147980000Y-53200000D02*
X147980000Y-51700000D01*
%TD*%
M02*
