%TF.GenerationSoftware,KiCad,Pcbnew,8.0.7*%
%TF.CreationDate,2025-04-27T20:59:36+03:00*%
%TF.ProjectId,data_logger_atmega_eeprom,64617461-5f6c-46f6-9767-65725f61746d,rev?*%
%TF.SameCoordinates,Original*%
%TF.FileFunction,Soldermask,Top*%
%TF.FilePolarity,Negative*%
%FSLAX46Y46*%
G04 Gerber Fmt 4.6, Leading zero omitted, Abs format (unit mm)*
G04 Created by KiCad (PCBNEW 8.0.7) date 2025-04-27 20:59:36*
%MOMM*%
%LPD*%
G01*
G04 APERTURE LIST*
G04 Aperture macros list*
%AMRoundRect*
0 Rectangle with rounded corners*
0 $1 Rounding radius*
0 $2 $3 $4 $5 $6 $7 $8 $9 X,Y pos of 4 corners*
0 Add a 4 corners polygon primitive as box body*
4,1,4,$2,$3,$4,$5,$6,$7,$8,$9,$2,$3,0*
0 Add four circle primitives for the rounded corners*
1,1,$1+$1,$2,$3*
1,1,$1+$1,$4,$5*
1,1,$1+$1,$6,$7*
1,1,$1+$1,$8,$9*
0 Add four rect primitives between the rounded corners*
20,1,$1+$1,$2,$3,$4,$5,0*
20,1,$1+$1,$4,$5,$6,$7,0*
20,1,$1+$1,$6,$7,$8,$9,0*
20,1,$1+$1,$8,$9,$2,$3,0*%
G04 Aperture macros list end*
%ADD10C,3.800000*%
%ADD11R,2.600000X2.600000*%
%ADD12C,2.600000*%
%ADD13RoundRect,0.140000X-0.140000X-0.170000X0.140000X-0.170000X0.140000X0.170000X-0.140000X0.170000X0*%
%ADD14R,1.700000X1.700000*%
%ADD15O,1.700000X1.700000*%
%ADD16RoundRect,0.250000X0.625000X-0.312500X0.625000X0.312500X-0.625000X0.312500X-0.625000X-0.312500X0*%
%ADD17R,2.500000X1.900000*%
%ADD18RoundRect,0.140000X0.140000X0.170000X-0.140000X0.170000X-0.140000X-0.170000X0.140000X-0.170000X0*%
%ADD19RoundRect,0.250000X0.375000X0.625000X-0.375000X0.625000X-0.375000X-0.625000X0.375000X-0.625000X0*%
%ADD20O,1.600000X1.600000*%
%ADD21R,1.600000X1.600000*%
%ADD22RoundRect,0.250000X0.625000X-0.375000X0.625000X0.375000X-0.625000X0.375000X-0.625000X-0.375000X0*%
%ADD23RoundRect,0.099250X-0.987750X-0.297750X0.987750X-0.297750X0.987750X0.297750X-0.987750X0.297750X0*%
%ADD24RoundRect,0.200000X0.200000X0.275000X-0.200000X0.275000X-0.200000X-0.275000X0.200000X-0.275000X0*%
%ADD25R,1.800000X1.800000*%
%ADD26O,1.800000X1.800000*%
%ADD27RoundRect,0.200000X-0.200000X-0.275000X0.200000X-0.275000X0.200000X0.275000X-0.200000X0.275000X0*%
%ADD28C,2.000000*%
G04 APERTURE END LIST*
D10*
%TO.C,H2*%
X127180000Y-95810000D03*
%TD*%
%TO.C,H1*%
X182960000Y-49250000D03*
%TD*%
D11*
%TO.C,J7*%
X135895000Y-54025000D03*
D12*
X130815000Y-54025000D03*
%TD*%
D13*
%TO.C,C5*%
X134970000Y-60560000D03*
X135930000Y-60560000D03*
%TD*%
%TO.C,C4*%
X131530000Y-60520000D03*
X132490000Y-60520000D03*
%TD*%
%TO.C,C3*%
X128640000Y-60600000D03*
X129600000Y-60600000D03*
%TD*%
D14*
%TO.C,J1*%
X152290000Y-50990000D03*
D15*
X154830000Y-50990000D03*
X157370000Y-50990000D03*
X159910000Y-50990000D03*
%TD*%
D16*
%TO.C,R5*%
X140550000Y-61152500D03*
X140550000Y-58227500D03*
%TD*%
D17*
%TO.C,Y2*%
X141110000Y-78610000D03*
X141110000Y-83010000D03*
%TD*%
D14*
%TO.C,J6*%
X179150000Y-55405000D03*
D15*
X179150000Y-57945000D03*
X179150000Y-60485000D03*
X179150000Y-63025000D03*
X179150000Y-65565000D03*
X179150000Y-68105000D03*
X179150000Y-70645000D03*
X179150000Y-73185000D03*
%TD*%
D14*
%TO.C,J5*%
X130310000Y-86900000D03*
D15*
X130310000Y-84360000D03*
X130310000Y-81820000D03*
X130310000Y-79280000D03*
X130310000Y-76740000D03*
X130310000Y-74200000D03*
X130310000Y-71660000D03*
X130310000Y-69120000D03*
%TD*%
D18*
%TO.C,C2*%
X137770000Y-91990000D03*
X136810000Y-91990000D03*
%TD*%
D19*
%TO.C,D3*%
X168710000Y-85550000D03*
X165910000Y-85550000D03*
%TD*%
D20*
%TO.C,U2*%
X161820000Y-73410000D03*
X164360000Y-73410000D03*
X166900000Y-73410000D03*
X169440000Y-73410000D03*
X169440000Y-81030000D03*
X166900000Y-81030000D03*
X164360000Y-81030000D03*
D21*
X161820000Y-81030000D03*
%TD*%
D22*
%TO.C,D2*%
X143510000Y-61070000D03*
X143510000Y-58270000D03*
%TD*%
D14*
%TO.C,J3*%
X159930000Y-95150000D03*
D15*
X162470000Y-95150000D03*
X165010000Y-95150000D03*
X167550000Y-95150000D03*
X170090000Y-95150000D03*
X172630000Y-95150000D03*
%TD*%
D21*
%TO.C,U3*%
X161950000Y-68350000D03*
D20*
X164490000Y-68350000D03*
X167030000Y-68350000D03*
X169570000Y-68350000D03*
X169570000Y-60730000D03*
X167030000Y-60730000D03*
X164490000Y-60730000D03*
X161950000Y-60730000D03*
%TD*%
D23*
%TO.C,U4*%
X136655000Y-67435000D03*
X136655000Y-68705000D03*
X136655000Y-69975000D03*
X136655000Y-71245000D03*
X141605000Y-71245000D03*
X141605000Y-69975000D03*
X141605000Y-68705000D03*
X141605000Y-67435000D03*
%TD*%
D24*
%TO.C,R4*%
X139235000Y-73440000D03*
X137585000Y-73440000D03*
%TD*%
D25*
%TO.C,D1*%
X136630000Y-63030000D03*
D26*
X129010000Y-63030000D03*
%TD*%
D14*
%TO.C,J2*%
X167110000Y-50940000D03*
D15*
X169650000Y-50940000D03*
X172190000Y-50940000D03*
X174730000Y-50940000D03*
X177270000Y-50940000D03*
%TD*%
D27*
%TO.C,R3*%
X137575000Y-75180000D03*
X139225000Y-75180000D03*
%TD*%
D17*
%TO.C,Y1*%
X141240000Y-92300000D03*
X141240000Y-87900000D03*
%TD*%
D21*
%TO.C,U1*%
X147890000Y-58740000D03*
D20*
X147890000Y-61280000D03*
X147890000Y-63820000D03*
X147890000Y-66360000D03*
X147890000Y-68900000D03*
X147890000Y-71440000D03*
X147890000Y-73980000D03*
X147890000Y-76520000D03*
X147890000Y-79060000D03*
X147890000Y-81600000D03*
X147890000Y-84140000D03*
X147890000Y-86680000D03*
X147890000Y-89220000D03*
X147890000Y-91760000D03*
X155510000Y-91760000D03*
X155510000Y-89220000D03*
X155510000Y-86680000D03*
X155510000Y-84140000D03*
X155510000Y-81600000D03*
X155510000Y-79060000D03*
X155510000Y-76520000D03*
X155510000Y-73980000D03*
X155510000Y-71440000D03*
X155510000Y-68900000D03*
X155510000Y-66360000D03*
X155510000Y-63820000D03*
X155510000Y-61280000D03*
X155510000Y-58740000D03*
%TD*%
D18*
%TO.C,C1*%
X137680000Y-87700000D03*
X136720000Y-87700000D03*
%TD*%
D14*
%TO.C,J4*%
X179430000Y-79610000D03*
D15*
X179430000Y-82150000D03*
X179430000Y-84690000D03*
X179430000Y-87230000D03*
X179430000Y-89770000D03*
X179430000Y-92310000D03*
%TD*%
D24*
%TO.C,R2*%
X160685000Y-56710000D03*
X159035000Y-56710000D03*
%TD*%
D27*
%TO.C,R6*%
X160875000Y-85560000D03*
X162525000Y-85560000D03*
%TD*%
D24*
%TO.C,R1*%
X160745000Y-54760000D03*
X159095000Y-54760000D03*
%TD*%
D28*
%TO.C,SW1*%
X141230000Y-50200000D03*
X147730000Y-50200000D03*
X141230000Y-54700000D03*
X147730000Y-54700000D03*
%TD*%
M02*
