%TF.GenerationSoftware,KiCad,Pcbnew,8.0.7*%
%TF.CreationDate,2025-04-27T20:59:36+03:00*%
%TF.ProjectId,data_logger_atmega_eeprom,64617461-5f6c-46f6-9767-65725f61746d,rev?*%
%TF.SameCoordinates,Original*%
%TF.FileFunction,Legend,Bot*%
%TF.FilePolarity,Positive*%
%FSLAX46Y46*%
G04 Gerber Fmt 4.6, Leading zero omitted, Abs format (unit mm)*
G04 Created by KiCad (PCBNEW 8.0.7) date 2025-04-27 20:59:36*
%MOMM*%
%LPD*%
G01*
G04 APERTURE LIST*
%ADD10C,0.100000*%
%ADD11C,0.000000*%
G04 APERTURE END LIST*
D10*
X124672587Y-47673884D02*
X123672587Y-47673884D01*
X123672587Y-47673884D02*
X124672587Y-48245312D01*
X124672587Y-48245312D02*
X123672587Y-48245312D01*
X124672587Y-49150074D02*
X124148777Y-49150074D01*
X124148777Y-49150074D02*
X124053539Y-49102455D01*
X124053539Y-49102455D02*
X124005920Y-49007217D01*
X124005920Y-49007217D02*
X124005920Y-48816741D01*
X124005920Y-48816741D02*
X124053539Y-48721503D01*
X124624968Y-49150074D02*
X124672587Y-49054836D01*
X124672587Y-49054836D02*
X124672587Y-48816741D01*
X124672587Y-48816741D02*
X124624968Y-48721503D01*
X124624968Y-48721503D02*
X124529729Y-48673884D01*
X124529729Y-48673884D02*
X124434491Y-48673884D01*
X124434491Y-48673884D02*
X124339253Y-48721503D01*
X124339253Y-48721503D02*
X124291634Y-48816741D01*
X124291634Y-48816741D02*
X124291634Y-49054836D01*
X124291634Y-49054836D02*
X124244015Y-49150074D01*
X124672587Y-49626265D02*
X124005920Y-49626265D01*
X124101158Y-49626265D02*
X124053539Y-49673884D01*
X124053539Y-49673884D02*
X124005920Y-49769122D01*
X124005920Y-49769122D02*
X124005920Y-49911979D01*
X124005920Y-49911979D02*
X124053539Y-50007217D01*
X124053539Y-50007217D02*
X124148777Y-50054836D01*
X124148777Y-50054836D02*
X124672587Y-50054836D01*
X124148777Y-50054836D02*
X124053539Y-50102455D01*
X124053539Y-50102455D02*
X124005920Y-50197693D01*
X124005920Y-50197693D02*
X124005920Y-50340550D01*
X124005920Y-50340550D02*
X124053539Y-50435789D01*
X124053539Y-50435789D02*
X124148777Y-50483408D01*
X124148777Y-50483408D02*
X124672587Y-50483408D01*
X124624968Y-51340550D02*
X124672587Y-51245312D01*
X124672587Y-51245312D02*
X124672587Y-51054836D01*
X124672587Y-51054836D02*
X124624968Y-50959598D01*
X124624968Y-50959598D02*
X124529729Y-50911979D01*
X124529729Y-50911979D02*
X124148777Y-50911979D01*
X124148777Y-50911979D02*
X124053539Y-50959598D01*
X124053539Y-50959598D02*
X124005920Y-51054836D01*
X124005920Y-51054836D02*
X124005920Y-51245312D01*
X124005920Y-51245312D02*
X124053539Y-51340550D01*
X124053539Y-51340550D02*
X124148777Y-51388169D01*
X124148777Y-51388169D02*
X124244015Y-51388169D01*
X124244015Y-51388169D02*
X124339253Y-50911979D01*
X124577348Y-51816741D02*
X124624968Y-51864360D01*
X124624968Y-51864360D02*
X124672587Y-51816741D01*
X124672587Y-51816741D02*
X124624968Y-51769122D01*
X124624968Y-51769122D02*
X124577348Y-51816741D01*
X124577348Y-51816741D02*
X124672587Y-51816741D01*
X124053539Y-51816741D02*
X124101158Y-51864360D01*
X124101158Y-51864360D02*
X124148777Y-51816741D01*
X124148777Y-51816741D02*
X124101158Y-51769122D01*
X124101158Y-51769122D02*
X124053539Y-51816741D01*
X124053539Y-51816741D02*
X124148777Y-51816741D01*
X124148777Y-53054836D02*
X124148777Y-53388169D01*
X124672587Y-53531026D02*
X124672587Y-53054836D01*
X124672587Y-53054836D02*
X123672587Y-53054836D01*
X123672587Y-53054836D02*
X123672587Y-53531026D01*
X124672587Y-53959598D02*
X124005920Y-53959598D01*
X123672587Y-53959598D02*
X123720206Y-53911979D01*
X123720206Y-53911979D02*
X123767825Y-53959598D01*
X123767825Y-53959598D02*
X123720206Y-54007217D01*
X123720206Y-54007217D02*
X123672587Y-53959598D01*
X123672587Y-53959598D02*
X123767825Y-53959598D01*
X124672587Y-54864359D02*
X123672587Y-54864359D01*
X124624968Y-54864359D02*
X124672587Y-54769121D01*
X124672587Y-54769121D02*
X124672587Y-54578645D01*
X124672587Y-54578645D02*
X124624968Y-54483407D01*
X124624968Y-54483407D02*
X124577348Y-54435788D01*
X124577348Y-54435788D02*
X124482110Y-54388169D01*
X124482110Y-54388169D02*
X124196396Y-54388169D01*
X124196396Y-54388169D02*
X124101158Y-54435788D01*
X124101158Y-54435788D02*
X124053539Y-54483407D01*
X124053539Y-54483407D02*
X124005920Y-54578645D01*
X124005920Y-54578645D02*
X124005920Y-54769121D01*
X124005920Y-54769121D02*
X124053539Y-54864359D01*
X124148777Y-56102455D02*
X124148777Y-56435788D01*
X124672587Y-56578645D02*
X124672587Y-56102455D01*
X124672587Y-56102455D02*
X123672587Y-56102455D01*
X123672587Y-56102455D02*
X123672587Y-56578645D01*
X124672587Y-57150074D02*
X124624968Y-57054836D01*
X124624968Y-57054836D02*
X124529729Y-57007217D01*
X124529729Y-57007217D02*
X123672587Y-57007217D01*
X124624968Y-57483408D02*
X124672587Y-57578646D01*
X124672587Y-57578646D02*
X124672587Y-57769122D01*
X124672587Y-57769122D02*
X124624968Y-57864360D01*
X124624968Y-57864360D02*
X124529729Y-57911979D01*
X124529729Y-57911979D02*
X124482110Y-57911979D01*
X124482110Y-57911979D02*
X124386872Y-57864360D01*
X124386872Y-57864360D02*
X124339253Y-57769122D01*
X124339253Y-57769122D02*
X124339253Y-57626265D01*
X124339253Y-57626265D02*
X124291634Y-57531027D01*
X124291634Y-57531027D02*
X124196396Y-57483408D01*
X124196396Y-57483408D02*
X124148777Y-57483408D01*
X124148777Y-57483408D02*
X124053539Y-57531027D01*
X124053539Y-57531027D02*
X124005920Y-57626265D01*
X124005920Y-57626265D02*
X124005920Y-57769122D01*
X124005920Y-57769122D02*
X124053539Y-57864360D01*
X124672587Y-58769122D02*
X124148777Y-58769122D01*
X124148777Y-58769122D02*
X124053539Y-58721503D01*
X124053539Y-58721503D02*
X124005920Y-58626265D01*
X124005920Y-58626265D02*
X124005920Y-58435789D01*
X124005920Y-58435789D02*
X124053539Y-58340551D01*
X124624968Y-58769122D02*
X124672587Y-58673884D01*
X124672587Y-58673884D02*
X124672587Y-58435789D01*
X124672587Y-58435789D02*
X124624968Y-58340551D01*
X124624968Y-58340551D02*
X124529729Y-58292932D01*
X124529729Y-58292932D02*
X124434491Y-58292932D01*
X124434491Y-58292932D02*
X124339253Y-58340551D01*
X124339253Y-58340551D02*
X124291634Y-58435789D01*
X124291634Y-58435789D02*
X124291634Y-58673884D01*
X124291634Y-58673884D02*
X124244015Y-58769122D01*
X124005920Y-59150075D02*
X124672587Y-59388170D01*
X124005920Y-59626265D02*
X124672587Y-59388170D01*
X124672587Y-59388170D02*
X124910682Y-59292932D01*
X124910682Y-59292932D02*
X124958301Y-59245313D01*
X124958301Y-59245313D02*
X125005920Y-59150075D01*
X124624968Y-60388170D02*
X124672587Y-60292932D01*
X124672587Y-60292932D02*
X124672587Y-60102456D01*
X124672587Y-60102456D02*
X124624968Y-60007218D01*
X124624968Y-60007218D02*
X124529729Y-59959599D01*
X124529729Y-59959599D02*
X124148777Y-59959599D01*
X124148777Y-59959599D02*
X124053539Y-60007218D01*
X124053539Y-60007218D02*
X124005920Y-60102456D01*
X124005920Y-60102456D02*
X124005920Y-60292932D01*
X124005920Y-60292932D02*
X124053539Y-60388170D01*
X124053539Y-60388170D02*
X124148777Y-60435789D01*
X124148777Y-60435789D02*
X124244015Y-60435789D01*
X124244015Y-60435789D02*
X124339253Y-59959599D01*
X124672587Y-61292932D02*
X123672587Y-61292932D01*
X124624968Y-61292932D02*
X124672587Y-61197694D01*
X124672587Y-61197694D02*
X124672587Y-61007218D01*
X124672587Y-61007218D02*
X124624968Y-60911980D01*
X124624968Y-60911980D02*
X124577348Y-60864361D01*
X124577348Y-60864361D02*
X124482110Y-60816742D01*
X124482110Y-60816742D02*
X124196396Y-60816742D01*
X124196396Y-60816742D02*
X124101158Y-60864361D01*
X124101158Y-60864361D02*
X124053539Y-60911980D01*
X124053539Y-60911980D02*
X124005920Y-61007218D01*
X124005920Y-61007218D02*
X124005920Y-61197694D01*
X124005920Y-61197694D02*
X124053539Y-61292932D01*
X125330150Y-48197693D02*
X125282531Y-48102455D01*
X125282531Y-48102455D02*
X125282531Y-47959598D01*
X125282531Y-47959598D02*
X125330150Y-47816741D01*
X125330150Y-47816741D02*
X125425388Y-47721503D01*
X125425388Y-47721503D02*
X125520626Y-47673884D01*
X125520626Y-47673884D02*
X125711102Y-47626265D01*
X125711102Y-47626265D02*
X125853959Y-47626265D01*
X125853959Y-47626265D02*
X126044435Y-47673884D01*
X126044435Y-47673884D02*
X126139673Y-47721503D01*
X126139673Y-47721503D02*
X126234912Y-47816741D01*
X126234912Y-47816741D02*
X126282531Y-47959598D01*
X126282531Y-47959598D02*
X126282531Y-48054836D01*
X126282531Y-48054836D02*
X126234912Y-48197693D01*
X126234912Y-48197693D02*
X126187292Y-48245312D01*
X126187292Y-48245312D02*
X125853959Y-48245312D01*
X125853959Y-48245312D02*
X125853959Y-48054836D01*
X126282531Y-48673884D02*
X125615864Y-48673884D01*
X125806340Y-48673884D02*
X125711102Y-48721503D01*
X125711102Y-48721503D02*
X125663483Y-48769122D01*
X125663483Y-48769122D02*
X125615864Y-48864360D01*
X125615864Y-48864360D02*
X125615864Y-48959598D01*
X126282531Y-49435789D02*
X126234912Y-49340551D01*
X126234912Y-49340551D02*
X126187292Y-49292932D01*
X126187292Y-49292932D02*
X126092054Y-49245313D01*
X126092054Y-49245313D02*
X125806340Y-49245313D01*
X125806340Y-49245313D02*
X125711102Y-49292932D01*
X125711102Y-49292932D02*
X125663483Y-49340551D01*
X125663483Y-49340551D02*
X125615864Y-49435789D01*
X125615864Y-49435789D02*
X125615864Y-49578646D01*
X125615864Y-49578646D02*
X125663483Y-49673884D01*
X125663483Y-49673884D02*
X125711102Y-49721503D01*
X125711102Y-49721503D02*
X125806340Y-49769122D01*
X125806340Y-49769122D02*
X126092054Y-49769122D01*
X126092054Y-49769122D02*
X126187292Y-49721503D01*
X126187292Y-49721503D02*
X126234912Y-49673884D01*
X126234912Y-49673884D02*
X126282531Y-49578646D01*
X126282531Y-49578646D02*
X126282531Y-49435789D01*
X125615864Y-50626265D02*
X126282531Y-50626265D01*
X125615864Y-50197694D02*
X126139673Y-50197694D01*
X126139673Y-50197694D02*
X126234912Y-50245313D01*
X126234912Y-50245313D02*
X126282531Y-50340551D01*
X126282531Y-50340551D02*
X126282531Y-50483408D01*
X126282531Y-50483408D02*
X126234912Y-50578646D01*
X126234912Y-50578646D02*
X126187292Y-50626265D01*
X125615864Y-51102456D02*
X126615864Y-51102456D01*
X125663483Y-51102456D02*
X125615864Y-51197694D01*
X125615864Y-51197694D02*
X125615864Y-51388170D01*
X125615864Y-51388170D02*
X125663483Y-51483408D01*
X125663483Y-51483408D02*
X125711102Y-51531027D01*
X125711102Y-51531027D02*
X125806340Y-51578646D01*
X125806340Y-51578646D02*
X126092054Y-51578646D01*
X126092054Y-51578646D02*
X126187292Y-51531027D01*
X126187292Y-51531027D02*
X126234912Y-51483408D01*
X126234912Y-51483408D02*
X126282531Y-51388170D01*
X126282531Y-51388170D02*
X126282531Y-51197694D01*
X126282531Y-51197694D02*
X126234912Y-51102456D01*
X126282531Y-52769123D02*
X125282531Y-52769123D01*
X126282531Y-53245313D02*
X125282531Y-53245313D01*
X125282531Y-53245313D02*
X125282531Y-53483408D01*
X125282531Y-53483408D02*
X125330150Y-53626265D01*
X125330150Y-53626265D02*
X125425388Y-53721503D01*
X125425388Y-53721503D02*
X125520626Y-53769122D01*
X125520626Y-53769122D02*
X125711102Y-53816741D01*
X125711102Y-53816741D02*
X125853959Y-53816741D01*
X125853959Y-53816741D02*
X126044435Y-53769122D01*
X126044435Y-53769122D02*
X126139673Y-53721503D01*
X126139673Y-53721503D02*
X126234912Y-53626265D01*
X126234912Y-53626265D02*
X126282531Y-53483408D01*
X126282531Y-53483408D02*
X126282531Y-53245313D01*
X126187292Y-54245313D02*
X126234912Y-54292932D01*
X126234912Y-54292932D02*
X126282531Y-54245313D01*
X126282531Y-54245313D02*
X126234912Y-54197694D01*
X126234912Y-54197694D02*
X126187292Y-54245313D01*
X126187292Y-54245313D02*
X126282531Y-54245313D01*
X125663483Y-54245313D02*
X125711102Y-54292932D01*
X125711102Y-54292932D02*
X125758721Y-54245313D01*
X125758721Y-54245313D02*
X125711102Y-54197694D01*
X125711102Y-54197694D02*
X125663483Y-54245313D01*
X125663483Y-54245313D02*
X125758721Y-54245313D01*
X126282531Y-56007217D02*
X126282531Y-55435789D01*
X126282531Y-55721503D02*
X125282531Y-55721503D01*
X125282531Y-55721503D02*
X125425388Y-55626265D01*
X125425388Y-55626265D02*
X125520626Y-55531027D01*
X125520626Y-55531027D02*
X125568245Y-55435789D01*
X125615864Y-56864360D02*
X126282531Y-56864360D01*
X125234912Y-56626265D02*
X125949197Y-56388170D01*
X125949197Y-56388170D02*
X125949197Y-57007217D01*
X125282531Y-57292932D02*
X125282531Y-57959598D01*
X125282531Y-57959598D02*
X126282531Y-57531027D01*
X125282531Y-58245313D02*
X125282531Y-58864360D01*
X125282531Y-58864360D02*
X125663483Y-58531027D01*
X125663483Y-58531027D02*
X125663483Y-58673884D01*
X125663483Y-58673884D02*
X125711102Y-58769122D01*
X125711102Y-58769122D02*
X125758721Y-58816741D01*
X125758721Y-58816741D02*
X125853959Y-58864360D01*
X125853959Y-58864360D02*
X126092054Y-58864360D01*
X126092054Y-58864360D02*
X126187292Y-58816741D01*
X126187292Y-58816741D02*
X126234912Y-58769122D01*
X126234912Y-58769122D02*
X126282531Y-58673884D01*
X126282531Y-58673884D02*
X126282531Y-58388170D01*
X126282531Y-58388170D02*
X126234912Y-58292932D01*
X126234912Y-58292932D02*
X126187292Y-58245313D01*
X126282531Y-59816741D02*
X126282531Y-59245313D01*
X126282531Y-59531027D02*
X125282531Y-59531027D01*
X125282531Y-59531027D02*
X125425388Y-59435789D01*
X125425388Y-59435789D02*
X125520626Y-59340551D01*
X125520626Y-59340551D02*
X125568245Y-59245313D01*
X125282531Y-60435789D02*
X125282531Y-60531027D01*
X125282531Y-60531027D02*
X125330150Y-60626265D01*
X125330150Y-60626265D02*
X125377769Y-60673884D01*
X125377769Y-60673884D02*
X125473007Y-60721503D01*
X125473007Y-60721503D02*
X125663483Y-60769122D01*
X125663483Y-60769122D02*
X125901578Y-60769122D01*
X125901578Y-60769122D02*
X126092054Y-60721503D01*
X126092054Y-60721503D02*
X126187292Y-60673884D01*
X126187292Y-60673884D02*
X126234912Y-60626265D01*
X126234912Y-60626265D02*
X126282531Y-60531027D01*
X126282531Y-60531027D02*
X126282531Y-60435789D01*
X126282531Y-60435789D02*
X126234912Y-60340551D01*
X126234912Y-60340551D02*
X126187292Y-60292932D01*
X126187292Y-60292932D02*
X126092054Y-60245313D01*
X126092054Y-60245313D02*
X125901578Y-60197694D01*
X125901578Y-60197694D02*
X125663483Y-60197694D01*
X125663483Y-60197694D02*
X125473007Y-60245313D01*
X125473007Y-60245313D02*
X125377769Y-60292932D01*
X125377769Y-60292932D02*
X125330150Y-60340551D01*
X125330150Y-60340551D02*
X125282531Y-60435789D01*
X126282531Y-61721503D02*
X126282531Y-61150075D01*
X126282531Y-61435789D02*
X125282531Y-61435789D01*
X125282531Y-61435789D02*
X125425388Y-61340551D01*
X125425388Y-61340551D02*
X125520626Y-61245313D01*
X125520626Y-61245313D02*
X125568245Y-61150075D01*
X125377769Y-62102456D02*
X125330150Y-62150075D01*
X125330150Y-62150075D02*
X125282531Y-62245313D01*
X125282531Y-62245313D02*
X125282531Y-62483408D01*
X125282531Y-62483408D02*
X125330150Y-62578646D01*
X125330150Y-62578646D02*
X125377769Y-62626265D01*
X125377769Y-62626265D02*
X125473007Y-62673884D01*
X125473007Y-62673884D02*
X125568245Y-62673884D01*
X125568245Y-62673884D02*
X125711102Y-62626265D01*
X125711102Y-62626265D02*
X126282531Y-62054837D01*
X126282531Y-62054837D02*
X126282531Y-62673884D01*
X125282531Y-63578646D02*
X125282531Y-63102456D01*
X125282531Y-63102456D02*
X125758721Y-63054837D01*
X125758721Y-63054837D02*
X125711102Y-63102456D01*
X125711102Y-63102456D02*
X125663483Y-63197694D01*
X125663483Y-63197694D02*
X125663483Y-63435789D01*
X125663483Y-63435789D02*
X125711102Y-63531027D01*
X125711102Y-63531027D02*
X125758721Y-63578646D01*
X125758721Y-63578646D02*
X125853959Y-63626265D01*
X125853959Y-63626265D02*
X126092054Y-63626265D01*
X126092054Y-63626265D02*
X126187292Y-63578646D01*
X126187292Y-63578646D02*
X126234912Y-63531027D01*
X126234912Y-63531027D02*
X126282531Y-63435789D01*
X126282531Y-63435789D02*
X126282531Y-63197694D01*
X126282531Y-63197694D02*
X126234912Y-63102456D01*
X126234912Y-63102456D02*
X126187292Y-63054837D01*
X126282531Y-64578646D02*
X126282531Y-64007218D01*
X126282531Y-64292932D02*
X125282531Y-64292932D01*
X125282531Y-64292932D02*
X125425388Y-64197694D01*
X125425388Y-64197694D02*
X125520626Y-64102456D01*
X125520626Y-64102456D02*
X125568245Y-64007218D01*
X125377769Y-64959599D02*
X125330150Y-65007218D01*
X125330150Y-65007218D02*
X125282531Y-65102456D01*
X125282531Y-65102456D02*
X125282531Y-65340551D01*
X125282531Y-65340551D02*
X125330150Y-65435789D01*
X125330150Y-65435789D02*
X125377769Y-65483408D01*
X125377769Y-65483408D02*
X125473007Y-65531027D01*
X125473007Y-65531027D02*
X125568245Y-65531027D01*
X125568245Y-65531027D02*
X125711102Y-65483408D01*
X125711102Y-65483408D02*
X126282531Y-64911980D01*
X126282531Y-64911980D02*
X126282531Y-65531027D01*
X127844856Y-47626265D02*
X127892475Y-47769122D01*
X127892475Y-47769122D02*
X127892475Y-48007217D01*
X127892475Y-48007217D02*
X127844856Y-48102455D01*
X127844856Y-48102455D02*
X127797236Y-48150074D01*
X127797236Y-48150074D02*
X127701998Y-48197693D01*
X127701998Y-48197693D02*
X127606760Y-48197693D01*
X127606760Y-48197693D02*
X127511522Y-48150074D01*
X127511522Y-48150074D02*
X127463903Y-48102455D01*
X127463903Y-48102455D02*
X127416284Y-48007217D01*
X127416284Y-48007217D02*
X127368665Y-47816741D01*
X127368665Y-47816741D02*
X127321046Y-47721503D01*
X127321046Y-47721503D02*
X127273427Y-47673884D01*
X127273427Y-47673884D02*
X127178189Y-47626265D01*
X127178189Y-47626265D02*
X127082951Y-47626265D01*
X127082951Y-47626265D02*
X126987713Y-47673884D01*
X126987713Y-47673884D02*
X126940094Y-47721503D01*
X126940094Y-47721503D02*
X126892475Y-47816741D01*
X126892475Y-47816741D02*
X126892475Y-48054836D01*
X126892475Y-48054836D02*
X126940094Y-48197693D01*
X127225808Y-48483408D02*
X127225808Y-48864360D01*
X126892475Y-48626265D02*
X127749617Y-48626265D01*
X127749617Y-48626265D02*
X127844856Y-48673884D01*
X127844856Y-48673884D02*
X127892475Y-48769122D01*
X127892475Y-48769122D02*
X127892475Y-48864360D01*
X127225808Y-49626265D02*
X127892475Y-49626265D01*
X127225808Y-49197694D02*
X127749617Y-49197694D01*
X127749617Y-49197694D02*
X127844856Y-49245313D01*
X127844856Y-49245313D02*
X127892475Y-49340551D01*
X127892475Y-49340551D02*
X127892475Y-49483408D01*
X127892475Y-49483408D02*
X127844856Y-49578646D01*
X127844856Y-49578646D02*
X127797236Y-49626265D01*
X127892475Y-50531027D02*
X126892475Y-50531027D01*
X127844856Y-50531027D02*
X127892475Y-50435789D01*
X127892475Y-50435789D02*
X127892475Y-50245313D01*
X127892475Y-50245313D02*
X127844856Y-50150075D01*
X127844856Y-50150075D02*
X127797236Y-50102456D01*
X127797236Y-50102456D02*
X127701998Y-50054837D01*
X127701998Y-50054837D02*
X127416284Y-50054837D01*
X127416284Y-50054837D02*
X127321046Y-50102456D01*
X127321046Y-50102456D02*
X127273427Y-50150075D01*
X127273427Y-50150075D02*
X127225808Y-50245313D01*
X127225808Y-50245313D02*
X127225808Y-50435789D01*
X127225808Y-50435789D02*
X127273427Y-50531027D01*
X127844856Y-51388170D02*
X127892475Y-51292932D01*
X127892475Y-51292932D02*
X127892475Y-51102456D01*
X127892475Y-51102456D02*
X127844856Y-51007218D01*
X127844856Y-51007218D02*
X127749617Y-50959599D01*
X127749617Y-50959599D02*
X127368665Y-50959599D01*
X127368665Y-50959599D02*
X127273427Y-51007218D01*
X127273427Y-51007218D02*
X127225808Y-51102456D01*
X127225808Y-51102456D02*
X127225808Y-51292932D01*
X127225808Y-51292932D02*
X127273427Y-51388170D01*
X127273427Y-51388170D02*
X127368665Y-51435789D01*
X127368665Y-51435789D02*
X127463903Y-51435789D01*
X127463903Y-51435789D02*
X127559141Y-50959599D01*
X127225808Y-51864361D02*
X127892475Y-51864361D01*
X127321046Y-51864361D02*
X127273427Y-51911980D01*
X127273427Y-51911980D02*
X127225808Y-52007218D01*
X127225808Y-52007218D02*
X127225808Y-52150075D01*
X127225808Y-52150075D02*
X127273427Y-52245313D01*
X127273427Y-52245313D02*
X127368665Y-52292932D01*
X127368665Y-52292932D02*
X127892475Y-52292932D01*
X127225808Y-52626266D02*
X127225808Y-53007218D01*
X126892475Y-52769123D02*
X127749617Y-52769123D01*
X127749617Y-52769123D02*
X127844856Y-52816742D01*
X127844856Y-52816742D02*
X127892475Y-52911980D01*
X127892475Y-52911980D02*
X127892475Y-53007218D01*
X127892475Y-54102457D02*
X126892475Y-54102457D01*
X127892475Y-54578647D02*
X126892475Y-54578647D01*
X126892475Y-54578647D02*
X126892475Y-54816742D01*
X126892475Y-54816742D02*
X126940094Y-54959599D01*
X126940094Y-54959599D02*
X127035332Y-55054837D01*
X127035332Y-55054837D02*
X127130570Y-55102456D01*
X127130570Y-55102456D02*
X127321046Y-55150075D01*
X127321046Y-55150075D02*
X127463903Y-55150075D01*
X127463903Y-55150075D02*
X127654379Y-55102456D01*
X127654379Y-55102456D02*
X127749617Y-55054837D01*
X127749617Y-55054837D02*
X127844856Y-54959599D01*
X127844856Y-54959599D02*
X127892475Y-54816742D01*
X127892475Y-54816742D02*
X127892475Y-54578647D01*
X127797236Y-55578647D02*
X127844856Y-55626266D01*
X127844856Y-55626266D02*
X127892475Y-55578647D01*
X127892475Y-55578647D02*
X127844856Y-55531028D01*
X127844856Y-55531028D02*
X127797236Y-55578647D01*
X127797236Y-55578647D02*
X127892475Y-55578647D01*
X127273427Y-55578647D02*
X127321046Y-55626266D01*
X127321046Y-55626266D02*
X127368665Y-55578647D01*
X127368665Y-55578647D02*
X127321046Y-55531028D01*
X127321046Y-55531028D02*
X127273427Y-55578647D01*
X127273427Y-55578647D02*
X127368665Y-55578647D01*
X127892475Y-57340551D02*
X127892475Y-56769123D01*
X127892475Y-57054837D02*
X126892475Y-57054837D01*
X126892475Y-57054837D02*
X127035332Y-56959599D01*
X127035332Y-56959599D02*
X127130570Y-56864361D01*
X127130570Y-56864361D02*
X127178189Y-56769123D01*
X127225808Y-58197694D02*
X127892475Y-58197694D01*
X126844856Y-57959599D02*
X127559141Y-57721504D01*
X127559141Y-57721504D02*
X127559141Y-58340551D01*
X126892475Y-58626266D02*
X126892475Y-59292932D01*
X126892475Y-59292932D02*
X127892475Y-58864361D01*
X126892475Y-59578647D02*
X126892475Y-60197694D01*
X126892475Y-60197694D02*
X127273427Y-59864361D01*
X127273427Y-59864361D02*
X127273427Y-60007218D01*
X127273427Y-60007218D02*
X127321046Y-60102456D01*
X127321046Y-60102456D02*
X127368665Y-60150075D01*
X127368665Y-60150075D02*
X127463903Y-60197694D01*
X127463903Y-60197694D02*
X127701998Y-60197694D01*
X127701998Y-60197694D02*
X127797236Y-60150075D01*
X127797236Y-60150075D02*
X127844856Y-60102456D01*
X127844856Y-60102456D02*
X127892475Y-60007218D01*
X127892475Y-60007218D02*
X127892475Y-59721504D01*
X127892475Y-59721504D02*
X127844856Y-59626266D01*
X127844856Y-59626266D02*
X127797236Y-59578647D01*
X127892475Y-61150075D02*
X127892475Y-60578647D01*
X127892475Y-60864361D02*
X126892475Y-60864361D01*
X126892475Y-60864361D02*
X127035332Y-60769123D01*
X127035332Y-60769123D02*
X127130570Y-60673885D01*
X127130570Y-60673885D02*
X127178189Y-60578647D01*
X126892475Y-61769123D02*
X126892475Y-61864361D01*
X126892475Y-61864361D02*
X126940094Y-61959599D01*
X126940094Y-61959599D02*
X126987713Y-62007218D01*
X126987713Y-62007218D02*
X127082951Y-62054837D01*
X127082951Y-62054837D02*
X127273427Y-62102456D01*
X127273427Y-62102456D02*
X127511522Y-62102456D01*
X127511522Y-62102456D02*
X127701998Y-62054837D01*
X127701998Y-62054837D02*
X127797236Y-62007218D01*
X127797236Y-62007218D02*
X127844856Y-61959599D01*
X127844856Y-61959599D02*
X127892475Y-61864361D01*
X127892475Y-61864361D02*
X127892475Y-61769123D01*
X127892475Y-61769123D02*
X127844856Y-61673885D01*
X127844856Y-61673885D02*
X127797236Y-61626266D01*
X127797236Y-61626266D02*
X127701998Y-61578647D01*
X127701998Y-61578647D02*
X127511522Y-61531028D01*
X127511522Y-61531028D02*
X127273427Y-61531028D01*
X127273427Y-61531028D02*
X127082951Y-61578647D01*
X127082951Y-61578647D02*
X126987713Y-61626266D01*
X126987713Y-61626266D02*
X126940094Y-61673885D01*
X126940094Y-61673885D02*
X126892475Y-61769123D01*
X127892475Y-63054837D02*
X127892475Y-62483409D01*
X127892475Y-62769123D02*
X126892475Y-62769123D01*
X126892475Y-62769123D02*
X127035332Y-62673885D01*
X127035332Y-62673885D02*
X127130570Y-62578647D01*
X127130570Y-62578647D02*
X127178189Y-62483409D01*
X126987713Y-63435790D02*
X126940094Y-63483409D01*
X126940094Y-63483409D02*
X126892475Y-63578647D01*
X126892475Y-63578647D02*
X126892475Y-63816742D01*
X126892475Y-63816742D02*
X126940094Y-63911980D01*
X126940094Y-63911980D02*
X126987713Y-63959599D01*
X126987713Y-63959599D02*
X127082951Y-64007218D01*
X127082951Y-64007218D02*
X127178189Y-64007218D01*
X127178189Y-64007218D02*
X127321046Y-63959599D01*
X127321046Y-63959599D02*
X127892475Y-63388171D01*
X127892475Y-63388171D02*
X127892475Y-64007218D01*
X126892475Y-64911980D02*
X126892475Y-64435790D01*
X126892475Y-64435790D02*
X127368665Y-64388171D01*
X127368665Y-64388171D02*
X127321046Y-64435790D01*
X127321046Y-64435790D02*
X127273427Y-64531028D01*
X127273427Y-64531028D02*
X127273427Y-64769123D01*
X127273427Y-64769123D02*
X127321046Y-64864361D01*
X127321046Y-64864361D02*
X127368665Y-64911980D01*
X127368665Y-64911980D02*
X127463903Y-64959599D01*
X127463903Y-64959599D02*
X127701998Y-64959599D01*
X127701998Y-64959599D02*
X127797236Y-64911980D01*
X127797236Y-64911980D02*
X127844856Y-64864361D01*
X127844856Y-64864361D02*
X127892475Y-64769123D01*
X127892475Y-64769123D02*
X127892475Y-64531028D01*
X127892475Y-64531028D02*
X127844856Y-64435790D01*
X127844856Y-64435790D02*
X127797236Y-64388171D01*
X127892475Y-65911980D02*
X127892475Y-65340552D01*
X127892475Y-65626266D02*
X126892475Y-65626266D01*
X126892475Y-65626266D02*
X127035332Y-65531028D01*
X127035332Y-65531028D02*
X127130570Y-65435790D01*
X127130570Y-65435790D02*
X127178189Y-65340552D01*
X126987713Y-66292933D02*
X126940094Y-66340552D01*
X126940094Y-66340552D02*
X126892475Y-66435790D01*
X126892475Y-66435790D02*
X126892475Y-66673885D01*
X126892475Y-66673885D02*
X126940094Y-66769123D01*
X126940094Y-66769123D02*
X126987713Y-66816742D01*
X126987713Y-66816742D02*
X127082951Y-66864361D01*
X127082951Y-66864361D02*
X127178189Y-66864361D01*
X127178189Y-66864361D02*
X127321046Y-66816742D01*
X127321046Y-66816742D02*
X127892475Y-66245314D01*
X127892475Y-66245314D02*
X127892475Y-66864361D01*
X127892475Y-67816742D02*
X127892475Y-67245314D01*
X127892475Y-67531028D02*
X126892475Y-67531028D01*
X126892475Y-67531028D02*
X127035332Y-67435790D01*
X127035332Y-67435790D02*
X127130570Y-67340552D01*
X127130570Y-67340552D02*
X127178189Y-67245314D01*
X126892475Y-68673885D02*
X126892475Y-68483409D01*
X126892475Y-68483409D02*
X126940094Y-68388171D01*
X126940094Y-68388171D02*
X126987713Y-68340552D01*
X126987713Y-68340552D02*
X127130570Y-68245314D01*
X127130570Y-68245314D02*
X127321046Y-68197695D01*
X127321046Y-68197695D02*
X127701998Y-68197695D01*
X127701998Y-68197695D02*
X127797236Y-68245314D01*
X127797236Y-68245314D02*
X127844856Y-68292933D01*
X127844856Y-68292933D02*
X127892475Y-68388171D01*
X127892475Y-68388171D02*
X127892475Y-68578647D01*
X127892475Y-68578647D02*
X127844856Y-68673885D01*
X127844856Y-68673885D02*
X127797236Y-68721504D01*
X127797236Y-68721504D02*
X127701998Y-68769123D01*
X127701998Y-68769123D02*
X127463903Y-68769123D01*
X127463903Y-68769123D02*
X127368665Y-68721504D01*
X127368665Y-68721504D02*
X127321046Y-68673885D01*
X127321046Y-68673885D02*
X127273427Y-68578647D01*
X127273427Y-68578647D02*
X127273427Y-68388171D01*
X127273427Y-68388171D02*
X127321046Y-68292933D01*
X127321046Y-68292933D02*
X127368665Y-68245314D01*
X127368665Y-68245314D02*
X127463903Y-68197695D01*
D11*
%TO.C,G\u002A\u002A\u002A*%
G36*
X125711041Y-69122859D02*
G01*
X125782788Y-69127764D01*
X125835694Y-69133028D01*
X125905272Y-69142174D01*
X125974530Y-69153878D01*
X126043374Y-69168105D01*
X126111711Y-69184820D01*
X126179449Y-69203988D01*
X126246494Y-69225577D01*
X126312754Y-69249550D01*
X126378136Y-69275874D01*
X126442548Y-69304513D01*
X126505895Y-69335435D01*
X126568086Y-69368603D01*
X126629027Y-69403984D01*
X126688625Y-69441544D01*
X126715055Y-69459196D01*
X126773011Y-69500167D01*
X126829453Y-69543214D01*
X126884314Y-69588265D01*
X126937526Y-69635250D01*
X126989024Y-69684097D01*
X127038740Y-69734734D01*
X127086608Y-69787090D01*
X127132560Y-69841094D01*
X127176531Y-69896674D01*
X127218454Y-69953759D01*
X127258261Y-70012278D01*
X127295886Y-70072159D01*
X127309888Y-70095752D01*
X127344564Y-70157705D01*
X127376940Y-70220813D01*
X127406988Y-70284995D01*
X127434686Y-70350169D01*
X127460006Y-70416255D01*
X127482924Y-70483173D01*
X127503414Y-70550840D01*
X127521452Y-70619177D01*
X127537011Y-70688102D01*
X127550067Y-70757535D01*
X127560594Y-70827394D01*
X127568567Y-70897598D01*
X127571577Y-70932655D01*
X127573699Y-70964004D01*
X127575379Y-70996586D01*
X127576601Y-71029745D01*
X127577349Y-71062821D01*
X127577606Y-71095158D01*
X127577357Y-71126099D01*
X127576829Y-71147943D01*
X127573255Y-71219966D01*
X127567149Y-71291494D01*
X127558522Y-71362484D01*
X127547382Y-71432894D01*
X127533737Y-71502681D01*
X127517597Y-71571802D01*
X127498971Y-71640216D01*
X127477867Y-71707880D01*
X127454295Y-71774752D01*
X127434651Y-71825225D01*
X127406844Y-71890571D01*
X127377021Y-71954360D01*
X127345132Y-72016672D01*
X127311129Y-72077586D01*
X127274960Y-72137180D01*
X127236576Y-72195533D01*
X127195929Y-72252725D01*
X127152967Y-72308835D01*
X127107641Y-72363940D01*
X127065785Y-72411639D01*
X127064027Y-72413486D01*
X127060467Y-72417136D01*
X127055142Y-72422550D01*
X127048089Y-72429692D01*
X127039347Y-72438523D01*
X127028951Y-72449007D01*
X127016940Y-72461105D01*
X127003351Y-72474780D01*
X126988222Y-72489996D01*
X126971589Y-72506713D01*
X126953490Y-72524896D01*
X126933963Y-72544506D01*
X126913045Y-72565506D01*
X126890773Y-72587858D01*
X126867185Y-72611525D01*
X126842317Y-72636470D01*
X126816209Y-72662655D01*
X126788896Y-72690043D01*
X126760416Y-72718595D01*
X126730807Y-72748275D01*
X126700105Y-72779046D01*
X126668349Y-72810869D01*
X126635576Y-72843707D01*
X126601823Y-72877523D01*
X126567128Y-72912279D01*
X126531527Y-72947938D01*
X126495059Y-72984462D01*
X126457760Y-73021814D01*
X126419668Y-73059957D01*
X126380821Y-73098852D01*
X126341255Y-73138463D01*
X126301009Y-73178752D01*
X126260119Y-73219681D01*
X126218623Y-73261214D01*
X126176559Y-73303311D01*
X126133963Y-73345937D01*
X126090873Y-73389054D01*
X126047327Y-73432623D01*
X126003362Y-73476609D01*
X125995741Y-73484233D01*
X125951746Y-73528246D01*
X125908176Y-73571839D01*
X125865067Y-73614974D01*
X125822456Y-73657613D01*
X125780380Y-73699720D01*
X125738876Y-73741258D01*
X125697982Y-73782189D01*
X125657735Y-73822476D01*
X125618170Y-73862082D01*
X125579327Y-73900970D01*
X125541241Y-73939103D01*
X125503950Y-73976444D01*
X125467490Y-74012955D01*
X125431899Y-74048599D01*
X125397214Y-74083340D01*
X125363472Y-74117140D01*
X125330710Y-74149962D01*
X125298964Y-74181769D01*
X125268273Y-74212524D01*
X125238673Y-74242189D01*
X125210201Y-74270727D01*
X125182894Y-74298102D01*
X125156790Y-74324276D01*
X125131924Y-74349213D01*
X125108335Y-74372874D01*
X125086060Y-74395222D01*
X125065135Y-74416222D01*
X125045598Y-74435835D01*
X125027485Y-74454024D01*
X125010833Y-74470753D01*
X124995681Y-74485983D01*
X124982064Y-74499679D01*
X124970020Y-74511802D01*
X124959586Y-74522316D01*
X124950799Y-74531184D01*
X124943695Y-74538368D01*
X124938313Y-74543831D01*
X124934689Y-74547537D01*
X124932860Y-74549447D01*
X124932711Y-74549612D01*
X124921751Y-74562308D01*
X124912134Y-74573701D01*
X124903397Y-74584361D01*
X124895076Y-74594858D01*
X124886708Y-74605760D01*
X124883553Y-74609948D01*
X124855670Y-74649286D01*
X124830020Y-74689929D01*
X124806633Y-74731805D01*
X124785536Y-74774839D01*
X124766757Y-74818957D01*
X124750325Y-74864084D01*
X124736268Y-74910149D01*
X124724614Y-74957075D01*
X124715392Y-75004789D01*
X124708629Y-75053218D01*
X124706520Y-75073846D01*
X124705605Y-75085890D01*
X124704847Y-75099941D01*
X124704253Y-75115407D01*
X124703834Y-75131698D01*
X124703598Y-75148223D01*
X124703555Y-75164391D01*
X124703714Y-75179611D01*
X124704085Y-75193291D01*
X124704496Y-75201978D01*
X124708645Y-75251230D01*
X124715272Y-75299765D01*
X124724360Y-75347534D01*
X124735890Y-75394484D01*
X124749845Y-75440567D01*
X124766207Y-75485731D01*
X124784958Y-75529927D01*
X124806080Y-75573103D01*
X124829555Y-75615210D01*
X124855366Y-75656197D01*
X124875568Y-75685236D01*
X124903035Y-75721089D01*
X124932725Y-75755965D01*
X124964354Y-75789576D01*
X124997637Y-75821633D01*
X125032289Y-75851849D01*
X125068024Y-75879934D01*
X125068107Y-75879996D01*
X125107723Y-75907859D01*
X125148603Y-75933461D01*
X125190674Y-75956774D01*
X125233866Y-75977770D01*
X125278106Y-75996421D01*
X125323324Y-76012699D01*
X125369447Y-76026575D01*
X125416405Y-76038023D01*
X125464126Y-76047014D01*
X125511137Y-76053368D01*
X125550896Y-76056741D01*
X125591816Y-76058348D01*
X125633171Y-76058198D01*
X125674237Y-76056297D01*
X125714290Y-76052651D01*
X125725123Y-76051332D01*
X125772841Y-76043890D01*
X125819856Y-76033975D01*
X125866085Y-76021637D01*
X125911442Y-76006930D01*
X125955842Y-75989905D01*
X125999202Y-75970615D01*
X126041435Y-75949111D01*
X126082458Y-75925445D01*
X126122186Y-75899670D01*
X126160534Y-75871837D01*
X126197417Y-75841999D01*
X126232751Y-75810208D01*
X126266451Y-75776516D01*
X126298432Y-75740974D01*
X126328609Y-75703635D01*
X126356898Y-75664551D01*
X126358464Y-75662254D01*
X126384331Y-75621908D01*
X126407866Y-75580509D01*
X126429067Y-75538155D01*
X126447930Y-75494946D01*
X126464452Y-75450982D01*
X126478631Y-75406360D01*
X126490463Y-75361182D01*
X126499946Y-75315545D01*
X126507076Y-75269551D01*
X126511852Y-75223296D01*
X126514269Y-75176882D01*
X126514324Y-75130408D01*
X126512016Y-75083972D01*
X126507341Y-75037674D01*
X126500296Y-74991614D01*
X126490878Y-74945890D01*
X126479085Y-74900602D01*
X126464912Y-74855850D01*
X126448359Y-74811732D01*
X126429420Y-74768349D01*
X126408094Y-74725798D01*
X126387131Y-74688754D01*
X126369020Y-74659612D01*
X126350269Y-74631796D01*
X126330427Y-74604688D01*
X126309044Y-74577670D01*
X126289191Y-74554165D01*
X126287130Y-74551929D01*
X126283307Y-74547933D01*
X126277801Y-74542258D01*
X126270690Y-74534982D01*
X126262054Y-74526184D01*
X126251970Y-74515945D01*
X126240518Y-74504343D01*
X126227777Y-74491458D01*
X126213825Y-74477369D01*
X126198740Y-74462156D01*
X126182602Y-74445898D01*
X126165490Y-74428673D01*
X126147481Y-74410563D01*
X126128655Y-74391646D01*
X126109090Y-74372000D01*
X126088865Y-74351707D01*
X126068059Y-74330845D01*
X126046751Y-74309493D01*
X126025018Y-74287731D01*
X126016977Y-74279683D01*
X125758308Y-74020810D01*
X126133603Y-73645528D01*
X126508898Y-73270246D01*
X126772059Y-73533664D01*
X126799294Y-73560929D01*
X126824759Y-73586428D01*
X126848526Y-73610235D01*
X126870665Y-73632424D01*
X126891249Y-73653065D01*
X126910349Y-73672234D01*
X126928036Y-73690001D01*
X126944381Y-73706442D01*
X126959456Y-73721627D01*
X126973333Y-73735631D01*
X126986082Y-73748526D01*
X126997776Y-73760385D01*
X127008485Y-73771282D01*
X127018281Y-73781288D01*
X127027236Y-73790476D01*
X127035420Y-73798921D01*
X127042906Y-73806694D01*
X127049764Y-73813869D01*
X127056066Y-73820519D01*
X127061884Y-73826715D01*
X127067288Y-73832532D01*
X127072351Y-73838043D01*
X127077144Y-73843319D01*
X127081737Y-73848435D01*
X127086204Y-73853462D01*
X127090614Y-73858475D01*
X127094368Y-73862774D01*
X127140357Y-73917559D01*
X127184184Y-73973789D01*
X127225837Y-74031443D01*
X127265304Y-74090499D01*
X127302572Y-74150936D01*
X127337627Y-74212732D01*
X127370459Y-74275866D01*
X127401053Y-74340316D01*
X127429397Y-74406061D01*
X127455479Y-74473078D01*
X127460284Y-74486250D01*
X127483001Y-74552872D01*
X127503208Y-74619938D01*
X127520932Y-74687565D01*
X127536202Y-74755870D01*
X127549044Y-74824973D01*
X127559486Y-74894991D01*
X127564441Y-74935958D01*
X127569814Y-74992781D01*
X127573537Y-75051056D01*
X127575600Y-75110219D01*
X127575991Y-75169701D01*
X127574703Y-75228937D01*
X127571723Y-75287361D01*
X127570924Y-75298890D01*
X127564507Y-75369549D01*
X127555542Y-75439782D01*
X127544055Y-75509521D01*
X127530076Y-75578697D01*
X127513632Y-75647242D01*
X127494750Y-75715090D01*
X127473460Y-75782172D01*
X127449788Y-75848419D01*
X127423764Y-75913765D01*
X127395414Y-75978142D01*
X127364767Y-76041480D01*
X127331850Y-76103714D01*
X127296692Y-76164774D01*
X127259321Y-76224592D01*
X127219764Y-76283102D01*
X127178050Y-76340235D01*
X127134206Y-76395923D01*
X127104622Y-76431262D01*
X127093730Y-76443891D01*
X127083504Y-76455575D01*
X127073641Y-76466639D01*
X127063841Y-76477403D01*
X127053801Y-76488192D01*
X127043219Y-76499328D01*
X127031794Y-76511133D01*
X127019223Y-76523930D01*
X127005205Y-76538043D01*
X126998098Y-76545155D01*
X126975553Y-76567461D01*
X126954231Y-76588077D01*
X126933741Y-76607354D01*
X126913688Y-76625643D01*
X126893682Y-76643293D01*
X126873329Y-76660654D01*
X126852237Y-76678077D01*
X126830015Y-76695911D01*
X126822373Y-76701941D01*
X126766064Y-76744556D01*
X126708293Y-76785048D01*
X126649137Y-76823389D01*
X126588674Y-76859547D01*
X126526982Y-76893491D01*
X126464139Y-76925192D01*
X126400222Y-76954620D01*
X126335310Y-76981743D01*
X126269480Y-77006532D01*
X126202810Y-77028956D01*
X126135378Y-77048985D01*
X126067262Y-77066588D01*
X125998540Y-77081735D01*
X125929289Y-77094396D01*
X125859587Y-77104540D01*
X125789513Y-77112137D01*
X125765449Y-77114148D01*
X125751017Y-77115240D01*
X125738081Y-77116160D01*
X125726187Y-77116928D01*
X125714883Y-77117563D01*
X125703713Y-77118083D01*
X125692226Y-77118508D01*
X125679966Y-77118855D01*
X125666480Y-77119145D01*
X125651314Y-77119395D01*
X125634015Y-77119624D01*
X125633415Y-77119632D01*
X125567176Y-77119457D01*
X125502327Y-77117280D01*
X125438552Y-77113065D01*
X125375536Y-77106776D01*
X125312965Y-77098376D01*
X125250522Y-77087828D01*
X125187893Y-77075097D01*
X125129994Y-77061462D01*
X125066182Y-77044394D01*
X125003882Y-77025510D01*
X124942724Y-77004676D01*
X124882340Y-76981754D01*
X124822358Y-76956610D01*
X124762411Y-76929106D01*
X124736493Y-76916490D01*
X124679176Y-76887046D01*
X124623919Y-76856446D01*
X124570346Y-76824450D01*
X124518084Y-76790819D01*
X124466756Y-76755315D01*
X124415989Y-76717698D01*
X124377464Y-76687479D01*
X124334469Y-76651826D01*
X124291539Y-76614015D01*
X124249105Y-76574464D01*
X124207598Y-76533590D01*
X124167447Y-76491811D01*
X124129085Y-76449545D01*
X124112077Y-76429961D01*
X124067019Y-76375328D01*
X124024052Y-76319179D01*
X123983203Y-76261586D01*
X123944504Y-76202620D01*
X123907985Y-76142353D01*
X123873676Y-76080857D01*
X123841606Y-76018203D01*
X123811806Y-75954463D01*
X123784306Y-75889709D01*
X123759135Y-75824012D01*
X123736324Y-75757445D01*
X123715904Y-75690077D01*
X123697903Y-75621982D01*
X123682352Y-75553231D01*
X123669281Y-75483895D01*
X123658720Y-75414046D01*
X123650700Y-75343756D01*
X123649046Y-75325557D01*
X123645813Y-75281415D01*
X123643546Y-75235719D01*
X123642250Y-75189142D01*
X123641931Y-75142361D01*
X123642594Y-75096050D01*
X123644246Y-75050884D01*
X123646469Y-75013358D01*
X123652815Y-74941851D01*
X123661705Y-74870880D01*
X123673129Y-74800478D01*
X123687078Y-74730676D01*
X123703543Y-74661506D01*
X123722516Y-74593000D01*
X123743986Y-74525190D01*
X123767946Y-74458107D01*
X123794387Y-74391784D01*
X123823298Y-74326252D01*
X123854672Y-74261544D01*
X123864058Y-74243267D01*
X123894157Y-74187562D01*
X123925820Y-74133262D01*
X123959197Y-74080152D01*
X123994439Y-74028013D01*
X124031698Y-73976628D01*
X124071124Y-73925782D01*
X124112870Y-73875256D01*
X124150767Y-73831866D01*
X124152453Y-73830090D01*
X124155941Y-73826511D01*
X124161194Y-73821168D01*
X124168175Y-73814097D01*
X124176847Y-73805337D01*
X124187171Y-73794924D01*
X124199112Y-73782895D01*
X124212630Y-73769290D01*
X124227690Y-73754144D01*
X124244254Y-73737495D01*
X124262284Y-73719380D01*
X124281743Y-73699838D01*
X124302594Y-73678905D01*
X124324799Y-73656619D01*
X124348322Y-73633017D01*
X124373124Y-73608137D01*
X124399169Y-73582016D01*
X124426419Y-73554692D01*
X124454837Y-73526201D01*
X124484385Y-73496582D01*
X124515026Y-73465871D01*
X124546724Y-73434107D01*
X124579439Y-73401326D01*
X124613136Y-73367566D01*
X124647777Y-73332865D01*
X124683324Y-73297259D01*
X124719741Y-73260787D01*
X124756989Y-73223485D01*
X124795032Y-73185391D01*
X124833832Y-73146543D01*
X124873352Y-73106978D01*
X124913555Y-73066733D01*
X124954403Y-73025846D01*
X124995859Y-72984355D01*
X125037885Y-72942295D01*
X125080444Y-72899706D01*
X125123500Y-72856624D01*
X125167014Y-72813087D01*
X125210949Y-72769132D01*
X125217807Y-72762272D01*
X125261776Y-72718284D01*
X125305322Y-72674718D01*
X125348408Y-72631609D01*
X125390996Y-72588996D01*
X125433050Y-72546914D01*
X125474532Y-72505403D01*
X125515405Y-72464498D01*
X125555633Y-72424237D01*
X125595177Y-72384657D01*
X125634002Y-72345795D01*
X125672069Y-72307689D01*
X125709342Y-72270375D01*
X125745783Y-72233891D01*
X125781357Y-72198274D01*
X125816024Y-72163561D01*
X125849749Y-72129789D01*
X125882494Y-72096995D01*
X125914223Y-72065217D01*
X125944897Y-72034491D01*
X125974481Y-72004856D01*
X126002936Y-71976347D01*
X126030226Y-71949003D01*
X126056314Y-71922860D01*
X126081162Y-71897955D01*
X126104733Y-71874327D01*
X126126991Y-71852011D01*
X126147899Y-71831045D01*
X126167418Y-71811466D01*
X126185513Y-71793311D01*
X126202145Y-71776618D01*
X126217278Y-71761424D01*
X126230875Y-71747766D01*
X126242899Y-71735680D01*
X126253312Y-71725205D01*
X126262078Y-71716377D01*
X126269159Y-71709233D01*
X126274519Y-71703812D01*
X126278119Y-71700149D01*
X126279924Y-71698282D01*
X126280053Y-71698141D01*
X126312310Y-71660488D01*
X126342246Y-71621671D01*
X126369855Y-71581699D01*
X126395134Y-71540582D01*
X126418074Y-71498330D01*
X126438673Y-71454953D01*
X126456923Y-71410461D01*
X126472819Y-71364864D01*
X126480226Y-71340465D01*
X126492458Y-71293410D01*
X126502141Y-71245954D01*
X126509278Y-71198194D01*
X126513870Y-71150229D01*
X126515919Y-71102156D01*
X126515426Y-71054072D01*
X126512393Y-71006077D01*
X126506822Y-70958267D01*
X126498713Y-70910740D01*
X126488070Y-70863594D01*
X126474892Y-70816928D01*
X126471569Y-70806475D01*
X126455460Y-70761025D01*
X126437007Y-70716661D01*
X126416264Y-70673458D01*
X126393285Y-70631489D01*
X126368124Y-70590830D01*
X126340834Y-70551555D01*
X126311469Y-70513740D01*
X126280083Y-70477460D01*
X126246729Y-70442789D01*
X126211462Y-70409802D01*
X126174335Y-70378573D01*
X126151795Y-70361166D01*
X126112555Y-70333429D01*
X126071954Y-70307894D01*
X126030072Y-70284596D01*
X125986986Y-70263570D01*
X125942777Y-70244851D01*
X125897524Y-70228474D01*
X125851304Y-70214473D01*
X125804199Y-70202885D01*
X125785644Y-70199035D01*
X125737898Y-70190950D01*
X125689967Y-70185437D01*
X125641952Y-70182480D01*
X125593954Y-70182067D01*
X125546074Y-70184183D01*
X125498414Y-70188816D01*
X125451073Y-70195950D01*
X125404153Y-70205574D01*
X125357755Y-70217672D01*
X125311979Y-70232232D01*
X125266927Y-70249240D01*
X125222700Y-70268682D01*
X125203935Y-70277800D01*
X125162381Y-70300007D01*
X125122040Y-70324417D01*
X125083012Y-70350926D01*
X125045399Y-70379429D01*
X125009303Y-70409824D01*
X124974825Y-70442005D01*
X124942067Y-70475869D01*
X124911131Y-70511311D01*
X124882117Y-70548228D01*
X124855127Y-70586515D01*
X124830264Y-70626069D01*
X124807627Y-70666785D01*
X124790597Y-70701402D01*
X124770920Y-70746782D01*
X124753820Y-70792485D01*
X124739291Y-70838547D01*
X124727324Y-70885005D01*
X124717912Y-70931897D01*
X124711046Y-70979260D01*
X124706719Y-71027130D01*
X124704923Y-71075546D01*
X124705059Y-71105015D01*
X124706505Y-71143474D01*
X124709312Y-71180312D01*
X124713570Y-71216179D01*
X124719366Y-71251722D01*
X124726790Y-71287589D01*
X124733815Y-71316400D01*
X124746840Y-71361658D01*
X124762261Y-71406236D01*
X124779993Y-71449983D01*
X124799951Y-71492751D01*
X124822054Y-71534390D01*
X124846215Y-71574750D01*
X124872352Y-71613682D01*
X124900379Y-71651037D01*
X124930215Y-71686664D01*
X124959426Y-71718031D01*
X124963573Y-71722358D01*
X124966812Y-71725928D01*
X124968840Y-71728394D01*
X124969355Y-71729406D01*
X124969315Y-71729413D01*
X124970113Y-71730320D01*
X124972676Y-71732990D01*
X124976930Y-71737348D01*
X124982800Y-71743319D01*
X124990212Y-71750828D01*
X124999090Y-71759799D01*
X125009359Y-71770157D01*
X125020945Y-71781826D01*
X125033773Y-71794733D01*
X125047767Y-71808800D01*
X125062854Y-71823954D01*
X125078957Y-71840118D01*
X125096003Y-71857218D01*
X125113916Y-71875178D01*
X125132622Y-71893922D01*
X125152046Y-71913377D01*
X125172112Y-71933466D01*
X125192746Y-71954114D01*
X125213873Y-71975246D01*
X125213897Y-71975270D01*
X125459752Y-72221127D01*
X125084465Y-72596416D01*
X124709177Y-72971705D01*
X124463645Y-72726175D01*
X124442515Y-72705042D01*
X124421870Y-72684385D01*
X124401785Y-72664281D01*
X124382335Y-72644805D01*
X124363595Y-72626033D01*
X124345642Y-72608041D01*
X124328551Y-72590904D01*
X124312396Y-72574699D01*
X124297254Y-72559501D01*
X124283200Y-72545385D01*
X124270309Y-72532428D01*
X124258657Y-72520706D01*
X124248319Y-72510293D01*
X124239370Y-72501267D01*
X124231887Y-72493701D01*
X124225944Y-72487674D01*
X124221617Y-72483259D01*
X124218981Y-72480533D01*
X124218112Y-72479573D01*
X124217248Y-72478392D01*
X124214805Y-72475584D01*
X124211010Y-72471394D01*
X124206091Y-72466070D01*
X124200272Y-72459859D01*
X124193780Y-72453007D01*
X124192421Y-72451580D01*
X124161465Y-72418564D01*
X124132466Y-72386419D01*
X124105094Y-72354774D01*
X124079022Y-72323253D01*
X124074300Y-72317388D01*
X124030704Y-72260933D01*
X123989282Y-72203073D01*
X123950060Y-72143872D01*
X123913065Y-72083392D01*
X123878323Y-72021695D01*
X123845859Y-71958845D01*
X123815700Y-71894905D01*
X123787871Y-71829937D01*
X123762400Y-71764003D01*
X123739310Y-71697167D01*
X123718630Y-71629492D01*
X123700385Y-71561040D01*
X123684600Y-71491874D01*
X123671302Y-71422057D01*
X123660517Y-71351651D01*
X123654910Y-71305993D01*
X123650756Y-71264687D01*
X123647556Y-71223973D01*
X123645279Y-71183216D01*
X123643896Y-71141783D01*
X123643377Y-71099038D01*
X123643582Y-71062088D01*
X123643827Y-71044758D01*
X123644093Y-71029558D01*
X123644402Y-71016013D01*
X123644772Y-71003650D01*
X123645226Y-70991998D01*
X123645781Y-70980582D01*
X123646458Y-70968929D01*
X123647278Y-70956567D01*
X123648260Y-70943023D01*
X123649049Y-70932655D01*
X123655820Y-70861769D01*
X123665148Y-70791318D01*
X123677016Y-70721357D01*
X123691407Y-70651938D01*
X123708306Y-70583116D01*
X123727696Y-70514944D01*
X123749559Y-70447475D01*
X123773880Y-70380763D01*
X123800642Y-70314861D01*
X123829828Y-70249822D01*
X123861421Y-70185701D01*
X123895406Y-70122551D01*
X123905562Y-70104677D01*
X123941464Y-70044836D01*
X123979616Y-69986233D01*
X124019938Y-69928949D01*
X124062353Y-69873063D01*
X124106779Y-69818653D01*
X124153140Y-69765800D01*
X124201355Y-69714583D01*
X124251345Y-69665081D01*
X124303031Y-69617373D01*
X124356335Y-69571539D01*
X124411177Y-69527658D01*
X124467479Y-69485809D01*
X124525160Y-69446072D01*
X124584142Y-69408527D01*
X124621413Y-69386335D01*
X124684111Y-69351467D01*
X124747784Y-69318998D01*
X124812379Y-69288941D01*
X124877840Y-69261308D01*
X124944112Y-69236108D01*
X125011142Y-69213355D01*
X125078874Y-69193059D01*
X125147254Y-69175232D01*
X125216226Y-69159885D01*
X125285737Y-69147030D01*
X125355731Y-69136677D01*
X125426154Y-69128839D01*
X125496951Y-69123527D01*
X125568068Y-69120752D01*
X125639450Y-69120526D01*
X125711041Y-69122859D01*
G37*
%TD*%
M02*
