%TF.GenerationSoftware,KiCad,Pcbnew,8.0.7*%
%TF.CreationDate,2025-04-27T20:59:50+03:00*%
%TF.ProjectId,data_logger_atmega_eeprom,64617461-5f6c-46f6-9767-65725f61746d,rev?*%
%TF.SameCoordinates,Original*%
%TF.FileFunction,Plated,1,2,PTH,Drill*%
%TF.FilePolarity,Positive*%
%FSLAX46Y46*%
G04 Gerber Fmt 4.6, Leading zero omitted, Abs format (unit mm)*
G04 Created by KiCad (PCBNEW 8.0.7) date 2025-04-27 20:59:50*
%MOMM*%
%LPD*%
G01*
G04 APERTURE LIST*
%TA.AperFunction,ViaDrill*%
%ADD10C,0.300000*%
%TD*%
%TA.AperFunction,ComponentDrill*%
%ADD11C,0.800000*%
%TD*%
%TA.AperFunction,ComponentDrill*%
%ADD12C,0.900000*%
%TD*%
%TA.AperFunction,ComponentDrill*%
%ADD13C,1.000000*%
%TD*%
%TA.AperFunction,ComponentDrill*%
%ADD14C,1.100000*%
%TD*%
%TA.AperFunction,ComponentDrill*%
%ADD15C,1.300000*%
%TD*%
%TA.AperFunction,ComponentDrill*%
%ADD16C,2.200000*%
%TD*%
G04 APERTURE END LIST*
D10*
X133480000Y-68590000D03*
X135060000Y-74320000D03*
X143780000Y-64760000D03*
X143780000Y-72290000D03*
X144270000Y-77380000D03*
X145280000Y-68500000D03*
X145540000Y-81100000D03*
X150390000Y-73470000D03*
X150460000Y-75970000D03*
X151600000Y-69000000D03*
X151600000Y-73530000D03*
X151600000Y-76070000D03*
X151690000Y-65820000D03*
X152660000Y-73530000D03*
X152680000Y-75960000D03*
X153490000Y-54930000D03*
X153500000Y-73380000D03*
X153500000Y-76180000D03*
X153540000Y-62760000D03*
X155890000Y-55160000D03*
X157410000Y-56740000D03*
X158060000Y-75130000D03*
X158185735Y-67634265D03*
X159000000Y-64420000D03*
X159059265Y-89839265D03*
X159240000Y-72040000D03*
X160210000Y-89370000D03*
X161320000Y-70594643D03*
X161535735Y-66244265D03*
X162430000Y-78150000D03*
X164020000Y-71440000D03*
X164490000Y-59038530D03*
X165420000Y-54840000D03*
X165760000Y-56071470D03*
X165930000Y-70790000D03*
X167490000Y-77170000D03*
X167630000Y-70190000D03*
X168570000Y-89010000D03*
X172880000Y-90580000D03*
X175290000Y-89720000D03*
D11*
%TO.C,U1*%
X147890000Y-58740000D03*
X147890000Y-61280000D03*
X147890000Y-63820000D03*
X147890000Y-66360000D03*
X147890000Y-68900000D03*
X147890000Y-71440000D03*
X147890000Y-73980000D03*
X147890000Y-76520000D03*
X147890000Y-79060000D03*
X147890000Y-81600000D03*
X147890000Y-84140000D03*
X147890000Y-86680000D03*
X147890000Y-89220000D03*
X147890000Y-91760000D03*
X155510000Y-58740000D03*
X155510000Y-61280000D03*
X155510000Y-63820000D03*
X155510000Y-66360000D03*
X155510000Y-68900000D03*
X155510000Y-71440000D03*
X155510000Y-73980000D03*
X155510000Y-76520000D03*
X155510000Y-79060000D03*
X155510000Y-81600000D03*
X155510000Y-84140000D03*
X155510000Y-86680000D03*
X155510000Y-89220000D03*
X155510000Y-91760000D03*
%TO.C,U2*%
X161820000Y-73410000D03*
X161820000Y-81030000D03*
%TO.C,U3*%
X161950000Y-60730000D03*
X161950000Y-68350000D03*
%TO.C,U2*%
X164360000Y-73410000D03*
X164360000Y-81030000D03*
%TO.C,U3*%
X164490000Y-60730000D03*
X164490000Y-68350000D03*
%TO.C,U2*%
X166900000Y-73410000D03*
X166900000Y-81030000D03*
%TO.C,U3*%
X167030000Y-60730000D03*
X167030000Y-68350000D03*
%TO.C,U2*%
X169440000Y-73410000D03*
X169440000Y-81030000D03*
%TO.C,U3*%
X169570000Y-60730000D03*
X169570000Y-68350000D03*
D12*
%TO.C,D1*%
X129010000Y-63030000D03*
X136630000Y-63030000D03*
D13*
%TO.C,J5*%
X130310000Y-69120000D03*
X130310000Y-71660000D03*
X130310000Y-74200000D03*
X130310000Y-76740000D03*
X130310000Y-79280000D03*
X130310000Y-81820000D03*
X130310000Y-84360000D03*
X130310000Y-86900000D03*
%TO.C,J1*%
X152290000Y-50990000D03*
X154830000Y-50990000D03*
X157370000Y-50990000D03*
X159910000Y-50990000D03*
%TO.C,J3*%
X159930000Y-95150000D03*
X162470000Y-95150000D03*
X165010000Y-95150000D03*
%TO.C,J2*%
X167110000Y-50940000D03*
%TO.C,J3*%
X167550000Y-95150000D03*
%TO.C,J2*%
X169650000Y-50940000D03*
%TO.C,J3*%
X170090000Y-95150000D03*
%TO.C,J2*%
X172190000Y-50940000D03*
%TO.C,J3*%
X172630000Y-95150000D03*
%TO.C,J2*%
X174730000Y-50940000D03*
X177270000Y-50940000D03*
%TO.C,J6*%
X179150000Y-55405000D03*
X179150000Y-57945000D03*
X179150000Y-60485000D03*
X179150000Y-63025000D03*
X179150000Y-65565000D03*
X179150000Y-68105000D03*
X179150000Y-70645000D03*
X179150000Y-73185000D03*
%TO.C,J4*%
X179430000Y-79610000D03*
X179430000Y-82150000D03*
X179430000Y-84690000D03*
X179430000Y-87230000D03*
X179430000Y-89770000D03*
X179430000Y-92310000D03*
D14*
%TO.C,SW1*%
X141230000Y-50200000D03*
X141230000Y-54700000D03*
X147730000Y-50200000D03*
X147730000Y-54700000D03*
D15*
%TO.C,J7*%
X130815000Y-54025000D03*
X135895000Y-54025000D03*
D16*
%TO.C,H2*%
X127180000Y-95810000D03*
%TO.C,H1*%
X182960000Y-49250000D03*
M02*
